<?xml version="1.0" encoding="UTF-8"?>
<svg width="95px" height="20px" viewBox="0 0 95 20" version="1.1" xmlns="http://www.w3.org/2000/svg" xmlns:xlink="http://www.w3.org/1999/xlink">
    <!-- Generator: Sketch 52.6 (67491) - http://www.bohemiancoding.com/sketch -->
    <title>dentsu</title>
    <desc>Created with Sketch.</desc>
    <g id="Page-1" stroke="none" stroke-width="1" fill="none" fill-rule="evenodd">
        <g id="agency" transform="translate(-540.000000, -40.000000)" fill="#8B909F">
            <g id="Group-2" transform="translate(230.000000, 34.000000)">
                <g id="dentsu" transform="translate(310.000000, 6.000000)">
                    <path d="M10.0194189,6.84530245 C10.0194189,7.01801802 10.0194189,15.3824968 10.0194189,15.4316602 C9.44941892,15.8185328 8.57259459,16.1034749 7.58510811,16.1310167 C6.61713514,16.1526384 5.76855405,15.8447876 5.21010811,15.3124839 C4.45575676,14.593565 4.08191892,13.3737452 4.08191892,11.6666667 C4.08191892,10.0087516 4.5487027,7.1992278 7.64441892,6.97915058 C8.06960811,6.94980695 9.20062162,6.87670528 10.0194189,6.84530245 Z M24.5218108,6.68159588 C24.6245135,6.67387387 24.7408243,6.68159588 24.8484054,6.68159588 C26.4492838,6.68159588 27.5381892,7.8020592 27.6539865,9.22625483 C27.4775946,9.22625483 21.8525676,9.22625483 21.6273919,9.22625483 C22.031527,7.76962677 22.9838378,6.7969112 24.5218108,6.68159588 Z M81.1656892,3.43758044 L81.1656892,13.6458172 C81.1656892,17.9240669 83.1380946,20 87.1922838,20 C88.5813378,20 90.1054459,19.4797941 90.6952162,19.2558559 L90.725,19.6280566 L95,19.6280566 L95,3.43758044 L90.6952162,3.43758044 L90.6952162,15.5505792 C89.7762838,16.1379665 88.3374189,16.3812098 87.1773919,16.1160875 C86.0253243,15.8429858 85.4553243,15.1117117 85.4553243,13.0059202 L85.4553243,3.43758044 L81.1656892,3.43758044 Z M43.1210135,3.05070785 C41.7319595,3.05070785 40.1891081,3.56164736 39.6031892,3.77966538 L39.5882973,3.43758044 L35.3132973,3.43758044 L35.3132973,19.6280566 L39.6031892,19.6280566 L39.6031892,7.5001287 C40.525973,6.92046332 41.9799865,6.66537967 43.1359054,6.93462033 C44.2920811,7.20746461 44.8577162,7.94285714 44.8577162,10.0445302 L44.8577162,19.6280566 L49.1476081,19.6280566 L49.1476081,9.4048906 C49.1476081,5.13050193 47.1752027,3.05070785 43.1210135,3.05070785 Z M71.8140946,3.03577864 C69.9703243,3.06512227 68.3604595,3.54851995 67.1827162,4.43449163 C65.9425811,5.36370656 65.2513919,6.7045045 65.1789865,8.3034749 C65.0534324,10.9848134 66.7341622,12.5879022 70.6117027,13.3482625 C71.4227973,13.5093951 72.5889865,13.7521236 73.0906892,13.9583012 C73.5921351,14.166538 73.8922838,14.4947233 73.8922838,14.8661519 C73.8981892,15.2314028 73.6388649,15.5791506 73.2390946,15.7441441 C72.5081081,16.0525097 71.3403784,15.9992278 70.5819189,15.9225225 C68.3581486,15.7006435 66.2555676,14.9101673 65.4757973,14.5683398 L65.4757973,18.5863578 C66.7906486,19.2483912 68.8521486,20.0223938 71.3093108,19.9850708 C74.1192568,19.9341055 77.6103784,19.0826255 78.2414865,15.3719434 C78.4746216,13.9951094 78.2176081,12.7528958 77.5140946,11.7709138 C76.6539595,10.5783784 75.3421892,9.96061776 72.9125,9.50888031 C71.9013919,9.32046332 70.709527,9.0993565 70.0180811,8.72020592 C69.6848108,8.53564994 69.5053378,8.27773488 69.5132973,7.99099099 C69.5171486,7.70630631 69.7210135,7.45971686 70.0031892,7.30656371 C70.6301892,6.97271557 71.7709595,6.78404118 73.4914865,7.0983269 C75.1491081,7.4007722 76.9805541,8.04324324 77.5585135,8.28880309 L77.5585135,4.37503218 C75.5678784,3.38893179 73.8047297,3.0002574 71.8140946,3.03577864 Z M24.8484054,3.00592021 C22.3755811,3.00592021 20.3279459,3.92432432 18.9406892,5.65482625 C17.7141622,7.19279279 17.0406892,9.34749035 17.0406892,11.7261261 C17.0406892,15.6980695 19.2680541,19.9405405 25.5460135,19.9405405 C27.9443784,19.9405405 30.2967838,19.2056628 31.6468108,18.5415701 L31.6468108,14.5683398 C30.9004189,14.9830116 28.593973,16.2118404 25.4569189,16.1606178 C23.1645946,16.1194337 21.9203514,14.8888031 21.5382973,12.7083655 C21.7439595,12.7083655 31.8992027,12.7083655 31.8992027,12.7083655 L31.8992027,12.5446589 C31.9148649,11.0792793 31.8979189,9.84066924 31.8547838,9.3006435 C31.6902027,7.46203346 31.0241757,5.91660232 29.925,4.83629344 C28.7002703,3.62625483 26.9920676,3.00592021 24.8484054,3.00592021 Z M52.7694189,0 L52.7694189,14.047619 C52.7694189,15.9804376 53.1083378,17.3341055 53.8234054,18.2888031 C54.6699324,19.4162162 56.0343378,19.9701416 58.0093108,19.9701416 C59.6004324,19.9701416 61.1404595,19.6151866 62.0319189,19.3302445 L62.0319189,15.4612613 C61.4793784,15.6028314 59.7837568,15.9673102 58.7960135,15.9673102 C58.1690135,15.9673102 57.730473,15.8326898 57.4601081,15.5655084 C57.0662432,15.1685972 57.0742027,14.4844273 57.0742027,13.824453 L57.0742027,6.99407979 C58.7652027,6.99407979 60.8564865,7.12123552 62.0319189,7.24710425 L62.0319189,3.43758044 C62.0319189,3.43758044 57.2387838,3.43758044 57.0742027,3.43758044 C57.0742027,3.27258687 57.0742027,0 57.0742027,0 L52.7694189,0 Z M10.0194189,0 L10.0194189,3.43758044 L7.82260811,3.43758044 C1.3507973,3.43758044 0,8.28931789 0,11.785843 C0,14.3392535 0.774121622,16.5585586 2.16728378,18.0357786 C3.37224324,19.2947233 4.98159459,19.9701416 6.84308108,19.9701416 C8.08527027,19.9701416 9.13977027,19.7364221 10.0194189,19.2707851 L10.0343108,19.6280566 L14.3093108,19.6280566 L14.3093108,0 L10.0194189,0 Z" id="Fill-1"></path>
                </g>
            </g>
        </g>
    </g>
</svg>