<?xml version="1.0" encoding="UTF-8"?>
<svg width="160px" height="23px" viewBox="0 0 160 23" version="1.1" xmlns="http://www.w3.org/2000/svg" xmlns:xlink="http://www.w3.org/1999/xlink">
    <!-- Generator: Sketch 52.6 (67491) - http://www.bohemiancoding.com/sketch -->
    <title>ipg</title>
    <desc>Created with Sketch.</desc>
    <g id="Page-1" stroke="none" stroke-width="1" fill="none" fill-rule="evenodd">
        <g id="agency" transform="translate(-349.000000, -39.000000)">
            <g id="Group-2" transform="translate(230.000000, 34.000000)">
                <g id="ipg" transform="translate(119.000000, 5.000000)">
                    <polygon id="Fill-1" fill="#8B909F" points="30.3712698 22.4390244 159.955556 22.4390244 159.955556 0.042349708 30.3712698 0.042349708"></polygon>
                    <polygon id="Fill-2" fill="#8B909F" points="0 18.8532051 3.69047619 18.8532051 3.69047619 3.63496393 0 3.63496393"></polygon>
                    <path d="M10.3596825,6.59154243 L9.11507937,6.59154243 L9.11507937,10.3744143 L10.2942857,10.3744143 C11.342381,10.3744143 11.8011111,9.83082102 11.8011111,8.46125043 C11.8011111,7.11332875 11.3861905,6.59154243 10.3596825,6.59154243 Z M10.4252381,13.3311508 L9.11507937,13.3311508 L9.11507937,18.8532051 L5.53349206,18.8532051 L5.53349206,3.63496393 L10.6873016,3.63496393 C13.4171429,3.63496393 15.4260317,4.85236001 15.4260317,8.37433872 C15.4260317,11.9832291 13.3515873,13.3311508 10.4252381,13.3311508 Z" id="Fill-3" fill="#8B909F"></path>
                    <path d="M22.0420635,19.0922913 C18.591746,19.0922913 16.6044444,16.5269735 16.6044444,11.2440055 C16.6044444,6.17847475 18.4168254,3.39571968 22.107619,3.39571968 C25.3177778,3.39571968 26.4314286,5.06979732 27.0866667,7.9394641 L23.5925397,8.9395809 C23.2649206,7.2873102 23.0028571,6.52643765 22.0857143,6.52643765 C20.7971429,6.52643765 20.382381,7.74383373 20.382381,11.2440055 C20.382381,15.0050704 20.9284127,16.0268361 22.2604762,16.0268361 C23.4396825,16.0268361 23.7890476,15.3312264 23.8763492,14.1136723 L23.8763492,13.4833253 L22.107619,13.4833253 L22.107619,10.7005703 L27.3268254,10.7005703 L27.3268254,13.0919066 C27.3268254,16.7878667 25.6233333,19.0922913 22.0420635,19.0922913" id="Fill-4" fill="#8B909F"></path>
                    <path d="M42.5703175,3.63053933 L39.777619,11.0820337 L36.9847619,3.63053933 L33.6779365,3.63053933 L33.6779365,18.8508348 L36.9847619,18.8508348 L36.9847619,10.8933562 L39.777619,18.3416901 L42.5703175,11.1123738 L42.5703175,18.8508348 L45.8771429,18.8508348 L45.8771429,3.63053933 L42.5703175,3.63053933 Z M152.488889,19.089921 C150.108413,19.089921 148.732698,18.1116111 147.46619,16.4376915 L149.955556,14.1983717 C150.982063,15.4159258 151.811746,16.0464308 152.554286,16.0464308 C153.318571,16.0464308 153.864603,15.655012 153.864603,14.8288767 C153.864603,13.9809344 153.624286,13.4591481 151.899206,12.6982755 C148.86381,11.3721608 147.750159,10.2198695 147.750159,7.82853315 C147.750159,5.3501271 149.56254,3.39334936 152.488889,3.39334936 C154.84746,3.39334936 156.026667,4.24129165 157.293175,5.80665064 L154.76,8.06761937 C153.711746,6.82841635 153.340635,6.43715562 152.379683,6.43715562 C151.680794,6.43715562 151.287619,6.95894194 151.287619,7.52402611 C151.287619,8.32851254 151.680794,8.78503607 153.231429,9.45899691 C156.310476,10.8069186 157.446032,12.0677705 157.446032,14.6114394 C157.446032,17.4594572 155.327778,19.089921 152.488889,19.089921 Z M140.500476,6.6544349 L139.845397,6.6544349 L139.845397,15.8506424 L140.413333,15.8506424 C142.116508,15.8506424 142.793492,15.046314 142.793492,11.1981793 C142.793492,7.48072827 142.20381,6.6544349 140.500476,6.6544349 Z M140.304127,18.8508348 L136.198413,18.8508348 L136.198413,3.63259361 L140.631587,3.63259361 C144.584127,3.63259361 146.527778,5.93701821 146.527778,11.1330745 C146.527778,16.6115149 144.453175,18.8508348 140.304127,18.8508348 Z M131.242063,18.8508348 L128.992857,14.4810718 C128.14127,12.8286431 127.333175,11.1765304 127.02746,10.3067812 C127.114762,11.1765304 127.136508,13.1113432 127.136508,14.5463346 L127.136508,18.8508348 L123.707937,18.8508348 L123.707937,3.63259361 L126.896349,3.63259361 L128.84,7.11111645 C129.713492,8.67631742 130.586984,10.5460254 130.870952,11.3721608 C130.783492,10.5460254 130.739841,8.43723119 130.739841,7.04585366 L130.739841,3.63259361 L134.168413,3.63259361 L134.168413,18.8508348 L131.242063,18.8508348 Z M117.397778,12.5679079 C117.048413,10.5676743 116.720952,8.91540364 116.567937,7.52402611 C116.436984,8.91540364 116.131111,10.5676743 115.76,12.5895569 L115.672698,13.0678873 L117.485238,13.0678873 L117.397778,12.5679079 Z M118.664444,18.8508348 L118.096667,16.0246238 L115.083016,16.0246238 L114.537143,18.8508348 L110.780952,18.8508348 L114.733492,3.63259361 L118.489683,3.63259361 L122.420635,18.8508348 L118.664444,18.8508348 Z M104.950794,6.52406733 L103.509683,6.52406733 L103.509683,10.2416764 L104.885238,10.2416764 C105.933492,10.2416764 106.326667,9.63297836 106.326667,8.3719684 C106.326667,7.11111645 105.955397,6.52406733 104.950794,6.52406733 Z M106.282857,18.8508348 L104.492381,13.0244315 L103.509683,13.0244315 L103.509683,18.8508348 L99.9280952,18.8508348 L99.9280952,3.63259361 L105.213016,3.63259361 C107.964444,3.63259361 109.951746,4.87179663 109.951746,8.26324974 C109.951746,10.2416764 109.187302,11.5243353 107.942698,12.2635589 L110.170159,18.8508348 L106.282857,18.8508348 Z M93.3993651,12.3504706 L91.6960317,12.3504706 L91.6960317,16.0246238 L93.4430159,16.0246238 C94.2946032,16.0246238 94.7531746,15.4375747 94.7531746,14.2418276 C94.7531746,12.9373617 94.2946032,12.3504706 93.3993651,12.3504706 Z M93.3119048,6.45880453 L91.6960317,6.45880453 L91.6960317,9.56771556 L93.3555556,9.56771556 C94.1419048,9.56771556 94.5347619,9.04592923 94.5347619,7.98070766 C94.5347619,6.93713501 94.1636508,6.45880453 93.3119048,6.45880453 Z M93.5739683,18.8508348 L88.2019048,18.8508348 L88.2019048,3.63259361 L93.6612698,3.63259361 C96.6749206,3.63259361 98.0944444,4.98051529 98.0944444,7.6545517 C98.0944444,9.3068224 97.3957143,10.1764136 96.3255556,10.7634627 C97.5703175,11.3287049 98.3347619,12.3286637 98.3347619,14.1767228 C98.3347619,17.1333013 96.8060317,18.8508348 93.5739683,18.8508348 Z M82.11,12.5679079 C81.7606349,10.5676743 81.4331746,8.91540364 81.2801587,7.52402611 C81.1492063,8.91540364 80.8433333,10.5676743 80.4722222,12.5895569 L80.3847619,13.0678873 L82.1974603,13.0678873 L82.11,12.5679079 Z M83.3766667,18.8508348 L82.8088889,16.0246238 L79.7952381,16.0246238 L79.2493651,18.8508348 L75.4931746,18.8508348 L79.4457143,3.63259361 L83.2019048,3.63259361 L87.1328571,18.8508348 L83.3766667,18.8508348 Z M70.6453968,18.8508348 L74.335873,18.8508348 L74.335873,3.63259361 L70.6453968,3.63259361 L70.6453968,18.8508348 Z M62.9153968,6.6544349 L62.2603175,6.6544349 L62.2603175,15.8506424 L62.828254,15.8506424 C64.5314286,15.8506424 65.2085714,15.046314 65.2085714,11.1981793 C65.2085714,7.48072827 64.6188889,6.6544349 62.9153968,6.6544349 Z M62.7190476,18.8508348 L58.6133333,18.8508348 L58.6133333,3.63259361 L63.0466667,3.63259361 C66.9992063,3.63259361 68.9426984,5.93701821 68.9426984,11.1330745 C68.9426984,16.6115149 66.8680952,18.8508348 62.7190476,18.8508348 Z M47.8479365,18.8508348 L47.8479365,3.63259361 L56.8015873,3.63259361 L56.8015873,6.74150464 L51.4731746,6.74150464 L51.4731746,9.35027825 L54.9452381,9.35027825 L54.9452381,12.4373823 L51.4731746,12.4373823 L51.4731746,15.7419237 L56.9544444,15.7419237 L56.9544444,18.8508348 L47.8479365,18.8508348 Z" id="Fill-5" fill="#FFFFFE"></path>
                </g>
            </g>
        </g>
    </g>
</svg>