<?xml version="1.0" encoding="UTF-8"?>
<svg width="51px" height="33px" viewBox="0 0 51 33" version="1.1" xmlns="http://www.w3.org/2000/svg" xmlns:xlink="http://www.w3.org/1999/xlink">
    <!-- Generator: Sketch 52.6 (67491) - http://www.bohemiancoding.com/sketch -->
    <title>phd</title>
    <desc>Created with Sketch.</desc>
    <g id="Page-1" stroke="none" stroke-width="1" fill="none" fill-rule="evenodd">
        <g id="agency" transform="translate(-666.000000, -34.000000)" fill="#8B909F" fill-rule="nonzero">
            <g id="Group-2" transform="translate(230.000000, 34.000000)">
                <g id="phd" transform="translate(436.000000, 0.000000)">
                    <path d="M50.5607434,23.6454545 C48.3737081,23.6454545 47.2547597,22.3863636 47.3611061,19.7863636 C47.4073436,18.6636364 47.7864914,17.6363636 48.8175884,14.1136364 C49.0302811,13.3818182 49.2845875,12.5636364 49.5573889,11.6409091 C50.7826836,7.52272727 50.7410698,3.77272727 49.4556664,1.60909091 C48.9609248,0.777272727 48.3043518,0.25 47.5553037,0.0772727273 C46.7785131,-0.1 45.9277425,0.104545455 45.1555757,0.65 C44.2354488,1.3 42.6263826,3.02272727 42.2009973,7.26363636 C42.1223935,8.03181818 41.9143246,10.3454545 42.0067996,12.0727273 C40.8647325,11.3181818 39.5562103,10.9318182 38.099728,10.9318182 C35.006437,10.9318182 32.3200363,12.6772727 31.0901179,15.5 C31.0854941,15.5181818 31.0762466,15.5318182 31.0716228,15.55 C31.0669991,15.5363636 31.0623753,15.5227273 31.0623753,15.5090909 C30.3133273,12.6045455 28.2511333,10.8727273 25.5416138,10.8727273 L25.518495,10.8727273 C23.1233908,10.8818182 21.3894832,11.7318182 20.4601088,12.2954545 L20.4601088,5.42272727 L16.1091568,5.42272727 L16.1091568,15.1181818 C14.7405258,12.3 11.8969175,10.8454545 9.07642792,10.8454545 C7.143699,10.8454545 5.53463282,11.55 4.19836809,12.9863636 L4.19836809,11.1636364 L0.0323662738,11.1636364 L0.0323662738,32.9636364 L4.19836809,32.9636364 L4.19836809,25.5227273 C5.47452403,26.6818182 7.28703536,27.3954545 9.07642792,27.3954545 C12.3084316,27.3954545 14.8561197,25.7227273 16.1091568,23.0363636 L16.1091568,26.9681818 L20.4601088,26.9681818 L20.4601088,18.0681818 C20.4601088,17.7954545 20.4739801,17.1863636 20.5895739,16.9090909 C20.9317316,15.9818182 22.3188577,14.7272727 24.5937443,14.7272727 C26.3877607,14.7272727 27.0535811,15.7727273 27.0535811,18.5909091 L27.0535811,26.9681818 L31.3721668,26.9681818 L31.3721668,23.4272727 C31.3906618,23.4681818 31.4045331,23.4954545 31.4091568,23.5045455 C32.7454216,25.9227273 35.306981,27.4272727 38.0951043,27.4272727 C40.4532185,27.4272727 43.1211242,26.3090909 44.586854,24.7590909 C45.2203083,25.6909091 46.9172257,27.5 50.5561197,27.5 L50.9583862,27.5 L50.9583862,23.6454545 L50.5607434,23.6454545 Z M8.24877607,23.6090909 C6.00625567,23.6090909 4.10589302,21.6 4.10589302,19.2227273 C4.10589302,16.6409091 5.88603808,14.6909091 8.24877607,14.6909091 C10.9721668,14.6909091 12.4425204,17.0227273 12.4425204,19.2227273 C12.4425204,21.8045455 10.7178604,23.6090909 8.24877607,23.6090909 Z M38.7100635,23.6363636 C36.6478694,23.6363636 34.5625567,22.1045455 34.5625567,19.1772727 C34.5625567,16.55 36.2687217,14.7181818 38.7100635,14.7181818 C40.7352675,14.7181818 42.8853128,16.2818182 42.8853128,19.1772727 C42.8853128,22.0727273 40.7352675,23.6363636 38.7100635,23.6363636 Z M46.7368994,2.99545455 C46.8432457,2.93181818 46.9958296,2.85454545 47.1807797,2.85454545 C47.4027199,2.85454545 47.55068,3 47.55068,3 C47.7402539,3.13636364 48.2581142,3.76363636 47.3703536,6.95 C46.7045331,9.34545455 46.0525839,11.3590909 45.6549411,12.5136364 C45.0261106,9.46363636 45.5717135,3.69545455 46.7368994,2.99545455 Z" id="Shape"></path>
                </g>
            </g>
        </g>
    </g>
</svg>