<svg xmlns="http://www.w3.org/2000/svg" width="87.129" height="28.53" viewBox="0 0 87.129 28.53">
  <path id="coke" d="M73.814,25.315s-.269.239-.269.239c-.383.343-.777.709-1.253.526a.477.477,0,0,1-.246-.359,6.2,6.2,0,0,1,.848-2.773l.11-.231a22.187,22.187,0,0,1,4.766-6.161,1.184,1.184,0,0,1,1.145-.3.6.6,0,0,1,.2.39.656.656,0,0,1-.067.215c-.587.949-1.146,1.945-1.69,2.9a40.253,40.253,0,0,1-3.544,5.556ZM62.422,20.469a2.363,2.363,0,0,1-1.775-1.737,2.388,2.388,0,0,1,1.3-2.463,1.3,1.3,0,0,1,1.169-.216,1.183,1.183,0,0,1,.422,1.052,6.385,6.385,0,0,1-.066.781l-.007.056a10.614,10.614,0,0,1-1.045,2.527ZM57,25.818a1.256,1.256,0,0,1-.2-.7c-.028-1.563,1.654-4.362,2.841-5.887h0a4.617,4.617,0,0,0,2.3,2.084C61.1,23.192,58.205,27.22,57,25.818Zm20.5.278c-.281.191-.676.044-.528-.394a22.791,22.791,0,0,1,1.83-3.39l4.073-7.224H80.08c-.133.218-.416.718-.416.718a3.829,3.829,0,0,0-.674-.8,2.453,2.453,0,0,0-2.371.163c-3,1.754-5.188,5.219-6.914,7.921,0,0-1.817,3-2.825,3.227-.787.064-.706-1-.672-1.244a20.243,20.243,0,0,1,1.724-5.022,38.578,38.578,0,0,0,4.6-3.762,46.1,46.1,0,0,0,6.411-7.437,6.357,6.357,0,0,1-.948.1c-2.508,3.5-7.642,8.585-9.2,9.342.689-1.658,5.144-9.573,8.934-13.359l.6-.574a7.278,7.278,0,0,1,2.623-1.977c.079-.008.18,0,.267.184a3.442,3.442,0,0,1-.527,1.809l-.42.861a9.729,9.729,0,0,0,.985-.239,4.614,4.614,0,0,0,.77-2.949.846.846,0,0,0-.674-.709c-1.131-.215-2.363.621-3.355,1.3l-.04.024c-5.1,3.993-9.4,9.749-13.165,17.608a2.7,2.7,0,0,1-1.506.335A12.789,12.789,0,0,0,64.364,17.7a7.735,7.735,0,0,0,.078-.964,2.029,2.029,0,0,0-.779-1.778,2.693,2.693,0,0,0-2.212.08c-2.69,1.116-4.7,3.874-6.151,6.145a13.477,13.477,0,0,0-1.774,4.759c-.152,1.387.157,2.279.946,2.726a2.639,2.639,0,0,0,2.232-.223c2.725-1.435,4.629-4.312,6.13-6.943a8.79,8.79,0,0,0,1.5-.191.038.038,0,0,1,.025.008C64.324,21.441,64,22.4,64,22.4c-.951,2.79-1.391,4.687-.493,5.811,1.284,1.586,3.41-.056,5.139-2.224-.371,2.6.976,3.005,2,2.806a8.223,8.223,0,0,0,3.1-2.224c-.2.757-.143,2.112.93,2.248a2.875,2.875,0,0,0,1.922-.607c2.284-1.244,5.018-5.387,5.728-6.585H81.4C80.4,23.147,79.111,25.146,77.5,26.1ZM42.312,10.622h2.614l1.475-2.4H43.787ZM84.065,4.256a10.631,10.631,0,0,1-6.56,1.61c-.693.781-1.368,1.586-1.99,2.415,3.51.893,7.231-1.092,9.307-2.981A14.651,14.651,0,0,0,88.143,1a17.443,17.443,0,0,1-4.078,3.26ZM62.087,3.651c-.416,4.766-4.121,7.565-5.037,7.787-.556.111-1.5-.135-.657-2.136a13.3,13.3,0,0,1,5.657-6.154,1.22,1.22,0,0,1,.038.5Zm-7.22,12.012a1.62,1.62,0,0,0-1.567-.9c-2.181.2-4.314,1.993-5.434,4.567a13.112,13.112,0,0,0-1.119,4.153,11.488,11.488,0,0,1,3.631-2.766,7.556,7.556,0,0,1,1.3-3.148c.412-.614,1.237-1.6,2.163-1.339.809.271.525,2.511-.551,4.678A15.031,15.031,0,0,1,50.048,25.2c-1.089.925-2.7,2.041-4.111,1.18a3.1,3.1,0,0,1-1.245-3.045c.424-4.025,2.257-7.453,4.878-11.358,2.7-3.627,5.684-7.349,9.7-9.334A2.71,2.71,0,0,1,61.5,2.383,14.64,14.64,0,0,0,55.937,8.29c-.457.973-1.093,2.287-.453,3.451a1.346,1.346,0,0,0,1.406.622c2.2-.51,3.625-2.567,4.787-4.448a10.372,10.372,0,0,0,1.273-4.424c0-.191-.01-.446-.026-.638,1.052-.558,3.209.43,3.209.43,1.686.558,5.276,3.308,6.486,3.834.591-.685,1.561-1.721,2.108-2.24l-.791-.486c-1.267-.773-2.606-1.507-3.923-2.232a7.848,7.848,0,0,0-6.669-.614c-.487.175-.933.327-.933.327-.92-1-2.429-.909-3.541-.638-4,1.148-7.711,3.945-11.691,8.8a32.149,32.149,0,0,0-5.709,10.33c-.746,2.184-.972,5.4.848,7.3,1.548,1.618,3.6,1.267,5.049.685a16,16,0,0,0,7.368-8.712,5.875,5.875,0,0,0,.132-3.977Zm-34.8-3.7c-.005.016-.533,1.227-.533,1.227-.076.064-.2.032-.335,0l-.237-.04a2.128,2.128,0,0,1-1.479-1.315,2.573,2.573,0,0,1,1.174-2.375,1.307,1.307,0,0,1,1.433-.144,1.505,1.505,0,0,1,.318,1,5.456,5.456,0,0,1-.341,1.642Zm-1.134,2.3s-.024.072-.036.1c0,0-1.2,1.953-1.2,1.953a9.184,9.184,0,0,1-2.752,2.758c-.334.112-.8.184-1.032-.111-.5-.6-.242-1.427-.033-2.1l.074-.239a19.839,19.839,0,0,1,2.475-4.392.122.122,0,0,1,.047-.016.069.069,0,0,1,.007.024,3.973,3.973,0,0,0,2.484,1.873s.01.008.01.024a.392.392,0,0,1-.045.127Zm14.976-1.283a38.161,38.161,0,0,1,2.474-3.061c1.278-1.124,1.789-.63,1.833-.279-1.193,2.136-2.6,4.583-3.924,6.783,0-.008-.414.63-.414.63a6.1,6.1,0,0,1-2.133,2.192.619.619,0,0,1-.513-.056A.543.543,0,0,1,31,18.667c.058-.685.755-2.781,2.909-5.683ZM20.635,8.138c-1.652-1.084-4.973.988-7.633,4.543-2.432,3.189-3.483,6.895-2.34,8.608,1.7,2.017,4.857-.917,6.2-2.487l.173-.184a19.57,19.57,0,0,0,2.3-3.292s.627-1.036.657-1.084c.388-.071.855-.183,1.381-.335-.007.024-2.013,3.4-1.809,5.069.064.511.015,2.376,1.836,2.942,2.427.407,4.365-1.475,6.075-3.148l.456-.438c-.042.167-.1.39-.1.39-.711,2.471.247,2.989.846,3.181,1.811.526,3.974-2.1,3.981-2.1-.056.829-.22,1.514.653,2.064a2.65,2.65,0,0,0,2.293-.577,24.576,24.576,0,0,0,5.611-6.308h-.948c-.011,0-2.34,3.375-3.852,4.109,0,0-.278.141-.436.029-.2-.168-.119-.516,0-.762.008-.016,5.838-10.128,5.838-10.128H39.072s-.3.487-.325.518c-.019-.016-.063-.1-.093-.14-1.706-2.359-5.568,1.27-8.476,5.478a27.648,27.648,0,0,1-4.023,4.756s-2.189,2.007-3.125.565a2.783,2.783,0,0,1-.044-2.073,17.236,17.236,0,0,1,5.1-7.613,1.594,1.594,0,0,1,1.584-.407.691.691,0,0,1,.164.948,1.535,1.535,0,0,0-1.22.47,1.9,1.9,0,0,0-.657,1.921c.986,1.4,2.952-1.371,2.857-3.061a1.815,1.815,0,0,0-.84-1.459,2.9,2.9,0,0,0-2.525.024,11.25,11.25,0,0,0-3.332,2.582c-1.105,1.22-3,2.575-3.594,2.423.194-.518,1.8-3.794.111-5.021ZM34.472,25.873c-3.242-2.089-7.642-2.455-14.738-.486-7.565,1.778-10.087,2.917-13.4.63-1.273-1.124-1.729-2.933-1.388-5.539.79-4.249,2.925-8.337,6.719-12.873,2.117-2.359,4.081-4.384,6.674-5.2,1.987-.51,1.8,1.052,1.561,1.275a1.923,1.923,0,0,0-1.009.255A2.615,2.615,0,0,0,17.85,5.716c-.057,1.379,1.37,1.092,1.986.335.663-.853,1.644-2.487.873-4.009A2.266,2.266,0,0,0,19.133,1c-2.375-.136-4.586,1-6.627,2.248a28.958,28.958,0,0,0-10.053,12.1c-1.165,2.837-2.218,6.9-.639,10.21,1.221,2.3,3.757,3.515,6.783,3.26a53.467,53.467,0,0,0,6.414-1.323c1.726-.415,10.559-3.451,13.462,1.834a3.92,3.92,0,0,1,3.377-1.914,11.115,11.115,0,0,1,6.927,2.1,17.618,17.618,0,0,0-4.3-3.642Z" transform="translate(-1.014 -0.986)" fill="#8b909f"/>
</svg>
