<svg xmlns="http://www.w3.org/2000/svg" width="107.712" height="30.8" viewBox="0 0 107.712 30.8">
  <g id="GroupM_SingleColor_Logo_Black_RGB_2x" data-name="GroupM_SingleColor_Logo_Black_RGB@2x" transform="translate(0 5)">
    <g id="GroupM_SingleColor_Logo_Black_RGB" transform="translate(0 -5)">
      <path id="Fill-1" d="M265.549,42.045c0,3.271-1.109,4.73-3.6,4.73s-3.6-1.459-3.6-4.73v-9h-3.313v9.348c0,4.832,2.454,7.494,6.91,7.494s6.91-2.661,6.91-7.494V33.041h-3.313v9" transform="translate(-209.91 -27.362)" fill="#8b909f" fill-rule="evenodd"/>
      <path id="Fill-2" d="M351.977,30.324a6.67,6.67,0,0,0-5.553,3.009V30.8H343.11V54.334h3.313v-9.6a6.672,6.672,0,0,0,5.417,2.912,7.214,7.214,0,0,0,5.785-2.659,9.682,9.682,0,0,0,2.017-6.14,9.176,9.176,0,0,0-2.064-5.926,7.212,7.212,0,0,0-5.6-2.6m4.524,8.627c0,3.955-2.566,5.726-5.108,5.726-3.263,0-4.97-2.88-4.97-5.726,0-3.714,2.5-5.657,4.97-5.657,3.007,0,5.108,2.326,5.108,5.657" transform="translate(-282.393 -25.126)" fill="#8b909f" fill-rule="evenodd"/>
      <g id="Group-6" transform="translate(0 5.198)">
        <path id="Fill-3" d="M113.618,1.178l-.066-.047a4.945,4.945,0,0,0-2.6-.807,4.668,4.668,0,0,0-4.386,2.9V.8h-3.313V17.1h3.313V9.088c0-2.6.413-5.588,3.631-5.588a2.82,2.82,0,0,1,1.307.282l2.116-2.6" transform="translate(-84.98 -0.324)" fill="#8b909f" fill-rule="evenodd"/>
        <path id="Fill-5" d="M8.1,14.676c-3.263,0-4.97-2.88-4.97-5.726,0-3.714,2.5-5.657,4.97-5.657C11.1,3.294,13.2,5.62,13.2,8.951,13.2,12.906,10.639,14.676,8.1,14.676ZM13.219.8V3.4A6.593,6.593,0,0,0,7.665.324a7.211,7.211,0,0,0-5.6,2.6A9.178,9.178,0,0,0,0,8.848a9.682,9.682,0,0,0,2.016,6.14A7.217,7.217,0,0,0,7.8,17.646a6.672,6.672,0,0,0,5.416-2.912v2.428c0,2.865-.534,5.794-4.489,5.794-2.9,0-4.7-1.694-4.7-4.421v-.112H.719l0,.113c.066,4.42,3.23,7.389,7.871,7.389,7.037,0,7.94-5.142,7.94-9.622V.8Z" transform="translate(0 -0.324)" fill="#8b909f" fill-rule="evenodd"/>
      </g>
      <path id="Fill-7" d="M468.1,13.308a11.638,11.638,0,0,1-4.236,1.026,2.336,2.336,0,0,1-1.936-.685,2.781,2.781,0,0,1-.16-2.4l.915-4.15c.466-2.011.277-3.565-.562-4.62a4.238,4.238,0,0,0-3.517-1.4,7.5,7.5,0,0,0-4.8,1.839,3.7,3.7,0,0,0-3.621-1.839,7.029,7.029,0,0,0-4.263,1.547A4.217,4.217,0,0,0,442.2.951a7.313,7.313,0,0,0-2.506.458l-.233.085-.651,3.118.781-.326c1.123-.467,2.017-.438,2.431.082a2.061,2.061,0,0,1,.2,1.727l-2.169,8.954H443.7l1.445-6.238c.819-3.086,2.112-4.523,4.069-4.523a1.472,1.472,0,0,1,1.192.493,2.821,2.821,0,0,1,.1,2.239l-1.861,8.029h3.64l1.71-7.381a4.081,4.081,0,0,1,3.75-3.381,1.488,1.488,0,0,1,1.219.5,2.818,2.818,0,0,1,.1,2.235l-1.047,4.56a5.089,5.089,0,0,0,.739,4.447,5.425,5.425,0,0,0,4.355,1.736,11.344,11.344,0,0,0,4.877-1.192l.2-.1.689-3.493-.772.325" transform="translate(-361.162 -0.951)" fill="#8b909f" fill-rule="evenodd"/>
      <path id="Fill-8" d="M163.918,44.095a4.853,4.853,0,0,1-4.455,0,4.7,4.7,0,0,1-1.549-1.415,6.136,6.136,0,0,1-.885-1.955,8.7,8.7,0,0,1,0-4.394,5.932,5.932,0,0,1,.887-1.956,4.776,4.776,0,0,1,1.548-1.4,4.849,4.849,0,0,1,4.454,0,4.782,4.782,0,0,1,1.548,1.4,5.954,5.954,0,0,1,.887,1.956,8.694,8.694,0,0,1,0,4.394,6.161,6.161,0,0,1-.886,1.955A4.7,4.7,0,0,1,163.918,44.095Zm5.554-9.073a7.751,7.751,0,0,0-1.628-2.745,7.558,7.558,0,0,0-2.616-1.8,9.875,9.875,0,0,0-7.075,0,7.544,7.544,0,0,0-2.616,1.8,7.735,7.735,0,0,0-1.628,2.745,11.283,11.283,0,0,0,0,7.028,7.734,7.734,0,0,0,1.627,2.745,7.535,7.535,0,0,0,2.616,1.8,9.878,9.878,0,0,0,7.075,0,7.55,7.55,0,0,0,2.616-1.8,7.753,7.753,0,0,0,1.628-2.745,11.281,11.281,0,0,0,0-7.028Z" transform="translate(-126.211 -24.71)" fill="#8b909f" fill-rule="evenodd"/>
    </g>
  </g>
</svg>
