<svg xmlns="http://www.w3.org/2000/svg" width="138.135" height="19" viewBox="0 0 138.135 19">
  <g id="Hyundai_Motor_Company_logo" transform="translate(-196.676 -219.279)">
    <g id="g63141" transform="translate(196.676 219.279)">
      <path id="path52220-4" d="M239.676,305.144v7.241H231.04v-7.241h-4.761v19h4.761V316.5h8.637v7.639h4.761v-19Zm0,0" transform="translate(-226.279 -305.143)" fill="#8b909f"/>
      <path id="path52222-4" d="M246.654,305.144l-4.979,7.525-4.973-7.525h-5.616l8.217,12.419v6.581h4.755v-6.581l8.217-12.419Zm0,0" transform="translate(-211.056 -305.143)" fill="#8b909f"/>
      <path id="path52224-8" d="M250.026,305.144v13.925a.962.962,0,0,1-1.011.955h-7.626v-14.88h-4.761v19h14.063a4.2,4.2,0,0,0,2.992-1.048,3.759,3.759,0,0,0,1.1-2.837V305.143Zm0,0" transform="translate(-193.502 -305.143)" fill="#8b909f"/>
      <path id="path52226-8" d="M256.106,305.144H242.043v19H246.8V309.258h7.637a.962.962,0,0,1,1.005.949v13.936h4.755V309.029a3.765,3.765,0,0,0-1.1-2.837,4.187,4.187,0,0,0-2.992-1.048" transform="translate(-176.355 -305.143)" fill="#8b909f"/>
      <path id="path52228-2" d="M261.52,305.144H247.457v19H261.52a4.163,4.163,0,0,0,2.98-1.048,3.742,3.742,0,0,0,1.1-2.837v-11.23a3.726,3.726,0,0,0-1.1-2.837,4.149,4.149,0,0,0-2.98-1.048m-.672,5.1v8.8a.976.976,0,0,1-1.011.982h-7.632V309.258h7.6a.971.971,0,0,1,1.045.982" transform="translate(-159.207 -305.143)" fill="#8b909f"/>
      <path id="path52230-5" d="M256.9,305.144a4.163,4.163,0,0,0-2.986,1.048,3.738,3.738,0,0,0-1.1,2.837v15.115h4.743v-5.877h8.642v5.877h4.755v-19Zm9.3,4.114v4.895h-8.642v-3.929a.987.987,0,0,1,1.016-.966Zm0,0" transform="translate(-142.216 -305.143)" fill="#8b909f"/>
      <path id="path52232-2" d="M258.286,324.143h4.761v-19h-4.761Zm0,0" transform="translate(-124.911 -305.143)" fill="#8b909f"/>
    </g>
  </g>
</svg>
