<svg xmlns="http://www.w3.org/2000/svg" width="66" height="21.36" viewBox="0 0 66 21.36">
  <g id="Visa_Inc._logo" transform="translate(-81.166 -105.048)">
    <path id="polygon9" d="M438.853,131.4h-5.346l3.344-20.677H442.2Z" transform="translate(-329.088 -5.304)" fill="#8b909f"/>
    <path id="path11" d="M581.217,105.928a13.175,13.175,0,0,0-4.8-.88c-5.28,0-9,2.815-9.021,6.841-.044,2.97,2.662,4.619,4.686,5.61,2.068,1.012,2.772,1.672,2.772,2.574-.021,1.385-1.672,2.024-3.211,2.024a10.64,10.64,0,0,1-5.016-1.1l-.7-.33-.748,4.642a16.272,16.272,0,0,0,5.963,1.1c5.61,0,9.262-2.772,9.305-7.061.021-2.354-1.407-4.157-4.488-5.631-1.87-.946-3.015-1.584-3.015-2.552.022-.88.969-1.781,3.079-1.781a9.084,9.084,0,0,1,3.983.792l.484.22.727-4.465Z" transform="translate(-452.07)" fill="#8b909f"/>
    <path id="path13" d="M798.794,124.079c.44-1.188,2.135-5.785,2.135-5.785-.022.044.439-1.21.7-1.98l.374,1.782s1.012,4.949,1.232,5.983Zm6.6-13.352h-4.135a2.638,2.638,0,0,0-2.794,1.716L790.522,131.4h5.61l1.122-3.1h6.864c.154.726.638,3.1.638,3.1h4.95l-4.313-20.677Z" transform="translate(-662.541 -5.304)" fill="#8b909f"/>
    <path id="path15" d="M179.035,110.727l-5.236,14.1-.572-2.86a15.826,15.826,0,0,0-7.392-8.667l4.8,18.082h5.654l8.4-20.655Z" transform="translate(-79.082 -5.304)" fill="#8b909f"/>
    <path id="path17" d="M89.856,110.727h-8.6l-.088.418c6.71,1.716,11.154,5.852,12.98,10.823l-1.87-9.5a2.212,2.212,0,0,0-2.42-1.738Z" transform="translate(0 -5.304)" fill="#8b909f"/>
  </g>
</svg>
