<?xml version="1.0" encoding="UTF-8"?>
<svg width="85px" height="26px" viewBox="0 0 85 26" version="1.1" xmlns="http://www.w3.org/2000/svg" xmlns:xlink="http://www.w3.org/1999/xlink">
    <!-- Generator: Sketch 52.6 (67491) - http://www.bohemiancoding.com/sketch -->
    <title>dbs</title>
    <desc>Created with Sketch.</desc>
    <g id="Page-1" stroke="none" stroke-width="1" fill="none" fill-rule="evenodd">
        <g id="home" transform="translate(-157.000000, -37.000000)" fill="#8B909F">
            <g id="Group" transform="translate(157.000000, 28.000000)">
                <g id="dbs" transform="translate(0.000000, 8.962963)">
                    <path d="M15.3221244,10.1607914 C15.3221244,10.1607914 22.6073867,3.97491971 22.4983462,2.88855395 C22.4983462,2.88855395 23.3687224,0.609906602 20.6505008,0.284385553 C20.6505008,0.284385553 20.1062723,0.0676954221 18.040346,1.15211778 C18.040346,1.15211778 13.4733054,3.54056775 9.45049319,1.47861054 L7.27552648,0.501075684 C7.27552648,0.501075684 6.51419078,0.175554635 6.07900273,0.284385553 C3.36078114,0.609906602 4.44826449,2.99738486 4.44826449,2.99738486 C4.33922408,4.19160985 11.6254599,10.2686506 11.6254599,10.2686506 C11.6254599,10.2686506 12.385822,10.8118334 13.1471577,10.9196927 C13.1471577,10.9196927 14.4517483,11.1373545 15.3221244,10.1607914" id="Fill-6"></path>
                    <path d="M15.3221244,16.0211419 C15.3221244,16.0211419 22.6073867,22.2070136 22.4983462,23.2924076 C22.4983462,23.2924076 23.3687224,25.571055 20.6505008,25.8975477 C20.6505008,25.8975477 20.1062723,26.1142379 18.040346,25.0288438 C18.040346,25.0288438 13.4733054,22.6413655 9.45049319,24.7033228 L7.27552648,25.6798859 C7.27552648,25.6798859 6.51419078,26.0054069 6.07900273,25.8975477 C3.36078114,25.571055 4.44826449,23.1835767 4.44826449,23.1835767 C4.33922408,21.9903234 11.6254599,15.912311 11.6254599,15.912311 C11.6254599,15.912311 12.385822,15.3700998 13.1471577,15.2612689 C13.1471577,15.2612689 14.4517483,15.152438 15.3221244,16.0211419" id="Fill-7"></path>
                    <path d="M10.3198957,15.0445788 C10.3198957,15.0445788 4.23115725,22.2070136 3.1436739,22.2070136 C3.1436739,22.2070136 0.751599953,22.9668866 0.42447873,20.3617465 C0.42447873,20.3617465 0.316411897,19.8195353 1.29485484,17.7575781 C1.29485484,17.7575781 3.79596919,13.0904808 1.62100249,9.07539729 L0.751599953,6.90460916 C0.751599953,6.90460916 0.42447873,6.25356706 0.533519137,5.71135588 C0.859666785,3.10621578 3.2527143,4.08277893 3.2527143,4.08277893 C4.33922408,4.08277893 10.4289361,11.2452137 10.4289361,11.2452137 C10.4289361,11.2452137 11.0812314,12.0050867 11.0812314,12.8737907 C11.0812314,12.8737907 11.2993122,14.0680156 10.3198957,15.0445788" id="Fill-8"></path>
                    <path d="M16.3005674,15.0445788 C16.3005674,15.0445788 22.3902794,22.2070136 23.4777628,22.2070136 C23.4777628,22.2070136 25.8698367,22.9668866 26.1959844,20.3617465 C26.1959844,20.3617465 26.3050248,19.8195353 25.3256082,17.7575781 C25.3256082,17.7575781 22.9335343,13.0904808 24.9994606,9.07539729 L25.8698367,6.90460916 C25.8698367,6.90460916 26.1959844,6.25356706 26.086944,5.71135588 C25.8698367,3.10621578 23.3687224,4.08277893 23.3687224,4.08277893 C22.281239,4.08277893 16.191527,11.2452137 16.191527,11.2452137 C16.191527,11.2452137 15.5392317,12.0050867 15.5392317,12.8737907 C15.5392317,12.8737907 15.3221244,14.0680156 16.3005674,15.0445788" id="Fill-9"></path>
                    <path d="M33.0460585,21.2304504 L33.0460585,3.32290591 C33.0460585,3.32290591 33.0460585,2.78069473 32.176656,2.12965263 L40.8755492,2.12965263 C44.2460661,2.23751185 50.7709662,4.30044076 50.7709662,12.4394387 C50.7709662,20.6872675 44.3551065,22.6413655 40.6574684,22.6413655 L32.176656,22.6413655 C33.1550989,21.8814925 33.0460585,21.2304504 33.0460585,21.2304504 Z M36.7436966,19.4940143 C36.7436966,21.1216195 36.7436966,21.7726616 38.4834753,21.7726616 C43.3766636,21.7726616 46.6381401,18.7341412 46.6381401,12.3306078 C46.6381401,6.57908811 43.4847304,3.10621578 39.0267302,3.10621578 C37.7221396,3.10621578 37.1779111,3.10621578 36.9608039,3.64842696 C36.7436966,4.08277893 36.7436966,4.95148286 36.7436966,6.68791902 L36.7436966,19.4940143 Z" id="Fill-10"></path>
                    <path d="M64.3630478,11.5717065 C64.3630478,11.5717065 66.8641621,10.1607914 66.8641621,7.33896112 C66.9722289,3.54056775 64.0359265,2.23751185 61.3177049,2.23751185 L51.9665164,2.23751185 C51.9665164,2.23751185 52.6188117,2.45517368 52.5107449,3.8660888 L52.5107449,21.2304504 C52.5107449,22.4246754 51.9665164,22.5325346 51.9665164,22.5325346 L61.752893,22.5325346 C64.9063026,22.5325346 68.4949003,21.0127886 68.4949003,16.9977051 C68.4949003,13.7424946 66.5380145,12.5482696 64.3630478,11.5717065 Z M59.3608191,21.7726616 L58.0562285,21.7726616 C55.8812618,21.7726616 56.4245166,20.6872675 56.4245166,19.9283662 L56.4245166,3.64842696 C56.5335571,2.99738486 57.0768119,2.99738486 57.0768119,2.99738486 L58.1642953,2.99738486 C60.6654096,2.99738486 62.9494168,3.54056775 63.0574836,6.90460916 C63.166524,9.40091833 60.9915573,11.0285236 60.6654096,11.1373545 C60.1221548,11.3540446 59.6869667,11.4628755 59.1437118,11.5717065 L59.1437118,11.7883966 C60.8834905,12.0050867 64.1449669,13.7424946 64.1449669,16.8888742 C64.1449669,20.2538873 61.8619334,21.9903234 59.3608191,21.7726616 Z" id="Fill-11"></path>
                    <path d="M74.8017196,13.5248328 C69.256236,11.8972275 69.6904505,7.99000322 69.6904505,7.99000322 C69.6904505,2.88855395 75.5630553,2.34634277 75.5630553,2.34634277 C77.9551293,1.9119908 80.7823913,2.67186381 80.7823913,2.67186381 C82.5211964,3.32290591 83.2835056,3.10621578 83.2835056,3.10621578 L83.2835056,5.81921509 L83.0654248,5.81921509 C83.0654248,5.81921509 81.5427534,3.54056775 79.5858675,3.32290591 C79.5858675,3.32290591 75.1278673,2.12965263 73.6051959,5.38583483 C73.6051959,5.38583483 72.3006053,8.74987624 76.3234175,9.72643938 L79.4768271,10.7030025 C79.4768271,10.7030025 84.4790558,12.1139176 84.4790558,16.2378321 C84.4790558,16.2378321 84.8052035,19.0596623 82.957358,20.7960985 C82.957358,20.7960985 80.6733509,23.0757175 75.889203,23.0757175 C75.889203,23.0757175 73.9313435,23.0757175 72.6267529,22.6413655 C72.6267529,22.6413655 70.669867,21.9903234 70.5608266,21.9903234 C70.5608266,21.9903234 70.0165982,21.9903234 69.6904505,22.0981827 L69.6904505,18.8429722 L70.0165982,18.8429722 C70.0165982,18.8429722 71.7563768,21.6648024 75.3449745,21.6648024 C75.3449745,21.6648024 78.6074246,22.0981827 79.9120152,19.6028452 C79.9120152,19.6028452 81.1085389,17.6487472 79.5858675,15.4789308 C79.5858675,15.4789308 78.8245318,14.5013959 76.7586055,13.8503538 L74.8017196,13.5248328" id="Fill-12"></path>
                </g>
            </g>
        </g>
    </g>
</svg>