<?xml version="1.0" encoding="UTF-8"?>
<svg width="40px" height="44px" viewBox="0 0 40 44" version="1.1" xmlns="http://www.w3.org/2000/svg" xmlns:xlink="http://www.w3.org/1999/xlink">
    <!-- Generator: Sketch 52.6 (67491) - http://www.bohemiancoding.com/sketch -->
    <title>Combined Shape</title>
    <desc>Created with Sketch.</desc>
    <g id="Page-1" stroke="none" stroke-width="1" fill="none" fill-rule="evenodd">
        <g id="home" transform="translate(-394.000000, -28.000000)" fill="#8B909F">
            <g id="Group" transform="translate(157.000000, 28.000000)">
                <path d="M237.00479,40.2615439 C236.982177,39.3336842 237.027402,38.4077544 237.409515,37.0981754 C237.610728,36.398807 237.790861,36.1494737 238.418262,36.0147719 C238.911521,35.9240702 238.867829,36.442807 238.755533,37.0530175 C238.509479,38.4077544 238.395266,39.0631228 238.4861,40.6000351 C238.57425,42.2261053 239.316246,42.8587018 240.123014,42.8587018 C241.334124,42.8818596 241.872991,41.865614 242.0972,40.3966316 C242.276183,39.2221404 242.141275,38.6559298 242.028596,38.2954386 C241.962291,38.0924211 241.782541,37.6396842 241.71547,37.3019649 C241.62617,36.442807 242.028596,36.0379298 242.36625,35.9240702 C242.770209,35.8105965 242.928113,36.0147719 243.083718,36.4895088 C243.286463,37.2124211 243.308693,38.159193 243.241238,39.5139298 C243.151938,41.3661754 242.231725,43.6047719 239.943647,43.5584561 C237.969462,43.5148421 237.095623,42.2261053 237.00479,40.2615439 Z M267.859344,39.9002807 C267.007351,39.9002807 267.074806,41.2990175 267.209714,41.6382807 C267.838265,41.5255789 268.241074,41.1415439 268.354136,40.8030526 C268.466432,40.4634035 268.33114,39.9002807 267.859344,39.9002807 Z M259.08953,40.6675789 C259.08953,40.2850877 258.8864,39.9666667 258.640729,39.9666667 C258.437217,39.9666667 257.96772,40.1924561 257.96772,40.9157544 C257.96772,41.480807 258.16855,41.7505965 258.259766,41.865614 C258.909013,41.6610526 259.08953,41.1191579 259.08953,40.6675789 Z M252.111468,36.0599298 C252.157459,36.5802105 251.798342,37.1433333 251.30585,37.1433333 C250.878129,37.1433333 250.632457,36.8040702 250.632457,36.4655789 C250.585699,35.9009123 250.990425,35.4493333 251.416996,35.4493333 C251.798342,35.4493333 252.090005,35.6975088 252.111468,36.0599298 Z M255.758594,37.3857193 C255.720268,36.7550526 255.568113,36.4702105 255.232375,36.4925965 C254.785108,36.520386 254.579296,37.9349474 254.669362,39.4224561 C254.728001,40.3939298 254.871342,40.5425263 255.0051,40.5336491 C255.252688,40.5189825 255.844829,38.7844561 255.758594,37.3857193 Z M269.430337,40.3514737 C269.430337,41.865614 267.456152,41.909614 267.456152,42.2261053 C267.456152,42.5198246 267.972023,42.6336842 268.263303,42.6336842 C269.520021,42.6336842 270.349018,40.9385263 270.641064,39.7632632 C270.685522,39.5614035 270.865656,39.1314386 271.224773,39.1314386 C271.628732,39.1314386 271.449365,41.6842105 272.010078,41.6842105 C272.347732,41.6842105 272.796149,38.4976842 274.903327,38.4976842 C275.621944,38.4976842 276.092208,38.9041053 276.092208,39.423614 C276.092208,39.787193 275.824307,40.1025263 275.442577,40.1025263 C274.635426,40.1025263 274.836256,39.4923158 274.500901,39.4923158 C273.602534,39.4923158 272.952137,41.2318596 272.280661,42.745614 C272.010078,43.3562105 271.85294,43.4696842 271.628732,43.4696842 C271.066869,43.4696842 270.93426,41.909614 270.708901,41.2318596 C270.238638,42.2473333 269.340654,43.4696842 267.859344,43.4696842 C267.007351,43.4696842 266.156892,43.0157895 266.156892,41.6382807 C266.156892,40.1025263 267.14226,38.995193 268.152157,38.995193 C268.914849,38.995193 269.430337,39.787193 269.430337,40.3514737 Z M252.695177,42.4742807 C253.031681,42.4742807 253.609641,42.3642807 254.064957,41.6297895 C253.804339,41.0489123 253.619223,39.8721053 253.592394,39.4440702 C253.458636,37.2548772 254.296831,35.1957544 255.213595,35.1394035 C255.885838,35.0984912 256.423555,35.739193 256.485644,36.7751228 C256.651213,39.5046667 255.747863,40.6440351 255.29753,41.6247719 C255.373416,42.0068772 256.014231,42.6552982 256.620552,42.6552982 C256.844761,42.6552982 257.114194,42.5425965 257.182032,42.4511228 C257.136807,42.294807 257.091198,42.0910175 257.091198,41.7969123 C257.091198,40.216386 258.101862,38.8821053 258.976467,38.8821053 C259.672472,38.8821053 260.074514,39.8080351 260.074514,40.4201754 C260.074514,41.1415439 259.469343,41.7301404 258.572508,42.294807 C258.730413,42.4511228 259.020926,42.5653684 259.268513,42.5653684 C260.547077,42.5653684 261.218936,41.007614 261.713728,39.5822456 C261.803412,39.3112982 261.961316,38.9276491 262.273675,38.9276491 C262.812542,38.9276491 263.037517,42.4966667 263.933585,42.4966667 C264.316081,42.4966667 264.629207,41.7058246 264.629207,41.0975439 C264.629207,40.645193 264.472069,40.6000351 264.472069,39.9438947 C264.472069,39.2221404 264.853799,38.6115439 265.370437,38.6115439 C265.683946,38.6115439 265.797008,38.9276491 265.797008,39.3112982 C265.797008,40.7578947 264.764882,43.4465263 263.240263,43.4465263 C262.094308,43.4465263 262.183992,41.4564912 261.781949,41.4564912 C261.331616,41.4564912 260.703065,43.4696842 258.483208,43.4696842 C258.122941,43.4696842 257.742745,43.2886667 257.429619,42.9250877 C256.890752,43.2886667 256.440802,43.4465263 255.92493,43.4465263 C255.09555,43.4465263 254.736433,42.5869825 254.400695,42.5869825 C253.99597,42.5869825 253.549086,43.4696842 252.201918,43.4696842 C251.124183,43.4696842 250.9452,42.0238596 250.56462,42.0238596 C250.227732,42.0238596 249.711861,43.4696842 249.151531,43.4696842 C248.207172,43.4696842 248.007109,40.9616842 247.176579,40.9616842 C246.525416,40.9616842 244.470362,43.5078947 243.911948,43.450386 C243.687739,43.4260702 243.593457,43.2577895 243.617219,43.0312281 C243.648647,42.7185965 243.915397,41.8822105 244.024627,41.4854386 C244.206294,40.8003509 244.37263,40.0450175 244.465379,39.8053333 C244.557745,39.5637193 244.807633,39.390807 245.006546,39.4097193 C245.107344,39.4193684 245.137622,39.6084912 245.169049,39.7640351 C245.281728,40.3244561 245.440782,40.8933684 245.619383,40.8933684 C245.934041,40.8933684 246.975366,38.8821053 247.580154,38.8821053 C248.321001,38.8821053 248.410301,42.0454737 249.419815,42.0454737 C249.756702,42.0454737 250.004673,41.6382807 250.227732,41.1415439 C250.250728,40.304386 250.474553,39.1090526 251.147562,39.1090526 C251.619742,39.1090526 251.843567,40.1692982 251.506296,41.0975439 C251.506296,42.2029474 252.223764,42.4742807 252.695177,42.4742807 Z M250.240265,16.8292281 C250.240265,16.0627018 252.050031,15.6547368 252.050031,14.7079649 C252.050031,14.5524211 251.990242,14.2772281 251.882928,14.0726667 C252.513778,14.4204211 252.978293,15.0082456 252.978293,15.4868421 C252.978293,16.3147368 252.121318,16.697614 252.121318,17.2132632 C252.121318,17.8126667 253.038082,17.9087719 253.038082,18.6517544 C253.038082,19.2631228 252.168842,19.9702105 252.168842,20.7614386 C252.168842,21.3724211 252.59618,21.8757193 253.251942,21.9602456 C253.038082,22.0084912 252.846834,22.044386 252.644471,22.044386 C251.44256,22.044386 250.204621,21.0489825 250.204621,19.8621404 C250.204621,19.2750877 250.454892,18.7594386 250.835855,18.3877544 C251.168527,18.6752982 251.502349,18.8675088 251.716209,18.8675088 C251.907074,18.8675088 251.990242,18.7714035 251.990242,18.6278246 C251.990242,18.1839649 250.240265,17.7767719 250.240265,16.8292281 Z M254.037247,22.8842456 C253.621024,23.0513684 253.466569,23.0394035 253.466569,23.4581754 C253.466569,23.6141053 253.430543,23.8178947 253.430543,23.9259649 C253.430543,24.0699298 253.454688,24.1540702 253.621024,24.1540702 C254.049128,24.1540702 254.727503,23.4226667 254.727503,22.7997193 C254.727503,22.6314386 254.632837,22.5600351 254.525907,22.5600351 C254.430475,22.5600351 254.323161,22.7518596 254.037247,22.8842456 Z M253.989723,22.0200702 C253.989723,21.4808772 252.883244,21.4689123 252.883244,20.6537544 C252.883244,20.4499649 253.013553,20.1018246 253.276088,19.7301404 C253.382635,20.3538596 253.633672,20.6776842 254.168323,20.8814737 C255.227278,21.2763158 255.371001,21.8757193 255.371001,22.5121754 C255.371001,23.5897895 254.620956,24.9333333 252.692379,24.9333333 C251.144765,24.9333333 250.037902,23.5423158 250.037902,22.3682105 C250.037902,22.044386 250.12107,21.6846667 250.323816,21.6846667 C250.502033,21.6846667 250.561822,21.8282456 250.704779,21.9722105 C251.239814,22.5121754 251.823523,22.6557544 252.668233,22.6557544 C253.430543,22.6557544 253.989723,22.3442807 253.989723,22.0200702 Z M248.014276,23.4817193 C247.252733,23.2902807 247.145803,23.1474737 247.145803,22.9436842 C247.145803,22.6078947 247.609934,22.3801754 248.02654,22.3801754 C248.609866,22.3801754 249.038353,22.5476842 249.430814,23.1474737 C249.788015,23.6862807 249.847037,24.5855789 250.037902,24.7530877 C250.132951,24.8372281 250.288173,24.8611579 250.395486,24.8611579 C250.513914,24.8611579 250.621611,24.848807 250.704779,24.848807 C251.561754,24.848807 252.145463,25.8202807 252.145463,26.2521754 C252.145463,26.6470175 251.79976,26.7905965 251.371273,26.7905965 C250.859617,26.7905965 250.276291,26.4907018 249.978496,26.1560702 C249.751988,25.9167719 249.633177,25.4366316 249.537745,24.848807 C249.442695,24.2374386 248.967067,23.7214035 248.014276,23.4817193 Z M251.335246,26.1684211 C251.513846,26.1684211 251.573635,26.0599649 251.573635,25.9765965 C251.573635,25.6647368 251.037834,25.2926667 250.740422,25.2926667 C250.60973,25.2926667 250.443011,25.3887719 250.443011,25.5690175 C250.443011,25.784386 250.978429,26.1684211 251.335246,26.1684211 Z M254.537405,25.7129825 C254.537405,25.5084211 254.406329,25.3528772 254.406329,25.1614386 C254.406329,24.9572632 254.537405,24.8252632 254.715622,24.8252632 C254.94213,24.8252632 255.060558,25.0290526 255.084704,25.245193 C255.167489,25.1614386 255.238775,25.1251579 255.346472,25.1251579 C255.583712,25.1251579 255.727052,25.3165965 255.727052,25.5211579 C255.727052,25.652386 255.656148,25.772807 255.559949,25.8438246 C255.70329,25.9167719 255.786841,26.0240702 255.786841,26.180386 C255.786841,26.3710526 255.643884,26.5154035 255.453786,26.5154035 C255.275569,26.5154035 255.167489,26.2988772 254.977007,26.2988772 C254.87046,26.2988772 254.751649,26.3467368 254.703741,26.4189123 C254.775028,26.586807 254.811054,26.7550877 254.811054,26.9102456 C254.811054,27.8462105 253.633672,28.6019298 252.406082,28.6019298 C251.180791,28.6019298 250.740422,27.8338596 250.740422,27.522 C250.740422,27.4505965 250.787947,27.4147018 250.871498,27.4147018 C251.073094,27.4147018 251.120619,27.4861053 251.668684,27.4861053 C252.978293,27.4861053 252.513778,25.7002456 253.740602,25.7002456 C253.906171,25.7002456 254.275637,25.8202807 254.406329,26.0599649 C254.501378,25.9403158 254.537405,25.8202807 254.537405,25.7129825 Z M262.595501,4.97470175 C263.238615,4.97470175 264.440527,4.54280702 264.440527,2.81715789 C264.440527,1.45045614 263.738006,0.634912281 262.560624,0.634912281 C261.833575,0.634912281 261.36906,0.935192982 261.36906,1.21077193 C261.36906,1.37905263 261.512017,1.40259649 261.631212,1.40259649 C261.869218,1.40259649 262.440663,1.17487719 262.547976,1.17487719 C262.631527,1.17487719 262.678669,1.19880702 262.678669,1.25901754 C262.678669,1.39024561 262.429165,1.67778947 262.429165,1.84568421 C262.429165,2.07378947 263.738006,1.90589474 263.738006,2.14557895 C263.738006,2.37368421 262.774484,2.58905263 262.774484,2.73301754 C262.774484,2.88894737 263.548675,3.40382456 263.548675,3.66821053 C263.548675,3.71568421 263.524529,3.76392982 263.440978,3.76392982 C263.191091,3.76392982 262.714695,3.63231579 262.393521,3.63231579 C262.321468,3.63231579 262.285825,3.66821053 262.285825,3.71568421 C262.285825,3.89554386 262.48857,4.25564912 262.48857,4.47101754 C262.48857,4.54280702 262.452544,4.56673684 262.405402,4.56673684 C262.214538,4.56673684 261.643476,4.15992982 261.380942,4.15992982 C261.286659,4.15992982 261.214989,4.23133333 261.214989,4.33940351 C261.214989,4.55477193 261.761905,4.97470175 262.595501,4.97470175 Z M260.274463,2.69750877 C260.274463,2.78126316 259.79845,3.11666667 259.79845,3.21238596 C259.79845,3.23631579 259.822596,3.2482807 259.881235,3.2482807 C259.964786,3.2482807 260.238436,3.26063158 260.381393,3.26063158 C260.441182,3.26063158 260.464561,3.30810526 260.464561,3.35635088 L260.488706,3.8357193 C260.488706,3.89554386 260.512469,3.94417544 260.548495,3.94417544 C260.655426,3.94417544 260.869669,3.45207018 261.000745,3.45207018 C261.107675,3.45207018 261.476374,3.61996491 261.571423,3.61996491 C261.595569,3.61996491 261.60745,3.608 261.60745,3.58407018 C261.60745,3.476 261.357179,3.14021053 261.357179,3.05607018 C261.357179,2.94915789 262.036321,2.96112281 262.036321,2.84147368 C262.036321,2.74498246 261.36906,2.61336842 261.36906,2.50529825 C261.36906,2.40957895 261.666472,2.08614035 261.666472,2.00161404 C261.666472,1.97768421 261.643476,1.9657193 261.619331,1.9657193 C261.499753,1.9657193 261.214989,2.14557895 261.060534,2.14557895 C260.929458,2.14557895 260.786501,1.51105263 260.703333,1.51105263 C260.583755,1.51105263 260.55961,2.18147368 260.405155,2.18147368 C260.226555,2.18147368 260.000047,2.13361404 259.869737,2.13361404 C259.834094,2.13361404 259.810715,2.14557895 259.810715,2.16989474 C259.810715,2.31347368 260.274463,2.56550877 260.274463,2.69750877 Z M268.797839,11.8437193 C268.797839,11.5920702 268.166222,11.5677544 268.106817,10.8602807 C268.094936,10.7525965 268.059292,10.5607719 267.927833,10.5607719 C267.714356,10.5607719 267.880308,11.22 267.642302,11.22 C267.094237,11.22 266.91602,10.141614 266.713274,10.141614 C266.665749,10.141614 266.606344,10.1778947 266.606344,10.3214737 C266.606344,10.4530877 266.630489,10.5372281 266.630489,10.6927719 C266.630489,10.8479298 266.594079,10.956386 266.453039,10.956386 C266.131098,10.956386 265.845567,10.2010526 265.571535,10.2010526 C265.512129,10.2010526 265.452723,10.2373333 265.452723,10.2967719 C265.452723,10.4411228 265.690729,10.7043509 265.690729,10.8359649 C265.690729,11.1242807 264.916156,10.9675789 264.916156,11.2080351 C264.916156,11.3161053 265.023469,11.352386 265.166809,11.352386 C265.41708,11.352386 265.809541,11.2439298 266.01152,11.2439298 C266.131098,11.2439298 266.310465,11.2686316 266.310465,11.4237895 C266.310465,11.5920702 265.881211,11.8074386 265.881211,11.9637544 C265.881211,12.0359298 265.952881,12.0710526 266.01152,12.0710526 C266.333461,12.0710526 266.904139,11.5083158 267.308481,11.5083158 C267.380917,11.5083158 267.559134,11.5438246 267.559134,11.6522807 C267.559134,11.8074386 267.154026,12.0830175 267.154026,12.3107368 C267.154026,12.3709474 267.190436,12.4431228 267.261339,12.4431228 C267.475966,12.4431228 267.761497,11.879614 268.166222,11.879614 C268.321444,11.879614 268.547952,11.9398246 268.66638,11.9398246 C268.761812,11.9398246 268.797839,11.879614 268.797839,11.8437193 Z M269.926931,2.20501754 C269.926931,3.27259649 269.15504,4.08736842 267.761497,4.31547368 C267.915952,4.3274386 268.059292,4.3274386 268.202249,4.3274386 C269.832265,4.3274386 270.427855,3.58407018 270.427855,2.96112281 C270.427855,2.61336842 270.23699,2.30150877 269.926931,2.20501754 Z M267.915952,3.41578947 C267.915952,2.56550877 265.893092,2.34936842 265.893092,2.15754386 C265.893092,2.00161404 267.023333,1.73761404 267.607042,1.72564912 C266.713274,0.575473684 265.440842,0.695122807 265.440842,0.491719298 C265.440842,0.371298246 266.39325,0.13122807 267.273604,0.13122807 C268.011384,0.13122807 268.70279,0.299508772 268.70279,0.863403509 C268.70279,1.17487719 268.452136,1.49870175 268.452136,1.97768421 C268.452136,2.24129825 268.583212,2.46940351 268.928532,2.46940351 C269.297997,2.46940351 269.381165,2.07378947 269.381165,1.65385965 C269.381165,1.30687719 269.321376,1.04287719 269.321376,0.875368421 C269.321376,0.371298246 269.665929,0.0358947368 270.154205,0.0358947368 C270.558931,0.0358947368 270.65398,0.215368421 271.249187,0.215368421 C270.928013,0.407192982 270.808818,0.755333333 270.808818,0.922842105 C270.808818,1.42691228 271.130758,1.77389474 271.130758,2.80519298 C271.130758,4.69873684 269.369284,5.37070175 267.213815,5.37070175 C266.618225,5.37070175 265.988524,5.32245614 265.369555,5.22635088 C265.27374,5.214 265.249977,5.19045614 265.249977,5.13063158 C265.249977,4.97470175 266.095455,4.8905614 266.095455,4.12364912 C266.095455,3.82375439 266.000022,3.53582456 266.000022,3.42814035 C266.000022,3.36831579 266.04793,3.33203509 266.095455,3.33203509 C266.274438,3.33203509 266.630489,4.02792982 267.296983,4.02792982 C267.475966,4.02792982 267.915952,3.96810526 267.915952,3.41578947 Z M250.740422,4.39961404 C250.740422,4.36333333 250.764185,4.3274386 250.799828,4.3274386 C251.132883,4.3274386 252.644471,5.52663158 252.859098,5.82575439 C252.906623,5.89831579 252.930385,5.99403509 252.930385,6.08898246 C252.930385,6.44908772 252.751785,6.86863158 252.513778,6.86863158 C252.228248,6.86863158 250.740422,4.81877193 250.740422,4.39961404 Z M259.012762,7.88757895 C259.322438,8.18708772 259.595704,8.31908772 259.92876,8.31908772 C260.059452,8.31908772 260.214674,8.28280702 260.298225,8.28280702 C260.405155,8.28280702 260.476825,8.33066667 260.476825,8.41519298 C260.476825,8.54719298 260.357247,8.76294737 260.214674,8.88259649 C260.357247,8.94280702 260.512469,8.96673684 260.678805,8.96673684 C261.357179,8.96673684 262.130986,8.53522807 262.130986,7.45645614 C262.27356,7.64750877 262.357495,8.04350877 262.357495,8.22298246 C262.357495,9.52947368 261.404704,10.0335439 260.524733,10.0335439 C259.952905,10.0335439 259.667375,9.8417193 259.595704,9.8417193 C259.369963,9.8417193 259.382227,10.2967719 259.227006,10.285193 C258.95259,10.2373333 258.703086,9.62557895 258.703086,8.97831579 C258.703086,8.59466667 258.798135,8.18708772 259.012762,7.88757895 Z M260.810264,7.01259649 C260.714831,6.8562807 260.357247,6.77252632 260.190911,6.77252632 C259.667375,6.77252632 259.310557,7.14459649 259.238887,7.48 C259.191362,7.36035088 259.155336,7.21677193 259.155336,7.07280702 C259.155336,6.54480702 259.512153,5.89831579 260.381393,5.89831579 C261.143702,5.89831579 261.441114,6.30512281 261.548044,6.30512281 C261.666472,6.30512281 261.78605,6.18547368 261.881099,6.18547368 C262.012175,6.18547368 262.012175,6.38926316 262.012175,6.53284211 C262.012175,7.01259649 261.797931,7.83933333 261.262513,8.13922807 C261.167081,7.93505263 260.976983,7.70810526 260.667307,7.56375439 C260.583755,7.52863158 260.548495,7.45645614 260.548495,7.3842807 C260.548495,7.25266667 260.667307,7.08477193 260.810264,7.01259649 Z M269.642167,19.2750877 C270.23699,19.2750877 270.713385,20.0539649 270.713385,20.965614 C270.713385,21.9359298 270.260752,22.9915439 269.452835,23.7098246 C269.440954,22.0922456 267.475966,22.6078947 267.475966,21.4322456 C267.475966,20.9293333 267.832784,20.5935439 268.261655,20.5935439 C268.643001,20.5935439 268.940796,20.7012281 269.15504,20.9177544 C268.940796,20.7139649 268.833099,20.4260351 268.833099,20.1500702 C268.833099,19.6946316 269.119396,19.2750877 269.642167,19.2750877 Z M241.990921,3.16452632 C241.990921,3.40382456 241.086421,4.20778947 240.765247,4.20778947 C240.646053,4.20778947 240.610409,4.0634386 240.610409,3.93221053 C240.610409,3.69214035 240.717339,3.35635088 240.848415,3.2482807 C241.00287,3.10431579 241.360454,3.03329825 241.634104,3.03329825 C241.800823,3.03329825 241.990921,3.06842105 241.990921,3.16452632 Z M249.585652,10.6321754 C249.871566,10.6321754 250.406984,11.1478246 250.549558,11.6754386 C250.490535,11.6634737 250.430746,11.6522807 250.371341,11.6522807 C249.990378,11.6522807 249.776134,12.0359298 249.466074,12.682807 C250.157097,12.2146316 250.799828,11.8321404 251.525728,11.8321404 C252.145463,11.8321404 252.63259,12.2146316 252.63259,12.8024561 C252.63259,13.0544912 252.513778,13.3304561 252.359324,13.5693684 C252.263891,13.0301754 251.823523,12.7904912 251.06198,12.7904912 C250.621611,12.7904912 250.097308,12.8742456 249.680701,13.0301754 C251.025953,13.222 251.228316,13.7133333 251.228316,14.156807 C251.228316,14.9117544 250.479037,15.2834386 249.978496,15.5347018 C250.025638,15.3189474 250.061664,15.0912281 250.061664,14.8519298 C250.061664,14.3961053 249.895328,13.8812281 249.216954,13.3779298 C249.10964,13.8692632 248.728677,14.1691579 248.728677,14.5524211 C248.728677,14.696 248.823726,14.7438596 248.895396,14.7438596 C248.895396,14.9592281 248.800347,15.5705965 248.800347,15.7269123 C248.800347,16.0503509 248.871251,16.1105614 249.026472,16.1464561 C249.121521,16.4220351 249.145284,16.9851579 249.193575,17.1410877 C249.228835,17.2611228 249.335765,17.3089825 249.419316,17.3089825 C249.513982,17.5486667 249.633177,17.9087719 249.859685,18.0758947 C249.906826,18.1121754 249.966232,18.1959298 249.966232,18.2681053 C249.966232,18.4834737 249.644675,18.7231579 249.442695,18.7231579 C249.383673,18.7231579 249.300122,18.7 249.180927,18.4475789 C249.10964,18.2920351 248.538196,17.9203509 248.502169,17.7049825 C248.538196,17.6687018 248.561575,17.5965263 248.561575,17.5127719 C248.561575,17.1769825 248.038038,16.7933333 248.038038,16.2664912 C248.097444,16.2421754 248.156849,16.1464561 248.156849,16.0387719 C248.156849,15.7388772 247.848323,15.1506667 247.848323,14.7562105 C247.978249,14.7562105 248.049919,14.7438596 248.0618,14.5524211 C248.085563,14.156807 248.168731,13.5693684 248.538196,13.2347368 C248.454644,13.222 248.347331,13.2104211 248.204757,13.2104211 C247.490739,13.2104211 246.383877,13.629193 245.967654,14.564386 C245.943125,14.4204211 245.93086,14.289193 245.93086,14.1691579 C245.93086,13.3898947 246.395758,12.8742456 246.740694,12.7187018 C246.918911,12.6345614 247.133922,12.6102456 247.371928,12.6102456 C247.752507,12.6102456 248.204757,12.6947719 248.669271,12.7785263 C248.264163,12.2385614 247.64596,11.8437193 247.133922,11.8437193 C246.895149,11.8437193 246.705051,11.9278596 246.645262,12.1308772 C246.6215,12.0239649 246.609618,11.8437193 246.609618,11.7232982 C246.609618,11.1358596 246.8001,10.8004561 247.300258,10.8004561 C248.038038,10.8004561 248.669271,11.6877895 249.050234,12.5145263 C249.050234,11.2566667 249.073997,10.6321754 249.585652,10.6321754 Z M248.287925,9.72168421 C248.693034,9.72168421 249.157165,7.5162807 249.157165,7.14459649 C249.157165,7.04849123 249.121521,6.97708772 249.038353,6.97708772 C248.669271,6.97708772 248.156849,9.07403509 248.156849,9.5414386 C248.156849,9.62557895 248.180612,9.72168421 248.287925,9.72168421 Z M251.204553,10.3809123 C251.502349,10.3809123 251.835404,9.23035088 251.835404,8.51091228 C251.835404,8.35498246 251.811641,8.18708772 251.740355,8.18708772 C251.490467,8.18708772 251.073094,9.37354386 251.073094,10.0215789 C251.073094,10.2732281 251.132883,10.3809123 251.204553,10.3809123 Z M249.264095,9.3137193 C249.395554,9.3137193 249.561507,9.16975439 249.871566,8.82315789 C249.895328,8.66722807 249.895328,8.52287719 249.895328,8.34340351 C249.895328,8.10333333 249.799896,7.83933333 249.656556,7.83933333 C249.300122,7.83933333 249.121521,8.79884211 249.121521,9.05010526 C249.121521,9.19407018 249.193575,9.3137193 249.264095,9.3137193 Z M250.895261,8.82315789 C250.895261,8.61898246 250.847736,8.57112281 250.799828,8.57112281 C250.681017,8.57112281 250.549558,8.71508772 250.359843,9.03775439 C250.383605,9.47003509 250.454892,9.66224561 250.573703,9.66224561 C250.704779,9.66224561 250.895261,9.24231579 250.895261,8.82315789 Z M259.512153,21.0972281 C260.059452,21.1686316 260.190911,21.3604561 260.190911,21.516386 C260.190911,21.7807719 259.952905,21.8641404 259.72678,21.8641404 C259.560444,21.8641404 259.369963,21.8282456 259.167217,21.8282456 C258.905065,21.8282456 258.64368,21.8880702 258.429053,22.1404912 C258.583508,22.1640351 258.810016,22.2721053 258.810016,22.5121754 C258.810016,23.2069123 256.89332,22.6314386 256.89332,24.4172982 C256.89332,25.3652281 257.870256,26.3945965 259.345817,26.3945965 C260.107743,26.3945965 260.595637,26.1444912 260.595637,25.8565614 C260.595637,25.6288421 260.190911,25.784386 260.190911,25.5929474 C260.190911,25.5084211 260.333868,25.3528772 260.333868,25.2208772 C260.333868,25.1614386 260.286344,25.0533684 260.190911,25.0533684 C259.976284,25.0533684 259.572325,25.4007368 258.75061,25.4007368 C258.108262,25.4007368 257.477029,25.0290526 257.477029,24.5253684 C257.477029,24.4172982 257.524553,24.3570877 257.59584,24.3570877 C257.66751,24.3570877 257.76256,24.4057193 257.846111,24.4057193 C257.917781,24.4057193 257.929279,24.3570877 257.929279,24.2254737 C257.929279,24.0934737 257.929279,23.7214035 258.155787,23.7214035 C258.381145,23.7214035 258.810016,24.5612632 260.45268,24.5612632 C261.000745,24.5612632 262.060083,24.4535789 262.452544,24.0934737 C262.440663,25.4127018 261.416968,27.1503158 259.27453,27.1503158 C257.048541,27.1503158 255.858511,25.3528772 255.858511,23.6978596 C255.858511,21.8641404 257.345953,20.1983158 259.382227,20.1983158 C259.904997,20.1983158 260.345749,20.3777895 260.345749,20.6055088 C260.345749,20.9177544 259.572325,20.7255439 259.512153,21.0972281 Z M263.166945,21.7321404 C264.059564,21.7923509 264.631008,22.3323158 264.631008,22.9672281 C264.631008,23.4342456 264.29757,23.8302456 263.80891,23.8302456 C263.358193,23.8302456 263.060015,23.5060351 263.060015,23.111193 C263.060015,22.7638246 263.28614,22.4519649 263.28614,22.1161754 C263.28614,21.9961404 263.250113,21.8641404 263.166945,21.7321404 Z M259.227006,22.4998246 C259.916879,22.4998246 260.381393,22.9436842 260.381393,23.3983509 C260.381393,23.7098246 260.155268,23.9734386 259.822596,23.9734386 C259.512153,23.9734386 259.298676,23.7214035 259.298676,23.4342456 C259.298676,23.2312281 259.382227,23.0394035 259.382227,22.8595439 C259.382227,22.7395088 259.345817,22.6198596 259.227006,22.4998246 Z M260.810264,20.4619298 C262.060083,20.7012281 262.738841,21.648386 262.738841,22.5357193 C262.738841,23.1474737 262.357495,23.7098246 261.690618,23.7098246 C261.083913,23.7098246 260.643161,23.2902807 260.643161,22.6198596 C260.643161,22.1161754 261.036389,21.5885614 261.036389,21.0725263 C261.036389,20.8695088 260.976983,20.6653333 260.810264,20.4619298 Z M261.428849,22.0563509 C261.428849,22.2242456 261.548044,22.3558596 261.713997,22.3558596 C261.904862,22.3558596 262.024439,22.1883509 262.024439,21.9961404 C262.024439,21.7444912 261.797931,21.3967368 261.583304,21.3967368 C261.488638,21.3967368 261.524282,21.5403158 261.499753,21.6962456 C261.488638,21.8162807 261.428849,21.9602456 261.428849,22.0563509 Z M259.167217,14.2648772 C259.298676,15.2834386 260.655426,14.7677895 260.655426,16.0021053 C260.655426,16.1823509 260.607518,16.4463509 260.607518,16.6736842 C260.607518,16.9372982 260.630897,17.1650175 260.833643,17.1650175 C261.036389,17.1650175 261.083913,17.0214386 261.083913,16.8292281 C261.083913,16.6370175 261.036389,16.3984912 261.036389,16.2664912 C261.036389,15.8465614 261.3338,15.7504561 261.512017,15.7504561 C261.964651,15.7504561 262.309587,16.2182456 262.988728,16.2182456 C262.833507,16.9851579 261.262513,16.7813684 261.262513,17.6212281 C261.262513,18.040386 261.678737,18.1361053 261.953153,18.1361053 C262.202657,18.1361053 262.285825,18.0998246 262.285825,17.8844561 C262.285825,17.7644211 262.262062,17.633193 262.262062,17.5486667 C262.262062,17.5004211 262.298089,17.4529474 262.357495,17.4529474 C262.619646,17.4529474 263.904726,18.435614 263.904726,18.7355088 C263.904726,19.0110877 262.547976,19.2870526 262.155132,19.2870526 C262.036321,19.2870526 262.012175,19.2032982 262.012175,19.1554386 C262.012175,19.0716842 262.214538,18.8192632 262.214538,18.6752982 C262.214538,18.568 262.036321,18.4954386 261.559925,18.4954386 C261.3338,18.4954386 261.167081,18.5197544 261.167081,18.7 C261.167081,19.0234386 261.690618,19.4190526 261.690618,19.7185614 C261.690618,19.9578596 261.548044,20.1018246 261.167081,20.1018246 C260.845907,20.1018246 260.357247,19.8501754 260.357247,19.4310175 C260.357247,19.0952281 260.703333,18.7594386 260.703333,18.5560351 C260.703333,18.4954386 260.655426,18.3997193 260.512469,18.3997193 C260.071333,18.3997193 259.952905,19.5742105 258.393026,19.7065965 C258.64368,19.4792632 258.857924,19.2268421 258.857924,18.7115789 C258.857924,18.4599298 258.798135,18.2557544 258.798135,17.9805614 C258.798135,17.6212281 258.964854,17.4409825 259.203244,17.4409825 C259.643612,17.4409825 259.857473,18.0635439 260.143387,18.0635439 C260.298225,18.0635439 260.464561,17.9203509 260.464561,17.7049825 C260.464561,16.7933333 258.727231,16.9253333 258.727231,15.6431579 C258.727231,15.2950175 258.84566,14.8638947 259.167217,14.2648772 Z M264.844486,17.7767719 C264.844486,18.0758947 264.940301,18.4236491 265.238096,18.4236491 C265.487983,18.4236491 265.702994,18.040386 265.702994,17.6212281 C265.702994,17.1410877 265.619059,16.7694035 265.619059,16.5775789 C265.619059,16.4942105 265.655086,16.4579298 265.702994,16.4579298 C265.881211,16.4698947 266.04793,16.961614 266.238412,16.961614 C266.453039,16.961614 266.773829,16.565614 266.904139,16.565614 C266.939399,16.565614 266.952047,16.6134737 266.952047,16.6258246 C266.952047,16.8052982 266.678014,17.2012982 266.678014,17.3568421 C266.678014,17.4888421 267.36827,17.5127719 267.36827,17.633193 C267.36827,17.8126667 266.641987,17.8126667 266.297817,17.9685965 C265.964379,18.1121754 265.762016,18.2920351 265.762016,18.5317193 C265.762016,18.7714035 266.000022,18.8192632 266.333461,18.8192632 C267.130264,18.8192632 267.69021,18.3877544 267.868427,18.3877544 C267.904071,18.3877544 267.927833,18.4120702 267.927833,18.4475789 C267.927833,18.568 267.523491,18.963614 267.523491,19.1434737 C267.523491,19.3472632 268.261655,19.5865614 268.249774,19.7065965 C268.237892,19.7424912 268.190751,19.7540702 268.106817,19.7540702 C267.976124,19.7540702 267.773761,19.7185614 267.618923,19.7185614 C267.523491,19.7185614 267.43994,19.7301404 267.404296,19.778 C267.320362,19.8744912 267.428442,20.5097895 267.261339,20.5097895 C267.106885,20.5097895 266.701393,19.0952281 265.786162,19.0952281 C265.655086,19.0952281 265.559654,19.2032982 265.559654,19.3831579 C265.559654,19.8621404 266.024168,20.4136842 266.464536,20.6776842 C266.665749,20.8096842 266.999954,20.9412982 266.999954,21.0134737 C266.999954,21.1566667 266.238412,21.0254386 266.238412,21.2643509 C266.238412,21.4808772 266.333461,21.8047018 266.333461,21.9961404 C266.333461,22.0563509 266.321963,22.1281404 266.249909,22.1281404 C266.107719,22.1281404 265.762016,21.4689123 265.594914,21.4689123 C265.452723,21.4689123 265.14343,21.8641404 265.011971,21.8641404 C264.976328,21.8641404 264.952566,21.8282456 264.952566,21.7923509 C264.952566,21.516386 265.392934,20.8934386 265.392934,20.2820702 C265.392934,19.9941404 265.357291,19.371193 265.011971,19.371193 C264.726057,19.371193 264.404883,19.8262456 264.261543,20.2820702 C264.177992,20.5460702 264.238164,21.5646316 264.047299,21.5646316 C263.869082,21.5646316 263.916224,20.8814737 263.678218,20.8814737 C263.50115,20.8814737 263.119804,21.2049123 262.988728,21.2049123 C262.964966,21.2049123 262.941587,21.1929474 262.941587,21.1686316 C262.941587,21.0254386 263.28614,20.5580351 263.28614,20.4619298 C263.28614,20.2820702 262.500068,20.2581404 262.500068,20.1141754 C262.500068,20.0296491 262.809745,19.9702105 263.095658,19.9223509 C263.702363,19.8138947 264.595365,19.371193 264.595365,18.7474737 C264.595365,18.0523509 263.928105,17.7532281 263.488886,17.4649123 C263.262761,17.3209474 263.01249,17.2012982 263.01249,17.105193 C263.01249,17.0090877 263.298404,17.0090877 263.417216,17.0090877 C263.59505,17.0090877 263.77365,16.9971228 263.77365,16.8531579 C263.77365,16.7450877 263.749121,16.5304912 263.749121,16.3622105 C263.749121,16.2421754 263.761002,16.1464561 263.80891,16.1464561 C263.98751,16.1464561 264.238164,16.7335088 264.356976,16.7335088 C264.547074,16.7335088 264.809609,16.2545263 264.988209,16.2545263 C265.047615,16.2545263 265.070994,16.2904211 265.070994,16.3984912 C265.070994,16.841193 264.844486,17.3452632 264.844486,17.7767719 Z M264.428646,27.8581754 C264.701912,27.8581754 265.083258,28.1217895 265.083258,28.7698246 C265.083258,29.9076491 263.417216,31.3110175 261.190843,31.3110175 C260.500587,31.3110175 260.131506,30.8304912 260.131506,30.3507368 C260.131506,29.6679649 260.500587,29.0446316 260.786501,28.7092281 C260.917194,28.5536842 261.04827,28.4336491 261.167081,28.4336491 C261.262513,28.4336491 261.548044,28.6378246 262.191159,28.6378246 C263.393453,28.6378246 264.118586,28.0974737 264.428646,27.8581754 Z M263.80891,27.7257895 C263.50115,27.9897895 263.036253,28.1217895 262.524597,28.1217895 C261.881099,28.1217895 261.357179,27.8940702 261.357179,27.6659649 L261.357179,27.1144211 C261.357179,26.9465263 261.822077,26.5505263 262.690933,26.5505263 C263.405335,26.5505263 263.928105,26.7550877 263.928105,27.1024561 L263.928105,27.3784211 C263.928105,27.510807 263.904726,27.6420351 263.80891,27.7257895 Z M263.713861,28.9137895 C263.642957,28.9137895 263.238615,29.2850877 262.298089,29.2850877 L262.143251,29.2850877 C262.155132,29.391614 262.167013,29.4637895 262.167013,29.5598947 C262.167013,29.8478246 262.095343,30.1473333 262.000294,30.4352632 C262.595501,30.4229123 263.000609,30.2550175 263.298404,30.051614 C263.726125,29.7756491 263.844937,29.4282807 263.844937,29.1650526 C263.844937,28.9492982 263.77365,28.9137895 263.713861,28.9137895 Z M263.405335,15.1271228 C263.405335,14.8878246 263.618429,14.6836491 263.856818,14.6836491 C264.118586,14.6836491 264.321332,14.8878246 264.321332,15.1271228 C264.321332,15.4027018 264.118586,15.5949123 263.856818,15.5949123 C263.618429,15.5949123 263.405335,15.4027018 263.405335,15.1271228 Z M242.22931,8.15157895 C242.22931,8.15157895 241.884757,8.41519298 241.455503,8.41519298 C240.943848,8.41519298 240.538739,8.03115789 240.538739,7.49235088 C240.538739,7.12066667 240.728837,6.73740351 241.169973,6.54480702 C241.158091,6.61659649 241.158091,6.67680702 241.158091,6.74898246 C241.158091,7.43214035 241.539438,7.94701754 242.22931,8.15157895 Z M244.776857,10.4530877 C245.37168,10.6321754 246.097963,11.1960702 246.097963,11.9996491 C246.097963,12.5145263 245.824313,13.0182105 245.240988,13.0182105 C244.6339,13.0182105 244.241056,12.4786316 244.241056,11.8321404 C244.241056,11.2917895 244.515088,10.7641754 244.776857,10.4530877 Z M243.514773,8.52287719 C243.729017,8.54719298 243.883472,8.54719298 243.955525,8.60663158 C244.062455,8.75098246 243.979287,8.84670175 244.146006,9.09835088 C244.300845,9.3137193 244.479445,9.27821053 244.479445,9.50554386 C244.479445,9.68540351 244.146006,10.7525965 243.288648,11.1841053 C242.884306,11.3875088 242.562749,11.4720351 242.288716,11.4720351 C241.824585,11.4720351 241.503411,11.2686316 241.217497,11.2686316 C241.169973,11.2686316 241.110567,11.2917895 241.014751,11.2917895 C240.907821,11.2917895 240.788626,11.1721404 240.788626,11.0644561 C240.788626,11.0162105 240.800891,10.9675789 240.824653,10.9324561 C240.990989,10.6564912 240.824653,9.57810526 241.872493,8.8945614 C242.335857,8.58270175 242.860544,8.51091228 243.253388,8.51091228 C243.348437,8.51091228 243.443869,8.51091228 243.514773,8.52287719 Z M243.931763,9.78189474 C243.931763,9.69736842 243.69299,9.56575439 243.621703,9.4457193 C243.491011,9.26585965 243.491011,9.0265614 243.384464,8.96673684 C243.324675,8.93084211 243.288648,8.91887719 243.205863,8.91887719 C243.027263,8.91887719 242.896187,8.94280702 242.896187,9.16975439 C242.896187,9.52947368 243.229626,10.1655439 243.645466,10.1655439 C243.83633,10.1655439 243.931763,9.94940351 243.931763,9.78189474 Z M242.526722,10.9081404 C242.740966,10.9081404 242.967857,10.7884912 242.967857,10.7043509 C242.967857,10.6804211 242.943712,10.6684561 242.908068,10.6445263 C242.550868,10.4770175 242.169521,10.141614 242.098234,9.55340351 C242.086353,9.47003509 242.062208,9.43375439 242.0143,9.43375439 C241.884757,9.43375439 241.705774,9.73364912 241.705774,9.9737193 C241.705774,10.4175789 242.133878,10.9081404 242.526722,10.9081404 Z M243.538919,7.88757895 C242.717587,7.88757895 241.77706,7.50431579 241.77706,6.55715789 C241.77706,6.11291228 242.110116,5.742 242.574247,5.742 C243.384464,5.742 243.645466,6.61659649 243.645466,7.19245614 C243.645466,7.45645614 243.597941,7.69536842 243.538919,7.88757895 Z M269.107515,17.6571228 C269.297997,17.0573333 269.535236,16.6370175 269.926931,15.9901404 C269.535236,15.7871228 268.500044,15.3552281 268.500044,14.6481404 C268.500044,13.8210175 269.524122,13.1741404 269.736832,13.1741404 C269.832265,13.1741404 269.856794,13.2582807 269.856794,13.4138246 C269.856794,13.8453333 269.653664,14.5400702 269.653664,14.9117544 C269.653664,15.2467719 269.868291,15.5705965 270.05839,15.5705965 C270.260752,15.5705965 270.820699,14.8519298 270.820699,14.1448421 C270.820699,12.8742456 269.713453,12.4909825 269.369284,12.4909825 C269.047343,12.4909825 268.464017,13.0182105 267.094237,13.0182105 C264.535576,13.0182105 263.95225,10.4650526 263.95225,9.35 C263.95225,9.30175439 263.963748,9.28978947 263.975629,9.28978947 C264.035418,9.28978947 264.285689,9.60164912 265.095139,9.60164912 C265.512129,9.60164912 265.893092,9.49396491 266.500563,9.49396491 C267.927833,9.49396491 268.55945,10.4889825 269.440954,11.7599649 C269.974838,12.0949825 271.249187,12.6345614 271.249187,14.156807 C271.249187,15.498807 269.832265,16.2421754 269.488095,17.6806667 C270.034627,17.6212281 270.356185,16.6370175 270.916131,16.6370175 C271.202045,16.6370175 271.332738,16.8658947 271.332738,17.2244561 C271.332738,17.7532281 271.035326,18.5436842 270.463498,19.0354035 C270.475763,18.9871579 270.475763,18.9273333 270.475763,18.8559298 C270.475763,18.5197544 270.34392,18.040386 269.963341,18.040386 C269.369284,18.040386 269.178802,18.6872632 268.844597,19.2268421 C268.500044,18.0048772 268.035147,16.9014035 267.202317,16.2302105 C266.357606,15.5466667 264.905041,15.9183509 264.905041,14.6720702 C264.905041,14.3362807 265.118902,13.8572982 265.118902,13.4740351 C265.118902,13.3424211 265.095139,13.222 265.023469,13.1262807 C266.166741,13.5570175 265.762016,14.3247018 266.464536,15.1155439 C266.904139,15.6188421 268.118315,16.0982105 268.821218,18.171614 C268.833099,18.1121754 268.844597,17.9566316 268.844597,17.8489474 C268.844597,16.0746667 266.512444,14.3362807 266.310465,13.617614 C267.666448,13.7735439 267.904071,14.1089474 268.547952,15.906 C268.677878,16.2784561 269.107515,17.2012982 269.107515,17.6571228 Z M252.859098,3.85964912 C252.859098,4.01596491 252.727639,4.13561404 252.513778,4.13561404 C251.871047,4.13561404 250.513914,3.48835088 250.049783,3.48835088 C249.919091,3.48835088 249.883447,3.52385965 249.883447,3.6442807 C249.883447,4.0997193 250.764185,5.53821053 250.764185,6.17312281 C250.764185,6.34063158 250.704779,6.47301754 250.537677,6.47301754 C250.001875,6.47301754 248.811845,5.03414035 248.395239,5.03414035 C248.014276,5.03414035 248.180612,6.24491228 247.824177,6.24491228 C247.538264,6.24491228 247.288376,5.54978947 246.9787,5.54978947 C246.669024,5.54978947 246.466661,7.94701754 245.979151,7.94701754 C245.407324,7.94701754 245.633832,5.73003509 245.252486,5.73003509 C244.955074,5.73003509 244.550732,6.48498246 244.110363,6.48498246 C243.87159,6.48498246 243.800687,6.29315789 243.800687,6.01796491 C243.800687,5.66982456 243.907617,5.19045614 243.907617,4.87859649 C243.907617,4.71108772 243.895353,4.51964912 243.740898,4.51964912 C243.300912,4.51964912 241.694276,5.70610526 241.074157,5.70610526 C240.943848,5.70610526 240.848415,5.6462807 240.848415,5.5142807 C240.848415,4.92645614 242.884306,3.16452632 242.884306,2.7577193 C242.884306,2.38526316 240.55062,2.72105263 240.55062,2.36210526 C240.55062,1.95375439 242.205548,1.24705263 242.205548,0.983052632 C242.205548,0.707087719 240.610409,0.611368421 240.610409,0.299508772 C240.610409,0.0961052632 240.990989,0.0123508772 241.694276,0.0123508772 C242.276835,0.0123508772 243.788806,0.167508772 243.788806,0.514877193 C243.788806,0.910877193 242.514841,1.30687719 242.514841,1.69014035 C242.514841,2.14557895 244.300845,1.88157895 244.300845,2.27757895 C244.300845,2.68515789 243.003117,3.59603509 243.003117,3.88396491 C243.003117,3.93221053 243.062523,3.95614035 243.110048,3.95614035 C243.420107,3.95614035 244.228791,3.35635088 244.597873,3.35635088 C244.741213,3.35635088 244.788738,3.45207018 244.788738,3.61996491 C244.788738,3.95614035 244.586375,4.51964912 244.586375,4.86663158 C244.586375,4.95077193 244.610137,5.04687719 244.70557,5.04687719 C244.966955,5.04687719 245.383945,3.90750877 245.752643,3.90750877 C246.086082,3.90750877 245.78867,5.62235088 246.133989,5.62235088 C246.431401,5.62235088 246.490424,4.0634386 246.8001,4.0634386 C247.097895,4.0634386 247.240469,4.93842105 247.550145,4.93842105 C247.681221,4.93842105 247.693102,4.77052632 247.693102,4.49533333 L247.693102,4.08736842 C247.693102,3.82375439 247.705366,3.6442807 247.836442,3.6442807 C248.192876,3.6442807 249.204689,4.84270175 249.419316,4.84270175 C249.466074,4.84270175 249.477956,4.79445614 249.477956,4.75894737 C249.477956,4.43589474 248.800347,3.34438596 248.800347,2.76891228 C248.800347,2.57670175 248.871251,2.44547368 249.062116,2.44547368 C249.477956,2.44547368 250.359843,2.93719298 250.764185,2.93719298 C250.895261,2.93719298 250.978429,2.88894737 250.978429,2.7577193 C250.978429,2.266 249.525863,1.27059649 249.525863,0.863403509 C249.525863,0.467017544 251.144765,0.0594385965 252.25201,0.0594385965 C252.394967,0.0594385965 252.680114,0.0594385965 252.680114,0.215368421 C252.680114,0.539192982 251.06198,0.815157895 250.91864,1.21077193 C250.907525,1.23508772 250.907525,1.24705263 250.907525,1.27059649 C250.907525,1.80978947 252.859098,3.14021053 252.859098,3.85964912 Z M251.62116,1.48635088 C251.62116,1.34277193 252.121318,1.23508772 252.513778,1.23508772 C252.823071,1.23508772 252.978293,1.24705263 252.978293,1.606 C252.978293,1.89392982 252.918504,2.16989474 252.716141,2.16989474 C252.371205,2.16989474 251.62116,1.70249123 251.62116,1.48635088 Z M267.070858,23.1235439 C266.904139,23.1235439 266.725155,23.2555439 266.725155,23.5778246 C266.725155,23.9379298 266.999954,24.1656491 267.154026,24.2374386 C267.237577,24.2852982 267.36827,24.3331579 267.499345,24.3331579 C267.844665,24.3331579 268.118315,24.2374386 268.118315,23.9495088 C268.118315,23.5778246 267.58328,23.1235439 267.070858,23.1235439 Z M265.786162,23.8657544 C265.535891,23.8657544 264.154613,25.7245614 263.262761,25.7245614 C263.048134,25.7245614 262.86915,25.3165965 262.86915,25.0055088 C262.86915,24.8372281 262.976464,24.717193 263.358193,24.6334386 C265.404815,24.1656491 264.952566,22.6198596 266.701393,22.6198596 C267.666448,22.6198596 268.738433,23.2794737 268.738433,24.7654386 C268.738433,26.3467368 266.500563,28.314 266.166741,28.314 C265.893092,28.314 265.594914,27.917614 265.594914,27.654386 C265.594914,27.5698596 265.63094,27.4621754 265.86933,27.3664561 C267.011452,26.9102456 267.666448,25.8565614 267.666448,25.3165965 C267.666448,25.1969474 267.607042,25.0769123 267.451821,25.0769123 C267.249075,25.0769123 266.381369,27.0661754 265.41708,27.0661754 C264.749436,27.0661754 264.071445,26.454807 264.071445,26.1684211 C264.071445,25.6882807 266.000022,24.8009474 266.000022,24.1293684 C266.000022,23.8777193 265.881211,23.8657544 265.786162,23.8657544 Z M248.823726,0.26322807 C248.823726,0.431508772 248.240401,0.431508772 248.240401,0.803192982 C248.240401,1.17487719 249.300122,1.48635088 249.300122,1.77389474 C249.300122,1.85803509 249.228835,1.88157895 249.157165,1.88157895 C248.954802,1.88157895 248.58572,1.71407018 248.312071,1.71407018 C248.121206,1.71407018 247.978249,1.80978947 247.978249,2.01357895 C247.978249,2.34936842 248.33545,2.86540351 248.33545,3.11666667 C248.33545,3.20042105 248.276044,3.26063158 248.204757,3.26063158 C247.91961,3.26063158 247.609934,2.33778947 247.192944,2.33778947 C246.680522,2.33778947 246.835743,3.66821053 246.478543,3.66821053 C246.133989,3.66821053 246.550213,2.31347368 245.919362,2.31347368 C245.538783,2.31347368 245.133674,2.92522807 244.896051,2.92522807 C244.836646,2.92522807 244.776857,2.90129825 244.776857,2.82950877 C244.776857,2.58905263 245.419205,2.04985965 245.419205,1.74996491 C245.419205,1.59403509 245.26475,1.55814035 245.097647,1.55814035 C244.800619,1.55814035 244.384013,1.67778947 244.122244,1.67778947 C244.00305,1.67778947 243.907617,1.64189474 243.907617,1.55814035 C243.907617,1.30687719 245.109529,1.18684211 245.109529,0.767298246 C245.109529,0.371298246 244.550732,0.431508772 244.550732,0.28754386 C244.550732,0.179473684 244.990334,0.0961052632 245.467113,0.0961052632 C246.252801,0.0961052632 246.097963,0.767298246 246.716932,0.767298246 C247.312139,0.767298246 247.204825,0.119263158 247.978249,0.119263158 C248.466909,0.119263158 248.823726,0.191824561 248.823726,0.26322807 Z M251.811641,7.40821053 C252.59618,7.40821053 252.954147,8.09136842 252.954147,8.85866667 C252.954147,9.19407018 252.859098,9.68540351 252.704643,9.68540351 C252.549422,9.68540351 252.573184,9.4094386 252.549422,9.15778947 C252.52566,8.83473684 252.466254,8.76294737 252.359324,8.76294737 C252.156961,8.76294737 252.026268,9.24231579 252.026268,9.68540351 C252.026268,9.96136842 252.073026,10.2732281 252.288037,10.2732281 C252.406082,10.2732281 252.513778,10.2130175 252.585065,10.141614 C252.537541,10.6927719 252.132815,11.1721404 251.561754,11.1721404 C250.513914,11.1721404 250.12107,9.9374386 250.001875,9.218 C249.371792,9.88996491 248.788466,10.3809123 247.740626,10.3809123 C246.764456,10.3809123 246.324854,9.66224561 246.324854,8.97831579 C246.324854,8.77452632 246.395758,8.24729825 246.645262,8.24729825 C246.943057,8.24729825 246.680522,9.23035088 247.264614,9.23035088 C247.407571,9.23035088 247.669339,9.10992982 247.812296,8.71508772 C247.895848,8.47501754 247.942989,8.22298246 247.942989,8.00761404 C247.942989,7.68340351 247.872085,7.48 247.633696,7.48 C247.43095,7.48 247.181063,7.63592982 247.097895,7.71929825 C247.383426,6.8562807 248.073681,6.41319298 248.835607,6.41319298 C249.776134,6.41319298 250.276291,7.25266667 250.276291,8.18708772 C250.276291,8.31908772 250.264027,8.4634386 250.240265,8.59466667 C250.645373,7.92308772 251.204553,7.40821053 251.811641,7.40821053 Z M258.571627,31.5024561 C259.143071,31.5024561 259.107811,31.4545965 259.286795,31.4545965 C259.465012,31.4545965 259.476893,31.5626667 259.476893,31.6340702 C259.476893,31.8984561 258.893184,32.2218947 257.857992,32.2218947 C257.250521,32.2218947 256.881439,31.8984561 256.775275,31.5383509 C256.179302,31.922 255.275569,32.2701404 254.383333,32.2701404 C251.942334,32.2701404 251.322982,31.2029474 250.561822,30.854807 C249.978496,30.591193 249.085495,31.1064561 247.836442,29.7034737 C248.002011,29.7397544 248.22852,29.7513333 248.40712,29.7513333 C249.502484,29.7513333 250.08581,29.2129123 250.08581,28.3502807 C250.08581,28.2414386 250.073546,28.1217895 250.061664,28.0141053 C250.395486,28.1457193 251.157029,28.7215789 251.335246,29.7397544 C251.359008,29.8597895 251.847285,29.9670877 252.156961,29.9670877 C252.585065,29.9670877 253.133131,29.7872281 253.216299,29.0809123 C254.644718,28.9616491 255.607857,28.1098246 255.81022,27.0306667 C256.322259,27.1985614 256.905201,27.6659649 257.048541,27.9056491 C257.250521,27.8338596 257.48891,27.7979649 257.76256,27.7979649 C258.143906,27.7979649 258.571627,27.8697544 259.084049,28.0260702 C259.107811,27.8697544 259.131573,27.6779298 259.369963,27.6779298 C259.72678,27.6779298 259.631731,28.0739298 259.750926,28.3016491 C259.810715,28.4212982 260.107743,28.4934737 260.107743,28.7335439 C260.107743,28.9616491 259.916879,29.0446316 259.79845,29.0446316 C259.750926,29.0446316 259.69152,29.0330526 259.655493,29.0214737 C259.417487,29.106 259.405223,30.8304912 258.405291,30.8304912 C257.66751,30.8304912 256.988752,30.2191228 256.691724,29.4518246 C256.608556,29.2244912 256.429572,29.0809123 256.262853,29.0809123 C256.072372,29.0809123 255.965441,29.1175789 255.738933,29.3680702 C255.096585,30.0751579 254.025749,30.6865263 252.704643,30.6865263 C252.299918,30.6865263 251.978361,30.6514035 251.894426,30.6514035 C251.847285,30.6514035 251.847285,30.6633684 251.847285,30.6749474 C251.847285,30.7590877 252.25201,31.0829123 253.133131,31.0829123 C255.227278,31.0829123 255.738933,29.8956842 256.072372,29.8956842 C256.120663,29.8956842 256.262853,29.8956842 256.346404,30.0875088 C256.834298,31.2388421 257.894019,31.5024561 258.560129,31.5024561 L258.571627,31.5024561 Z M240.455954,12.682807 C240.812389,13.2347368 241.14621,13.4018596 241.574698,13.4018596 C241.896255,13.4018596 242.253073,13.3304561 242.717587,13.222 C242.110116,13.749614 241.59846,14.024807 241.217497,14.024807 C240.728837,14.024807 240.455954,13.5932982 240.455954,12.682807 Z M240.872177,11.615614 C241.158091,12.012 241.634104,12.1308772 242.074472,12.1308772 C242.217046,12.1308772 242.372267,12.1189123 242.50296,12.0949825 C242.193667,12.4909825 241.848347,12.6708421 241.551319,12.6708421 C241.158091,12.6708421 240.860296,12.3585965 240.860296,11.7954737 C240.860296,11.7360351 240.860296,11.6754386 240.872177,11.615614 Z M243.788806,11.4481053 C243.740898,11.5920702 243.705255,11.748 243.705255,11.9996491 C243.705255,12.3585965 243.824066,12.7187018 244.157504,13.0421404 C244.062455,13.1139298 243.907617,13.1621754 243.69299,13.1621754 C243.27715,13.1621754 242.943712,12.8862105 242.943712,12.4543158 C242.943712,11.8556842 243.514773,11.5198947 243.788806,11.4481053 Z M244.978453,24.4771228 C244.562613,26.2282456 245.490492,27.9538947 247.39569,27.9538947 C248.347331,27.9538947 248.811845,27.4621754 248.811845,26.6103509 C248.811845,25.6647368 248.180612,24.717193 247.12204,24.717193 C246.585473,24.717193 246.217157,25.0290526 246.217157,25.4601754 C246.217157,26.180386 246.8001,26.6346667 247.407571,26.6346667 C247.812296,26.6346667 248.073681,26.4671579 248.073681,26.1923509 C248.073681,26.1444912 248.0618,26.0842807 248.038038,26.048386 C247.99013,26.0723158 247.895848,26.0966316 247.776653,26.0966316 C247.288376,26.0966316 246.895149,25.8083158 246.895149,25.5211579 C246.895149,25.2926667 247.049987,25.1490877 247.264614,25.1490877 C247.978249,25.1490877 248.466909,25.8924561 248.466909,26.4308772 C248.466909,26.982807 248.073681,27.4621754 247.407571,27.4621754 C245.991033,27.4621754 245.395443,26.2764912 245.395443,25.4844912 C245.395443,24.6334386 246.097963,24.0579649 246.883651,24.0579649 C248.323569,24.0579649 249.430814,25.3289474 249.430814,27.1383509 C249.430814,27.9538947 249.00271,29.1650526 247.264614,29.1650526 C245.204961,29.1650526 243.955525,27.3544912 243.955525,26.180386 C243.955525,25.1969474 244.586375,24.573614 244.978453,24.4771228 Z M262.762603,6.4614386 C262.917058,6.36533333 263.582785,6.52087719 264.452408,6.08898246 C264.559338,6.03031579 264.666652,6.006 264.761701,6.006 C265.179074,6.006 265.070994,6.48498246 265.452723,6.48498246 C265.750518,6.48498246 266.131098,6.23333333 266.357606,6.23333333 C266.713274,6.23333333 267.225696,7.36035088 267.225696,7.88757895 C267.225696,8.49894737 266.310465,8.87063158 265.226598,8.87063158 C263.642957,8.87063158 262.690933,7.48 262.690933,6.58108772 C262.690933,6.50891228 262.72696,6.48498246 262.762603,6.4614386 Z M265.357291,7.98329825 C265.881211,7.98329825 266.274438,7.74361404 266.274438,7.59964912 C266.274438,7.55178947 266.202385,7.5162807 266.04793,7.5162807 C265.893092,7.5162807 265.583033,7.50431579 265.00009,7.40821053 C264.499549,7.32445614 264.118586,7.13301754 263.975629,7.13301754 C263.928105,7.13301754 263.904726,7.15617544 263.904726,7.19245614 C263.904726,7.50431579 264.475787,7.98329825 265.357291,7.98329825 Z M244.729332,19.9578596 C244.407392,19.9578596 244.085834,19.7065965 244.085834,19.2631228 C244.085834,19.2032982 244.122244,18.9871579 244.193531,18.9871579 C244.288963,18.9871579 244.36025,19.238807 244.6339,19.238807 C245.157053,19.238807 245.19308,18.7231579 245.19308,17.6926316 C245.19308,16.5061754 245.680973,15.1506667 247.252733,14.1328772 C247.002463,14.564386 246.943057,15.1271228 246.943057,15.4748772 C246.943057,17.5127719 249.383673,19.4190526 249.383673,20.6776842 C249.383673,21.1929474 249.014208,21.7684211 248.33545,21.7684211 C247.740626,21.7684211 247.419069,21.2886667 247.419069,20.8934386 C247.419069,20.5815789 247.633696,20.3422807 247.705366,20.3422807 C247.740626,20.3422807 247.752507,20.3658246 247.752507,20.4499649 C247.752507,20.6174737 247.883966,20.834 248.156849,20.834 C248.40712,20.834 248.573839,20.6537544 248.573839,20.4260351 C248.573839,19.4310175 246.562094,17.6926316 246.562094,15.3069825 C246.45478,15.5705965 246.324854,15.906 246.324854,16.4100702 C246.324854,17.5610175 247.157301,18.7594386 247.157301,19.8382105 C247.157301,20.2820702 246.811981,20.6776842 246.383877,20.6776842 C245.883719,20.6776842 245.705119,20.2820702 245.705119,20.0296491 C245.705119,19.8621404 245.776789,19.7065965 245.824313,19.7065965 C245.883719,19.7065965 245.859957,19.9578596 246.133989,19.9578596 C246.41952,19.9578596 246.52645,19.7540702 246.52645,19.3831579 C246.52645,18.3877544 245.955006,17.6806667 245.955006,16.6493684 C245.955006,16.4942105 245.955006,16.3263158 245.991033,16.170386 C245.680973,16.5416842 245.645713,17.0692982 245.645713,17.5370877 L245.645713,18.7594386 C245.645713,19.5865614 245.229107,19.9578596 244.729332,19.9578596 Z M244.217293,8.16354386 C244.217293,7.89954386 244.431154,7.68340351 244.693689,7.68340351 C244.955074,7.68340351 245.169318,7.89954386 245.169318,8.16354386 C245.169318,8.42715789 244.955074,8.64291228 244.693689,8.64291228 C244.431154,8.64291228 244.217293,8.42715789 244.217293,8.16354386 Z M244.836646,9.24231579 C244.836646,8.97831579 245.050123,8.76294737 245.312275,8.76294737 C245.574426,8.76294737 245.78867,8.97831579 245.78867,9.24231579 C245.78867,9.50554386 245.574426,9.72168421 245.312275,9.72168421 C245.050123,9.72168421 244.836646,9.50554386 244.836646,9.24231579 Z M257.643748,29.106 C257.643748,29.3680702 257.857992,29.5838246 258.120144,29.5838246 C258.381145,29.5838246 258.595772,29.3680702 258.595772,29.106 C258.595772,28.8408421 258.381145,28.6254737 258.120144,28.6254737 C257.857992,28.6254737 257.643748,28.8408421 257.643748,29.106 Z M259.227006,11.4357544 C259.227006,11.1721404 259.44125,10.956386 259.703018,10.956386 C259.964786,10.956386 260.17903,11.1721404 260.17903,11.4357544 C260.17903,11.6997544 259.964786,11.9158947 259.703018,11.9158947 C259.44125,11.9158947 259.227006,11.6997544 259.227006,11.4357544 Z M258.822664,13.1262807 C258.822664,12.7545965 259.131573,12.4431228 259.500655,12.4431228 C259.869737,12.4431228 260.17903,12.7545965 260.17903,13.1262807 C260.17903,13.4983509 259.869737,13.8094386 259.500655,13.8094386 C259.131573,13.8094386 258.822664,13.4983509 258.822664,13.1262807 Z M260.321987,12.3585965 C260.321987,11.9514035 260.643161,11.627193 261.04827,11.627193 C261.452612,11.627193 261.774169,11.9514035 261.774169,12.3585965 C261.774169,12.7665614 261.452612,13.090386 261.04827,13.090386 C260.643161,13.090386 260.321987,12.7665614 260.321987,12.3585965 Z M260.381393,10.8004561 C260.381393,10.548807 260.583755,10.3454035 260.833643,10.3454035 C261.083913,10.3454035 261.286659,10.548807 261.286659,10.8004561 C261.286659,11.0517193 261.083913,11.2566667 260.833643,11.2566667 C260.583755,11.2566667 260.381393,11.0517193 260.381393,10.8004561 Z M262.536095,9.64912281 C262.536095,9.39785965 262.738841,9.19407018 262.988728,9.19407018 C263.238615,9.19407018 263.440978,9.39785965 263.440978,9.64912281 C263.440978,9.90192982 263.238615,10.1053333 262.988728,10.1053333 C262.738841,10.1053333 262.536095,9.90192982 262.536095,9.64912281 Z M261.643476,11.1242807 C261.643476,10.7043509 261.988413,10.3569825 262.405402,10.3569825 C262.821626,10.3569825 263.166945,10.7043509 263.166945,11.1242807 C263.166945,11.5438246 262.821626,11.891193 262.405402,11.891193 C261.988413,11.891193 261.643476,11.5438246 261.643476,11.1242807 Z M260.416653,13.9290877 C260.416653,13.6650877 260.630897,13.4501053 260.893432,13.4501053 C261.1552,13.4501053 261.36906,13.6650877 261.36906,13.9290877 C261.36906,14.1934737 261.1552,14.4080702 260.893432,14.4080702 C260.630897,14.4080702 260.416653,14.1934737 260.416653,13.9290877 Z M261.976532,12.9703509 C261.976532,12.7067368 262.191159,12.4909825 262.452544,12.4909825 C262.714695,12.4909825 262.928939,12.7067368 262.928939,12.9703509 C262.928939,13.2347368 262.714695,13.4501053 262.452544,13.4501053 C262.191159,13.4501053 261.976532,13.2347368 261.976532,12.9703509 Z M261.536163,14.6601053 C261.536163,14.2046667 261.904862,13.8329825 262.357495,13.8329825 C262.809745,13.8329825 263.178826,14.2046667 263.178826,14.6601053 C263.178826,15.1155439 262.809745,15.4868421 262.357495,15.4868421 C261.904862,15.4868421 261.536163,15.1155439 261.536163,14.6601053 Z M263.250113,13.6407719 C263.250113,13.3304561 263.50115,13.0784211 263.80891,13.0784211 C264.118586,13.0784211 264.368473,13.3304561 264.368473,13.6407719 C264.368473,13.9530175 264.118586,14.2046667 263.80891,14.2046667 C263.50115,14.2046667 263.250113,13.9530175 263.250113,13.6407719 Z M263.215236,12.1308772 C263.215236,11.8556842 263.440978,11.627193 263.713861,11.627193 C263.98751,11.627193 264.214019,11.8556842 264.214019,12.1308772 C264.214019,12.4068421 263.98751,12.6345614 263.713861,12.6345614 C263.440978,12.6345614 263.215236,12.4068421 263.215236,12.1308772 Z M269.856794,0.767298246 C269.856794,0.935192982 269.987103,1.06680702 270.154205,1.06680702 C270.320541,1.06680702 270.451617,0.935192982 270.451617,0.767298246 C270.451617,0.599403509 270.320541,0.467017544 270.154205,0.467017544 C269.987103,0.467017544 269.856794,0.599403509 269.856794,0.767298246 Z M243.336556,22.7518596 C243.300912,22.2840702 243.621703,21.9359298 244.038693,21.8757193 L244.122244,21.8641404 C244.085834,21.7807719 244.062455,21.6846667 244.062455,21.6240702 C244.014547,21.1805965 244.336105,20.7737895 244.753094,20.7494737 C245.19308,20.7012281 245.502756,20.9891579 245.61007,21.3484912 C245.705119,21.2643509 245.835811,21.2168772 245.991033,21.1805965 C246.395758,21.1450877 246.788219,21.4565614 246.835743,21.8880702 C246.871387,22.308 246.550213,22.6916491 246.133989,22.7395088 L246.050438,22.7518596 C246.086082,22.836 246.121725,22.9074035 246.121725,23.0278246 C246.169633,23.4701404 245.859957,23.8418246 245.419205,23.8777193 C244.978453,23.9259649 244.681808,23.6862807 244.586375,23.3022456 C244.491326,23.3624561 244.347986,23.4099298 244.193531,23.4226667 C243.76466,23.4701404 243.384464,23.1594386 243.336556,22.7518596 Z M244.657662,22.3801754 C244.681808,22.6314386 244.907549,22.8120702 245.157053,22.7997193 C245.407324,22.7638246 245.586307,22.5476842 245.561778,22.2956491 C245.538783,22.044386 245.312275,21.8525614 245.062387,21.8880702 C244.8125,21.912386 244.645398,22.1404912 244.657662,22.3801754 Z M259.92876,4.66284211 C259.762807,4.66284211 259.084049,5.44287719 258.857924,5.44287719 C258.810016,5.44287719 258.798135,5.44287719 258.798135,5.38266667 C258.798135,5.14221053 259.393725,4.30350877 259.393725,4.05224561 C259.393725,3.79982456 258.583508,3.94417544 258.583508,3.74 C258.583508,3.48835088 259.393725,3.22435088 259.393725,2.88894737 C259.393725,2.55354386 258.619535,2.50529825 258.619535,2.24129825 C258.619535,2.09733333 259.345817,1.89392982 259.345817,1.67778947 C259.345817,1.46280702 258.608037,0.623719298 258.608037,0.347368421 C258.608037,0.0478596491 259.714899,0.875368421 260.000047,0.875368421 C260.143387,0.875368421 260.143387,0.455052632 260.143387,0.323438596 C260.143387,0.119263158 260.202409,1.77635684e-14 260.261815,1.77635684e-14 C260.405155,1.77635684e-14 260.691069,0.479368421 260.88155,0.467017544 C261.190843,0.467017544 261.774169,0.0717894737 262.572122,0.0717894737 C264.250045,0.0717894737 265.464604,1.09073684 265.464604,2.82950877 C265.464604,4.62733333 264.106705,5.6462807 262.666788,5.6462807 C261.655358,5.6462807 261.04827,5.01059649 260.821761,5.01059649 C260.667307,5.01059649 260.441182,5.56214035 260.298225,5.56214035 C260.238436,5.56214035 260.214674,5.54978947 260.190911,5.40621053 C260.155268,5.13063158 260.119241,4.66284211 259.92876,4.66284211 Z M241.694276,16.4463509 C242.098234,16.4463509 242.0143,13.9530175 242.669679,13.9530175 C242.8249,13.9530175 242.872042,14.1089474 242.872042,14.300386 C242.872042,14.8638947 242.598392,15.6910175 242.598392,16.1464561 C242.598392,16.3741754 242.657798,16.4463509 242.764728,16.4463509 C243.050642,16.4463509 243.550416,13.7013684 244.038693,13.7013684 C244.193531,13.7013684 244.264818,13.8572982 244.264818,14.0132281 C244.264818,14.5879298 243.538919,16.2421754 243.538919,16.7095789 C243.538919,16.7813684 243.562681,16.841193 243.621703,16.841193 C243.919498,16.841193 244.515088,15.5466667 244.70557,14.8997895 C244.8125,14.564386 244.955074,14.3841404 245.085766,14.3841404 C245.204961,14.3841404 245.312275,14.5161404 245.312275,14.7921053 C245.312275,15.4389825 244.717451,16.961614 244.193531,17.9805614 C243.788806,18.7714035 243.157956,19.910386 243.157956,20.5460702 C243.157956,20.8695088 243.217745,21.2049123 243.681492,21.6124912 C242.919566,21.5646316 242.610273,21.4928421 242.324359,20.8934386 C241.050778,23.4462105 244.669543,23.1953333 243.431605,25.4601754 C243.205863,25.0533684 241.41986,24.6334386 241.41986,22.2601404 C241.41986,20.2098947 243.205863,19.0110877 243.205863,18.1600351 C243.205863,17.9929123 243.145691,17.8489474 242.991236,17.7169474 C242.598392,17.3815439 242.586511,17.105193 242.276835,17.105193 C242.05071,17.105193 241.77706,17.633193 242.062208,18.0998246 C242.15764,18.2557544 242.241191,18.3514737 242.241191,18.4954386 C242.241191,18.831614 241.717655,19.7301404 241.348573,19.7301404 C240.979491,19.7301404 240.693577,18.8076842 240.693577,17.3209474 C240.693577,16.0021053 240.990989,14.6720702 241.360454,14.6720702 C241.467384,14.6720702 241.503411,14.7438596 241.503411,14.8403509 C241.503411,14.9955088 241.455503,15.3069825 241.455503,15.8345965 C241.455503,16.3984912 241.586579,16.4463509 241.694276,16.4463509 Z M268.321444,7.04849123 C268.154341,7.04849123 267.915952,7.04849123 267.785259,6.78487719 C267.677563,6.56912281 267.714356,6.22175439 267.511227,6.06505263 C267.714356,6.12526316 267.927833,6.12526316 268.094936,6.12526316 C268.630737,6.12526316 269.142775,5.75435088 269.535236,5.75435088 C269.797005,5.75435088 269.880173,5.92224561 269.880173,6.08898246 C269.880173,6.61659649 268.821218,7.04849123 268.321444,7.04849123 Z M268.583212,8.40322807 C268.118315,8.40322807 267.79714,8.25926316 267.79714,7.92308772 C267.79714,7.77950877 267.915952,7.50431579 268.309179,7.50431579 C269.393429,7.50431579 270.392211,6.77252632 270.392211,6.11291228 C270.392211,5.92224561 270.356185,5.8377193 270.273017,5.73003509 C270.761293,5.79024561 270.952158,6.12526316 270.952158,6.53284211 C270.952158,7.40821053 269.820767,8.40322807 268.583212,8.40322807 Z M268.48778,8.90691228 C268.951911,8.95515789 270.392211,8.72705263 270.939894,7.61161404 C271.285213,7.73164912 271.249187,8.24729825 271.249187,8.90691228 C271.249187,10.0570877 271.130758,11.5438246 270.820699,11.5438246 C270.356185,11.5797193 268.643001,10.0455088 268.48778,8.90691228 Z" id="Combined-Shape"></path>
            </g>
        </g>
    </g>
</svg>