<svg xmlns="http://www.w3.org/2000/svg" width="109.328" height="38.12" viewBox="0 0 109.328 38.12"><g transform="translate(-100 -607)"><path d="M0,2.895A2.394,2.394,0,0,1,3.68.875L18.774,10.48a2.394,2.394,0,0,1,0,4.04L3.68,24.126A2.394,2.394,0,0,1,0,22.106ZM5.088,8.418v8.208a.337.337,0,0,0,.516.285l6.509-4.1a.337.337,0,0,0,0-.57L5.6,8.133a.337.337,0,0,0-.516.285Z" transform="translate(100 606.5)" fill="#8b909f" fill-rule="evenodd"/><path d="M71.1,21.4a.77.77,0,0,1-.79-.6L66.884,9.692a.727.727,0,0,1-.024-.215A.528.528,0,0,1,67,9.1a.468.468,0,0,1,.359-.156h1.82a.651.651,0,0,1,.419.144.629.629,0,0,1,.227.311l2.323,7.878,2.466-7.806a.834.834,0,0,1,.251-.371.687.687,0,0,1,.467-.156h1.221a.687.687,0,0,1,.467.156.678.678,0,0,1,.227.371l2.49,7.806L82.064,9.4a.651.651,0,0,1,.215-.311.639.639,0,0,1,.431-.144h1.8a.531.531,0,0,1,.527.527l-.048.215L81.562,20.8a.98.98,0,0,1-.275.443.724.724,0,0,1-.491.156h-1.58a.747.747,0,0,1-.79-.6l-2.466-7.518L73.469,20.8a.784.784,0,0,1-.814.6Zm21.15.239A6.132,6.132,0,0,1,87.891,20.2a5.564,5.564,0,0,1-1.652-3.975l-.024-1.054.024-1.054a5.531,5.531,0,0,1,1.676-3.963,7.171,7.171,0,0,1,8.644,0,5.531,5.531,0,0,1,1.676,3.963q.024.287.024,1.054t-.024,1.054A5.564,5.564,0,0,1,96.582,20.2,6.1,6.1,0,0,1,92.248,21.64Zm0-2.418a2.438,2.438,0,0,0,1.951-.79,3.645,3.645,0,0,0,.73-2.323q.024-.239.024-.934t-.024-.934a3.653,3.653,0,0,0-.742-2.335,2.428,2.428,0,0,0-1.939-.8,2.457,2.457,0,0,0-1.963.8,3.653,3.653,0,0,0-.742,2.335l-.024.934.024.934a3.6,3.6,0,0,0,.742,2.323A2.475,2.475,0,0,0,92.248,19.221Zm13.919,2.418A6.132,6.132,0,0,1,101.81,20.2a5.564,5.564,0,0,1-1.652-3.975l-.024-1.054.024-1.054a5.531,5.531,0,0,1,1.676-3.963,7.171,7.171,0,0,1,8.644,0,5.531,5.531,0,0,1,1.676,3.963q.024.287.024,1.054t-.024,1.054A5.564,5.564,0,0,1,110.5,20.2,6.1,6.1,0,0,1,106.168,21.64Zm0-2.418a2.438,2.438,0,0,0,1.951-.79,3.645,3.645,0,0,0,.73-2.323q.024-.239.024-.934t-.024-.934a3.653,3.653,0,0,0-.742-2.335,2.428,2.428,0,0,0-1.939-.8,2.457,2.457,0,0,0-1.963.8,3.653,3.653,0,0,0-.742,2.335l-.024.934.024.934a3.6,3.6,0,0,0,.742,2.323A2.475,2.475,0,0,0,106.168,19.221ZM120.111,21.4a4.367,4.367,0,0,1-3.28-1.137,4.618,4.618,0,0,1-1.1-3.34V11.511h-1.892a.572.572,0,0,1-.575-.575V9.524a.572.572,0,0,1,.575-.575h1.892V4.975a.544.544,0,0,1,.168-.419A.576.576,0,0,1,116.3,4.4h1.987a.536.536,0,0,1,.575.575V8.949h2.993a.572.572,0,0,1,.575.575v1.413a.572.572,0,0,1-.575.575h-2.993v5.148a2.769,2.769,0,0,0,.359,1.556,1.317,1.317,0,0,0,1.173.527h1.676a.536.536,0,0,1,.575.575v1.508a.576.576,0,0,1-.156.407.544.544,0,0,1-.419.168Zm8.005.239a5.085,5.085,0,0,1-2.239-.491,4.066,4.066,0,0,1-1.6-1.329,3.253,3.253,0,0,1,.73-4.478,7.906,7.906,0,0,1,3.616-1.365l3.28-.479V13a2.111,2.111,0,0,0-.527-1.556,2.294,2.294,0,0,0-1.676-.527,2.449,2.449,0,0,0-1.269.287,4.031,4.031,0,0,0-.778.587l-.4.4a.362.362,0,0,1-.359.287h-1.868a.528.528,0,0,1-.371-.144.5.5,0,0,1-.156-.383,2.533,2.533,0,0,1,.587-1.353,4.584,4.584,0,0,1,1.736-1.317,6.673,6.673,0,0,1,2.9-.563,5.705,5.705,0,0,1,4.118,1.269,4.455,4.455,0,0,1,1.293,3.328v7.518a.577.577,0,0,1-.156.407.544.544,0,0,1-.419.168H132.57a.572.572,0,0,1-.575-.575v-.934a3.927,3.927,0,0,1-1.485,1.257A5.22,5.22,0,0,1,128.116,21.64Zm.814-2.3a2.874,2.874,0,0,0,2.155-.862,3.43,3.43,0,0,0,.838-2.49V15.51l-2.394.383q-2.754.431-2.754,1.844a1.34,1.34,0,0,0,.635,1.185A2.7,2.7,0,0,0,128.93,19.341Zm14.614,7.327a7.287,7.287,0,0,1-3.448-.706,4.7,4.7,0,0,1-1.868-1.616,3.161,3.161,0,0,1-.551-1.556.516.516,0,0,1,.168-.4.576.576,0,0,1,.407-.156h2.131a.636.636,0,0,1,.371.108.753.753,0,0,1,.251.4,2.8,2.8,0,0,0,.79,1.066,2.5,2.5,0,0,0,1.628.443,2.983,2.983,0,0,0,2.107-.635,2.975,2.975,0,0,0,.67-2.215V19.772a4.528,4.528,0,0,1-3.663,1.532,4.6,4.6,0,0,1-3.747-1.508,6.636,6.636,0,0,1-1.353-4.118l-.024-.646.024-.646a6.732,6.732,0,0,1,1.365-4.118,4.538,4.538,0,0,1,3.735-1.556,4.918,4.918,0,0,1,2.227.479,4.478,4.478,0,0,1,1.58,1.293V9.548a.563.563,0,0,1,.18-.431.6.6,0,0,1,.419-.168h1.963a.554.554,0,0,1,.407.168.583.583,0,0,1,.168.431l.024,11.541a5.517,5.517,0,0,1-1.485,4.118A6.146,6.146,0,0,1,143.544,26.668Zm-.1-7.9a2.39,2.39,0,0,0,2.011-.862A3.689,3.689,0,0,0,146.2,15.8q.024-.192.024-.766t-.024-.766a3.689,3.689,0,0,0-.742-2.107,2.39,2.39,0,0,0-2.011-.862q-2.586,0-2.73,3.161l-.024.575Q140.695,18.766,143.448,18.766Z" transform="translate(59.821 604.156)" fill="#8b909f" fill-rule="evenodd"/><path d="M1.224,0a.278.278,0,0,1-.2-.084.278.278,0,0,1-.084-.2V-8.1a.3.3,0,0,1,.078-.216.273.273,0,0,1,.21-.084H4.44a3.477,3.477,0,0,1,2.28.684,2.435,2.435,0,0,1,.828,1.992A2.369,2.369,0,0,1,6.72-3.762,3.542,3.542,0,0,1,4.44-3.1H2.676V-.288a.273.273,0,0,1-.084.21A.3.3,0,0,1,2.376,0ZM4.38-4.44a1.535,1.535,0,0,0,1.062-.33,1.234,1.234,0,0,0,.366-.966,1.3,1.3,0,0,0-.354-.972A1.476,1.476,0,0,0,4.38-7.056H2.652V-4.44ZM10.392.12A2.548,2.548,0,0,1,9.27-.126a2.038,2.038,0,0,1-.8-.666,1.576,1.576,0,0,1-.294-.924,1.583,1.583,0,0,1,.66-1.32,3.962,3.962,0,0,1,1.812-.684l1.644-.24v-.252a1.058,1.058,0,0,0-.264-.78,1.15,1.15,0,0,0-.84-.264,1.228,1.228,0,0,0-.636.144,2.02,2.02,0,0,0-.39.294l-.2.2a.181.181,0,0,1-.18.144H8.844a.265.265,0,0,1-.186-.072A.249.249,0,0,1,8.58-4.74a1.27,1.27,0,0,1,.294-.678,2.3,2.3,0,0,1,.87-.66A3.344,3.344,0,0,1,11.2-6.36a2.859,2.859,0,0,1,2.064.636,2.233,2.233,0,0,1,.648,1.668V-.288a.289.289,0,0,1-.078.2A.273.273,0,0,1,13.62,0h-1a.278.278,0,0,1-.2-.084.278.278,0,0,1-.084-.2V-.756a1.968,1.968,0,0,1-.744.63A2.616,2.616,0,0,1,10.392.12ZM10.8-1.032a1.44,1.44,0,0,0,1.08-.432,1.719,1.719,0,0,0,.42-1.248v-.24l-1.2.192q-1.38.216-1.38.924a.671.671,0,0,0,.318.594A1.351,1.351,0,0,0,10.8-1.032ZM15.732,0a.278.278,0,0,1-.2-.084.278.278,0,0,1-.084-.2V-5.94a.292.292,0,0,1,.084-.216.278.278,0,0,1,.2-.084h.984a.292.292,0,0,1,.216.084.292.292,0,0,1,.084.216v.492a2.037,2.037,0,0,1,1.728-.792h.5a.284.284,0,0,1,.21.078.284.284,0,0,1,.078.21v.876a.289.289,0,0,1-.078.2.273.273,0,0,1-.21.084H18.3a1.2,1.2,0,0,0-.888.324,1.2,1.2,0,0,0-.324.888V-.288a.278.278,0,0,1-.084.2A.278.278,0,0,1,16.8,0ZM23.3,0A2.189,2.189,0,0,1,21.66-.57a2.314,2.314,0,0,1-.552-1.674V-4.956H20.16a.278.278,0,0,1-.2-.084.278.278,0,0,1-.084-.2v-.708a.278.278,0,0,1,.084-.2.278.278,0,0,1,.2-.084h.948V-8.232a.273.273,0,0,1,.084-.21.289.289,0,0,1,.2-.078h1a.284.284,0,0,1,.21.078.284.284,0,0,1,.078.21V-6.24h1.5a.278.278,0,0,1,.2.084.278.278,0,0,1,.084.2v.708a.278.278,0,0,1-.084.2.278.278,0,0,1-.2.084h-1.5v2.58a1.388,1.388,0,0,0,.18.78.66.66,0,0,0,.588.264h.84a.284.284,0,0,1,.21.078.284.284,0,0,1,.078.21v.756a.289.289,0,0,1-.078.2.273.273,0,0,1-.21.084Zm2.628,0a.278.278,0,0,1-.2-.084.278.278,0,0,1-.084-.2V-5.952a.273.273,0,0,1,.084-.21.289.289,0,0,1,.2-.078h1a.284.284,0,0,1,.21.078.284.284,0,0,1,.078.21v.492a2.444,2.444,0,0,1,2-.9,2.239,2.239,0,0,1,1.752.72,2.852,2.852,0,0,1,.648,1.98V-.288a.289.289,0,0,1-.078.2.273.273,0,0,1-.21.084h-1.08a.278.278,0,0,1-.2-.084.278.278,0,0,1-.084-.2v-3.3a1.592,1.592,0,0,0-.342-1.086,1.231,1.231,0,0,0-.978-.39,1.287,1.287,0,0,0-.984.4,1.514,1.514,0,0,0-.372,1.08v3.3a.289.289,0,0,1-.078.2A.273.273,0,0,1,27,0Zm9.912.12a2.917,2.917,0,0,1-2.13-.768,3.069,3.069,0,0,1-.834-2.184l-.012-.3A3.381,3.381,0,0,1,33.654-5.5a2.8,2.8,0,0,1,2.178-.864,2.8,2.8,0,0,1,2.2.864,3.324,3.324,0,0,1,.774,2.3v.252a.278.278,0,0,1-.084.2.292.292,0,0,1-.216.084H34.524v.1a1.862,1.862,0,0,0,.366,1.11,1.129,1.129,0,0,0,.942.438,1.354,1.354,0,0,0,1.116-.552.65.65,0,0,1,.168-.162.494.494,0,0,1,.2-.03h1.056a.3.3,0,0,1,.186.06.2.2,0,0,1,.078.168,1.117,1.117,0,0,1-.342.678,2.832,2.832,0,0,1-.978.678A3.547,3.547,0,0,1,35.844.12Zm1.308-3.792V-3.7A1.718,1.718,0,0,0,36.8-4.83a1.189,1.189,0,0,0-.966-.426,1.172,1.172,0,0,0-.96.426A1.738,1.738,0,0,0,34.524-3.7v.024ZM40.368,0a.278.278,0,0,1-.2-.084.278.278,0,0,1-.084-.2V-5.94a.292.292,0,0,1,.084-.216.278.278,0,0,1,.2-.084h.984a.292.292,0,0,1,.216.084.292.292,0,0,1,.084.216v.492A2.037,2.037,0,0,1,43.38-6.24h.5a.284.284,0,0,1,.21.078.284.284,0,0,1,.078.21v.876a.289.289,0,0,1-.078.2.273.273,0,0,1-.21.084h-.948a1.2,1.2,0,0,0-.888.324,1.2,1.2,0,0,0-.324.888V-.288a.278.278,0,0,1-.084.2.278.278,0,0,1-.2.084Zm7.116.12A3.708,3.708,0,0,1,45.96-.156,2.408,2.408,0,0,1,45.054-.8a1.085,1.085,0,0,1-.294-.63.249.249,0,0,1,.078-.192.265.265,0,0,1,.186-.072h.984a.208.208,0,0,1,.168.1q.06.048.27.228a1.6,1.6,0,0,0,.48.282,1.668,1.668,0,0,0,.594.1,1.462,1.462,0,0,0,.78-.186.593.593,0,0,0,.3-.534.553.553,0,0,0-.138-.39,1.243,1.243,0,0,0-.492-.276,9.52,9.52,0,0,0-1.062-.282,3.2,3.2,0,0,1-1.506-.66,1.516,1.516,0,0,1-.486-1.176,1.59,1.59,0,0,1,.288-.906,2.074,2.074,0,0,1,.858-.7,3.157,3.157,0,0,1,1.362-.27,3.478,3.478,0,0,1,1.4.258,2.433,2.433,0,0,1,.894.618,1.049,1.049,0,0,1,.306.636.254.254,0,0,1-.078.186.254.254,0,0,1-.186.078h-.9a.24.24,0,0,1-.2-.1q-.084-.06-.27-.222a1.531,1.531,0,0,0-.414-.258,1.421,1.421,0,0,0-.552-.1,1.071,1.071,0,0,0-.684.192.614.614,0,0,0-.24.5.562.562,0,0,0,.114.36,1.055,1.055,0,0,0,.462.27,7.271,7.271,0,0,0,1.044.258q2.16.42,2.16,1.884a1.624,1.624,0,0,1-.738,1.38A3.488,3.488,0,0,1,47.484.12Z" transform="translate(158 645)" fill="#8b909f"/></g></svg>