<svg xmlns="http://www.w3.org/2000/svg" xmlns:xlink="http://www.w3.org/1999/xlink" width="109.328" height="24" viewBox="0 0 109.328 24">
  <defs>
    <linearGradient id="linear-gradient" x2="1" y2="1" gradientUnits="objectBoundingBox">
      <stop offset="0" stop-color="aqua"/>
      <stop offset="0.187" stop-color="#1fbcf0"/>
      <stop offset="0.764" stop-color="#7011ff"/>
      <stop offset="1" stop-color="#8c1aff"/>
    </linearGradient>
  </defs>
  <g id="Group_354" data-name="Group 354" transform="translate(-123 -38)">
    <path id="Combined-Shape" d="M0,2.895A2.394,2.394,0,0,1,3.68.875L18.774,10.48a2.394,2.394,0,0,1,0,4.04L3.68,24.126A2.394,2.394,0,0,1,0,22.106ZM5.088,8.418v8.208a.337.337,0,0,0,.516.285l6.509-4.1a.337.337,0,0,0,0-.57L5.6,8.133a.337.337,0,0,0-.516.285Z" transform="translate(123 37.5)" fill-rule="evenodd" fill="url(#linear-gradient)"/>
    <path id="wootag" d="M71.1,21.4a.77.77,0,0,1-.79-.6L66.884,9.692a.727.727,0,0,1-.024-.215A.528.528,0,0,1,67,9.1a.468.468,0,0,1,.359-.156h1.82a.651.651,0,0,1,.419.144.629.629,0,0,1,.227.311l2.323,7.878,2.466-7.806a.834.834,0,0,1,.251-.371.687.687,0,0,1,.467-.156h1.221a.687.687,0,0,1,.467.156.678.678,0,0,1,.227.371l2.49,7.806L82.064,9.4a.651.651,0,0,1,.215-.311.639.639,0,0,1,.431-.144h1.8a.531.531,0,0,1,.527.527l-.048.215L81.562,20.8a.98.98,0,0,1-.275.443.724.724,0,0,1-.491.156h-1.58a.747.747,0,0,1-.79-.6l-2.466-7.518L73.469,20.8a.784.784,0,0,1-.814.6Zm21.15.239A6.132,6.132,0,0,1,87.891,20.2a5.564,5.564,0,0,1-1.652-3.975l-.024-1.054.024-1.054a5.531,5.531,0,0,1,1.676-3.963,7.171,7.171,0,0,1,8.644,0,5.531,5.531,0,0,1,1.676,3.963q.024.287.024,1.054t-.024,1.054A5.564,5.564,0,0,1,96.582,20.2,6.1,6.1,0,0,1,92.248,21.64Zm0-2.418a2.438,2.438,0,0,0,1.951-.79,3.645,3.645,0,0,0,.73-2.323q.024-.239.024-.934t-.024-.934a3.653,3.653,0,0,0-.742-2.335,2.428,2.428,0,0,0-1.939-.8,2.457,2.457,0,0,0-1.963.8,3.653,3.653,0,0,0-.742,2.335l-.024.934.024.934a3.6,3.6,0,0,0,.742,2.323A2.475,2.475,0,0,0,92.248,19.221Zm13.919,2.418A6.132,6.132,0,0,1,101.81,20.2a5.564,5.564,0,0,1-1.652-3.975l-.024-1.054.024-1.054a5.531,5.531,0,0,1,1.676-3.963,7.171,7.171,0,0,1,8.644,0,5.531,5.531,0,0,1,1.676,3.963q.024.287.024,1.054t-.024,1.054A5.564,5.564,0,0,1,110.5,20.2,6.1,6.1,0,0,1,106.168,21.64Zm0-2.418a2.438,2.438,0,0,0,1.951-.79,3.645,3.645,0,0,0,.73-2.323q.024-.239.024-.934t-.024-.934a3.653,3.653,0,0,0-.742-2.335,2.428,2.428,0,0,0-1.939-.8,2.457,2.457,0,0,0-1.963.8,3.653,3.653,0,0,0-.742,2.335l-.024.934.024.934a3.6,3.6,0,0,0,.742,2.323A2.475,2.475,0,0,0,106.168,19.221ZM120.111,21.4a4.367,4.367,0,0,1-3.28-1.137,4.618,4.618,0,0,1-1.1-3.34V11.511h-1.892a.572.572,0,0,1-.575-.575V9.524a.572.572,0,0,1,.575-.575h1.892V4.975a.544.544,0,0,1,.168-.419A.576.576,0,0,1,116.3,4.4h1.987a.536.536,0,0,1,.575.575V8.949h2.993a.572.572,0,0,1,.575.575v1.413a.572.572,0,0,1-.575.575h-2.993v5.148a2.769,2.769,0,0,0,.359,1.556,1.317,1.317,0,0,0,1.173.527h1.676a.536.536,0,0,1,.575.575v1.508a.576.576,0,0,1-.156.407.544.544,0,0,1-.419.168Zm8.005.239a5.085,5.085,0,0,1-2.239-.491,4.066,4.066,0,0,1-1.6-1.329,3.253,3.253,0,0,1,.73-4.478,7.906,7.906,0,0,1,3.616-1.365l3.28-.479V13a2.111,2.111,0,0,0-.527-1.556,2.294,2.294,0,0,0-1.676-.527,2.449,2.449,0,0,0-1.269.287,4.031,4.031,0,0,0-.778.587l-.4.4a.362.362,0,0,1-.359.287h-1.868a.528.528,0,0,1-.371-.144.5.5,0,0,1-.156-.383,2.533,2.533,0,0,1,.587-1.353,4.584,4.584,0,0,1,1.736-1.317,6.673,6.673,0,0,1,2.9-.563,5.705,5.705,0,0,1,4.118,1.269,4.455,4.455,0,0,1,1.293,3.328v7.518a.577.577,0,0,1-.156.407.544.544,0,0,1-.419.168H132.57a.572.572,0,0,1-.575-.575v-.934a3.927,3.927,0,0,1-1.485,1.257A5.22,5.22,0,0,1,128.116,21.64Zm.814-2.3a2.874,2.874,0,0,0,2.155-.862,3.43,3.43,0,0,0,.838-2.49V15.51l-2.394.383q-2.754.431-2.754,1.844a1.34,1.34,0,0,0,.635,1.185A2.7,2.7,0,0,0,128.93,19.341Zm14.614,7.327a7.287,7.287,0,0,1-3.448-.706,4.7,4.7,0,0,1-1.868-1.616,3.161,3.161,0,0,1-.551-1.556.516.516,0,0,1,.168-.4.576.576,0,0,1,.407-.156h2.131a.636.636,0,0,1,.371.108.753.753,0,0,1,.251.4,2.8,2.8,0,0,0,.79,1.066,2.5,2.5,0,0,0,1.628.443,2.983,2.983,0,0,0,2.107-.635,2.975,2.975,0,0,0,.67-2.215V19.772a4.528,4.528,0,0,1-3.663,1.532,4.6,4.6,0,0,1-3.747-1.508,6.636,6.636,0,0,1-1.353-4.118l-.024-.646.024-.646a6.732,6.732,0,0,1,1.365-4.118,4.538,4.538,0,0,1,3.735-1.556,4.918,4.918,0,0,1,2.227.479,4.478,4.478,0,0,1,1.58,1.293V9.548a.563.563,0,0,1,.18-.431.6.6,0,0,1,.419-.168h1.963a.554.554,0,0,1,.407.168.583.583,0,0,1,.168.431l.024,11.541a5.517,5.517,0,0,1-1.485,4.118A6.146,6.146,0,0,1,143.544,26.668Zm-.1-7.9a2.39,2.39,0,0,0,2.011-.862A3.689,3.689,0,0,0,146.2,15.8q.024-.192.024-.766t-.024-.766a3.689,3.689,0,0,0-.742-2.107,2.39,2.39,0,0,0-2.011-.862q-2.586,0-2.73,3.161l-.024.575Q140.695,18.766,143.448,18.766Z" transform="translate(82.821 35.156)" fill="#fff" fill-rule="evenodd"/>
  </g>
</svg>
