<?xml version="1.0" encoding="UTF-8"?>
<svg width="88px" height="33px" viewBox="0 0 88 33" version="1.1" xmlns="http://www.w3.org/2000/svg" xmlns:xlink="http://www.w3.org/1999/xlink">
    <!-- Generator: Sketch 52.6 (67491) - http://www.bohemiancoding.com/sketch -->
    <title>Combined Shape</title>
    <desc>Created with Sketch.</desc>
    <g id="Page-1" stroke="none" stroke-width="1" fill="none" fill-rule="evenodd">
        <g id="Artboard" transform="translate(-34.000000, -48.000000)" fill="#A0A6AF">
            <path d="M114.554169,64.9052125 L119.812521,64.9052125 C119.504186,63.4000601 118.407098,62.6607735 117.118514,62.6607735 C115.931191,62.6607735 114.835421,63.5268225 114.554169,64.9052125 Z M112.531717,66.0324833 C112.531717,64.3883012 113.007101,63.4206259 113.699986,62.470149 C114.93057,60.8365505 117.329663,60.474905 119.152711,61.2803389 C121.292841,62.2257647 121.967391,64.5033976 121.824308,66.7080279 L114.518338,66.7087495 C114.71307,68.0603198 115.828732,69.3677518 117.463759,69.3677518 C118.509797,69.3677518 119.078413,69.0157278 119.839484,68.4166735 L121.103022,69.6648134 C120.300728,70.4553342 118.900698,71.1777832 117.385626,71.1275113 C114.627388,71.1275113 112.531717,68.8463906 112.531717,66.0324833 Z M103.427266,65.6649446 L103.427266,66.2060298 C103.427266,68.7656909 106.262198,70.4923767 108.315089,68.4496269 C108.646072,68.1202132 109.134998,67.1099631 109.134998,66.4765122 L109.134998,65.8453465 C109.134998,61.4758945 103.427266,61.6471559 103.427266,65.6649446 Z M101.449751,66.2511302 L101.449751,57.4588274 L103.382328,57.4588274 L103.382328,61.7422878 C103.6051,61.6825147 104.143878,61.3148558 104.567734,61.17306 C108.083328,59.9708624 111.112393,62.3872844 111.112393,66.1609293 C111.112393,68.9043597 109.040688,71.1370124 106.303541,71.1370124 C103.373699,71.1370124 101.449751,69.1854257 101.449751,66.2511302 Z M92.1208497,65.4726363 C92.1158166,65.6095012 92.1008373,65.8528031 92.1077877,66.0698866 C92.2535068,70.6122837 97.7311568,70.1385486 97.8315784,66.3029657 L97.8315784,65.806981 C97.7547642,61.691174 92.4938955,61.5374716 92.1208497,65.4726363 Z M90.1463312,65.9873828 C90.1463312,63.2278365 92.0453537,60.8472543 94.6855547,60.8472543 L95.2248114,60.8472543 C97.7939502,60.8472543 99.8089728,63.1956048 99.8089728,65.806981 L99.8089728,66.1676643 C99.8089728,67.5406423 99.1996127,68.8086265 98.5387237,69.5374498 C97.908752,70.2322373 96.7307756,71.0824108 95.4496215,71.0824108 L94.5507405,71.0824108 C93.3667724,71.0824108 91.8860933,70.2161214 91.3777539,69.5314364 C90.6810342,68.5928659 90.1463312,67.6993959 90.1463312,66.0775837 L90.1463312,65.9873828 Z M86.4120384,70.9471095 L86.4120384,57.3754818 L88.3895527,57.3754818 L88.3895527,70.9471095 L86.4120384,70.9471095 Z M79.3489737,71.1490392 C70.6124156,71.2175919 70.4059402,57.3528714 79.4459201,57.4205822 C81.4049798,57.4780702 83.1723038,58.4710018 84.0750196,59.4495012 L82.6929645,60.76896 C81.6212817,59.823895 80.6760246,59.3593003 79.0414775,59.3593003 C73.3547158,59.3593003 73.1912611,68.1671177 78.3476339,69.2188602 C79.5963128,69.4734673 80.956438,69.2450786 82.1425632,68.8279896 L82.1425632,65.5364986 L79.8504824,65.5364986 L79.8504824,63.7329616 L84.1199576,63.7329616 L84.1199576,70.0002405 C82.6572537,70.7793358 80.9962232,71.1490392 79.3489737,71.1490392 Z M38.7311988,75.8442968 C32.4229737,69.5132759 32.4229737,59.1233347 38.7311988,52.7921935 C45.0395438,46.4611726 55.3919546,46.4610523 61.7002996,52.7921935 C68.0086445,59.1233347 68.0086445,69.5132759 61.7002996,75.8442968 C55.3919546,82.175438 45.0395438,82.1753178 38.7311988,75.8442968 Z M47.5218024,57.5248544 C47.0631945,57.0553287 46.8154959,58.4456253 47.0448597,58.9428126 C47.2741038,59.44 48.6501671,61.0880306 49.246585,61.7141451 C49.8428831,62.3402597 49.8153211,63.0860407 49.8153211,63.0860407 C49.5859572,62.837447 45.5953377,59.4676616 45.3017424,59.2558699 C45.008147,59.0440782 44.8705766,59.2650103 44.8155725,59.7346563 C44.7605683,60.204182 44.9531428,60.5908432 45.2558456,61.0051661 C45.5586682,61.4194889 47.6594926,63.399098 48.2374559,63.8870247 C48.8154193,64.3749515 48.5951629,65.001066 48.5951629,65.001066 C48.2374559,64.6051442 44.9255808,61.585218 44.5862086,61.309083 C44.2467165,61.0328277 43.8523401,61.9259369 44.1733776,62.6256553 C44.4944151,63.3253738 46.1366316,64.8353369 46.8705001,65.544316 C47.6043685,66.2532951 47.384232,66.8792893 47.384232,66.8792893 C47.384232,66.8792893 45.4026433,64.6235452 44.9531428,64.4670767 C44.5036424,64.3106082 44.5403119,65.5166544 45.0907132,66.308498 C45.6412344,67.1002214 46.2712061,68.2458931 47.5570338,69.6286128 C48.8428615,71.0112122 51.6165584,71.4351565 53.6187587,70.6608719 C55.620959,69.8865874 56.3373316,66.4392292 56.4659143,65.075151 C56.5943773,63.7108323 56.9985801,60.3883121 56.9985801,60.3883121 C56.1361289,60.1029165 55.5765002,60.5263797 54.9986567,61.7232855 C54.4205735,62.9203116 53.6928166,63.1080497 53.5939529,63.0802679 C53.495209,63.0526063 53.3840022,62.9387126 52.989506,62.5979937 C52.5950097,62.2573951 47.5218024,57.5248544 47.5218024,57.5248544 Z M44.8283948,50.9095203 L44.5862086,53.4369496 C44.5862086,53.4369496 49.7246061,51.617417 55.914794,53.4424819 L55.6484011,50.9472844 C53.6334984,50.9006205 51.7755792,51.1339401 50.3052059,51.8806833 C47.7789679,50.754495 45.2630357,50.8782506 44.8283948,50.9095203 Z M44.9348081,49.8001695 L44.8989775,50.1737215 C45.5680153,50.1597704 48.0210342,50.1833429 50.2504414,51.1610004 C50.8255287,50.8086156 52.9446878,50.1590488 55.5725457,50.2371026 L55.5290456,49.8292743 C55.5290456,49.8292743 50.716479,47.7091923 44.9348081,49.8001695 Z M57.2353737,56.241476 C56.9898322,56.6021594 57.1282414,57.1674183 57.5443079,57.5036873 C57.9602546,57.839836 58.4967551,57.8199918 58.7422967,57.4593085 C58.9878383,57.0985049 58.849429,56.5333661 58.4333625,56.1970972 C58.017296,55.8609485 57.4807955,55.8807927 57.2353737,56.241476 Z M56.1114429,57.3635752 C55.9701576,57.5712778 56.049728,57.8967227 56.2893976,58.090354 C56.5289474,58.2839852 56.8378816,58.2725598 56.9791669,58.0647369 C57.120572,57.8571546 57.0408818,57.5315894 56.801332,57.3380784 C56.5617822,57.1444472 56.252848,57.1558726 56.1114429,57.3635752 Z M59.2508757,53.3226951 C59.9176367,52.9911166 61.6045515,54.1953588 62.4658044,56.1016045 C63.3270573,58.0078502 61.3666794,57.7937734 59.7885746,55.8043023 C58.1890193,53.7876507 59.2508757,53.3226951 59.2508757,53.3226951 Z M58.4479824,52.5622414 C58.4479824,52.5622414 56.9526834,53.4815689 59.2369749,56.4109334 C61.5487085,59.3755364 64.172492,58.8690884 63.1725902,56.3188083 C62.1725686,53.7684078 59.5030082,52.0375126 58.4479824,52.5622414 Z M62.8789949,61.9995408 C63.6533676,62.6768894 64.3307938,63.4515348 64.9338027,64.3008665 C64.4930502,65.0382288 62.9132677,66.5498756 62.9132677,66.5498756 C63.0235157,65.2041984 62.8789949,61.9995408 62.8789949,61.9995408 Z M63.0877472,59.4339866 C61.6829235,59.4339866 60.5437736,61.6216591 60.5437736,64.3192675 C60.5437736,67.0168758 61.6829235,69.2045483 63.0877472,69.2045483 C64.4925709,69.2045483 65.6318406,67.0168758 65.6318406,64.3192675 C65.6318406,61.6216591 64.4925709,59.4339866 63.0877472,59.4339866 Z M41.192007,53.2866147 C41.192007,53.2866147 42.2539832,53.7516906 40.6543081,55.7683422 C39.0762033,57.757693 37.1158253,57.9718901 37.9770782,56.0655241 C38.8383311,54.1593987 40.5253658,52.9550362 41.192007,53.2866147 Z M41.9949003,52.5262813 C40.9398745,52.0014323 38.2703141,53.7323275 37.2704123,56.2827279 C36.2703906,58.8331283 38.8941742,59.3395763 41.2060276,56.3748531 C41.2156144,56.3624655 41.224602,56.350559 41.234069,56.3382916 C41.9357019,56.6022796 44.0082452,57.6353806 44.0082452,57.6353806 L44.5862086,56.6779281 C43.9537204,56.2118901 42.287537,55.5636463 41.873268,55.4060954 C43.1525047,53.2385076 41.9949003,52.5262813 41.9949003,52.5262813 Z M35.2133276,60.5768922 C34.4050417,64.1718191 35.0296208,67.0291431 35.0296208,67.0291431 L38.7217318,67.1581905 C39.0155668,67.7113024 40.5768948,69.1124231 40.5768948,69.1124231 C39.5482326,65.093552 40.4299773,60.3741205 40.4299773,60.3741205 C39.5115632,60.3003963 35.2133276,60.5768922 35.2133276,60.5768922 Z M37.1979122,70.8749487 C37.2361395,71.1788657 37.2856313,71.5011835 37.3496231,71.823742 C37.7611359,71.9123794 38.5947069,72.2120869 39.3386415,73.2230586 C40.0546546,74.1959054 40.1536382,74.9887112 40.1463283,75.3861965 C40.4408823,75.5233019 40.7380726,75.6440508 41.024358,75.7507284 C41.059949,74.9294192 40.9209406,73.7136313 40.0358406,72.6521471 C38.7320376,71.0881837 37.7382474,70.9074211 37.1979122,70.8749487 Z M37.0684906,69.1308241 C37.0684906,69.1308241 37.0723253,69.5056991 37.1152262,70.0576083 C37.8059541,70.1070384 39.473216,70.4340467 40.7789363,72.3568894 C41.7632596,73.8064781 41.8563712,75.1431352 41.7626604,76.0070193 C42.105388,76.1186279 42.4067726,76.208949 42.6342191,76.2836354 C42.6342191,76.2836354 43.304695,74.191215 41.4310774,71.6839907 C39.5574599,69.1768867 37.0684906,69.1308241 37.0684906,69.1308241 Z M37.865512,72.8167938 C37.6691027,72.9570261 37.8222516,73.5112204 38.2075206,74.0543501 C38.5926697,74.5973596 39.0644595,74.9240071 39.2607489,74.7836545 C39.4571582,74.6433019 39.3040093,74.0891076 38.9188601,73.5459779 C38.5335912,73.0029684 38.0619213,72.6763209 37.865512,72.8167938 Z M50.2428918,76.3294574 C49.3236388,76.3294574 48.5782662,76.8680169 48.5782662,77.5321361 C48.5782662,78.1962553 49.3236388,78.7348148 50.2428918,78.7348148 C51.1620249,78.7348148 51.9075173,78.1962553 51.9075173,77.5321361 C51.9075173,76.8680169 51.1620249,76.3294574 50.2428918,76.3294574 Z M50.1914826,75.5892087 C50.6500905,75.5892087 51.7426246,75.6189149 52.5223898,76.6500916 C53.3063493,77.6868006 52.4762534,78.926161 50.8892808,79.1746344 C47.1005829,79.7680361 46.3959542,75.9299276 50.1914826,75.5892087 Z M44.9119197,74.2372776 C44.9677627,75.8074949 45.098862,77.3714582 45.2135439,78.938308 C50.8971899,80.781774 55.1432973,78.938308 55.1432973,78.938308 L55.5107109,74.2188766 C54.8953591,74.4223698 54.2695816,74.5757114 53.6456017,74.6880415 L52.9631423,73.4999153 C50.1216189,73.8686566 47.6672818,73.4999153 47.6672818,73.4999153 L46.9145993,74.6571327 C45.6870113,74.4601339 44.9119197,74.2372776 44.9119197,74.2372776 Z M59.7697605,74.4892388 C59.8360292,74.034987 59.915959,72.9418724 59.9424425,72.5648326 C60.1184798,72.4407161 60.2819345,72.2724614 60.415071,72.0670439 C60.920055,72.1382424 61.8092294,72.2290447 62.1277504,72.2609157 C62.1155272,72.3537625 62.1154074,72.4396337 62.1275107,72.5148011 C61.7179153,73.1204701 60.6546209,74.2104578 60.3538354,74.5148558 C60.1979303,74.4483477 59.9961285,74.441733 59.7697605,74.4892388 Z M60.6326911,74.8041 C61.3091587,74.2022796 62.1917422,73.1178242 62.434168,72.8149897 C62.6815071,72.8099385 63.0129703,72.5455897 63.2480862,72.1411289 C63.5361691,71.6458658 63.5706815,71.1276315 63.3252598,70.9839114 C63.1101563,70.857991 62.7514907,71.0613639 62.4721557,71.4468225 L60.7044721,71.2505453 C60.7374267,70.8519776 60.6063274,70.4949023 60.3189635,70.3110127 C59.8432192,70.0063742 59.1188177,70.2916496 58.701433,70.9481919 C58.2841682,71.6047342 58.3316227,72.3841902 58.8074868,72.688949 C58.9220489,72.7621922 59.0508714,72.8012792 59.1864046,72.8093372 C59.1975492,73.3110947 59.1167805,74.33265 59.0801111,74.7639306 C58.8738753,74.881312 58.6647636,75.030805 58.4641601,75.2094028 C57.6691758,75.9170589 57.3088325,76.8126937 57.6594692,77.2094574 C58.0101059,77.6061009 58.9391853,77.3540194 59.7341696,76.646243 C60.4366413,76.0209703 60.799621,75.2489709 60.6326911,74.8041 Z" id="Combined-Shape"></path>
        </g>
    </g>
</svg>