<?xml version="1.0" encoding="UTF-8"?>
<svg width="94px" height="27px" viewBox="0 0 94 27" version="1.1" xmlns="http://www.w3.org/2000/svg" xmlns:xlink="http://www.w3.org/1999/xlink">
    <!-- Generator: Sketch 52.6 (67491) - http://www.bohemiancoding.com/sketch -->
    <title>groupm</title>
    <desc>Created with Sketch.</desc>
    <g id="Page-1" stroke="none" stroke-width="1" fill="none" fill-rule="evenodd">
        <g id="home" transform="translate(-695.000000, -37.000000)" fill="#A0A6AF">
            <g id="Group" transform="translate(157.000000, 28.000000)">
                <g id="groupm" transform="translate(537.525773, 8.148148)">
                    <path d="M49.0910618,13.5532099 C49.0910618,16.38 48.1298515,17.6408642 45.9708121,17.6408642 C43.8117726,17.6408642 42.8505624,16.38 42.8505624,13.5532099 L42.8505624,5.7754321 L39.9790659,5.7754321 L39.9790659,13.8539506 C39.9790659,18.0297531 42.1060361,20.3302469 45.9682119,20.3302469 C49.8303876,20.3302469 51.9573578,18.0306173 51.9573578,13.8539506 L51.9573578,5.77197531 L49.0858613,5.77197531 L49.0858613,13.5497531" id="Fill-1"></path>
                    <path d="M61.1776956,5.3562963 C59.2373579,5.36282401 57.4297095,6.3394643 56.3647105,7.95666667 L56.3647105,5.76765432 L53.4923473,5.76765432 L53.4923473,26.105679 L56.3638438,26.105679 L56.3638438,17.8093827 C57.4246923,19.3602902 59.1763628,20.2991724 61.0589528,20.3259259 C62.9972404,20.3765499 64.8494094,19.5277179 66.0730207,18.0280247 C67.2480836,16.5111505 67.8652193,14.6380147 67.8212273,12.7218519 C67.8470556,10.8582001 67.213681,9.04502922 66.0322841,7.60061728 C64.8339602,6.16409063 63.0524685,5.33939194 61.1785624,5.3537037 M65.0996762,12.8091358 C65.0996762,16.227037 62.8756315,17.7575309 60.6723885,17.7575309 C57.8442289,17.7575309 56.3647105,15.268642 56.3647105,12.8091358 C56.3647105,9.59950617 58.5315506,7.92037037 60.6723885,7.92037037 C63.2786638,7.92037037 65.0996762,9.93049383 65.0996762,12.8091358" id="Fill-2"></path>
                    <g id="Group-6" transform="translate(0.000000, 5.356296)">
                        <path d="M25.6883223,0.738024691 L25.6311178,0.697407407 C24.9601841,0.259291561 24.1794226,0.0176649518 23.3776041,-1.43927838e-16 C21.7141923,-0.0233028769 20.2060133,0.970976467 19.5760999,2.50617284 L19.5760999,0.411358025 L16.7046034,0.411358025 L16.7046034,14.4977778 L19.5760999,14.4977778 L19.5760999,7.57382716 C19.5760999,5.32691358 19.9340619,2.74469136 22.7232184,2.74469136 C23.1149604,2.73420319 23.5034887,2.81778704 23.8560424,2.98839506 L25.6900558,0.741481481" id="Fill-3"></path>
                        <path d="M7.88729783,12.402963 C5.05913818,12.402963 3.57961979,9.91407407 3.57961979,7.4545679 C3.57961979,4.24493827 5.74645985,2.56580247 7.88729783,2.56580247 C10.4875059,2.56666667 12.3076516,4.57679012 12.3076516,7.4554321 C12.3076516,10.8733333 10.0879406,12.402963 7.88729783,12.402963 Z M12.3241195,0.411358025 L12.3241195,2.6582716 C11.2812213,1.00945943 9.46530423,0.00668641945 7.51026766,-3.82967312e-16 C5.63633484,-0.0144347012 3.85479288,0.810287237 2.65654592,2.24691358 C1.47535387,3.69082243 0.841709245,5.50327614 0.866736026,7.36641975 C0.822496598,9.28247871 1.43932276,11.1556039 2.61407585,12.6725926 C3.83792222,14.1713981 5.68951982,15.0197958 7.62727703,14.9696296 C9.5095592,14.9425963 11.260846,14.0037464 12.3215193,12.4530864 L12.3215193,14.551358 C12.3215193,17.027284 11.8586823,19.5585185 8.43074132,19.5585185 C5.91720685,19.5585185 4.357082,18.0945679 4.357082,15.7379012 L4.357082,15.6411111 L1.48991923,15.6411111 L1.48991923,15.7387654 C1.54712381,19.5585185 4.28947659,22.124321 8.31199849,22.124321 C14.4112199,22.124321 15.1938825,17.6806173 15.1938825,13.8090123 L15.1938825,0.411358025 L12.3241195,0.411358025 Z" id="Fill-5"></path>
                    </g>
                    <path d="M93.5537531,11.5430864 C92.3968434,12.0665375 91.1511717,12.3673676 89.8822593,12.4297531 C89.2612631,12.5012928 88.6419446,12.2828059 88.2042584,11.8377778 C87.8450545,11.2031369 87.7940473,10.4402706 88.0655806,9.7637037 L88.8586441,6.17728395 C89.2625431,4.43938272 89.09873,3.09641975 88.3715384,2.18469136 C87.6025641,1.32620166 86.4735551,0.878097226 85.3232278,0.974814815 C83.7919905,0.999405121 82.3186242,1.56223531 81.1628949,2.56407407 C80.5278721,1.45804386 79.2947585,0.83361572 78.0244438,0.974814815 C76.678497,1.00118005 75.3792107,1.47129711 74.3295481,2.3117284 C73.5759725,1.30847417 72.3581907,0.761750959 71.1052901,0.864197531 C70.3636278,0.868410243 69.6284621,1.00237662 68.9332496,1.26 L68.7313001,1.33345679 L68.167055,4.02802469 L68.8439758,3.7462963 C69.8173203,3.34271605 70.5921824,3.36777778 70.9510111,3.81716049 C71.2267067,4.26481866 71.2901439,4.81099424 71.1243583,5.30962963 L69.2444078,13.0476543 L72.4053941,13.0476543 L73.6578277,7.65679012 C74.3676845,4.98987654 75.4883742,3.74802469 77.1845766,3.74802469 C77.5763548,3.72401856 77.957409,3.88115738 78.2177259,4.17407407 C78.513368,4.77944448 78.5447385,5.47977363 78.3043995,6.10901235 L76.6914038,13.0476543 L79.8463229,13.0476543 L81.3284415,6.66901235 C81.6050498,5.06349327 82.9485165,3.85577133 84.5787016,3.74716049 C84.9791352,3.71940956 85.3696982,3.87913847 85.6352528,4.17925926 C85.9302081,4.78357956 85.9615748,5.48257087 85.7219264,6.11074074 L84.8144538,10.0514815 C84.4162269,11.3620749 84.6530216,12.7828351 85.4549717,13.8945679 C86.4203283,14.9388954 87.8084387,15.4906065 89.2296071,15.3948148 C90.69811,15.3705374 92.1425038,15.0185434 93.4566787,14.3646914 L93.6300259,14.2782716 L94.227207,11.2596296 L93.5580868,11.5404938" id="Fill-7"></path>
                    <path d="M33.5487513,17.6166667 C32.3376849,18.2405076 30.8985088,18.2405076 29.6874424,17.6166667 C29.1532255,17.3151239 28.6942675,16.8970971 28.3448682,16.3938272 C27.9916297,15.8799576 27.7319724,15.3080441 27.5778069,14.704321 C27.2519462,13.4594096 27.2519462,12.1519484 27.5778069,10.907037 C27.7287837,10.3016331 27.989318,9.72878927 28.3466017,9.21666667 C28.698906,8.71967729 29.1570812,8.30652055 29.6883091,8.00679012 C30.899001,7.38266773 32.3380595,7.38266773 33.5487513,8.00679012 C34.0798783,8.30666003 34.5380254,8.71979143 34.8904587,9.21666667 C35.247371,9.72899968 35.5078732,10.3017731 35.6592536,10.907037 C35.9853467,12.1519187 35.9853467,13.4594393 35.6592536,14.704321 C35.504395,15.3079525 35.2444754,15.8797975 34.8913255,16.3938272 C34.5419262,16.8970971 34.0829682,17.3151239 33.5487513,17.6166667 Z M38.3626032,9.77580247 C38.0623857,8.89602856 37.5818522,8.08816559 36.951557,7.40358025 C36.3147694,6.73081999 35.5419205,6.20060068 34.6841755,5.84802469 C32.7102786,5.09287468 30.5259151,5.09287468 28.5520182,5.84802469 C27.6940959,6.20027455 26.9211821,6.73053833 26.2846367,7.40358025 C25.6540141,8.08792304 25.1734376,8.89585849 24.8735905,9.77580247 C24.2250892,11.7487006 24.2250892,13.8764846 24.8735905,15.8493827 C25.1731573,16.7292641 25.653438,17.5371985 26.28377,18.2216049 C26.9201592,18.8948285 27.6931148,19.425121 28.5511514,19.7771605 C30.525094,20.5320649 32.7093663,20.5320649 34.6833088,19.7771605 C35.541155,19.4247707 36.3140409,18.894526 36.9506902,18.2216049 C37.5809447,17.5369894 38.0614727,16.7291354 38.3617365,15.8493827 C39.0103588,13.8765039 39.0103588,11.7486813 38.3617365,9.77580247 L38.3626032,9.77580247 Z" id="Fill-8"></path>
                </g>
            </g>
        </g>
    </g>
</svg>