<?xml version="1.0" encoding="UTF-8"?>
<svg width="87px" height="33px" viewBox="0 0 87 33" version="1.1" xmlns="http://www.w3.org/2000/svg" xmlns:xlink="http://www.w3.org/1999/xlink">
    <!-- Generator: Sketch 52.6 (67491) - http://www.bohemiancoding.com/sketch -->
    <title>Combined Shape</title>
    <desc>Created with Sketch.</desc>
    <g id="Page-1" stroke="none" stroke-width="1" fill="none" fill-rule="evenodd">
        <g id="Artboard" transform="translate(-35.000000, -47.000000)" fill="#ffffff">
            <g id="ford" transform="translate(35.000000, 47.000000)">
                <path d="M43.1331427,32.5925926 C19.3000708,32.5925926 -1.0658141e-13,25.3336111 -1.0658141e-13,16.3567284 C-1.0658141e-13,7.37995885 19.3000708,0.0931378601 43.1331427,0.0931378601 C66.9383846,0.0931378601 86.2384554,7.37995885 86.2384554,16.3567284 C86.2384554,25.3336111 66.9383846,32.5925926 43.1331427,32.5925926 Z M43.1331427,30.9302572 C66.0485051,30.9302572 84.5976194,24.4469342 84.5976194,16.3567284 C84.5976194,8.29424897 66.0485051,1.72786008 43.1331427,1.72786008 C20.2734404,1.72786008 1.69638247,8.29424897 1.69638247,16.3567284 C1.69638247,24.4469342 20.2734404,30.9302572 43.1331427,30.9302572 Z M43.1331427,29.7942695 C20.9407932,29.7942695 3.00348527,23.7820679 3.00348527,16.3567284 C3.00348527,8.95911523 20.9407932,2.94691358 43.1331427,2.94691358 C65.2976622,2.94691358 83.2906302,8.95911523 83.2906302,16.3567284 C83.2906302,23.7820679 65.2976622,29.7942695 43.1331427,29.7942695 Z M39.5301179,7.35524882 C41.6283479,7.92237518 45.6672598,9.67954733 49.557223,9.67954733 C52.199145,9.67954733 55.3138368,7.98937243 55.3138368,7.10280864 C55.3138368,6.88111111 55.3138368,6.65952675 54.7576905,6.65952675 C54.1458842,6.65952675 54.4796174,6.71497942 52.9499879,6.96429012 C51.5038485,7.18598765 49.7240896,7.13053498 48.3336103,7.13053498 C44.551452,7.0750823 39.9072444,6.2993107 38.0443361,5.96682099 C36.4309893,5.68989712 34.9570199,5.57899177 33.6500307,5.57899177 C26.7253507,5.57899177 23.916562,8.34958848 23.8886184,11.092572 C23.860902,12.5609362 24.9454781,14.0571399 26.558484,14.0571399 C29.4506492,14.0571399 31.1193152,11.0648457 31.2583518,9.9843107 C31.2583518,9.9843107 31.3138983,9.79033951 31.1470317,9.65182099 C31.0639959,9.59636831 30.8411285,9.62409465 30.757752,9.81806584 C30.3683587,10.732356 28.8110128,11.7851646 27.6987202,11.9791358 C26.6696906,12.173107 25.9743941,11.6189198 25.9188477,10.7600823 C25.8076411,8.65435185 28.1992065,6.35476337 33.5665406,6.35476337 C35.0963973,6.35476337 37.0427957,6.77031893 39.1845722,7.2690535 C39.2023706,7.27305008 39.2203567,7.27717053 39.2385286,7.2814123 C38.3778029,7.47172373 35.3383852,9.80623716 32.9547343,13.4475 C32.3150979,13.530679 29.6453458,13.7523765 28.7558071,14.7497325 C28.6719762,14.8606379 28.5884861,15.0546091 28.5884861,15.1099486 C28.6441462,15.3316461 28.8110128,15.4424383 29.0613695,15.2484671 C29.6175158,14.611214 31.8701581,14.3619033 32.398588,14.334177 C29.116916,18.9333539 26.0857143,21.9533745 23.3881322,21.9533745 C23.110059,21.9533745 22.8318723,21.9811008 22.5259691,21.8979218 C21.441393,21.6486111 20.8017566,20.5127366 20.8017566,19.4875412 C20.8017566,18.1299691 22.1088594,16.6614918 22.8597023,16.3844547 C23.110059,16.2736626 23.2212656,16.1350309 23.2212656,16.0242387 C23.2212656,15.8579938 23.110059,15.7472016 22.8041559,15.7472016 C20.2177803,16.3844547 18.827301,18.4901852 18.855131,20.2078601 C18.9106775,23.0339095 21.0521133,24.613179 23.4715087,24.613179 C26.8643872,24.613179 28.5884861,23.1447016 34.1226869,14.2233848 C36.3201235,14.0016872 37.4046997,13.8631687 38.5166515,13.6691975 C38.5166515,13.6691975 38.8503847,14.4726955 39.6847177,14.4726955 C39.8237543,14.5004218 39.7959242,14.3619033 39.8794143,14.0571399 C39.5178511,14.0294136 39.1006278,13.7799897 39.1006278,13.4753395 C39.434361,13.3090947 39.7125477,13.1151235 39.9627908,12.9211523 C40.3246948,12.5886626 40.6859173,11.8959568 40.6859173,11.4250617 C40.6859173,10.9816667 40.3525249,10.5661111 39.8515843,10.4830453 C38.9615912,10.3445267 38.2664084,11.0648457 38.1829183,12.256286 C38.1829183,12.5609362 38.2942384,12.9211523 38.2942384,12.9211523 C38.2942384,12.9211523 36.3474992,13.253642 34.6789468,13.3367078 C36.7368925,9.87340535 38.6283124,8.65435185 39.1845722,8.15573045 C39.2953244,8.07255144 39.5735112,7.76778807 39.6012276,7.71233539 C39.6651327,7.55329784 39.6098466,7.43077206 39.5301179,7.35524882 Z M53.6456251,19.0442593 C53.0894788,19.5429938 52.4215581,20.2078601 50.8920422,20.2078601 C50.0021627,20.2078601 49.3069798,19.4875412 49.4737329,18.573251 C49.5853938,17.8529321 49.8352961,17.492716 50.3637259,17.2987449 C50.613969,18.0190638 51.0867388,18.4070062 51.8936962,18.4070062 C52.8109513,18.3792798 53.3393812,17.5480556 53.3672112,16.8277366 C53.3672112,16.2182099 52.9778179,15.4424383 51.8654118,15.3869856 C50.8364957,15.3316461 50.0578228,15.8025412 48.9454166,17.0771605 C48.9454166,17.0771605 49.2234897,15.1931276 47.137714,15.2484671 C46.9153009,15.2484671 46.6932286,15.2484671 46.4702476,15.3592593 C45.330125,15.7194753 43.8561556,17.5480556 42.688203,18.9610802 C42.7437494,18.6840432 42.7437494,18.4070062 42.7437494,18.1299691 C42.7437494,17.3264712 42.4378463,16.2736626 41.8817,15.7194753 C41.7703798,15.6086831 41.6591733,15.6086831 41.5479668,15.6086831 C41.1864035,15.6086831 40.8809547,15.9134465 40.8809547,16.3844547 C41.1586871,16.6614918 41.5205911,17.3540844 41.5205911,18.0190638 C41.5205911,18.6840432 41.3254401,19.9030967 41.047367,20.3741049 C39.9906209,22.175072 38.655688,23.3386728 37.0427957,23.0893621 C36.1806326,22.8953909 35.5966563,22.0642798 35.7635229,20.8173868 C35.8468994,20.0970679 36.2922935,19.0995988 36.7090625,18.4901852 C37.4046997,17.5480556 38.5444815,16.5783128 40.2130339,16.3290021 C40.2130339,16.3290021 40.296524,15.9965123 40.0739974,15.8302675 C39.9906209,15.691749 39.8794143,15.5255041 39.4900211,15.5255041 C37.1261722,15.6086831 35.6804872,17.2987449 34.8458134,18.9610802 C34.540251,19.5429938 34.0949705,20.3741049 33.8446138,20.9005658 C33.8446138,20.9005658 33.6220871,21.5100926 32.593171,22.2858642 C32.0648548,22.7014198 31.8979882,22.8400514 31.8144981,22.8123251 C31.8423281,23.0062963 31.9813647,23.2833333 32.2320622,23.5049177 C32.3150979,23.5603704 32.593171,23.3941255 32.7043776,23.3386728 C34.0114804,22.5906276 34.1505169,22.2304115 34.1505169,22.2304115 C34.4287037,23.7820679 35.7635229,24.5854527 37.2374923,24.5854527 C39.267608,24.5854527 41.1308571,22.7568724 42.2154332,21.1498765 C43.3555558,19.4598148 44.9129017,17.7974794 44.9129017,17.7974794 C45.5251624,17.2155658 46.164458,16.8277366 46.5537377,16.8277366 C46.9153009,16.855463 47.165544,17.1602263 47.0821675,17.492716 C46.9430174,18.0745165 46.7484343,18.6287037 46.359041,19.3212963 L43.3278393,24.4469342 L45.6915746,24.4469342 C47.0543375,21.8979218 47.109884,21.814856 48.4451576,19.376749 C48.80638,20.734321 49.5293929,21.2606687 50.6974591,21.2885082 C51.6985452,21.3161214 52.3938416,21.2606687 53.1446845,20.8728395 C52.9499879,21.6486111 53.0616488,22.4243827 53.3115511,22.9508436 C53.5896243,23.5880967 54.1458842,24.3914815 55.5085334,24.419321 C57.1493694,24.419321 58.7622618,23.6988889 59.2350316,23.2833333 C59.3740681,24.0868313 59.7634614,24.5023868 60.7923775,24.5023868 C62.8781532,24.4469342 64.7135723,22.3135905 65.8259784,20.9282922 C66.0206751,20.6788683 66.2709182,20.2633128 66.2709182,20.1525206 C66.2709182,19.9862757 66.0485051,19.8754835 65.937185,19.8754835 C65.8259784,19.8754835 65.6312818,20.1247942 65.5200753,20.2633128 C64.991759,20.8173868 62.7946631,23.0893621 61.5988805,23.1447016 C61.8492372,23.1447016 61.1821115,23.2833333 61.1261107,22.7568724 C61.0982807,22.4243827 61.3763538,22.0088272 61.4876739,21.7871296 L67.4389844,11.2865432 L65.2420021,11.2865432 L61.6545405,17.3264712 C61.3763538,16.772284 60.9592441,15.4701646 59.3185217,15.4424383 C56.5931095,15.4147119 55.5363635,17.2710185 53.6456251,19.0442593 Z M59.430069,16.7446708 C60.6256245,16.8831893 60.736831,18.0467901 60.1528547,19.1273251 L60.4586443,19.2105041 C60.4586443,19.2105041 59.5131047,20.7897737 58.5398487,21.7595165 C56.8156362,23.5049177 55.7032301,22.9231173 55.452987,22.7291461 C55.2026302,22.5352881 55.0079336,21.8425823 55.1192537,21.1498765 C55.2026302,20.457284 55.7310601,19.29357 56.2315463,18.6840432 C57.2327459,17.4649897 58.4563586,16.6337654 59.430069,16.7446708 Z M38.9615912,12.8656996 C38.8782147,12.5332099 38.8225546,12.2284465 38.9615912,11.7851646 C39.0729113,11.3696091 39.3231544,11.1756379 39.7407185,11.092572 C39.9349608,11.0648457 40.0184509,11.2588169 40.0462809,11.4250617 C40.1018274,11.7574383 39.8237543,12.256286 39.6568877,12.4224177 C39.2397779,12.8934259 38.9615912,12.8656996 38.9615912,12.8656996 Z" id="Combined-Shape"></path>
            </g>
        </g>
    </g>
</svg>