<?xml version="1.0" encoding="UTF-8"?>
<svg width="76px" height="21px" viewBox="0 0 76 21" version="1.1" xmlns="http://www.w3.org/2000/svg" xmlns:xlink="http://www.w3.org/1999/xlink">
    <!-- Generator: Sketch 52.6 (67491) - http://www.bohemiancoding.com/sketch -->
    <title>nestle</title>
    <desc>Created with Sketch.</desc>
    <g id="Page-1" stroke="none" stroke-width="1" fill="none" fill-rule="evenodd">
        <g id="home" transform="translate(-586.000000, -39.000000)" fill="#ffffff">
            <g id="Group" transform="translate(157.000000, 28.000000)">
                <g id="nestle" transform="translate(428.391753, 11.407407)">
                    <path d="M60.1257191,1.37597778 C60.0998457,0.748623683 59.5767288,0.256153456 58.9465332,0.265874074 L57.3080072,0.265874074 C56.677621,0.256136068 56.1541916,0.748456583 56.127758,1.37597778 L56.1936818,18.8781185 C56.1911038,19.1733162 56.3076775,19.4571701 56.5172155,19.6659143 C56.7267535,19.8746584 57.0116869,19.9907905 57.3080072,19.9882222 L58.9507864,19.9882222 C59.580982,19.9979428 60.1040988,19.5054726 60.1299722,18.8781185 L60.1299722,1.37597778 L60.1257191,1.37597778 Z" id="path9471"></path>
                    <path d="M62.2246486,1.89925185 L62.2246486,2.6831037 C62.2143005,2.85930416 62.2801277,3.03149498 62.4055095,3.15619931 C62.5308913,3.28090365 62.7038435,3.34620214 62.880697,3.33560741 L74.4173666,3.33560741 C74.954957,3.32331716 75.387989,2.89239202 75.4009075,2.35685185 L75.4009075,0.979814815 C75.4058763,0.718561956 75.3038147,0.466562778 75.1182449,0.281895909 C74.9326752,0.0972290404 74.6796074,-0.00417329215 74.4173666,0.00105925926 C74.4173666,0.00105925926 63.2730501,1.11116296 62.880697,1.17577778 C62.696554,1.17994819 62.5221721,1.2591161 62.3982021,1.39482632 C62.2742322,1.53053655 62.2115069,1.71093044 62.2246486,1.89395556 L62.2246486,1.89925185 Z" id="path9473"></path>
                    <path d="M52.8496426,19.9882222 C51.6138184,20.0322222 50.4143938,19.5670245 49.5337615,18.7021553 C48.6531291,17.837286 48.1690997,16.6491632 48.1956332,15.4175185 L48.1956332,8.42640741 L47.3450032,8.42640741 C46.9237583,8.39595447 46.5887391,8.06220455 46.5581704,7.64255556 L46.5581704,6.46677778 C46.5638951,6.03625277 46.9128409,5.68862899 47.3450032,5.68292593 L48.1956332,5.68292593 L48.1956332,1.37385926 C48.1930551,1.07866159 48.3096288,0.794807672 48.5191668,0.586063502 C48.7287048,0.377319331 49.0136382,0.261187232 49.3099585,0.263755556 L50.9484845,0.263755556 C51.543247,0.287294705 52.0095264,0.781016395 51.996886,1.37385926 L51.996886,5.68292593 L54.5487761,5.68292593 C54.759852,5.67480027 54.9647602,5.75477204 55.1141248,5.90357081 C55.2634895,6.05236958 55.3437654,6.25650148 55.3356088,6.46677778 L55.3356088,7.64255556 C55.3298841,8.07308057 54.9809383,8.42070434 54.5487761,8.42640741 L51.996886,8.42640741 L51.996886,14.8878889 C51.9571528,15.4705424 52.1722192,16.0418575 52.5867375,16.4548054 C53.0012558,16.8677533 53.5747435,17.0820049 54.1596128,17.0424222 L54.4222448,17.0424222 C54.6498751,17.0356042 54.8702355,17.122693 55.0312671,17.2831146 C55.1922988,17.4435362 55.2797189,17.6630617 55.2728749,17.8898296 L55.2728749,19.1312815 C55.263824,19.5955056 54.8882343,19.9696723 54.4222448,19.9786889 L52.8496426,19.9786889 L52.8496426,19.9882222 Z" id="path9475"></path>
                    <path d="M33.18414,12.6094222 C33.18414,8.88718519 30.9512363,5.16494815 25.9080636,5.16494815 C21.2540541,5.16494815 18.6979109,8.82151111 18.6979109,12.6094222 C18.6979109,16.6579111 21.4507623,20.2498593 25.9739874,20.2498593 C29.0575212,20.2498593 32.070878,18.6832148 32.6599393,16.0054074 C32.6900795,15.8056573 32.6371125,15.6023033 32.5132825,15.442354 C32.3894525,15.2824048 32.2054791,15.1797066 32.0038909,15.158 L29.7709871,15.158 C29.3928605,15.1540859 29.0420388,15.3537381 28.85337,15.6802148 C28.1971297,16.6066244 27.1043931,17.1262457 25.968671,17.0519556 C24.1572331,17.0624602 22.6567835,15.6539495 22.5597712,13.8519333 L31.9337139,13.8519333 C32.2761233,13.8970974 32.6201252,13.7809078 32.8643582,13.5376 C33.1085912,13.2942923 33.2252227,12.9515937 33.1798869,12.6104815 L33.18414,12.6094222 Z M22.6299482,11.0427778 C22.806979,9.38191276 24.2319183,8.13319561 25.9080636,8.17006667 C27.6117517,8.12636315 29.0777663,9.36178703 29.3169633,11.0427778 L22.6299482,11.0427778 Z" id="path9477"></path>
                    <path d="M75.7932606,12.6094222 C75.7932606,8.88718519 73.5603568,5.16494815 68.5161208,5.16494815 C63.8621114,5.16494815 61.3059682,8.82151111 61.3059682,12.6094222 C61.3059682,16.6579111 64.0598829,20.2498593 68.5820447,20.2498593 C71.6655785,20.2498593 74.677872,18.6832148 75.2679966,16.0054074 C75.2981436,15.8058223 75.245318,15.6026187 75.1217132,15.4427012 C74.9981085,15.2827837 74.8144069,15.1799729 74.6130115,15.158 L72.3801077,15.158 C72.001981,15.1540859 71.6511594,15.3537381 71.4624905,15.6802148 C70.788368,16.6205899 69.669435,17.1409679 68.512931,17.0519556 C66.7237596,17.0355872 65.2577369,15.6322552 65.169955,13.8519333 L74.5449611,13.8519333 C74.8872987,13.8971809 75.2312566,13.7809757 75.4753428,13.5376065 C75.7194291,13.2942373 75.8357825,12.9514834 75.7900707,12.6104815 L75.7932606,12.6094222 Z M65.2390687,11.0427778 C65.4672256,9.3955365 66.8804421,8.16859676 68.5496144,8.16859676 C70.2187867,8.16859676 71.6320032,9.3955365 71.8601601,11.0427778 L65.2390687,11.0427778 Z" id="path9479"></path>
                    <path d="M45.0483021,0.461837037 L14.7626838,0.461837037 C14.4322759,0.461836917 14.1154162,0.592666157 13.8818822,0.825514041 C13.6483483,1.05836192 13.517292,1.37413283 13.5175742,1.70328889 L13.5824347,13.589237 C13.5824347,13.589237 7.09638087,1.83145926 6.76463517,1.24568889 C6.35577653,0.551977668 5.60609388,0.128672678 4.79861655,0.135585185 L2.30733391,0.135585185 C1.97692598,0.135585065 1.66006622,0.266414305 1.42653227,0.499262189 C1.19299832,0.732110073 1.06194207,1.04788098 1.06222423,1.37703704 L1.06222423,18.7488889 C1.05085222,19.0813006 1.17834142,19.40353 1.41432204,19.6388173 C1.65030266,19.8741047 1.97364853,20.0013859 2.30733391,19.9903407 L3.87993614,19.9903407 C4.2138029,20.0016861 4.53743194,19.8745375 4.7736487,19.6392156 C5.00986545,19.4038938 5.13749757,19.0814908 5.12610911,18.7488889 L5.06124857,6.60236296 C5.06124857,6.60236296 11.6164161,18.422637 11.9439086,18.8791778 C12.303492,19.5893346 13.0474004,20.0237095 13.8450667,19.9892815 L16.1396412,19.9892815 C16.4733266,20.0003267 16.7966724,19.8730454 17.032653,19.6377581 C17.2686337,19.4024707 17.3961229,19.0802413 17.3847509,18.7478296 L17.3847509,3.40128148 L45.0483021,3.40128148 C45.5142916,3.39226489 45.8898812,3.01809818 45.8989321,2.55387407 L45.8989321,1.31242222 C45.8898812,0.848198119 45.5142916,0.474031409 45.0483021,0.465014815 L45.0483021,0.461837037 Z" id="path9481"></path>
                    <path d="M40.1327239,8.03765926 C41.2090544,7.90569649 42.2624502,8.41753051 42.8207148,9.34372593 C42.9514991,9.73565185 43.2789917,9.80132593 43.7383319,9.80132593 L45.5756927,9.80132593 C45.927776,9.77869591 46.208454,9.49953448 46.2317411,9.14882222 C46.2317411,7.0589037 43.6798511,5.16494815 40.1348505,5.16494815 C36.464382,5.16494815 34.0390232,6.92755556 34.0390232,9.67103704 C34.0390232,11.8266296 35.7402832,13.0670222 37.7754155,13.6549111 C38.7589565,13.8508741 40.3974825,14.2428 41.1843153,14.5023185 C41.9711481,14.6982815 42.7569175,14.9599185 42.7569175,15.6780963 C42.7569175,16.8528148 41.5766684,17.1790667 40.2050275,17.1790667 C39.0636954,17.2939462 37.9607018,16.7318967 37.3862523,15.7427111 C37.1895441,15.2204963 36.7961277,15.1548222 36.271927,15.1548222 L34.4366927,15.1548222 C34.049726,15.1805032 33.7415624,15.4874993 33.7157838,15.873 L33.7157838,16.134637 C33.7157838,18.1599407 36.4696985,20.2488 40.2709513,20.2488 C42.8930183,20.2488 46.6304739,19.1386963 46.6304739,15.611363 C46.6304739,13.5214444 45.2535166,12.0850889 42.9600054,11.4982593 C42.1093754,11.3022963 40.0104459,10.7144074 39.5511057,10.6508519 C38.7004757,10.3892148 37.9125796,10.128637 37.9125796,9.47613333 C37.9125796,8.36602963 38.8961206,8.03871852 40.1454834,8.03871852 L40.1327239,8.03765926 Z" id="path9483"></path>
                </g>
            </g>
        </g>
    </g>
</svg>