<svg xmlns="http://www.w3.org/2000/svg" width="87.926" height="23.43" viewBox="0 0 87.926 23.43">
  <g id="PayPal" transform="translate(-35.66 -6.748)">
    <path id="Path_227" data-name="Path 227" d="M46.211,6.749H39.372a.95.95,0,0,0-.939.8L35.667,25.088a.569.569,0,0,0,.564.658H39.5a.95.95,0,0,0,.939-.8l.746-4.73a.949.949,0,0,1,.938-.8h2.165c4.505,0,7.1-2.18,7.784-6.5A5.268,5.268,0,0,0,51.2,8.5C50.224,7.353,48.5,6.749,46.211,6.749ZM47,13.154c-.374,2.454-2.249,2.454-4.062,2.454H41.906l.724-4.583a.57.57,0,0,1,.563-.481h.473c1.235,0,2.4,0,3,.7A2.279,2.279,0,0,1,47,13.154Z" fill="#ffffff"/>
    <path id="Path_228" data-name="Path 228" d="M66.654,13.075H63.379a.57.57,0,0,0-.563.481l-.145.916-.229-.332c-.709-1.029-2.29-1.373-3.868-1.373a7.531,7.531,0,0,0-7.312,6.586,6.182,6.182,0,0,0,1.22,5.031,5.124,5.124,0,0,0,4.125,1.666,6.266,6.266,0,0,0,4.533-1.875l-.146.91a.57.57,0,0,0,.562.66h2.95a.95.95,0,0,0,.939-.8l1.77-11.209A.568.568,0,0,0,66.654,13.075Zm-4.565,6.374a3.65,3.65,0,0,1-3.695,3.127,2.537,2.537,0,0,1-2.713-3.184,3.666,3.666,0,0,1,3.67-3.152,2.763,2.763,0,0,1,2.184.892A2.835,2.835,0,0,1,62.089,19.449Z" fill="#ffffff"/>
    <path id="Path_229" data-name="Path 229" d="M84.1,13.075H80.805a.954.954,0,0,0-.787.417l-4.539,6.686-1.924-6.425a.953.953,0,0,0-.912-.678H69.409a.57.57,0,0,0-.541.754l3.625,10.638-3.408,4.811a.57.57,0,0,0,.465.9h3.287a.949.949,0,0,0,.781-.408l10.946-15.8A.57.57,0,0,0,84.1,13.075Z" fill="#ffffff"/>
    <path id="Path_230" data-name="Path 230" d="M94.992,6.749h-6.84a.95.95,0,0,0-.938.8L84.448,25.088a.569.569,0,0,0,.562.658h3.51a.665.665,0,0,0,.656-.562l.785-4.971a.949.949,0,0,1,.938-.8h2.164c4.506,0,7.105-2.18,7.785-6.5A5.264,5.264,0,0,0,99.975,8.5C99,7.353,97.281,6.749,94.992,6.749Zm.789,6.405c-.373,2.454-2.248,2.454-4.062,2.454H90.688l.725-4.583a.568.568,0,0,1,.562-.481h.473c1.234,0,2.4,0,3,.7A2.279,2.279,0,0,1,95.781,13.154Z" fill="#ffffff"/>
    <path id="Path_231" data-name="Path 231" d="M115.434,13.075h-3.273a.567.567,0,0,0-.562.481l-.145.916-.23-.332c-.709-1.029-2.289-1.373-3.867-1.373a7.53,7.53,0,0,0-7.311,6.586,6.185,6.185,0,0,0,1.219,5.031,5.127,5.127,0,0,0,4.125,1.666,6.266,6.266,0,0,0,4.533-1.875l-.146.91a.57.57,0,0,0,.564.66h2.949a.95.95,0,0,0,.938-.8L116,13.733A.571.571,0,0,0,115.434,13.075Zm-4.565,6.374a3.649,3.649,0,0,1-3.695,3.127,2.537,2.537,0,0,1-2.713-3.184,3.667,3.667,0,0,1,3.67-3.152,2.763,2.763,0,0,1,2.184.892A2.82,2.82,0,0,1,110.869,19.449Z" fill="#ffffff"/>
    <path id="Path_232" data-name="Path 232" d="M119.295,7.23l-2.807,17.858a.569.569,0,0,0,.562.658h2.822a.949.949,0,0,0,.939-.8l2.768-17.536a.57.57,0,0,0-.562-.659h-3.16A.571.571,0,0,0,119.295,7.23Z" fill="#ffffff"/>
  </g>
</svg>
