<?xml version="1.0" encoding="UTF-8"?>
<svg width="96px" height="25px" viewBox="0 0 96 25" version="1.1" xmlns="http://www.w3.org/2000/svg" xmlns:xlink="http://www.w3.org/1999/xlink">
    <!-- Generator: Sketch 52.6 (67491) - http://www.bohemiancoding.com/sketch -->
    <title>ana</title>
    <desc>Created with Sketch.</desc>
    <g id="Page-1" stroke="none" stroke-width="1" fill="none" fill-rule="evenodd">
        <g id="enterprise" transform="translate(-440.000000, -38.000000)" fill="#8B909F">
            <g id="ana" transform="translate(440.000000, 38.000000)">
                <path d="M25.5468475,3.65108696 L32.7018305,3.65108696 L37.3613559,19.8646739 C37.544678,20.3793478 37.9850847,20.2320652 38.0583051,19.8646739 L41.0299661,3.65108696 L44.1854915,3.65108696 L40.48,24.5706522 L33.1785763,24.5706522 L28.6291525,8.50434783 C28.4821695,8.06304348 28.0417627,7.95271739 27.895322,8.54076087 L25.0332203,24.5706522 L21.7312542,24.5706522 L25.5468475,3.65108696" id="Fill-2"></path>
                <path d="M12.5586441,3.65108696 L19.5297627,3.65108696 L20.9242034,24.5706522 L15.7141695,24.5706522 L15.6040678,22.2173913 C15.6040678,21.7027174 15.2005424,21.3353261 14.6869153,21.3353261 L6.65166102,21.3353261 L8.41274576,18.3570652 L13.9162034,18.3570652 C14.5399322,18.3570652 15.2737627,18.4304348 15.2368814,17.5847826 L14.6500339,8.20978261 C14.6500339,7.58532609 14.0995254,7.29076087 13.7692203,7.87934783 L3.97342373,24.5706522 L0.414372881,24.5706522 L12.5586441,3.65108696" id="Fill-3"></path>
                <path d="M52.2207458,3.65108696 L59.2287458,3.65108696 L60.8797288,24.5706522 L55.6328136,24.5706522 L55.5227119,22.2173913 C55.5227119,21.7027174 55.1560678,21.3353261 54.6424407,21.3353261 L47.2677966,21.3353261 L48.992,18.3570652 L53.8717288,18.3570652 C54.4954576,18.3570652 55.2292881,18.4304348 55.1560678,17.5847826 L54.3121356,8.20978261 C54.3121356,7.58532609 53.7616271,7.29076087 53.431322,7.87934783 L44.8461017,24.5706522 L41.2870508,24.5706522 L52.2207458,3.65108696" id="Fill-4"></path>
                <polyline id="Fill-5" opacity="0.603469122" points="81.9395254 24.5706522 95.735322 0.489130435 76.1795254 0.489130435 62.3837288 24.5706522 81.9395254 24.5706522"></polyline>
                <polyline id="Fill-6" points="78.0870508 24.5706522 91.8828475 0.489130435 76.1795254 0.489130435 62.3837288 24.5706522 78.0870508 24.5706522"></polyline>
            </g>
        </g>
    </g>
</svg>