<?xml version="1.0" encoding="UTF-8"?>
<svg width="172px" height="22px" viewBox="0 0 172 22" version="1.1" xmlns="http://www.w3.org/2000/svg" xmlns:xlink="http://www.w3.org/1999/xlink">
    <!-- Generator: Sketch 52.6 (67491) - http://www.bohemiancoding.com/sketch -->
    <title>estee lauder</title>
    <desc>Created with Sketch.</desc>
    <g id="Page-1" stroke="none" stroke-width="1" fill="none" fill-rule="evenodd">
        <g id="enterprise" transform="translate(-576.000000, -40.000000)" fill="#8B909F">
            <g id="estee-lauder" transform="translate(576.000000, 40.000000)">
                <path d="M31.3927447,4.51 L31.3927447,21.32075 L33.7458511,21.32075 L33.7458511,4.51 L39.5105957,4.51 L39.5105957,3.42191667 L25.602383,3.42191667 L25.602383,4.51 L31.3927447,4.51 Z M41.9149362,1.35025 L52.4362128,1.35025 L52.4362128,0.314416667 L41.9149362,0.314416667 L41.9149362,1.35025 Z M41.9917872,21.32075 L52.5652128,21.32075 L52.5652128,20.1813333 L44.3448936,20.1813333 L44.3448936,12.1513333 L51.8159149,12.1513333 L51.8159149,11.0889167 L44.3448936,11.0889167 L44.3448936,4.51 L52.4362128,4.51 L52.4362128,3.42191667 L41.9917872,3.42191667 L41.9917872,21.32075 Z M55.9,21.32075 L66.5255745,21.32075 L66.5255745,20.1813333 L58.2787234,20.1813333 L58.2787234,12.1513333 L65.7753617,12.1513333 L65.7753617,11.0889167 L58.2787234,11.0889167 L58.2787234,4.51 L66.3956596,4.51 L66.3956596,3.42191667 L55.9,3.42191667 L55.9,21.32075 Z M0.086,21.32075 L10.6859574,21.32075 L10.6859574,20.1813333 L2.43910638,20.1813333 L2.43910638,12.1513333 L9.91012766,12.1513333 L9.91012766,11.0889167 L2.43910638,11.0889167 L2.43910638,4.51 L10.5825745,4.51 L10.5825745,3.42191667 L0.086,3.42191667 L0.086,21.32075 Z M143.356511,21.32075 L153.955553,21.32075 L153.955553,20.1813333 L145.735234,20.1813333 L145.735234,12.1513333 L153.206255,12.1513333 L153.206255,11.0889167 L145.735234,11.0889167 L145.735234,4.48433333 L153.826553,4.48433333 L153.826553,3.42191667 L143.356511,3.42191667 L143.356511,21.32075 Z M77.0724681,21.32075 L87.5690426,21.32075 L87.5690426,20.15475 L79.3999574,20.15475 L79.3999574,3.42191667 L77.0724681,3.42191667 L77.0724681,21.32075 Z M12.934766,20.5434167 C14.4598936,21.3720833 16.3217021,21.7864167 18.1048298,21.7864167 C21.8275319,21.7864167 25.1888511,19.6368333 25.1888511,16.0105 C25.1888511,9.89816667 15.0024255,11.9698333 15.0024255,7.25541667 C15.0024255,5.52016667 16.6318511,3.99208333 19.0874255,3.99208333 C21.5951489,3.99208333 23.2236596,5.28733333 23.8961064,5.83091667 L23.8961064,4.19925 C22.9647447,3.73358333 21.181617,3.00758333 18.9840426,3.00758333 C15.8304043,3.00758333 12.934766,4.873 12.934766,7.87691667 C12.934766,14.27525 23.0425106,11.9698333 23.0425106,16.7621667 C23.0425106,18.73025 21.207234,20.6983333 18.1048298,20.6983333 C15.7004894,20.6983333 13.8139787,19.4553333 12.934766,18.91175 L12.934766,20.5434167 Z M88.4217234,21.32075 L95.9705106,3.24133333 L97.8323191,3.24133333 L100.779191,10.2089167 L105.535723,21.32075 L102.846851,21.32075 L100.055511,14.4824167 L92.8168723,14.4824167 L90.050234,21.32075 L88.4217234,21.32075 Z M99.6419787,13.42 C98.839617,11.50325 97.5990213,8.49933333 96.4361915,5.4945 C95.2212128,8.60291667 93.6439362,12.54 93.2560213,13.42 L99.6419787,13.42 Z M106.776319,15.389 C106.776319,19.404 109.129426,21.7094167 113.937191,21.7094167 C119.056021,21.7094167 121.072447,18.73025 121.072447,15.51825 L121.072447,3.42191667 L119.676319,3.42191667 L119.676319,15.51825 C119.676319,18.8081667 117.47966,20.6983333 114.196106,20.6983333 C111.300468,20.6983333 109.102894,19.1968333 109.102894,15.829 L109.102894,3.42191667 L106.776319,3.42191667 L106.776319,15.389 Z M157.316872,3.42191667 L163.779681,3.42191667 C167.166617,3.34491667 169.984489,4.6915 169.984489,8.00708333 C169.984489,11.2960833 166.235255,12.3328333 165.433809,12.48775 L171.250702,21.32075 L168.613979,21.32075 L163.133766,12.7728333 L159.694681,12.7728333 L159.694681,21.32075 L157.316872,21.32075 L157.316872,3.42191667 Z M162.486936,11.7626667 C165.433809,11.814 167.683532,10.6745833 167.683532,8.00708333 C167.683532,5.65033333 166.261787,4.38075 163.625064,4.40641667 L159.694681,4.40641667 L159.694681,11.7626667 L162.486936,11.7626667 Z M124.614,21.32075 L124.614,3.42191667 L131.464723,3.42191667 C137.152617,3.31833333 140.461787,6.55691667 140.461787,12.1513333 C140.461787,18.8081667 135.912021,21.3986667 130.559894,21.32075 L124.614,21.32075 Z M126.992723,20.2583333 L130.120745,20.2583333 C134.98066,20.33625 138.057447,18.2123333 138.057447,12.4364167 C138.057447,7.1005 135.523191,4.38075 131.154574,4.45866667 L126.992723,4.45866667 L126.992723,20.2583333 Z" id="Fill-2"></path>
            </g>
        </g>
    </g>
</svg>