<?xml version="1.0" encoding="UTF-8"?>
<svg width="104px" height="28px" viewBox="0 0 104 28" version="1.1" xmlns="http://www.w3.org/2000/svg" xmlns:xlink="http://www.w3.org/1999/xlink">
    <!-- Generator: Sketch 52.6 (67491) - http://www.bohemiancoding.com/sketch -->
    <title>hsbc</title>
    <desc>Created with Sketch.</desc>
    <g id="Page-1" stroke="none" stroke-width="1" fill="none" fill-rule="evenodd">
        <g id="enterprise" transform="translate(-296.000000, -36.000000)">
            <g id="hsbc" transform="translate(296.000000, 36.000000)">
                <g id="Group-6">
                    <polygon id="Fill-1" fill="#FFFFFE" points="14.021913 27.9672453 42.0000409 27.9672453 42.0000409 0.182 14.021913 0.182"></polygon>
                    <polyline id="Fill-3" fill="#8B909F" points="42.0000409 0.182 42.0000409 28 55.9892379 14.1075094 42.0000409 0.182"></polyline>
                    <polyline id="Fill-4" fill="#8B909F" points="42.0000409 0.182 14.021913 0.182 28.01111 14.1075094 42.0000409 0.182"></polyline>
                    <polyline id="Fill-5" fill="#8B909F" points="14.021913 28 14.021913 0.182 0 14.1075094 14.021913 28"></polyline>
                </g>
                <polyline id="Fill-7" fill="#8B909F" points="14.021913 28 42.0000409 28 28.01111 14.1075094 14.021913 28"></polyline>
                <polyline id="Fill-8" fill="#8B909F" points="68.2665575 14.9245283 63.197954 14.9245283 63.197954 19.8932075 60.6631202 19.8932075 60.6631202 8.25603774 63.197954 8.25603774 63.197954 13.028717 68.2665575 13.028717 68.2665575 8.25603774 70.8013913 8.25603774 70.8013913 19.8932075 68.2665575 19.8932075 68.2665575 14.9245283"></polyline>
                <path d="M76.9235601,20.1219623 C74.3889923,20.1219623 72.315376,19.1086792 72.2823939,16.3303396 L74.8169616,16.3303396 C74.8496777,17.5723774 75.573954,18.3244151 76.9562762,18.3244151 C77.9768593,18.3244151 79.161821,17.8011321 79.161821,16.6570943 C79.161821,15.7418113 78.3715806,15.4803019 77.0552225,15.0880377 L76.1992839,14.8590189 C74.3560102,14.3362642 72.5127366,13.6169811 72.5127366,11.5249057 C72.5127366,8.94256604 74.9483581,8.06003774 77.1539028,8.06003774 C79.4248798,8.06003774 81.4000818,8.84456604 81.432798,11.4269057 L78.8984962,11.4269057 C78.7998159,10.3808679 78.1742199,9.75984906 76.9892583,9.75984906 C76.0346394,9.75984906 75.1130026,10.2501132 75.1130026,11.2961509 C75.1130026,12.1459245 75.902977,12.4076981 77.54889,12.930717 L78.536491,13.224717 C80.5441432,13.8457358 81.8280512,14.5322642 81.8280512,16.4935849 C81.7950691,19.1086792 79.2275192,20.1219623 76.9235601,20.1219623" id="Fill-9" fill="#8B909F"></path>
                <path d="M87.5552327,18.1606415 C88.7401944,18.1606415 89.8921739,17.8991321 89.8921739,16.4610943 C89.8921739,15.0227925 88.9048389,14.7610189 87.6868951,14.7610189 L85.678977,14.7610189 L85.678977,18.1606415 L87.5552327,18.1606415 Z M87.32489,13.126717 C88.4441535,13.126717 89.596133,12.8979623 89.596133,11.5576604 C89.596133,10.3481132 88.5428338,10.0213585 87.4895345,10.0213585 L85.7119591,10.0213585 L85.7119591,13.126717 L87.32489,13.126717 Z M83.2433555,8.28879245 L87.32489,8.28879245 C88.0818824,8.25603774 88.8718568,8.28879245 89.6288491,8.41954717 C91.0441535,8.74630189 92.1304348,9.66184906 92.1304348,11.2309057 C92.1304348,12.7344528 91.1758159,13.4862264 89.7934936,13.8457358 C91.3734425,14.14 92.5584041,14.9245283 92.5584041,16.6570943 C92.5584041,19.3046792 89.925156,19.8932075 87.8842558,19.8932075 L83.2763376,19.8932075 L83.2433555,8.28879245 Z" id="Fill-10" fill="#8B909F"></path>
                <path d="M99.1412583,20.1219623 C95.3562967,20.1219623 93.6774015,17.7358868 93.6774015,14.1727547 C93.6774015,10.6096226 95.5536573,8.02728302 99.2731867,8.02728302 C101.610128,8.02728302 103.881371,9.07332075 103.947335,11.6884151 L101.313821,11.6884151 C101.182159,10.5116226 100.39245,9.92309434 99.2731867,9.92309434 C96.9689616,9.92309434 96.2779335,12.3749434 96.2779335,14.238 C96.2779335,16.1013208 96.9689616,18.2586415 99.1742404,18.2586415 C100.32622,18.2586415 101.182159,17.6376226 101.346803,16.4610943 L103.980051,16.4610943 C103.716726,19.141434 101.577412,20.1219623 99.1412583,20.1219623" id="Fill-11" fill="#8B909F"></path>
            </g>
        </g>
    </g>
</svg>