<?xml version="1.0"?>
<svg xmlns="http://www.w3.org/2000/svg" xmlns:xlink="http://www.w3.org/1999/xlink" version="1.1" viewBox="0 0 224 224" width="48px" height="48px"><g fill="none" fill-rule="nonzero" stroke="none" stroke-width="1" stroke-linecap="butt" stroke-linejoin="miter" stroke-miterlimit="10" stroke-dasharray="" stroke-dashoffset="0" font-family="none" font-weight="none" font-size="none" text-anchor="none" style="mix-blend-mode: normal"><path d="M0,224v-224h224v224z" fill="none"/><g fill="#42415c"><g id="surface1"><path d="M112,13.5625l-1.4,0.80938l-21.4375,12.38125h-26.38125l-13.17969,22.84844l-22.84844,13.17969v26.38125l-13.19063,22.8375l13.19063,22.8375v26.38125l22.84844,13.17969l13.17969,22.84844h26.38125l22.8375,13.19062l22.8375,-13.19062h26.38125l13.17969,-22.84844l22.84844,-13.17969v-26.38125l13.19062,-22.8375l-13.19062,-22.8375v-26.38125l-22.84844,-13.17969l-13.17969,-22.84844h-26.38125zM112,20.0375l21.33906,12.31563h24.64219l12.32656,21.33906l21.33906,12.32656v24.64219l12.31562,21.33906l-12.31562,21.33906v24.64219l-21.33906,12.32656l-12.32656,21.33906h-24.64219l-21.33906,12.31562l-21.33906,-12.31562h-24.64219l-12.32656,-21.33906l-21.33906,-12.32656v-24.64219l-12.31563,-21.33906l12.31563,-21.33906v-24.64219l21.33906,-12.32656l12.32656,-21.33906h24.64219zM112,28c-1.54219,0 -2.8,1.25781 -2.8,2.8c0,1.54219 1.25781,2.8 2.8,2.8c1.54219,0 2.8,-1.25781 2.8,-2.8c0,-1.54219 -1.25781,-2.8 -2.8,-2.8zM71.33438,38.88281c-0.47031,0.01094 -0.92969,0.13125 -1.33438,0.37187c-1.33437,0.77656 -1.80469,2.48281 -1.02812,3.82813c0.37187,0.63437 0.98437,1.10469 1.70625,1.30156c0.71094,0.18594 1.47656,0.0875 2.12187,-0.28438c1.33438,-0.77656 1.79375,-2.48281 1.01719,-3.81719c-0.50312,-0.89688 -1.45469,-1.43281 -2.48281,-1.4zM152.46875,38.88281c-0.95156,0.04375 -1.81562,0.56875 -2.29687,1.4c-0.77656,1.33437 -0.30625,3.05156 1.02812,3.81719c1.33438,0.77656 3.05156,0.31719 3.81719,-1.01719c0.38281,-0.64531 0.48125,-1.41094 0.28438,-2.12188c-0.18594,-0.72187 -0.65625,-1.33437 -1.30156,-1.70625c-0.45937,-0.27344 -0.99531,-0.39375 -1.53125,-0.37187zM112,44.8c-1.54219,0 -2.8,1.25781 -2.8,2.8c0,1.54219 1.25781,2.8 2.8,2.8c1.54219,0 2.8,-1.25781 2.8,-2.8c0,-1.54219 -1.25781,-2.8 -2.8,-2.8zM99.44375,46.03594c-0.18594,0 -0.37187,0.02188 -0.55781,0.05469c-1.50937,0.30625 -2.49375,1.77187 -2.19844,3.29219c0.30625,1.52031 1.78281,2.50469 3.29219,2.19844c1.52031,-0.30625 2.50469,-1.77187 2.20938,-3.29219c-0.2625,-1.30156 -1.41094,-2.24219 -2.74531,-2.25313zM124.64375,46.03594c-1.36719,-0.03281 -2.55937,0.91875 -2.82187,2.25313c-0.30625,1.52031 0.67812,2.98594 2.19844,3.29219c1.52031,0.30625 2.98594,-0.67812 3.29219,-2.19844c0.30625,-1.52031 -0.67812,-2.98594 -2.19844,-3.29219c-0.15313,-0.03281 -0.31719,-0.05469 -0.47031,-0.05469zM136.70781,49.7c-1.15938,-0.03281 -2.20938,0.65625 -2.65781,1.71719c-0.27344,0.68906 -0.27344,1.46563 0.01094,2.15469c0.28438,0.67812 0.83125,1.225 1.52031,1.50937c1.42188,0.59063 3.05156,-0.0875 3.64219,-1.52031c0.60156,-1.42187 -0.07656,-3.0625 -1.50937,-3.65312c-0.31719,-0.13125 -0.65625,-0.20781 -1.00625,-0.20781zM87.36875,49.7c-0.37187,0 -0.73281,0.06563 -1.08281,0.21875c-1.43281,0.59063 -2.11094,2.22031 -1.50937,3.65313c0.59062,1.42187 2.22031,2.1 3.64219,1.50937c0.68906,-0.27344 1.23594,-0.82031 1.52031,-1.50937c0.28437,-0.68906 0.28437,-1.45469 0.01094,-2.14375c-0.4375,-1.03906 -1.45469,-1.71719 -2.58125,-1.72813zM76.25625,55.65c-0.56875,-0.01094 -1.12656,0.15313 -1.58594,0.47031c-1.29063,0.86406 -1.64063,2.59219 -0.77656,3.88281c0.85313,1.29062 2.59219,1.62969 3.88281,0.77656c0.62344,-0.41562 1.05,-1.05 1.19219,-1.78281c0.14219,-0.73281 -0.01094,-1.4875 -0.42656,-2.11094c-0.50312,-0.76562 -1.36719,-1.225 -2.28594,-1.23594zM147.83125,55.65c-0.95156,-0.02187 -1.84844,0.44844 -2.37344,1.23594c-0.86406,1.29063 -0.51406,3.02969 0.76562,3.88281c1.29063,0.86406 3.01875,0.51406 3.88281,-0.76562c0.86406,-1.29063 0.51406,-3.01875 -0.77656,-3.88281c-0.4375,-0.29531 -0.9625,-0.45938 -1.49844,-0.47031zM66.5,63.65625c-0.75469,-0.01094 -1.4875,0.28438 -2.0125,0.83125c-1.09375,1.08281 -1.09375,2.86563 0,3.94844c1.08281,1.09375 2.86563,1.09375 3.94844,0c1.09375,-1.08281 1.09375,-2.86562 0,-3.94844c-0.51406,-0.525 -1.20312,-0.80937 -1.93594,-0.83125zM157.57656,63.65625c-0.75469,0 -1.4875,0.29531 -2.0125,0.83125c-1.09375,1.08281 -1.09375,2.86563 0,3.94844c1.08281,1.09375 2.86562,1.09375 3.94844,0c1.09375,-1.08281 1.09375,-2.86562 0,-3.94844c-0.51406,-0.525 -1.20312,-0.82031 -1.93594,-0.83125zM182.25156,68.6c-0.47031,0.01094 -0.92969,0.14219 -1.33438,0.37188c-0.64531,0.37187 -1.11562,0.98437 -1.30156,1.70625c-0.19688,0.71094 -0.09844,1.47656 0.28437,2.12187c0.76563,1.33438 2.48281,1.79375 3.81719,1.01719c1.33438,-0.76562 1.79375,-2.48281 1.02813,-3.81719c-0.51406,-0.88594 -1.46563,-1.42187 -2.49375,-1.4zM41.55156,68.6c-0.95156,0.05469 -1.81563,0.57969 -2.29688,1.4c-0.77656,1.33438 -0.31719,3.05156 1.02813,3.81719c0.63437,0.38281 1.4,0.48125 2.12187,0.28438c0.72188,-0.18594 1.33438,-0.65625 1.69531,-1.30156c0.77656,-1.33437 0.31719,-3.05156 -1.01719,-3.81719c-0.47031,-0.27344 -1.00625,-0.40469 -1.53125,-0.38281zM165.58281,73.4125c-0.56875,0 -1.12656,0.16406 -1.59688,0.48125c-1.27969,0.85313 -1.62969,2.59219 -0.76562,3.88281c0.86406,1.27969 2.59219,1.62969 3.88281,0.76562c1.27969,-0.86406 1.62969,-2.59219 0.76562,-3.88281c-0.50312,-0.76563 -1.36719,-1.23594 -2.28594,-1.24688zM58.50469,73.4125c-0.95156,-0.01094 -1.84844,0.45938 -2.37344,1.25781c-0.86406,1.27969 -0.51406,3.01875 0.77656,3.87187c1.27969,0.86406 3.01875,0.51406 3.87187,-0.76562c0.41563,-0.6125 0.56875,-1.37813 0.42656,-2.1c-0.14219,-0.73281 -0.56875,-1.37813 -1.19219,-1.78281c-0.44844,-0.30625 -0.9625,-0.47031 -1.50938,-0.48125zM93.24219,78.87031c-8.225,0 -13.9125,6.3875 -13.9125,15.575c0,9.1875 5.73125,15.575 13.9125,15.575c8.23594,0 13.9125,-6.3875 13.9125,-15.575c0,-9.23125 -5.67656,-15.575 -13.9125,-15.575zM129.86094,80.13906l-21,30.14375l-24.01875,32.9875h9.58125l20.5625,-29.70625l24.4125,-33.425zM52.55469,84.55781c-1.14844,-0.03281 -2.19844,0.65625 -2.63594,1.71719c-0.60156,1.43281 0.07656,3.07344 1.50938,3.66406c1.43281,0.59062 3.0625,-0.0875 3.65312,-1.52031c0.60156,-1.42187 -0.07656,-3.0625 -1.50937,-3.65312c-0.31719,-0.13125 -0.66719,-0.20781 -1.01719,-0.20781zM171.51094,84.55781c-0.37187,-0.01094 -0.73281,0.06562 -1.08281,0.20781c-1.43281,0.59062 -2.11094,2.23125 -1.50938,3.65312c0.59063,1.43281 2.22031,2.11094 3.65313,1.52031c1.43281,-0.59063 2.11094,-2.23125 1.50937,-3.66406c-0.42656,-1.03906 -1.44375,-1.71719 -2.57031,-1.71719zM93.24219,85.69531c3.68594,0 5.95,3.28125 5.95,8.70625c0,5.3375 -2.3625,8.79375 -5.95,8.79375c-3.57656,0 -5.95,-3.45625 -5.95,-8.79375c0,-5.3375 2.31875,-8.70625 5.95,-8.70625zM48.9125,96.64375c-1.36719,-0.04375 -2.55937,0.90781 -2.82187,2.24219c-0.30625,1.52031 0.67812,2.99688 2.19844,3.30313c1.52031,0.29531 2.98594,-0.68906 3.29219,-2.20938c0.14219,-0.72187 0,-1.47656 -0.41562,-2.1c-0.41563,-0.6125 -1.05,-1.05 -1.78281,-1.19219c-0.15313,-0.03281 -0.31719,-0.04375 -0.47031,-0.04375zM175.175,96.64375c-0.18594,-0.01094 -0.37187,0.01094 -0.55781,0.04375c-0.72187,0.14219 -1.36719,0.56875 -1.78281,1.19219c-0.40469,0.6125 -0.55781,1.36719 -0.41563,2.1c0.14219,0.73281 0.56875,1.36719 1.19219,1.78281c0.6125,0.41563 1.36719,0.56875 2.1,0.42656c0.73281,-0.15313 1.36719,-0.57969 1.78281,-1.19219c0.41563,-0.62344 0.56875,-1.37813 0.42656,-2.11094c-0.2625,-1.30156 -1.41094,-2.24219 -2.74531,-2.24219zM30.8,109.2c-1.54219,0 -2.8,1.25781 -2.8,2.8c0,1.54219 1.25781,2.8 2.8,2.8c1.54219,0 2.8,-1.25781 2.8,-2.8c0,-1.54219 -1.25781,-2.8 -2.8,-2.8zM47.6,109.2c-1.54219,0 -2.8,1.25781 -2.8,2.8c0,1.54219 1.25781,2.8 2.8,2.8c1.54219,0 2.8,-1.25781 2.8,-2.8c0,-1.54219 -1.25781,-2.8 -2.8,-2.8zM176.4,109.2c-1.54219,0 -2.8,1.25781 -2.8,2.8c0,1.54219 1.25781,2.8 2.8,2.8c1.54219,0 2.8,-1.25781 2.8,-2.8c0,-1.54219 -1.25781,-2.8 -2.8,-2.8zM193.2,109.2c-1.54219,0 -2.8,1.25781 -2.8,2.8c0,1.54219 1.25781,2.8 2.8,2.8c1.54219,0 2.8,-1.25781 2.8,-2.8c0,-1.54219 -1.25781,-2.8 -2.8,-2.8zM130.73594,113.38906c-8.21406,0 -13.95625,6.34375 -13.95625,15.53125c0,9.23125 5.73125,15.61875 13.95625,15.61875c8.23594,0 13.9125,-6.3875 13.9125,-15.61875c0,-9.1875 -5.6875,-15.53125 -13.9125,-15.53125zM130.73594,120.21406c3.64219,0 5.90625,3.28125 5.90625,8.70625c0,5.3375 -2.31875,8.79375 -5.90625,8.79375c-3.57656,0 -5.95,-3.45625 -5.95,-8.79375c0,-5.3375 2.31875,-8.70625 5.95,-8.70625zM175.22969,121.75625c-1.35625,-0.03281 -2.54844,0.91875 -2.81094,2.26406c-0.30625,1.50937 0.67813,2.98594 2.19844,3.29219c1.52031,0.29531 2.98594,-0.68906 3.29219,-2.19844c0.30625,-1.52031 -0.67813,-2.99688 -2.19844,-3.30313c-0.15312,-0.02187 -0.31719,-0.04375 -0.48125,-0.05469zM48.85781,121.76719c-0.19688,0 -0.38281,0.01094 -0.55781,0.04375c-0.73281,0.15313 -1.37812,0.57969 -1.79375,1.19219c-0.40469,0.62344 -0.55781,1.37812 -0.41562,2.11094c0.14219,0.72187 0.56875,1.36719 1.19219,1.78281c0.6125,0.40469 1.36719,0.55781 2.1,0.41562c0.73281,-0.14219 1.36719,-0.56875 1.78281,-1.19219c0.41562,-0.6125 0.56875,-1.36719 0.41562,-2.1c-0.25156,-1.30156 -1.4,-2.24219 -2.72344,-2.25313zM52.53281,133.84219c-0.38281,0 -0.75469,0.06563 -1.09375,0.20781c-1.43281,0.60156 -2.11094,2.23125 -1.52031,3.66406c0.59063,1.43281 2.23125,2.11094 3.66406,1.50937c1.42187,-0.59062 2.1,-2.22031 1.50937,-3.65312c-0.42656,-1.03906 -1.44375,-1.71719 -2.55937,-1.72813zM171.55469,133.84219c-1.14844,-0.02187 -2.19844,0.65625 -2.63594,1.72813c-0.60156,1.43281 0.07656,3.0625 1.50938,3.65312c0.68906,0.28438 1.45469,0.28438 2.14375,0c0.68906,-0.28437 1.23594,-0.83125 1.50937,-1.50937c0.60156,-1.43281 -0.07656,-3.07344 -1.50937,-3.66406c-0.31719,-0.13125 -0.66719,-0.19687 -1.01719,-0.20781zM165.59375,144.97656c-0.95156,-0.02188 -1.84844,0.44844 -2.37344,1.23594c-0.86406,1.29063 -0.51406,3.02969 0.76562,3.89375c0.62344,0.40469 1.37813,0.55781 2.11094,0.41563c0.73281,-0.15313 1.36719,-0.57969 1.78281,-1.20313c0.85313,-1.27969 0.51406,-3.01875 -0.77656,-3.88281c-0.44844,-0.29531 -0.9625,-0.45937 -1.50938,-0.45937zM58.49375,144.97656c-0.56875,-0.01094 -1.12656,0.15312 -1.58594,0.47031c-1.29063,0.86406 -1.64063,2.59219 -0.77656,3.88281c0.85313,1.29063 2.59219,1.62969 3.88281,0.77656c0.62344,-0.41562 1.05,-1.05 1.19219,-1.78281c0.14219,-0.73281 -0.01094,-1.4875 -0.42656,-2.11094c-0.50312,-0.76562 -1.36719,-1.225 -2.28594,-1.23594zM41.60625,149.8c-0.45937,0.01094 -0.91875,0.13125 -1.32344,0.37188c-1.34531,0.77656 -1.80469,2.48281 -1.02813,3.82812c0.77656,1.33438 2.48281,1.79375 3.82813,1.01719c0.63437,-0.36094 1.10469,-0.97344 1.30156,-1.69531c0.18594,-0.72188 0.0875,-1.4875 -0.28438,-2.12188c-0.51406,-0.89687 -1.46562,-1.43281 -2.49375,-1.4zM182.18594,149.8c-0.95156,0.05469 -1.81562,0.57969 -2.28594,1.4c-0.77656,1.34531 -0.31719,3.05156 1.01719,3.82813c1.33438,0.77656 3.05156,0.31719 3.82813,-1.02813c0.37187,-0.63437 0.47031,-1.4 0.27344,-2.12187c-0.18594,-0.72188 -0.65625,-1.33438 -1.30156,-1.69531c-0.45937,-0.27344 -0.99531,-0.40469 -1.53125,-0.38281zM66.5,154.73281c-0.75469,-0.01094 -1.4875,0.28437 -2.0125,0.82031c-1.09375,1.09375 -1.09375,2.86562 0,3.95937c1.08281,1.09375 2.86563,1.09375 3.94844,0c1.09375,-1.09375 1.09375,-2.86562 0,-3.95937c-0.51406,-0.51406 -1.20312,-0.80938 -1.93594,-0.82031zM157.57656,154.74375c-0.75469,-0.02187 -1.4875,0.27344 -2.02344,0.82031c-1.09375,1.08281 -1.09375,2.86562 0,3.94844c1.09375,1.09375 2.86562,1.09375 3.95937,0c1.09375,-1.08281 1.09375,-2.86562 0,-3.94844c-0.51406,-0.525 -1.20312,-0.80938 -1.93594,-0.82031zM147.82031,162.73906c-0.56875,0 -1.12656,0.16406 -1.59688,0.48125c-1.27969,0.85312 -1.62969,2.59219 -0.76562,3.87187c0.86406,1.29063 2.59219,1.64063 3.88281,0.77656c1.27969,-0.86406 1.62969,-2.59219 0.76562,-3.88281c-0.50312,-0.76562 -1.36719,-1.23594 -2.28594,-1.24687zM76.27813,162.75c-0.95156,-0.02187 -1.84844,0.44844 -2.38438,1.23594c-0.85312,1.29063 -0.50312,3.01875 0.77656,3.88281c1.29062,0.86406 3.01875,0.51406 3.88281,-0.77656c0.86406,-1.27969 0.51406,-3.01875 -0.76563,-3.87187c-0.44844,-0.30625 -0.97344,-0.47031 -1.50937,-0.47031zM87.4125,168.7c-1.14844,-0.03281 -2.19844,0.65625 -2.63594,1.71719c-0.60156,1.43281 0.07656,3.07344 1.50937,3.66406c1.43281,0.59063 3.0625,-0.0875 3.66406,-1.52031c0.59063,-1.42187 -0.0875,-3.0625 -1.52031,-3.65312c-0.31719,-0.13125 -0.66719,-0.20781 -1.01719,-0.20781zM136.675,168.7c-0.38281,-0.01094 -0.75469,0.06563 -1.09375,0.20781c-1.43281,0.59062 -2.11094,2.23125 -1.52031,3.65312c0.59063,1.43281 2.23125,2.11094 3.66406,1.52031c1.42188,-0.59062 2.1,-2.23125 1.50938,-3.66406c-0.42656,-1.02812 -1.44375,-1.71719 -2.55938,-1.71719zM99.52031,172.36406c-1.36719,-0.03281 -2.55938,0.91875 -2.83281,2.25312c-0.14219,0.73281 0.01094,1.4875 0.42656,2.1c0.41562,0.62344 1.05,1.05 1.78281,1.19219c1.52031,0.30625 2.98594,-0.67813 3.29219,-2.19844c0.14219,-0.73281 -0.01094,-1.4875 -0.41563,-2.1c-0.41562,-0.62344 -1.06094,-1.05 -1.79375,-1.19219c-0.15312,-0.03281 -0.30625,-0.05469 -0.45937,-0.05469zM124.57813,172.36406c-0.18594,0 -0.37188,0.02187 -0.55781,0.05469c-1.52031,0.30625 -2.50469,1.77188 -2.19844,3.29219c0.30625,1.52031 1.77187,2.50469 3.29219,2.19844c1.52031,-0.30625 2.50469,-1.77188 2.19844,-3.29219c-0.2625,-1.30156 -1.4,-2.24219 -2.73437,-2.25312zM112,173.6c-1.54219,0 -2.8,1.25781 -2.8,2.8c0,1.54219 1.25781,2.8 2.8,2.8c1.54219,0 2.8,-1.25781 2.8,-2.8c0,-1.54219 -1.25781,-2.8 -2.8,-2.8zM152.52344,179.51719c-0.45937,0.01094 -0.91875,0.14219 -1.32344,0.38281c-1.34531,0.76563 -1.80469,2.48281 -1.02812,3.81719c0.77656,1.33438 2.48281,1.79375 3.82812,1.02813c1.33438,-0.77656 1.79375,-2.49375 1.01719,-3.82813c-0.50312,-0.88594 -1.46562,-1.42187 -2.49375,-1.4zM71.26875,179.52813c-0.95156,0.04375 -1.81562,0.56875 -2.29687,1.38906c-0.37188,0.64531 -0.47031,1.41094 -0.28438,2.13281c0.19688,0.72188 0.66719,1.33438 1.3125,1.70625c1.33438,0.76563 3.05156,0.30625 3.81719,-1.03906c0.77656,-1.33437 0.31719,-3.04062 -1.01719,-3.81719c-0.47031,-0.27344 -0.99531,-0.39375 -1.53125,-0.37187zM112,190.4c-1.54219,0 -2.8,1.25781 -2.8,2.8c0,1.54219 1.25781,2.8 2.8,2.8c1.54219,0 2.8,-1.25781 2.8,-2.8c0,-1.54219 -1.25781,-2.8 -2.8,-2.8z"/></g></g></g></svg>
