<?xml version="1.0"?>
<svg xmlns="http://www.w3.org/2000/svg" xmlns:xlink="http://www.w3.org/1999/xlink" version="1.1" viewBox="0 0 224 224" width="48px" height="48px"><g fill="none" fill-rule="nonzero" stroke="none" stroke-width="1" stroke-linecap="butt" stroke-linejoin="miter" stroke-miterlimit="10" stroke-dasharray="" stroke-dashoffset="0" font-family="none" font-weight="none" font-size="none" text-anchor="none" style="mix-blend-mode: normal"><path d="M0,224v-224h224v224z" fill="none"/><g fill="#42415c"><path d="M28,30.8v11.2h5.6v-5.6h156.8v5.6h5.6v-11.2zM16.8,47.6v2.8v142.8h190.4v-145.6zM22.4,53.2h179.2v134.4h-179.2zM36.4,67.2v2.8v103.6h151.2v-106.4zM42,72.8h140v36.4c-1.5464,0 -2.8,1.2536 -2.8,2.8c0,1.5464 1.2536,2.8 2.8,2.8v11.2c-1.5464,0 -2.8,1.2536 -2.8,2.8c0,1.5464 1.2536,2.8 2.8,2.8v11.2l-4.22187,-3.16641c0.87745,-0.49612 1.42051,-1.4256 1.42187,-2.43359c0,-1.5464 -1.2536,-2.8 -2.8,-2.8c-1.29898,0.00115 -2.4266,0.89554 -2.72344,2.16016l-18.29844,-13.72656c0.87745,-0.49612 1.42051,-1.4256 1.42187,-2.43359c0,-1.5464 -1.2536,-2.8 -2.8,-2.8c-1.29898,0.00115 -2.4266,0.89554 -2.72344,2.16016l-11.30938,-8.48203l-0.05469,0.04375c-0.31089,-1.24545 -1.42884,-2.11997 -2.7125,-2.12187c-1.5464,0 -2.8,1.2536 -2.8,2.8c0.00241,1.02936 0.56943,1.9744 1.47656,2.46094l-18.28203,14.22422c-0.06154,-1.49926 -1.29401,-2.68349 -2.79453,-2.68516c-1.5464,0 -2.8,1.2536 -2.8,2.8c0.00192,0.15407 0.01655,0.30771 0.04375,0.45937l-11.34766,-9.59766c-0.30586,-1.11564 -1.26631,-1.92833 -2.41719,-2.04531l-4.09062,-3.46172c0.64095,-0.53199 1.01176,-1.32173 1.01172,-2.15469c0,-1.5464 -1.2536,-2.8 -2.8,-2.8c-0.99647,0.00161 -1.91701,0.53269 -2.41719,1.39453l-5.80781,-4.91094l-18.12344,12.45781c-0.47916,-0.35109 -1.05755,-0.54069 -1.65156,-0.54141c-1.5464,0 -2.8,1.2536 -2.8,2.8c0.00206,0.24779 0.037,0.49422 0.10391,0.73281l-11.30937,7.77109c0.00247,-0.0346 0.00429,-0.06924 0.00547,-0.10391c0,-1.5464 -1.2536,-2.8 -2.8,-2.8c-1.5464,0 -2.8,1.2536 -2.8,2.8c0.0024,1.19871 0.76757,2.26292 1.90313,2.64687l-4.70313,3.23203v-11.47891c1.5464,0 2.8,-1.2536 2.8,-2.8c0,-1.5464 -1.2536,-2.8 -2.8,-2.8v-11.2c1.5464,0 2.8,-1.2536 2.8,-2.8c0,-1.5464 -1.2536,-2.8 -2.8,-2.8zM58.8,92.4c-1.5464,0 -2.8,1.2536 -2.8,2.8c0,1.5464 1.2536,2.8 2.8,2.8c1.5464,0 2.8,-1.2536 2.8,-2.8c0,-1.5464 -1.2536,-2.8 -2.8,-2.8zM70,92.4c-1.5464,0 -2.8,1.2536 -2.8,2.8c0,1.5464 1.2536,2.8 2.8,2.8c1.5464,0 2.8,-1.2536 2.8,-2.8c0,-1.5464 -1.2536,-2.8 -2.8,-2.8zM103.6,92.4c-1.5464,0 -2.8,1.2536 -2.8,2.8c0,1.5464 1.2536,2.8 2.8,2.8c1.5464,0 2.8,-1.2536 2.8,-2.8c0,-1.5464 -1.2536,-2.8 -2.8,-2.8zM114.8,92.4c-1.5464,0 -2.8,1.2536 -2.8,2.8c0,1.5464 1.2536,2.8 2.8,2.8c1.5464,0 2.8,-1.2536 2.8,-2.8c0,-1.5464 -1.2536,-2.8 -2.8,-2.8zM148.4,92.4c-1.5464,0 -2.8,1.2536 -2.8,2.8c0,1.5464 1.2536,2.8 2.8,2.8c1.5464,0 2.8,-1.2536 2.8,-2.8c0,-1.5464 -1.2536,-2.8 -2.8,-2.8zM159.6,92.4c-1.5464,0 -2.8,1.2536 -2.8,2.8c0,1.5464 1.2536,2.8 2.8,2.8c1.5464,0 2.8,-1.2536 2.8,-2.8c0,-1.5464 -1.2536,-2.8 -2.8,-2.8zM53.2,100.8c-1.5464,0 -2.8,1.2536 -2.8,2.8c0,1.5464 1.2536,2.8 2.8,2.8c1.5464,0 2.8,-1.2536 2.8,-2.8c0,-1.5464 -1.2536,-2.8 -2.8,-2.8zM64.4,100.8c-1.5464,0 -2.8,1.2536 -2.8,2.8c0,1.5464 1.2536,2.8 2.8,2.8c1.5464,0 2.8,-1.2536 2.8,-2.8c0,-1.5464 -1.2536,-2.8 -2.8,-2.8zM75.6,100.8c-1.5464,0 -2.8,1.2536 -2.8,2.8c0,1.5464 1.2536,2.8 2.8,2.8c1.5464,0 2.8,-1.2536 2.8,-2.8c0,-1.5464 -1.2536,-2.8 -2.8,-2.8zM86.8,100.8c-1.5464,0 -2.8,1.2536 -2.8,2.8c0,1.5464 1.2536,2.8 2.8,2.8c1.5464,0 2.8,-1.2536 2.8,-2.8c0,-1.5464 -1.2536,-2.8 -2.8,-2.8zM98,100.8c-1.5464,0 -2.8,1.2536 -2.8,2.8c0,1.5464 1.2536,2.8 2.8,2.8c1.5464,0 2.8,-1.2536 2.8,-2.8c0,-1.5464 -1.2536,-2.8 -2.8,-2.8zM109.2,100.8c-1.5464,0 -2.8,1.2536 -2.8,2.8c0,1.5464 1.2536,2.8 2.8,2.8c1.5464,0 2.8,-1.2536 2.8,-2.8c0,-1.5464 -1.2536,-2.8 -2.8,-2.8zM120.4,100.8c-1.5464,0 -2.8,1.2536 -2.8,2.8c0,1.5464 1.2536,2.8 2.8,2.8c1.5464,0 2.8,-1.2536 2.8,-2.8c0,-1.5464 -1.2536,-2.8 -2.8,-2.8zM131.6,100.8c-1.5464,0 -2.8,1.2536 -2.8,2.8c0,1.5464 1.2536,2.8 2.8,2.8c1.5464,0 2.8,-1.2536 2.8,-2.8c0,-1.5464 -1.2536,-2.8 -2.8,-2.8zM142.8,100.8c-1.5464,0 -2.8,1.2536 -2.8,2.8c0,1.5464 1.2536,2.8 2.8,2.8c1.5464,0 2.8,-1.2536 2.8,-2.8c0,-1.5464 -1.2536,-2.8 -2.8,-2.8zM154,100.8c-1.5464,0 -2.8,1.2536 -2.8,2.8c0,1.5464 1.2536,2.8 2.8,2.8c1.5464,0 2.8,-1.2536 2.8,-2.8c0,-1.5464 -1.2536,-2.8 -2.8,-2.8zM165.2,100.8c-1.5464,0 -2.8,1.2536 -2.8,2.8c0,1.5464 1.2536,2.8 2.8,2.8c1.5464,0 2.8,-1.2536 2.8,-2.8c0,-1.5464 -1.2536,-2.8 -2.8,-2.8zM176.4,100.8c-1.5464,0 -2.8,1.2536 -2.8,2.8c0,1.5464 1.2536,2.8 2.8,2.8c1.5464,0 2.8,-1.2536 2.8,-2.8c0,-1.5464 -1.2536,-2.8 -2.8,-2.8zM47.6,109.2c-1.5464,0 -2.8,1.2536 -2.8,2.8c0,1.5464 1.2536,2.8 2.8,2.8c1.5464,0 2.8,-1.2536 2.8,-2.8c0,-1.5464 -1.2536,-2.8 -2.8,-2.8zM58.8,109.2c-1.5464,0 -2.8,1.2536 -2.8,2.8c0,1.5464 1.2536,2.8 2.8,2.8c1.5464,0 2.8,-1.2536 2.8,-2.8c0,-1.5464 -1.2536,-2.8 -2.8,-2.8zM70,109.2c-1.5464,0 -2.8,1.2536 -2.8,2.8c0,1.5464 1.2536,2.8 2.8,2.8c1.5464,0 2.8,-1.2536 2.8,-2.8c0,-1.5464 -1.2536,-2.8 -2.8,-2.8zM103.6,109.2c-1.5464,0 -2.8,1.2536 -2.8,2.8c0,1.5464 1.2536,2.8 2.8,2.8c1.5464,0 2.8,-1.2536 2.8,-2.8c0,-1.5464 -1.2536,-2.8 -2.8,-2.8zM114.8,109.2c-1.5464,0 -2.8,1.2536 -2.8,2.8c0,1.5464 1.2536,2.8 2.8,2.8c1.5464,0 2.8,-1.2536 2.8,-2.8c0,-1.5464 -1.2536,-2.8 -2.8,-2.8zM126,109.2c-1.5464,0 -2.8,1.2536 -2.8,2.8c0,1.5464 1.2536,2.8 2.8,2.8c1.5464,0 2.8,-1.2536 2.8,-2.8c0,-1.5464 -1.2536,-2.8 -2.8,-2.8zM148.4,109.2c-1.5464,0 -2.8,1.2536 -2.8,2.8c0,1.5464 1.2536,2.8 2.8,2.8c1.5464,0 2.8,-1.2536 2.8,-2.8c0,-1.5464 -1.2536,-2.8 -2.8,-2.8zM159.6,109.2c-1.5464,0 -2.8,1.2536 -2.8,2.8c0,1.5464 1.2536,2.8 2.8,2.8c1.5464,0 2.8,-1.2536 2.8,-2.8c0,-1.5464 -1.2536,-2.8 -2.8,-2.8zM170.8,109.2c-1.5464,0 -2.8,1.2536 -2.8,2.8c0,1.5464 1.2536,2.8 2.8,2.8c1.5464,0 2.8,-1.2536 2.8,-2.8c0,-1.5464 -1.2536,-2.8 -2.8,-2.8zM83.825,112.71641l65.32969,55.28359h-107.15469v-26.52891zM53.2,117.6c-1.5464,0 -2.8,1.2536 -2.8,2.8c0,1.5464 1.2536,2.8 2.8,2.8c1.5464,0 2.8,-1.2536 2.8,-2.8c0,-1.5464 -1.2536,-2.8 -2.8,-2.8zM109.2,117.6c-1.5464,0 -2.8,1.2536 -2.8,2.8c0,1.5464 1.2536,2.8 2.8,2.8c1.5464,0 2.8,-1.2536 2.8,-2.8c0,-1.5464 -1.2536,-2.8 -2.8,-2.8zM120.4,117.6c-1.5464,0 -2.8,1.2536 -2.8,2.8c0,1.5464 1.2536,2.8 2.8,2.8c1.5464,0 2.8,-1.2536 2.8,-2.8c0,-1.5464 -1.2536,-2.8 -2.8,-2.8zM165.2,117.6c-1.5464,0 -2.8,1.2536 -2.8,2.8c0,1.5464 1.2536,2.8 2.8,2.8c1.5464,0 2.8,-1.2536 2.8,-2.8c0,-1.5464 -1.2536,-2.8 -2.8,-2.8zM176.4,117.6c-1.5464,0 -2.8,1.2536 -2.8,2.8c0,1.5464 1.2536,2.8 2.8,2.8c1.5464,0 2.8,-1.2536 2.8,-2.8c0,-1.5464 -1.2536,-2.8 -2.8,-2.8zM140.03281,118.32187l41.96719,31.48359v18.19453h-24.17187l-39.11797,-33.09687zM170.8,126c-1.5464,0 -2.8,1.2536 -2.8,2.8c0,1.5464 1.2536,2.8 2.8,2.8c1.5464,0 2.8,-1.2536 2.8,-2.8c0,-1.5464 -1.2536,-2.8 -2.8,-2.8z"/></g></g></svg>
