<?xml version="1.0" encoding="UTF-8"?>
<svg width="48px" height="48px" viewBox="0 0 48 48" version="1.1" xmlns="http://www.w3.org/2000/svg" xmlns:xlink="http://www.w3.org/1999/xlink">
    <!-- Generator: Sketch 52.6 (67491) - http://www.bohemiancoding.com/sketch -->
    <title>icons8-video-playlist</title>
    <desc>Created with Sketch.</desc>
    <g id="Page-1" stroke="none" stroke-width="1" fill="none" fill-rule="evenodd">
        <g id="Artboard" transform="translate(-150.000000, -144.000000)">
            <g id="icons8-video-playlist" transform="translate(150.000000, 144.000000)">
                <polygon id="Path" fill-opacity="0.01" fill="#FFFFFF" points="0 48 0 0 48 0 48 48"></polygon>
                <g id="Group" transform="translate(3.428571, 6.000000)" fill="#42415C" fill-rule="nonzero">
                    <path d="M4.97142857,0 L4.97142857,2.4 L6.17142857,2.4 L6.17142857,1.2 L34.9714286,1.2 L34.9714286,2.4 L36.1714286,2.4 L36.1714286,0 L4.97142857,0 Z M2.57142857,3.6 L2.57142857,6 L3.77142857,6 L3.77142857,4.8 L37.3714286,4.8 L37.3714286,6 L38.5714286,6 L38.5714286,3.6 L2.57142857,3.6 Z M0.171428571,7.2 L0.171428571,7.8 L0.171428571,35.4 L40.9714286,35.4 L40.9714286,7.2 L0.171428571,7.2 Z M1.37142857,8.4 L39.7714286,8.4 L39.7714286,34.2 L1.37142857,34.2 L1.37142857,8.4 Z M3.77142857,10.8 C3.44005714,10.8 3.17142857,11.0686286 3.17142857,11.4 C3.17142857,11.7313714 3.44005714,12 3.77142857,12 C4.1028,12 4.37142857,11.7313714 4.37142857,11.4 C4.37142857,11.0686286 4.1028,10.8 3.77142857,10.8 Z M6.17142857,10.8 C5.84005714,10.8 5.57142857,11.0686286 5.57142857,11.4 C5.57142857,11.7313714 5.84005714,12 6.17142857,12 C6.5028,12 6.77142857,11.7313714 6.77142857,11.4 C6.77142857,11.0686286 6.5028,10.8 6.17142857,10.8 Z M8.57142857,10.8 C8.24005714,10.8 7.97142857,11.0686286 7.97142857,11.4 C7.97142857,11.7313714 8.24005714,12 8.57142857,12 C8.9028,12 9.17142857,11.7313714 9.17142857,11.4 C9.17142857,11.0686286 8.9028,10.8 8.57142857,10.8 Z M10.9714286,10.8 C10.6400571,10.8 10.3714286,11.0686286 10.3714286,11.4 C10.3714286,11.7313714 10.6400571,12 10.9714286,12 C11.3028,12 11.5714286,11.7313714 11.5714286,11.4 C11.5714286,11.0686286 11.3028,10.8 10.9714286,10.8 Z M13.3714286,10.8 C13.0400571,10.8 12.7714286,11.0686286 12.7714286,11.4 C12.7714286,11.7313714 13.0400571,12 13.3714286,12 C13.7028,12 13.9714286,11.7313714 13.9714286,11.4 C13.9714286,11.0686286 13.7028,10.8 13.3714286,10.8 Z M15.7714286,10.8 C15.4400571,10.8 15.1714286,11.0686286 15.1714286,11.4 C15.1714286,11.7313714 15.4400571,12 15.7714286,12 C16.1028,12 16.3714286,11.7313714 16.3714286,11.4 C16.3714286,11.0686286 16.1028,10.8 15.7714286,10.8 Z M18.1714286,10.8 C17.8400571,10.8 17.5714286,11.0686286 17.5714286,11.4 C17.5714286,11.7313714 17.8400571,12 18.1714286,12 C18.5028,12 18.7714286,11.7313714 18.7714286,11.4 C18.7714286,11.0686286 18.5028,10.8 18.1714286,10.8 Z M20.5714286,10.8 C20.2400571,10.8 19.9714286,11.0686286 19.9714286,11.4 C19.9714286,11.7313714 20.2400571,12 20.5714286,12 C20.9028,12 21.1714286,11.7313714 21.1714286,11.4 C21.1714286,11.0686286 20.9028,10.8 20.5714286,10.8 Z M22.9714286,10.8 C22.6400571,10.8 22.3714286,11.0686286 22.3714286,11.4 C22.3714286,11.7313714 22.6400571,12 22.9714286,12 C23.3028,12 23.5714286,11.7313714 23.5714286,11.4 C23.5714286,11.0686286 23.3028,10.8 22.9714286,10.8 Z M25.3714286,10.8 C25.0400571,10.8 24.7714286,11.0686286 24.7714286,11.4 C24.7714286,11.7313714 25.0400571,12 25.3714286,12 C25.7028,12 25.9714286,11.7313714 25.9714286,11.4 C25.9714286,11.0686286 25.7028,10.8 25.3714286,10.8 Z M27.7714286,10.8 C27.4400571,10.8 27.1714286,11.0686286 27.1714286,11.4 C27.1714286,11.7313714 27.4400571,12 27.7714286,12 C28.1028,12 28.3714286,11.7313714 28.3714286,11.4 C28.3714286,11.0686286 28.1028,10.8 27.7714286,10.8 Z M30.1714286,10.8 C29.8400571,10.8 29.5714286,11.0686286 29.5714286,11.4 C29.5714286,11.7313714 29.8400571,12 30.1714286,12 C30.5028,12 30.7714286,11.7313714 30.7714286,11.4 C30.7714286,11.0686286 30.5028,10.8 30.1714286,10.8 Z M32.5714286,10.8 C32.2400571,10.8 31.9714286,11.0686286 31.9714286,11.4 C31.9714286,11.7313714 32.2400571,12 32.5714286,12 C32.9028,12 33.1714286,11.7313714 33.1714286,11.4 C33.1714286,11.0686286 32.9028,10.8 32.5714286,10.8 Z M34.9714286,10.8 C34.6400571,10.8 34.3714286,11.0686286 34.3714286,11.4 C34.3714286,11.7313714 34.6400571,12 34.9714286,12 C35.3028,12 35.5714286,11.7313714 35.5714286,11.4 C35.5714286,11.0686286 35.3028,10.8 34.9714286,10.8 Z M37.3714286,10.8 C37.0400571,10.8 36.7714286,11.0686286 36.7714286,11.4 C36.7714286,11.7313714 37.0400571,12 37.3714286,12 C37.7028,12 37.9714286,11.7313714 37.9714286,11.4 C37.9714286,11.0686286 37.7028,10.8 37.3714286,10.8 Z M16.9714286,15.6 C16.6400571,15.6 16.3714286,15.8686286 16.3714286,16.2 C16.3714264,16.2007821 16.3714264,16.2015621 16.3714286,16.2023443 L16.3714286,21 L16.3714286,25.7976557 C16.3714264,25.7984379 16.3714264,25.7992179 16.3714286,25.8 C16.3714286,26.1313714 16.6400571,26.4 16.9714286,26.4 C17.0864957,26.4001414 17.1991757,26.3671907 17.2960371,26.3050779 L25.6444736,21.534375 L25.6444736,21.5332029 C25.8448029,21.4308214 25.9710257,21.2249743 25.9714264,21 C25.9710257,20.7750236 25.8448029,20.5691786 25.6444736,20.4667971 L25.6444736,20.465625 L17.2960371,15.6949221 C17.2933157,15.6933386 17.2905814,15.6917764 17.2878343,15.6902357 C17.192835,15.6312621 17.083245,15.6000086 16.9714286,15.6000021 L16.9714286,15.6 Z M3.77142857,30.6 C3.44005714,30.6 3.17142857,30.8686286 3.17142857,31.2 C3.17142857,31.5313714 3.44005714,31.8 3.77142857,31.8 C4.1028,31.8 4.37142857,31.5313714 4.37142857,31.2 C4.37142857,30.8686286 4.1028,30.6 3.77142857,30.6 Z M6.17142857,30.6 C5.84005714,30.6 5.57142857,30.8686286 5.57142857,31.2 C5.57142857,31.5313714 5.84005714,31.8 6.17142857,31.8 C6.5028,31.8 6.77142857,31.5313714 6.77142857,31.2 C6.77142857,30.8686286 6.5028,30.6 6.17142857,30.6 Z M8.57142857,30.6 C8.24005714,30.6 7.97142857,30.8686286 7.97142857,31.2 C7.97142857,31.5313714 8.24005714,31.8 8.57142857,31.8 C8.9028,31.8 9.17142857,31.5313714 9.17142857,31.2 C9.17142857,30.8686286 8.9028,30.6 8.57142857,30.6 Z M10.9714286,30.6 C10.6400571,30.6 10.3714286,30.8686286 10.3714286,31.2 C10.3714286,31.5313714 10.6400571,31.8 10.9714286,31.8 C11.3028,31.8 11.5714286,31.5313714 11.5714286,31.2 C11.5714286,30.8686286 11.3028,30.6 10.9714286,30.6 Z M13.3714286,30.6 C13.0400571,30.6 12.7714286,30.8686286 12.7714286,31.2 C12.7714286,31.5313714 13.0400571,31.8 13.3714286,31.8 C13.7028,31.8 13.9714286,31.5313714 13.9714286,31.2 C13.9714286,30.8686286 13.7028,30.6 13.3714286,30.6 Z M15.7714286,30.6 C15.4400571,30.6 15.1714286,30.8686286 15.1714286,31.2 C15.1714286,31.5313714 15.4400571,31.8 15.7714286,31.8 C16.1028,31.8 16.3714286,31.5313714 16.3714286,31.2 C16.3714286,30.8686286 16.1028,30.6 15.7714286,30.6 Z M18.1714286,30.6 C17.8400571,30.6 17.5714286,30.8686286 17.5714286,31.2 C17.5714286,31.5313714 17.8400571,31.8 18.1714286,31.8 C18.5028,31.8 18.7714286,31.5313714 18.7714286,31.2 C18.7714286,30.8686286 18.5028,30.6 18.1714286,30.6 Z M20.5714286,30.6 C20.2400571,30.6 19.9714286,30.8686286 19.9714286,31.2 C19.9714286,31.5313714 20.2400571,31.8 20.5714286,31.8 C20.9028,31.8 21.1714286,31.5313714 21.1714286,31.2 C21.1714286,30.8686286 20.9028,30.6 20.5714286,30.6 Z M22.9714286,30.6 C22.6400571,30.6 22.3714286,30.8686286 22.3714286,31.2 C22.3714286,31.5313714 22.6400571,31.8 22.9714286,31.8 C23.3028,31.8 23.5714286,31.5313714 23.5714286,31.2 C23.5714286,30.8686286 23.3028,30.6 22.9714286,30.6 Z M25.3714286,30.6 C25.0400571,30.6 24.7714286,30.8686286 24.7714286,31.2 C24.7714286,31.5313714 25.0400571,31.8 25.3714286,31.8 C25.7028,31.8 25.9714286,31.5313714 25.9714286,31.2 C25.9714286,30.8686286 25.7028,30.6 25.3714286,30.6 Z M27.7714286,30.6 C27.4400571,30.6 27.1714286,30.8686286 27.1714286,31.2 C27.1714286,31.5313714 27.4400571,31.8 27.7714286,31.8 C28.1028,31.8 28.3714286,31.5313714 28.3714286,31.2 C28.3714286,30.8686286 28.1028,30.6 27.7714286,30.6 Z M30.1714286,30.6 C29.8400571,30.6 29.5714286,30.8686286 29.5714286,31.2 C29.5714286,31.5313714 29.8400571,31.8 30.1714286,31.8 C30.5028,31.8 30.7714286,31.5313714 30.7714286,31.2 C30.7714286,30.8686286 30.5028,30.6 30.1714286,30.6 Z M32.5714286,30.6 C32.2400571,30.6 31.9714286,30.8686286 31.9714286,31.2 C31.9714286,31.5313714 32.2400571,31.8 32.5714286,31.8 C32.9028,31.8 33.1714286,31.5313714 33.1714286,31.2 C33.1714286,30.8686286 32.9028,30.6 32.5714286,30.6 Z M34.9714286,30.6 C34.6400571,30.6 34.3714286,30.8686286 34.3714286,31.2 C34.3714286,31.5313714 34.6400571,31.8 34.9714286,31.8 C35.3028,31.8 35.5714286,31.5313714 35.5714286,31.2 C35.5714286,30.8686286 35.3028,30.6 34.9714286,30.6 Z M37.3714286,30.6 C37.0400571,30.6 36.7714286,30.8686286 36.7714286,31.2 C36.7714286,31.5313714 37.0400571,31.8 37.3714286,31.8 C37.7028,31.8 37.9714286,31.5313714 37.9714286,31.2 C37.9714286,30.8686286 37.7028,30.6 37.3714286,30.6 Z" id="Shape"></path>
                </g>
            </g>
        </g>
    </g>
</svg>