<?xml version="1.0"?>
<svg xmlns="http://www.w3.org/2000/svg" xmlns:xlink="http://www.w3.org/1999/xlink" version="1.1" viewBox="0 0 224 224" width="48px" height="48px"><g fill="none" fill-rule="nonzero" stroke="none" stroke-width="1" stroke-linecap="butt" stroke-linejoin="miter" stroke-miterlimit="10" stroke-dasharray="" stroke-dashoffset="0" font-family="none" font-weight="none" font-size="none" text-anchor="none" style="mix-blend-mode: normal"><path d="M0,224v-224h224v224z" fill="none"/><g fill="#42415c"><g id="surface1"><path d="M30.8,30.8c-6.15781,0 -11.2,5.04219 -11.2,11.2v169.15938l29.15938,-29.15938h144.44062c6.15781,0 11.2,-5.04219 11.2,-11.2v-128.8c0,-6.15781 -5.04219,-11.2 -11.2,-11.2zM30.8,36.4h162.4c3.12813,0 5.6,2.47188 5.6,5.6v128.8c0,3.12813 -2.47187,5.6 -5.6,5.6h-146.75937l-21.24063,21.24063v-155.64063c0,-3.12812 2.47188,-5.6 5.6,-5.6zM39.2,47.6c-1.54219,0 -2.8,1.25781 -2.8,2.8c0,1.54219 1.25781,2.8 2.8,2.8c1.54219,0 2.8,-1.25781 2.8,-2.8c0,-1.54219 -1.25781,-2.8 -2.8,-2.8zM50.4,47.6c-1.54219,0 -2.8,1.25781 -2.8,2.8c0,1.54219 1.25781,2.8 2.8,2.8c1.54219,0 2.8,-1.25781 2.8,-2.8c0,-1.54219 -1.25781,-2.8 -2.8,-2.8zM61.6,47.6c-1.54219,0 -2.8,1.25781 -2.8,2.8c0,1.54219 1.25781,2.8 2.8,2.8c1.54219,0 2.8,-1.25781 2.8,-2.8c0,-1.54219 -1.25781,-2.8 -2.8,-2.8zM72.8,47.6c-1.54219,0 -2.8,1.25781 -2.8,2.8c0,1.54219 1.25781,2.8 2.8,2.8c1.54219,0 2.8,-1.25781 2.8,-2.8c0,-1.54219 -1.25781,-2.8 -2.8,-2.8zM84,47.6c-1.54219,0 -2.8,1.25781 -2.8,2.8c0,1.54219 1.25781,2.8 2.8,2.8c1.54219,0 2.8,-1.25781 2.8,-2.8c0,-1.54219 -1.25781,-2.8 -2.8,-2.8zM95.2,47.6c-1.54219,0 -2.8,1.25781 -2.8,2.8c0,1.54219 1.25781,2.8 2.8,2.8c1.54219,0 2.8,-1.25781 2.8,-2.8c0,-1.54219 -1.25781,-2.8 -2.8,-2.8zM106.4,47.6c-1.54219,0 -2.8,1.25781 -2.8,2.8c0,1.54219 1.25781,2.8 2.8,2.8c1.54219,0 2.8,-1.25781 2.8,-2.8c0,-1.54219 -1.25781,-2.8 -2.8,-2.8zM117.6,47.6c-1.54219,0 -2.8,1.25781 -2.8,2.8c0,1.54219 1.25781,2.8 2.8,2.8c1.54219,0 2.8,-1.25781 2.8,-2.8c0,-1.54219 -1.25781,-2.8 -2.8,-2.8zM128.8,47.6c-1.54219,0 -2.8,1.25781 -2.8,2.8c0,1.54219 1.25781,2.8 2.8,2.8c1.54219,0 2.8,-1.25781 2.8,-2.8c0,-1.54219 -1.25781,-2.8 -2.8,-2.8zM140,47.6c-1.54219,0 -2.8,1.25781 -2.8,2.8c0,1.54219 1.25781,2.8 2.8,2.8c1.54219,0 2.8,-1.25781 2.8,-2.8c0,-1.54219 -1.25781,-2.8 -2.8,-2.8zM151.2,47.6c-1.54219,0 -2.8,1.25781 -2.8,2.8c0,1.54219 1.25781,2.8 2.8,2.8c1.54219,0 2.8,-1.25781 2.8,-2.8c0,-1.54219 -1.25781,-2.8 -2.8,-2.8zM162.4,47.6c-1.54219,0 -2.8,1.25781 -2.8,2.8c0,1.54219 1.25781,2.8 2.8,2.8c1.54219,0 2.8,-1.25781 2.8,-2.8c0,-1.54219 -1.25781,-2.8 -2.8,-2.8zM173.6,47.6c-1.54219,0 -2.8,1.25781 -2.8,2.8c0,1.54219 1.25781,2.8 2.8,2.8c1.54219,0 2.8,-1.25781 2.8,-2.8c0,-1.54219 -1.25781,-2.8 -2.8,-2.8zM184.8,47.6c-1.54219,0 -2.8,1.25781 -2.8,2.8c0,1.54219 1.25781,2.8 2.8,2.8c1.54219,0 2.8,-1.25781 2.8,-2.8c0,-1.54219 -1.25781,-2.8 -2.8,-2.8zM39.2,58.8c-1.54219,0 -2.8,1.25781 -2.8,2.8c0,1.54219 1.25781,2.8 2.8,2.8c1.54219,0 2.8,-1.25781 2.8,-2.8c0,-1.54219 -1.25781,-2.8 -2.8,-2.8zM184.8,58.8c-1.54219,0 -2.8,1.25781 -2.8,2.8c0,1.54219 1.25781,2.8 2.8,2.8c1.54219,0 2.8,-1.25781 2.8,-2.8c0,-1.54219 -1.25781,-2.8 -2.8,-2.8zM39.2,70c-1.54219,0 -2.8,1.25781 -2.8,2.8c0,1.54219 1.25781,2.8 2.8,2.8c1.54219,0 2.8,-1.25781 2.8,-2.8c0,-1.54219 -1.25781,-2.8 -2.8,-2.8zM106.4,70c-3.0625,0 -5.6,2.5375 -5.6,5.6v61.6h-8.4v-30.8c0,-3.0625 -2.5375,-5.6 -5.6,-5.6h-11.2c-3.0625,0 -5.6,2.5375 -5.6,5.6v30.8h-5.6v5.6h95.2v-5.6h-5.6v-50.4c0,-3.0625 -2.5375,-5.6 -5.6,-5.6h-11.2c-3.0625,0 -5.6,2.5375 -5.6,5.6v50.4h-8.4v-61.6c0,-3.0625 -2.5375,-5.6 -5.6,-5.6zM184.8,70c-1.54219,0 -2.8,1.25781 -2.8,2.8c0,1.54219 1.25781,2.8 2.8,2.8c1.54219,0 2.8,-1.25781 2.8,-2.8c0,-1.54219 -1.25781,-2.8 -2.8,-2.8zM106.4,75.6h11.2v61.6h-11.2zM39.2,81.2c-1.54219,0 -2.8,1.25781 -2.8,2.8c0,1.54219 1.25781,2.8 2.8,2.8c1.54219,0 2.8,-1.25781 2.8,-2.8c0,-1.54219 -1.25781,-2.8 -2.8,-2.8zM184.8,81.2c-1.54219,0 -2.8,1.25781 -2.8,2.8c0,1.54219 1.25781,2.8 2.8,2.8c1.54219,0 2.8,-1.25781 2.8,-2.8c0,-1.54219 -1.25781,-2.8 -2.8,-2.8zM137.2,86.8h11.2v50.4h-11.2zM39.2,92.4c-1.54219,0 -2.8,1.25781 -2.8,2.8c0,1.54219 1.25781,2.8 2.8,2.8c1.54219,0 2.8,-1.25781 2.8,-2.8c0,-1.54219 -1.25781,-2.8 -2.8,-2.8zM184.8,92.4c-1.54219,0 -2.8,1.25781 -2.8,2.8c0,1.54219 1.25781,2.8 2.8,2.8c1.54219,0 2.8,-1.25781 2.8,-2.8c0,-1.54219 -1.25781,-2.8 -2.8,-2.8zM39.2,103.6c-1.54219,0 -2.8,1.25781 -2.8,2.8c0,1.54219 1.25781,2.8 2.8,2.8c1.54219,0 2.8,-1.25781 2.8,-2.8c0,-1.54219 -1.25781,-2.8 -2.8,-2.8zM184.8,103.6c-1.54219,0 -2.8,1.25781 -2.8,2.8c0,1.54219 1.25781,2.8 2.8,2.8c1.54219,0 2.8,-1.25781 2.8,-2.8c0,-1.54219 -1.25781,-2.8 -2.8,-2.8zM75.6,106.4h11.2v30.8h-11.2zM39.2,114.8c-1.54219,0 -2.8,1.25781 -2.8,2.8c0,1.54219 1.25781,2.8 2.8,2.8c1.54219,0 2.8,-1.25781 2.8,-2.8c0,-1.54219 -1.25781,-2.8 -2.8,-2.8zM184.8,114.8c-1.54219,0 -2.8,1.25781 -2.8,2.8c0,1.54219 1.25781,2.8 2.8,2.8c1.54219,0 2.8,-1.25781 2.8,-2.8c0,-1.54219 -1.25781,-2.8 -2.8,-2.8zM39.2,126c-1.54219,0 -2.8,1.25781 -2.8,2.8c0,1.54219 1.25781,2.8 2.8,2.8c1.54219,0 2.8,-1.25781 2.8,-2.8c0,-1.54219 -1.25781,-2.8 -2.8,-2.8zM184.8,126c-1.54219,0 -2.8,1.25781 -2.8,2.8c0,1.54219 1.25781,2.8 2.8,2.8c1.54219,0 2.8,-1.25781 2.8,-2.8c0,-1.54219 -1.25781,-2.8 -2.8,-2.8zM39.2,137.2c-1.54219,0 -2.8,1.25781 -2.8,2.8c0,1.54219 1.25781,2.8 2.8,2.8c1.54219,0 2.8,-1.25781 2.8,-2.8c0,-1.54219 -1.25781,-2.8 -2.8,-2.8zM184.8,137.2c-1.54219,0 -2.8,1.25781 -2.8,2.8c0,1.54219 1.25781,2.8 2.8,2.8c1.54219,0 2.8,-1.25781 2.8,-2.8c0,-1.54219 -1.25781,-2.8 -2.8,-2.8zM39.2,148.4c-1.54219,0 -2.8,1.25781 -2.8,2.8c0,1.54219 1.25781,2.8 2.8,2.8c1.54219,0 2.8,-1.25781 2.8,-2.8c0,-1.54219 -1.25781,-2.8 -2.8,-2.8zM184.8,148.4c-1.54219,0 -2.8,1.25781 -2.8,2.8c0,1.54219 1.25781,2.8 2.8,2.8c1.54219,0 2.8,-1.25781 2.8,-2.8c0,-1.54219 -1.25781,-2.8 -2.8,-2.8zM39.2,159.6c-1.54219,0 -2.8,1.25781 -2.8,2.8c0,1.54219 1.25781,2.8 2.8,2.8c1.54219,0 2.8,-1.25781 2.8,-2.8c0,-1.54219 -1.25781,-2.8 -2.8,-2.8zM50.4,159.6c-1.54219,0 -2.8,1.25781 -2.8,2.8c0,1.54219 1.25781,2.8 2.8,2.8c1.54219,0 2.8,-1.25781 2.8,-2.8c0,-1.54219 -1.25781,-2.8 -2.8,-2.8zM61.6,159.6c-1.54219,0 -2.8,1.25781 -2.8,2.8c0,1.54219 1.25781,2.8 2.8,2.8c1.54219,0 2.8,-1.25781 2.8,-2.8c0,-1.54219 -1.25781,-2.8 -2.8,-2.8zM72.8,159.6c-1.54219,0 -2.8,1.25781 -2.8,2.8c0,1.54219 1.25781,2.8 2.8,2.8c1.54219,0 2.8,-1.25781 2.8,-2.8c0,-1.54219 -1.25781,-2.8 -2.8,-2.8zM84,159.6c-1.54219,0 -2.8,1.25781 -2.8,2.8c0,1.54219 1.25781,2.8 2.8,2.8c1.54219,0 2.8,-1.25781 2.8,-2.8c0,-1.54219 -1.25781,-2.8 -2.8,-2.8zM95.2,159.6c-1.54219,0 -2.8,1.25781 -2.8,2.8c0,1.54219 1.25781,2.8 2.8,2.8c1.54219,0 2.8,-1.25781 2.8,-2.8c0,-1.54219 -1.25781,-2.8 -2.8,-2.8zM106.4,159.6c-1.54219,0 -2.8,1.25781 -2.8,2.8c0,1.54219 1.25781,2.8 2.8,2.8c1.54219,0 2.8,-1.25781 2.8,-2.8c0,-1.54219 -1.25781,-2.8 -2.8,-2.8zM117.6,159.6c-1.54219,0 -2.8,1.25781 -2.8,2.8c0,1.54219 1.25781,2.8 2.8,2.8c1.54219,0 2.8,-1.25781 2.8,-2.8c0,-1.54219 -1.25781,-2.8 -2.8,-2.8zM128.8,159.6c-1.54219,0 -2.8,1.25781 -2.8,2.8c0,1.54219 1.25781,2.8 2.8,2.8c1.54219,0 2.8,-1.25781 2.8,-2.8c0,-1.54219 -1.25781,-2.8 -2.8,-2.8zM140,159.6c-1.54219,0 -2.8,1.25781 -2.8,2.8c0,1.54219 1.25781,2.8 2.8,2.8c1.54219,0 2.8,-1.25781 2.8,-2.8c0,-1.54219 -1.25781,-2.8 -2.8,-2.8zM151.2,159.6c-1.54219,0 -2.8,1.25781 -2.8,2.8c0,1.54219 1.25781,2.8 2.8,2.8c1.54219,0 2.8,-1.25781 2.8,-2.8c0,-1.54219 -1.25781,-2.8 -2.8,-2.8zM162.4,159.6c-1.54219,0 -2.8,1.25781 -2.8,2.8c0,1.54219 1.25781,2.8 2.8,2.8c1.54219,0 2.8,-1.25781 2.8,-2.8c0,-1.54219 -1.25781,-2.8 -2.8,-2.8zM173.6,159.6c-1.54219,0 -2.8,1.25781 -2.8,2.8c0,1.54219 1.25781,2.8 2.8,2.8c1.54219,0 2.8,-1.25781 2.8,-2.8c0,-1.54219 -1.25781,-2.8 -2.8,-2.8zM184.8,159.6c-1.54219,0 -2.8,1.25781 -2.8,2.8c0,1.54219 1.25781,2.8 2.8,2.8c1.54219,0 2.8,-1.25781 2.8,-2.8c0,-1.54219 -1.25781,-2.8 -2.8,-2.8z"/></g></g></g></svg>
