<?xml version="1.0"?>
<svg xmlns="http://www.w3.org/2000/svg" xmlns:xlink="http://www.w3.org/1999/xlink" version="1.1" viewBox="0 0 224 224" width="48px" height="48px"><g fill="none" fill-rule="nonzero" stroke="none" stroke-width="1" stroke-linecap="butt" stroke-linejoin="miter" stroke-miterlimit="10" stroke-dasharray="" stroke-dashoffset="0" font-family="none" font-weight="none" font-size="none" text-anchor="none" style="mix-blend-mode: normal"><path d="M0,224v-224h224v224z" fill="none"/><g fill="#42415c"><g id="surface1"><path d="M112,25.2c-3.07344,0 -5.87344,1.25781 -7.90781,3.29219l-0.01094,-0.01094l-52.71875,52.71875h-26.1625c-4.60469,0 -8.4,3.79531 -8.4,8.4v11.2c0,4.60469 3.79531,8.4 8.4,8.4h-1.06094l14.175,66.16094c0.83125,3.86094 4.26562,6.63906 8.21406,6.63906h130.94375c3.94844,0 7.39375,-2.77812 8.21406,-6.63906l14.175,-66.16094h-1.06094c4.60469,0 8.4,-3.79531 8.4,-8.4v-11.2c0,-4.60469 -3.79531,-8.4 -8.4,-8.4h-26.1625l-52.71875,-52.71875c-2.02344,-2.02344 -4.84531,-3.28125 -7.91875,-3.28125zM112,30.8c1.56406,0 2.94219,0.62344 3.95938,1.64063l48.75937,48.75937h-15.8375l-40.84062,-40.84062c-1.01719,-1.01719 -1.64063,-2.39531 -1.64063,-3.95938c0,-1.49844 0.57969,-2.84375 1.53125,-3.85l0.10938,-0.10937l-0.01094,-0.01094c1.00625,-1.00625 2.40625,-1.62969 3.97031,-1.62969zM101.21563,39.25469c0.51406,1.94688 1.49844,3.69688 2.86562,5.06406l3.95938,3.95938l-32.92188,32.92187h-15.8375zM112,52.2375l28.9625,28.9625h-57.925zM25.2,86.8h173.6c1.58594,0 2.8,1.21406 2.8,2.8v11.2c0,1.58594 -1.21406,2.8 -2.8,2.8h-3.46719l-15.12656,70.57969v0.01094c-0.27344,1.30156 -1.4,2.20937 -2.73437,2.20937h-130.94375c-1.33438,0 -2.46094,-0.90781 -2.73438,-2.22031l-15.12656,-70.57969h-3.46719c-1.58594,0 -2.8,-1.21406 -2.8,-2.8v-11.2c0,-1.58594 1.21406,-2.8 2.8,-2.8zM39.2,103.6c-1.54219,0 -2.8,1.25781 -2.8,2.8c0,1.54219 1.25781,2.8 2.8,2.8c1.54219,0 2.8,-1.25781 2.8,-2.8c0,-1.54219 -1.25781,-2.8 -2.8,-2.8zM50.4,103.6c-1.54219,0 -2.8,1.25781 -2.8,2.8c0,1.54219 1.25781,2.8 2.8,2.8c1.54219,0 2.8,-1.25781 2.8,-2.8c0,-1.54219 -1.25781,-2.8 -2.8,-2.8zM61.6,103.6c-1.54219,0 -2.8,1.25781 -2.8,2.8c0,1.54219 1.25781,2.8 2.8,2.8c1.54219,0 2.8,-1.25781 2.8,-2.8c0,-1.54219 -1.25781,-2.8 -2.8,-2.8zM72.8,103.6c-1.54219,0 -2.8,1.25781 -2.8,2.8c0,1.54219 1.25781,2.8 2.8,2.8c1.54219,0 2.8,-1.25781 2.8,-2.8c0,-1.54219 -1.25781,-2.8 -2.8,-2.8zM84,103.6c-1.54219,0 -2.8,1.25781 -2.8,2.8c0,1.54219 1.25781,2.8 2.8,2.8c1.54219,0 2.8,-1.25781 2.8,-2.8c0,-1.54219 -1.25781,-2.8 -2.8,-2.8zM95.2,103.6c-1.54219,0 -2.8,1.25781 -2.8,2.8c0,1.54219 1.25781,2.8 2.8,2.8c1.54219,0 2.8,-1.25781 2.8,-2.8c0,-1.54219 -1.25781,-2.8 -2.8,-2.8zM106.4,103.6c-1.54219,0 -2.8,1.25781 -2.8,2.8c0,1.54219 1.25781,2.8 2.8,2.8c1.54219,0 2.8,-1.25781 2.8,-2.8c0,-1.54219 -1.25781,-2.8 -2.8,-2.8zM117.6,103.6c-1.54219,0 -2.8,1.25781 -2.8,2.8c0,1.54219 1.25781,2.8 2.8,2.8c1.54219,0 2.8,-1.25781 2.8,-2.8c0,-1.54219 -1.25781,-2.8 -2.8,-2.8zM128.8,103.6c-1.54219,0 -2.8,1.25781 -2.8,2.8c0,1.54219 1.25781,2.8 2.8,2.8c1.54219,0 2.8,-1.25781 2.8,-2.8c0,-1.54219 -1.25781,-2.8 -2.8,-2.8zM140,103.6c-1.54219,0 -2.8,1.25781 -2.8,2.8c0,1.54219 1.25781,2.8 2.8,2.8c1.54219,0 2.8,-1.25781 2.8,-2.8c0,-1.54219 -1.25781,-2.8 -2.8,-2.8zM151.2,103.6c-1.54219,0 -2.8,1.25781 -2.8,2.8c0,1.54219 1.25781,2.8 2.8,2.8c1.54219,0 2.8,-1.25781 2.8,-2.8c0,-1.54219 -1.25781,-2.8 -2.8,-2.8zM162.4,103.6c-1.54219,0 -2.8,1.25781 -2.8,2.8c0,1.54219 1.25781,2.8 2.8,2.8c1.54219,0 2.8,-1.25781 2.8,-2.8c0,-1.54219 -1.25781,-2.8 -2.8,-2.8zM173.6,103.6c-1.54219,0 -2.8,1.25781 -2.8,2.8c0,1.54219 1.25781,2.8 2.8,2.8c1.54219,0 2.8,-1.25781 2.8,-2.8c0,-1.54219 -1.25781,-2.8 -2.8,-2.8zM184.8,103.6c-1.54219,0 -2.8,1.25781 -2.8,2.8c0,1.54219 1.25781,2.8 2.8,2.8c1.54219,0 2.8,-1.25781 2.8,-2.8c0,-1.54219 -1.25781,-2.8 -2.8,-2.8zM78.4,123.2c-1.54219,0 -2.8,1.25781 -2.8,2.8c0,1.54219 1.25781,2.8 2.8,2.8c1.54219,0 2.8,-1.25781 2.8,-2.8c0,-1.54219 -1.25781,-2.8 -2.8,-2.8zM95.2,123.2c-1.54219,0 -2.8,1.25781 -2.8,2.8c0,1.54219 1.25781,2.8 2.8,2.8c1.54219,0 2.8,-1.25781 2.8,-2.8c0,-1.54219 -1.25781,-2.8 -2.8,-2.8zM112,123.2c-1.54219,0 -2.8,1.25781 -2.8,2.8c0,1.54219 1.25781,2.8 2.8,2.8c1.54219,0 2.8,-1.25781 2.8,-2.8c0,-1.54219 -1.25781,-2.8 -2.8,-2.8zM128.8,123.2c-1.54219,0 -2.8,1.25781 -2.8,2.8c0,1.54219 1.25781,2.8 2.8,2.8c1.54219,0 2.8,-1.25781 2.8,-2.8c0,-1.54219 -1.25781,-2.8 -2.8,-2.8zM145.6,123.2c-1.54219,0 -2.8,1.25781 -2.8,2.8c0,1.54219 1.25781,2.8 2.8,2.8c1.54219,0 2.8,-1.25781 2.8,-2.8c0,-1.54219 -1.25781,-2.8 -2.8,-2.8zM78.4,134.4c-1.54219,0 -2.8,1.25781 -2.8,2.8c0,1.54219 1.25781,2.8 2.8,2.8c1.54219,0 2.8,-1.25781 2.8,-2.8c0,-1.54219 -1.25781,-2.8 -2.8,-2.8zM95.2,134.4c-1.54219,0 -2.8,1.25781 -2.8,2.8c0,1.54219 1.25781,2.8 2.8,2.8c1.54219,0 2.8,-1.25781 2.8,-2.8c0,-1.54219 -1.25781,-2.8 -2.8,-2.8zM112,134.4c-1.54219,0 -2.8,1.25781 -2.8,2.8c0,1.54219 1.25781,2.8 2.8,2.8c1.54219,0 2.8,-1.25781 2.8,-2.8c0,-1.54219 -1.25781,-2.8 -2.8,-2.8zM128.8,134.4c-1.54219,0 -2.8,1.25781 -2.8,2.8c0,1.54219 1.25781,2.8 2.8,2.8c1.54219,0 2.8,-1.25781 2.8,-2.8c0,-1.54219 -1.25781,-2.8 -2.8,-2.8zM145.6,134.4c-1.54219,0 -2.8,1.25781 -2.8,2.8c0,1.54219 1.25781,2.8 2.8,2.8c1.54219,0 2.8,-1.25781 2.8,-2.8c0,-1.54219 -1.25781,-2.8 -2.8,-2.8zM78.4,145.6c-1.54219,0 -2.8,1.25781 -2.8,2.8c0,1.54219 1.25781,2.8 2.8,2.8c1.54219,0 2.8,-1.25781 2.8,-2.8c0,-1.54219 -1.25781,-2.8 -2.8,-2.8zM95.2,145.6c-1.54219,0 -2.8,1.25781 -2.8,2.8c0,1.54219 1.25781,2.8 2.8,2.8c1.54219,0 2.8,-1.25781 2.8,-2.8c0,-1.54219 -1.25781,-2.8 -2.8,-2.8zM112,145.6c-1.54219,0 -2.8,1.25781 -2.8,2.8c0,1.54219 1.25781,2.8 2.8,2.8c1.54219,0 2.8,-1.25781 2.8,-2.8c0,-1.54219 -1.25781,-2.8 -2.8,-2.8zM128.8,145.6c-1.54219,0 -2.8,1.25781 -2.8,2.8c0,1.54219 1.25781,2.8 2.8,2.8c1.54219,0 2.8,-1.25781 2.8,-2.8c0,-1.54219 -1.25781,-2.8 -2.8,-2.8zM145.6,145.6c-1.54219,0 -2.8,1.25781 -2.8,2.8c0,1.54219 1.25781,2.8 2.8,2.8c1.54219,0 2.8,-1.25781 2.8,-2.8c0,-1.54219 -1.25781,-2.8 -2.8,-2.8zM78.4,156.8c-1.54219,0 -2.8,1.25781 -2.8,2.8c0,1.54219 1.25781,2.8 2.8,2.8c1.54219,0 2.8,-1.25781 2.8,-2.8c0,-1.54219 -1.25781,-2.8 -2.8,-2.8zM95.2,156.8c-1.54219,0 -2.8,1.25781 -2.8,2.8c0,1.54219 1.25781,2.8 2.8,2.8c1.54219,0 2.8,-1.25781 2.8,-2.8c0,-1.54219 -1.25781,-2.8 -2.8,-2.8zM112,156.8c-1.54219,0 -2.8,1.25781 -2.8,2.8c0,1.54219 1.25781,2.8 2.8,2.8c1.54219,0 2.8,-1.25781 2.8,-2.8c0,-1.54219 -1.25781,-2.8 -2.8,-2.8zM128.8,156.8c-1.54219,0 -2.8,1.25781 -2.8,2.8c0,1.54219 1.25781,2.8 2.8,2.8c1.54219,0 2.8,-1.25781 2.8,-2.8c0,-1.54219 -1.25781,-2.8 -2.8,-2.8zM145.6,156.8c-1.54219,0 -2.8,1.25781 -2.8,2.8c0,1.54219 1.25781,2.8 2.8,2.8c1.54219,0 2.8,-1.25781 2.8,-2.8c0,-1.54219 -1.25781,-2.8 -2.8,-2.8z"/></g></g></g></svg>
