<?xml version="1.0"?>
<svg xmlns="http://www.w3.org/2000/svg" xmlns:xlink="http://www.w3.org/1999/xlink" version="1.1" viewBox="0 0 224 224" width="48px" height="48px"><g fill="none" fill-rule="nonzero" stroke="none" stroke-width="1" stroke-linecap="butt" stroke-linejoin="miter" stroke-miterlimit="10" stroke-dasharray="" stroke-dashoffset="0" font-family="none" font-weight="none" font-size="none" text-anchor="none" style="mix-blend-mode: normal"><path d="M0,224v-224h224v224z" fill="none"/><g fill="#42415c"><g id="surface1"><path d="M140,25.2c-11.24375,0 -21.19687,5.57813 -27.3,14.0875l-28.7,-5.74219l-58.8,11.75781v145.70937l58.8,-11.75781l56,11.2l58.8,-11.75781v-145.70938l-31.5,6.3c-6.10312,-8.50937 -16.05625,-14.0875 -27.3,-14.0875zM140,30.8c15.49844,0 28,12.50156 28,28c0,3.4125 -1.75,9.04531 -4.56094,15.19219c-2.81094,6.15781 -6.61719,12.89531 -10.43438,19.11875c-6.49687,10.62031 -11.22187,17.00781 -13.00469,19.45781c-1.78281,-2.45 -6.50781,-8.8375 -13.00469,-19.45781c-3.81719,-6.22344 -7.62344,-12.96094 -10.43438,-19.11875c-2.81094,-6.14687 -4.56094,-11.77969 -4.56094,-15.19219c0,-15.49844 12.50156,-28 28,-28zM84,39.25469l25.69219,5.14063c-2.08906,4.36406 -3.29219,9.24219 -3.29219,14.40469c0,5.09688 2.1,11.05781 5.06406,17.53281c2.96406,6.46406 6.85781,13.36562 10.74062,19.70937c7.77656,12.69844 15.54219,23.22031 15.54219,23.22031l2.25312,3.0625l2.25313,-3.0625c0,0 7.76562,-10.52187 15.54219,-23.22031c3.88281,-6.34375 7.77656,-13.24531 10.74062,-19.70937c2.96406,-6.475 5.06406,-12.43594 5.06406,-17.53281c0,-5.1625 -1.20312,-10.04062 -3.29219,-14.40469l22.89219,-4.58281v134.29063l-53.2,10.64219l-56,-11.2l-53.2,10.64219v-134.29062zM84,42c-1.54219,0 -2.8,1.25781 -2.8,2.8c0,1.54219 1.25781,2.8 2.8,2.8c1.54219,0 2.8,-1.25781 2.8,-2.8c0,-1.54219 -1.25781,-2.8 -2.8,-2.8zM140,47.6c-6.15781,0 -11.2,5.04219 -11.2,11.2c0,6.15781 5.04219,11.2 11.2,11.2c6.15781,0 11.2,-5.04219 11.2,-11.2c0,-6.15781 -5.04219,-11.2 -11.2,-11.2zM84,53.2c-1.54219,0 -2.8,1.25781 -2.8,2.8c0,1.54219 1.25781,2.8 2.8,2.8c1.54219,0 2.8,-1.25781 2.8,-2.8c0,-1.54219 -1.25781,-2.8 -2.8,-2.8zM140,53.2c3.12813,0 5.6,2.47188 5.6,5.6c0,3.12813 -2.47187,5.6 -5.6,5.6c-3.12812,0 -5.6,-2.47187 -5.6,-5.6c0,-3.12812 2.47188,-5.6 5.6,-5.6zM84,64.4c-1.54219,0 -2.8,1.25781 -2.8,2.8c0,1.54219 1.25781,2.8 2.8,2.8c1.54219,0 2.8,-1.25781 2.8,-2.8c0,-1.54219 -1.25781,-2.8 -2.8,-2.8zM84,75.6c-1.54219,0 -2.8,1.25781 -2.8,2.8c0,1.54219 1.25781,2.8 2.8,2.8c1.54219,0 2.8,-1.25781 2.8,-2.8c0,-1.54219 -1.25781,-2.8 -2.8,-2.8zM84,86.8c-1.54219,0 -2.8,1.25781 -2.8,2.8c0,1.54219 1.25781,2.8 2.8,2.8c1.54219,0 2.8,-1.25781 2.8,-2.8c0,-1.54219 -1.25781,-2.8 -2.8,-2.8zM84,98c-1.54219,0 -2.8,1.25781 -2.8,2.8c0,1.54219 1.25781,2.8 2.8,2.8c1.54219,0 2.8,-1.25781 2.8,-2.8c0,-1.54219 -1.25781,-2.8 -2.8,-2.8zM84,109.2c-1.54219,0 -2.8,1.25781 -2.8,2.8c0,1.54219 1.25781,2.8 2.8,2.8c1.54219,0 2.8,-1.25781 2.8,-2.8c0,-1.54219 -1.25781,-2.8 -2.8,-2.8zM84,120.4c-1.54219,0 -2.8,1.25781 -2.8,2.8c0,1.54219 1.25781,2.8 2.8,2.8c1.54219,0 2.8,-1.25781 2.8,-2.8c0,-1.54219 -1.25781,-2.8 -2.8,-2.8zM140,128.8c-1.54219,0 -2.8,1.25781 -2.8,2.8c0,1.54219 1.25781,2.8 2.8,2.8c1.54219,0 2.8,-1.25781 2.8,-2.8c0,-1.54219 -1.25781,-2.8 -2.8,-2.8zM84,131.6c-1.54219,0 -2.8,1.25781 -2.8,2.8c0,1.54219 1.25781,2.8 2.8,2.8c1.54219,0 2.8,-1.25781 2.8,-2.8c0,-1.54219 -1.25781,-2.8 -2.8,-2.8zM140,140c-1.54219,0 -2.8,1.25781 -2.8,2.8c0,1.54219 1.25781,2.8 2.8,2.8c1.54219,0 2.8,-1.25781 2.8,-2.8c0,-1.54219 -1.25781,-2.8 -2.8,-2.8zM84,142.8c-1.54219,0 -2.8,1.25781 -2.8,2.8c0,1.54219 1.25781,2.8 2.8,2.8c1.54219,0 2.8,-1.25781 2.8,-2.8c0,-1.54219 -1.25781,-2.8 -2.8,-2.8zM140,151.2c-1.54219,0 -2.8,1.25781 -2.8,2.8c0,1.54219 1.25781,2.8 2.8,2.8c1.54219,0 2.8,-1.25781 2.8,-2.8c0,-1.54219 -1.25781,-2.8 -2.8,-2.8zM84,154c-1.54219,0 -2.8,1.25781 -2.8,2.8c0,1.54219 1.25781,2.8 2.8,2.8c1.54219,0 2.8,-1.25781 2.8,-2.8c0,-1.54219 -1.25781,-2.8 -2.8,-2.8zM140,162.4c-1.54219,0 -2.8,1.25781 -2.8,2.8c0,1.54219 1.25781,2.8 2.8,2.8c1.54219,0 2.8,-1.25781 2.8,-2.8c0,-1.54219 -1.25781,-2.8 -2.8,-2.8zM84,165.2c-1.54219,0 -2.8,1.25781 -2.8,2.8c0,1.54219 1.25781,2.8 2.8,2.8c1.54219,0 2.8,-1.25781 2.8,-2.8c0,-1.54219 -1.25781,-2.8 -2.8,-2.8zM140,173.6c-1.54219,0 -2.8,1.25781 -2.8,2.8c0,1.54219 1.25781,2.8 2.8,2.8c1.54219,0 2.8,-1.25781 2.8,-2.8c0,-1.54219 -1.25781,-2.8 -2.8,-2.8z"/></g></g></g></svg>
