<?xml version="1.0"?>
<svg xmlns="http://www.w3.org/2000/svg" xmlns:xlink="http://www.w3.org/1999/xlink" version="1.1" viewBox="0 0 224 224" width="48px" height="48px"><g fill="none" fill-rule="nonzero" stroke="none" stroke-width="1" stroke-linecap="butt" stroke-linejoin="miter" stroke-miterlimit="10" stroke-dasharray="" stroke-dashoffset="0" font-family="none" font-weight="none" font-size="none" text-anchor="none" style="mix-blend-mode: normal"><path d="M0,224v-224h224v224z" fill="none"/><g fill="#42415c"><g id="surface1"><path d="M112,25.2c-10.79531,0 -19.6,8.80469 -19.6,19.6v46.06875l-70,44.8v16.0125l70,-11.2v23.37344l-28,22.4v13.15781l31.07344,-6.2125h33.05313l31.07344,6.2125v-13.15781l-28,-22.4v-23.37344l70,11.2v-16.0125l-70,-44.8v-46.06875c0,-10.79531 -8.80469,-19.6 -19.6,-19.6zM112,30.8c7.76563,0 14,6.23438 14,14v49.13125l70,44.8v6.3875l-70,-11.2v32.62656l28,22.4v3.64219l-22.44375,-4.49531c0.03281,-0.16406 0.04375,-0.32812 0.04375,-0.49219c0,-1.54219 -1.25781,-2.8 -2.8,-2.8c-1.54219,0 -2.8,1.25781 -2.8,2.8h-28c0,-1.54219 -1.25781,-2.8 -2.8,-2.8c-1.54219,0 -2.8,1.25781 -2.8,2.8c0,0.16406 0.01094,0.32813 0.04375,0.49219l-22.44375,4.49531v-3.64219l28,-22.4v-32.62656l-70,11.2v-6.3875l70,-44.8v-49.13125c0,-7.76562 6.23438,-14 14,-14zM106.4,42c-1.54219,0 -2.8,1.25781 -2.8,2.8c0,1.54219 1.25781,2.8 2.8,2.8c1.54219,0 2.8,-1.25781 2.8,-2.8c0,-1.54219 -1.25781,-2.8 -2.8,-2.8zM117.6,42c-1.54219,0 -2.8,1.25781 -2.8,2.8c0,1.54219 1.25781,2.8 2.8,2.8c1.54219,0 2.8,-1.25781 2.8,-2.8c0,-1.54219 -1.25781,-2.8 -2.8,-2.8zM95.2,100.8c-1.54219,0 -2.8,1.25781 -2.8,2.8c0,1.54219 1.25781,2.8 2.8,2.8c1.54219,0 2.8,-1.25781 2.8,-2.8c0,-1.54219 -1.25781,-2.8 -2.8,-2.8zM128.8,100.8c-1.54219,0 -2.8,1.25781 -2.8,2.8c0,1.54219 1.25781,2.8 2.8,2.8c1.54219,0 2.8,-1.25781 2.8,-2.8c0,-1.54219 -1.25781,-2.8 -2.8,-2.8zM95.2,112c-1.54219,0 -2.8,1.25781 -2.8,2.8c0,1.54219 1.25781,2.8 2.8,2.8c1.54219,0 2.8,-1.25781 2.8,-2.8c0,-1.54219 -1.25781,-2.8 -2.8,-2.8zM128.8,112c-1.54219,0 -2.8,1.25781 -2.8,2.8c0,1.54219 1.25781,2.8 2.8,2.8c1.54219,0 2.8,-1.25781 2.8,-2.8c0,-1.54219 -1.25781,-2.8 -2.8,-2.8zM95.2,123.2c-1.54219,0 -2.8,1.25781 -2.8,2.8c0,1.54219 1.25781,2.8 2.8,2.8c1.54219,0 2.8,-1.25781 2.8,-2.8c0,-1.54219 -1.25781,-2.8 -2.8,-2.8zM128.8,123.2c-1.54219,0 -2.8,1.25781 -2.8,2.8c0,1.54219 1.25781,2.8 2.8,2.8c1.54219,0 2.8,-1.25781 2.8,-2.8c0,-1.54219 -1.25781,-2.8 -2.8,-2.8zM95.2,173.6c-1.54219,0 -2.8,1.25781 -2.8,2.8c0,1.54219 1.25781,2.8 2.8,2.8c1.54219,0 2.8,-1.25781 2.8,-2.8c0,-1.54219 -1.25781,-2.8 -2.8,-2.8zM128.8,173.6c-1.54219,0 -2.8,1.25781 -2.8,2.8c0,1.54219 1.25781,2.8 2.8,2.8c1.54219,0 2.8,-1.25781 2.8,-2.8c0,-1.54219 -1.25781,-2.8 -2.8,-2.8z"/></g></g></g></svg>
