<?xml version="1.0"?>
<svg xmlns="http://www.w3.org/2000/svg" xmlns:xlink="http://www.w3.org/1999/xlink" version="1.1" viewBox="0 0 224 224" width="48px" height="48px"><g fill="none" fill-rule="nonzero" stroke="none" stroke-width="1" stroke-linecap="butt" stroke-linejoin="miter" stroke-miterlimit="10" stroke-dasharray="" stroke-dashoffset="0" font-family="none" font-weight="none" font-size="none" text-anchor="none" style="mix-blend-mode: normal"><path d="M0,224v-224h224v224z" fill="none"/><g fill="#42415c"><g id="surface1"><path d="M86.8,33.6c-10.79531,0 -19.6,8.80469 -19.6,19.6c0,10.79531 8.80469,19.6 19.6,19.6c10.79531,0 19.6,-8.80469 19.6,-19.6c0,-10.79531 -8.80469,-19.6 -19.6,-19.6zM137.2,33.6c-10.79531,0 -19.6,8.80469 -19.6,19.6c0,10.79531 8.80469,19.6 19.6,19.6c10.79531,0 19.6,-8.80469 19.6,-19.6c0,-10.79531 -8.80469,-19.6 -19.6,-19.6zM86.8,39.2c7.76563,0 14,6.23438 14,14c0,7.76563 -6.23437,14 -14,14c-7.76562,0 -14,-6.23437 -14,-14c0,-7.76562 6.23438,-14 14,-14zM137.2,39.2c7.76563,0 14,6.23438 14,14c0,7.76563 -6.23437,14 -14,14c-7.76562,0 -14,-6.23437 -14,-14c0,-7.76562 6.23438,-14 14,-14zM50.4,67.2c-12.3375,0 -22.4,10.0625 -22.4,22.4c0,12.3375 10.0625,22.4 22.4,22.4c12.3375,0 22.4,-10.0625 22.4,-22.4c0,-12.3375 -10.0625,-22.4 -22.4,-22.4zM173.6,67.2c-12.3375,0 -22.4,10.0625 -22.4,22.4c0,12.3375 10.0625,22.4 22.4,22.4c12.3375,0 22.4,-10.0625 22.4,-22.4c0,-12.3375 -10.0625,-22.4 -22.4,-22.4zM50.4,72.8c9.30781,0 16.8,7.49219 16.8,16.8c0,9.30781 -7.49219,16.8 -16.8,16.8c-9.30781,0 -16.8,-7.49219 -16.8,-16.8c0,-9.30781 7.49219,-16.8 16.8,-16.8zM173.6,72.8c9.30781,0 16.8,7.49219 16.8,16.8c0,9.30781 -7.49219,16.8 -16.8,16.8c-9.30781,0 -16.8,-7.49219 -16.8,-16.8c0,-0.57969 0.03281,-1.15937 0.0875,-1.71719c0.85313,-8.49844 7.98438,-15.08281 16.7125,-15.08281zM112,86.8c-13.87969,0 -25.2,11.32031 -25.2,25.2c0,13.87969 11.32031,25.2 25.2,25.2c13.87969,0 25.2,-11.32031 25.2,-25.2c0,-13.87969 -11.32031,-25.2 -25.2,-25.2zM112,92.4c10.86094,0 19.6,8.73906 19.6,19.6c0,10.86094 -8.73906,19.6 -19.6,19.6c-10.86094,0 -19.6,-8.73906 -19.6,-19.6c0,-10.86094 8.73906,-19.6 19.6,-19.6zM50.4,117.6c-21.54687,0 -39.2,17.65313 -39.2,39.2v11.2h62.35469c-2.275,5.15156 -3.55469,10.82813 -3.55469,16.8v11.2h84v-11.2c0,-5.97187 -1.27969,-11.64844 -3.55469,-16.8h62.35469v-11.2c0,-21.54687 -17.65312,-39.2 -39.2,-39.2c-14.35,0 -26.95,7.83125 -33.775,19.425c-2.275,3.89375 -3.87187,8.21406 -4.71406,12.78594c-6.63906,-4.41875 -14.57969,-7.01094 -23.11094,-7.01094c-8.53125,0 -16.47187,2.59219 -23.11094,7.01094c-3.33594,-18.24375 -19.3375,-32.21094 -38.48906,-32.21094zM50.4,123.2c17.48906,0 31.86094,13.52969 33.38125,30.63594c-2.76719,2.52656 -5.19531,5.39219 -7.20781,8.56406h-59.77344v-5.6c0,-18.49531 15.10469,-33.6 33.6,-33.6zM173.6,123.2c18.49531,0 33.6,15.10469 33.6,33.6v5.6h-59.77344c-2.0125,-3.17187 -4.44063,-6.0375 -7.20781,-8.56406c1.52031,-17.10625 15.89219,-30.63594 33.38125,-30.63594zM112,148.4c20.0375,0 36.4,16.3625 36.4,36.4v5.6h-72.8v-5.6c0,-20.0375 16.3625,-36.4 36.4,-36.4zM22.4,151.2c-1.54219,0 -2.8,1.25781 -2.8,2.8c0,1.54219 1.25781,2.8 2.8,2.8c1.54219,0 2.8,-1.25781 2.8,-2.8c0,-1.54219 -1.25781,-2.8 -2.8,-2.8zM33.6,151.2c-1.54219,0 -2.8,1.25781 -2.8,2.8c0,1.54219 1.25781,2.8 2.8,2.8c1.54219,0 2.8,-1.25781 2.8,-2.8c0,-1.54219 -1.25781,-2.8 -2.8,-2.8zM44.8,151.2c-1.54219,0 -2.8,1.25781 -2.8,2.8c0,1.54219 1.25781,2.8 2.8,2.8c1.54219,0 2.8,-1.25781 2.8,-2.8c0,-1.54219 -1.25781,-2.8 -2.8,-2.8zM56,151.2c-1.54219,0 -2.8,1.25781 -2.8,2.8c0,1.54219 1.25781,2.8 2.8,2.8c1.54219,0 2.8,-1.25781 2.8,-2.8c0,-1.54219 -1.25781,-2.8 -2.8,-2.8zM67.2,151.2c-1.54219,0 -2.8,1.25781 -2.8,2.8c0,1.54219 1.25781,2.8 2.8,2.8c1.54219,0 2.8,-1.25781 2.8,-2.8c0,-1.54219 -1.25781,-2.8 -2.8,-2.8zM78.4,151.2c-1.54219,0 -2.8,1.25781 -2.8,2.8c0,1.54219 1.25781,2.8 2.8,2.8c1.54219,0 2.8,-1.25781 2.8,-2.8c0,-1.54219 -1.25781,-2.8 -2.8,-2.8zM145.6,151.2c-1.54219,0 -2.8,1.25781 -2.8,2.8c0,1.54219 1.25781,2.8 2.8,2.8c1.54219,0 2.8,-1.25781 2.8,-2.8c0,-1.54219 -1.25781,-2.8 -2.8,-2.8zM156.8,151.2c-1.54219,0 -2.8,1.25781 -2.8,2.8c0,1.54219 1.25781,2.8 2.8,2.8c1.54219,0 2.8,-1.25781 2.8,-2.8c0,-1.54219 -1.25781,-2.8 -2.8,-2.8zM168,151.2c-1.54219,0 -2.8,1.25781 -2.8,2.8c0,1.54219 1.25781,2.8 2.8,2.8c1.54219,0 2.8,-1.25781 2.8,-2.8c0,-1.54219 -1.25781,-2.8 -2.8,-2.8zM179.2,151.2c-1.54219,0 -2.8,1.25781 -2.8,2.8c0,1.54219 1.25781,2.8 2.8,2.8c1.54219,0 2.8,-1.25781 2.8,-2.8c0,-1.54219 -1.25781,-2.8 -2.8,-2.8zM190.4,151.2c-1.54219,0 -2.8,1.25781 -2.8,2.8c0,1.54219 1.25781,2.8 2.8,2.8c1.54219,0 2.8,-1.25781 2.8,-2.8c0,-1.54219 -1.25781,-2.8 -2.8,-2.8zM201.6,151.2c-1.54219,0 -2.8,1.25781 -2.8,2.8c0,1.54219 1.25781,2.8 2.8,2.8c1.54219,0 2.8,-1.25781 2.8,-2.8c0,-1.54219 -1.25781,-2.8 -2.8,-2.8zM84,179.2c-1.54219,0 -2.8,1.25781 -2.8,2.8c0,1.54219 1.25781,2.8 2.8,2.8c1.54219,0 2.8,-1.25781 2.8,-2.8c0,-1.54219 -1.25781,-2.8 -2.8,-2.8zM95.2,179.2c-1.54219,0 -2.8,1.25781 -2.8,2.8c0,1.54219 1.25781,2.8 2.8,2.8c1.54219,0 2.8,-1.25781 2.8,-2.8c0,-1.54219 -1.25781,-2.8 -2.8,-2.8zM106.4,179.2c-1.54219,0 -2.8,1.25781 -2.8,2.8c0,1.54219 1.25781,2.8 2.8,2.8c1.54219,0 2.8,-1.25781 2.8,-2.8c0,-1.54219 -1.25781,-2.8 -2.8,-2.8zM117.6,179.2c-1.54219,0 -2.8,1.25781 -2.8,2.8c0,1.54219 1.25781,2.8 2.8,2.8c1.54219,0 2.8,-1.25781 2.8,-2.8c0,-1.54219 -1.25781,-2.8 -2.8,-2.8zM128.8,179.2c-1.54219,0 -2.8,1.25781 -2.8,2.8c0,1.54219 1.25781,2.8 2.8,2.8c1.54219,0 2.8,-1.25781 2.8,-2.8c0,-1.54219 -1.25781,-2.8 -2.8,-2.8zM140,179.2c-1.54219,0 -2.8,1.25781 -2.8,2.8c0,1.54219 1.25781,2.8 2.8,2.8c1.54219,0 2.8,-1.25781 2.8,-2.8c0,-1.54219 -1.25781,-2.8 -2.8,-2.8z"/></g></g></g></svg>
