<?xml version="1.0" encoding="UTF-8"?>
<svg width="80px" height="80px" viewBox="0 0 80 80" version="1.1" xmlns="http://www.w3.org/2000/svg" xmlns:xlink="http://www.w3.org/1999/xlink">
    <!-- Generator: Sketch 52.6 (67491) - http://www.bohemiancoding.com/sketch -->
    <title>icons8-user-shield</title>
    <desc>Created with Sketch.</desc>
    <g id="icons8-user-shield" stroke="none" stroke-width="1" fill="none" fill-rule="evenodd">
        <path d="M40,8.883 L39.555,9.105 C39.555,9.105 27.75,15 12,15 L11,15 L11,16 C11,39.203 18.09,53.23 25.25,61.406 C32.406,69.586 39.695,71.953 39.695,71.953 L40,72.051 L40.305,71.953 C40.305,71.953 47.594,69.586 54.75,61.406 C61.91,53.23 69,39.203 69,16 L69,15 L68,15 C52.25,15 40.445,9.105 40.445,9.105 L40,8.883 Z M40,11.094 C41.148,11.648 52.082,16.711 66.961,16.953 C66.766,39.148 59.992,52.387 53.25,60.094 C46.652,67.629 40.461,69.746 40,69.898 C39.539,69.746 33.348,67.629 26.75,60.094 C20.008,52.387 13.234,39.148 13.039,16.953 C27.918,16.711 38.852,11.648 40,11.094 Z M38.125,16.258 L37.777,16.32 L37.684,16.352 L37.074,17.012 L37.238,17.891 L38.039,18.289 L38.391,18.227 L38.484,18.191 L39.09,17.531 L38.93,16.652 L38.125,16.258 Z M42.203,16.328 L41.313,16.434 L40.867,17.211 L41.219,18.031 L41.523,18.211 L41.617,18.242 L42.508,18.137 L42.953,17.359 L42.602,16.539 L42.297,16.359 L42.203,16.328 Z M34.313,17.578 L33.965,17.621 L33.867,17.648 L33.219,18.266 L33.324,19.156 L34.102,19.605 L34.449,19.563 L34.547,19.535 L35.195,18.918 L35.09,18.027 L34.313,17.578 Z M46.023,17.621 L45.141,17.781 L44.742,18.582 L45.145,19.383 L45.461,19.539 L45.555,19.57 L46.438,19.406 L46.836,18.609 L46.438,17.805 L46.117,17.648 L46.023,17.621 Z M30.438,18.691 L30.082,18.711 L29.984,18.734 L29.297,19.305 L29.344,20.203 L30.094,20.699 L30.445,20.68 L30.539,20.656 L31.227,20.082 L31.18,19.188 L30.438,18.691 Z M49.938,18.707 L49.063,18.895 L48.688,19.711 L49.117,20.496 L49.438,20.641 L49.535,20.668 L50.41,20.48 L50.781,19.664 L50.352,18.879 L50.031,18.734 L49.938,18.707 Z M26.469,19.578 L26.117,19.586 L26.023,19.605 L25.313,20.156 L25.328,21.055 L26.059,21.574 L26.414,21.57 L26.508,21.547 L27.219,21 L27.199,20.102 L26.469,19.578 Z M53.859,19.59 L53,19.844 L52.688,20.684 L53.172,21.438 L53.508,21.559 L53.602,21.578 L54.461,21.32 L54.773,20.484 L54.289,19.73 L53.957,19.609 L53.859,19.59 Z M57.855,20.258 L57.008,20.547 L56.734,21.398 L57.25,22.129 L57.586,22.234 L57.688,22.25 L58.531,21.961 L58.809,21.109 L58.289,20.375 L57.953,20.27 L57.855,20.258 Z M22.121,20.273 L22.023,20.289 L21.297,20.813 L21.277,21.711 L21.984,22.258 L22.336,22.266 L22.438,22.25 L23.164,21.727 L23.18,20.828 L22.473,20.281 L22.121,20.273 Z M18.219,20.727 C18.195,20.727 18.172,20.73 18.148,20.73 C18.094,20.734 18.078,20.734 18.102,20.734 L17.16,20.789 L17.16,21.773 C17.152,22.191 17.402,22.566 17.789,22.719 C18.172,22.871 18.613,22.773 18.895,22.469 C19.199,22.191 19.305,21.754 19.156,21.367 C19.004,20.98 18.633,20.727 18.219,20.727 Z M61.75,20.727 C61.336,20.738 60.969,21.008 60.832,21.398 C60.695,21.793 60.816,22.227 61.133,22.492 C61.137,22.496 61.137,22.496 61.141,22.5 C61.426,22.785 61.859,22.867 62.234,22.707 C62.605,22.547 62.848,22.18 62.844,21.773 L62.844,20.789 L61.898,20.734 C61.926,20.734 61.906,20.734 61.852,20.73 C61.816,20.727 61.785,20.727 61.75,20.727 Z M61.504,24.871 L60.801,25.43 L60.711,25.77 L60.703,25.871 L61.035,26.703 L61.902,26.93 L62.605,26.375 L62.695,26.035 L62.703,25.934 L62.367,25.102 L61.504,24.871 Z M17.953,24.953 L17.328,25.594 L17.281,25.938 L17.281,26.012 L17.289,26.07 L17.746,26.844 L18.637,26.938 L19.242,26.277 L19.281,25.93 L19.281,25.898 L19.277,25.867 L19.277,25.855 L18.844,25.07 L17.953,24.953 Z M40,26 C36.145,26 33,29.145 33,33 C33,35.406 34.23,37.539 36.09,38.797 C32.516,40.324 30,43.875 30,48 L32,48 C32,43.57 35.57,40 40,40 C44.43,40 48,43.57 48,48 L50,48 C50,43.875 47.484,40.324 43.91,38.797 C45.77,37.539 47,35.406 47,33 C47,29.145 43.855,26 40,26 Z M40,28 C42.773,28 45,30.227 45,33 C45,35.773 42.773,38 40,38 C37.227,38 35,35.773 35,33 C35,30.227 37.227,28 40,28 Z M61.145,29.02 L60.406,29.527 L60.293,29.859 L60.277,29.961 L60.555,30.813 L61.406,31.102 L62.141,30.594 L62.258,30.258 L62.273,30.156 L61.992,29.305 L61.145,29.02 Z M18.242,29.172 L17.676,29.867 L17.66,30.219 L17.672,30.32 L18.18,31.063 L19.07,31.102 L19.641,30.406 L19.656,30.055 L19.641,29.953 L19.137,29.211 L18.242,29.172 Z M60.484,33.125 L59.711,33.586 L59.578,33.91 L59.555,34.008 L59.773,34.879 L60.602,35.223 L61.375,34.766 L61.508,34.438 L61.531,34.34 L61.313,33.469 L60.484,33.125 Z M19.734,33.336 L18.836,33.352 L18.316,34.078 L18.32,34.434 L18.344,34.531 L18.891,35.242 L19.789,35.227 L20.313,34.496 L20.305,34.145 L20.285,34.043 L19.734,33.336 Z M59.516,37.172 L58.715,37.578 L58.559,37.895 L58.531,37.992 L58.691,38.875 L59.492,39.273 L60.297,38.867 L60.453,38.551 L60.477,38.453 L60.316,37.57 L59.516,37.172 Z M20.625,37.406 L19.734,37.48 L19.258,38.242 L19.289,38.59 L19.313,38.688 L19.906,39.359 L20.801,39.289 L21.273,38.527 L21.246,38.176 L21.219,38.078 L20.625,37.406 Z M58.258,41.133 L57.422,41.457 L57.234,41.758 L57.195,41.852 L57.273,42.742 L58.031,43.219 L58.867,42.891 L59.055,42.594 L59.094,42.5 L59.016,41.605 L58.258,41.133 Z M21.809,41.383 L20.93,41.539 L20.527,42.344 L20.59,42.688 L20.625,42.785 L21.281,43.395 L22.164,43.234 L22.563,42.434 L22.5,42.086 L22.465,41.992 L21.809,41.383 Z M56.625,44.969 L55.773,45.25 L55.574,45.539 L55.531,45.633 L55.566,46.531 L56.305,47.039 L57.152,46.754 L57.352,46.461 L57.395,46.371 L57.359,45.477 L56.625,44.969 Z M23.359,45.234 L22.496,45.465 L22.164,46.297 L22.25,46.637 L22.297,46.727 L23,47.285 L23.867,47.055 L24.199,46.227 L24.109,45.883 L24.063,45.789 L23.359,45.234 Z M54.738,48.656 L53.859,48.836 L53.625,49.102 L53.57,49.188 L53.5,50.082 L54.168,50.676 L55.047,50.492 L55.281,50.23 L55.336,50.145 L55.406,49.25 L54.738,48.656 Z M25.188,48.941 L24.352,49.281 L24.125,50.145 L24.258,50.473 L24.313,50.559 L25.082,51.023 L25.914,50.688 L26.141,49.82 L26.008,49.492 L25.953,49.406 L25.188,48.941 Z M52.5,52.168 L51.617,52.297 L51.367,52.547 L51.309,52.633 L51.18,53.52 L51.82,54.152 L52.703,54.023 L52.953,53.773 L53.012,53.688 L53.137,52.801 L52.5,52.168 Z M27.453,52.438 L26.645,52.824 L26.469,53.703 L26.621,54.023 L26.68,54.105 L27.477,54.523 L28.281,54.133 L28.457,53.258 L28.305,52.938 L28.246,52.852 L27.453,52.438 Z M50,55.477 L49.105,55.516 L48.832,55.734 L48.766,55.813 L48.547,56.68 L49.109,57.375 L50.004,57.344 L50.277,57.117 L50.344,57.043 L50.563,56.172 L50,55.477 Z M29.996,55.695 L29.238,56.172 L29.164,57.066 L29.352,57.367 L29.422,57.441 L30.258,57.762 L31.016,57.285 L31.09,56.391 L30.902,56.094 L30.832,56.016 L29.996,55.695 Z M46.316,58.5 L46.023,58.691 L45.945,58.762 L45.641,59.602 L46.133,60.352 L47.027,60.406 L47.32,60.215 L47.398,60.145 L47.703,59.305 L47.211,58.555 L46.316,58.5 Z M32.875,58.672 L32.172,59.223 L32.195,60.117 L32.414,60.398 L32.492,60.465 L33.359,60.695 L34.063,60.141 L34.039,59.246 L33.82,58.969 L33.742,58.898 L32.875,58.672 Z M43.242,61.191 L42.93,61.355 L42.852,61.418 L42.461,62.227 L42.879,63.02 L43.766,63.164 L44.078,63 L44.156,62.938 L44.543,62.125 L44.125,61.336 L43.242,61.191 Z M36.074,61.309 L35.43,61.93 L35.535,62.816 L35.777,63.07 L35.859,63.133 L36.742,63.281 L37.391,62.664 L37.285,61.773 L37.039,61.516 L36.961,61.457 L36.074,61.309 Z M39.922,63.445 C39.457,63.453 39.063,63.781 38.965,64.23 C38.867,64.684 39.09,65.145 39.508,65.344 C39.504,65.344 39.516,65.352 39.547,65.367 L39.992,65.59 L40.484,65.344 C40.906,65.141 41.129,64.668 41.016,64.211 C40.906,63.754 40.488,63.434 40.02,63.445 C40.016,63.445 40.016,63.445 40.012,63.445 C39.98,63.445 39.949,63.445 39.922,63.445 Z" id="Fill-1" fill="#373942"></path>
    </g>
</svg>