<?xml version="1.0" encoding="UTF-8"?>
<svg width="80px" height="80px" viewBox="0 0 80 80" version="1.1" xmlns="http://www.w3.org/2000/svg" xmlns:xlink="http://www.w3.org/1999/xlink">
    <!-- Generator: Sketch 52.6 (67491) - http://www.bohemiancoding.com/sketch -->
    <title>icons8-add-shopping-cart</title>
    <desc>Created with Sketch.</desc>
    <g id="icons8-add-shopping-cart" stroke="none" stroke-width="1" fill="none" fill-rule="evenodd">
        <path d="M10,8 C7.801,8 6,9.801 6,12 C6,14.199 7.801,16 10,16 C12.199,16 14,14.199 14,12 C14,11.391 13.852,10.82 13.605,10.301 C16.926,11.18 19.535,13.914 20.156,17.438 L22.281,29.527 L26.156,52 L26.238,52 L27.656,60.043 C28.129,62.734 30.379,64.727 33.066,64.953 C32.41,65.801 32,66.852 32,68 C32,70.75 34.25,73 37,73 C39.75,73 42,70.75 42,68 C42,66.871 41.605,65.84 40.969,65 L48.051,65 C48.57,73.359 55.512,80 64,80 C72.824,80 80,72.824 80,64 C80,56.023 74.129,49.41 66.484,48.215 C66.738,47.719 66.941,47.191 67.078,46.633 L72.246,25.098 L22.824,21.063 L22.125,17.094 C21.199,11.84 16.625,8 11.293,8 L10,8 Z M10,10 C11.117,10 12,10.883 12,12 C12,13.117 11.117,14 10,14 C8.883,14 8,13.117 8,12 C8,10.883 8.883,10 10,10 Z M23.203,23.102 L69.754,26.902 L65.129,46.168 C64.965,46.855 64.66,47.477 64.25,48.012 C64.168,48.012 64.086,48 64,48 C61.195,48 58.563,48.73 56.27,50 L27.922,50 L24.215,28.965 L23.203,23.102 Z M34,29 C33.449,29 33,29.449 33,30 C33,30.551 33.449,31 34,31 C34.551,31 35,30.551 35,30 C35,29.449 34.551,29 34,29 Z M40,29 C39.449,29 39,29.449 39,30 C39,30.551 39.449,31 40,31 C40.551,31 41,30.551 41,30 C41,29.449 40.551,29 40,29 Z M46,29 C45.449,29 45,29.449 45,30 C45,30.551 45.449,31 46,31 C46.551,31 47,30.551 47,30 C47,29.449 46.551,29 46,29 Z M52,29 C51.449,29 51,29.449 51,30 C51,30.551 51.449,31 52,31 C52.551,31 53,30.551 53,30 C53,29.449 52.551,29 52,29 Z M58,29 C57.449,29 57,29.449 57,30 C57,30.551 57.449,31 58,31 C58.551,31 59,30.551 59,30 C59,29.449 58.551,29 58,29 Z M34,33 C33.449,33 33,33.449 33,34 C33,34.551 33.449,35 34,35 C34.551,35 35,34.551 35,34 C35,33.449 34.551,33 34,33 Z M40,33 C39.449,33 39,33.449 39,34 C39,34.551 39.449,35 40,35 C40.551,35 41,34.551 41,34 C41,33.449 40.551,33 40,33 Z M46,33 C45.449,33 45,33.449 45,34 C45,34.551 45.449,35 46,35 C46.551,35 47,34.551 47,34 C47,33.449 46.551,33 46,33 Z M52,33 C51.449,33 51,33.449 51,34 C51,34.551 51.449,35 52,35 C52.551,35 53,34.551 53,34 C53,33.449 52.551,33 52,33 Z M58,33 C57.449,33 57,33.449 57,34 C57,34.551 57.449,35 58,35 C58.551,35 59,34.551 59,34 C59,33.449 58.551,33 58,33 Z M34,37 C33.449,37 33,37.449 33,38 C33,38.551 33.449,39 34,39 C34.551,39 35,38.551 35,38 C35,37.449 34.551,37 34,37 Z M40,37 C39.449,37 39,37.449 39,38 C39,38.551 39.449,39 40,39 C40.551,39 41,38.551 41,38 C41,37.449 40.551,37 40,37 Z M46,37 C45.449,37 45,37.449 45,38 C45,38.551 45.449,39 46,39 C46.551,39 47,38.551 47,38 C47,37.449 46.551,37 46,37 Z M52,37 C51.449,37 51,37.449 51,38 C51,38.551 51.449,39 52,39 C52.551,39 53,38.551 53,38 C53,37.449 52.551,37 52,37 Z M58,37 C57.449,37 57,37.449 57,38 C57,38.551 57.449,39 58,39 C58.551,39 59,38.551 59,38 C59,37.449 58.551,37 58,37 Z M34,41 C33.449,41 33,41.449 33,42 C33,42.551 33.449,43 34,43 C34.551,43 35,42.551 35,42 C35,41.449 34.551,41 34,41 Z M40,41 C39.449,41 39,41.449 39,42 C39,42.551 39.449,43 40,43 C40.551,43 41,42.551 41,42 C41,41.449 40.551,41 40,41 Z M46,41 C45.449,41 45,41.449 45,42 C45,42.551 45.449,43 46,43 C46.551,43 47,42.551 47,42 C47,41.449 46.551,41 46,41 Z M52,41 C51.449,41 51,41.449 51,42 C51,42.551 51.449,43 52,43 C52.551,43 53,42.551 53,42 C53,41.449 52.551,41 52,41 Z M58,41 C57.449,41 57,41.449 57,42 C57,42.551 57.449,43 58,43 C58.551,43 59,42.551 59,42 C59,41.449 58.551,41 58,41 Z M34,45 C33.449,45 33,45.449 33,46 C33,46.551 33.449,47 34,47 C34.551,47 35,46.551 35,46 C35,45.449 34.551,45 34,45 Z M40,45 C39.449,45 39,45.449 39,46 C39,46.551 39.449,47 40,47 C40.551,47 41,46.551 41,46 C41,45.449 40.551,45 40,45 Z M46,45 C45.449,45 45,45.449 45,46 C45,46.551 45.449,47 46,47 C46.551,47 47,46.551 47,46 C47,45.449 46.551,45 46,45 Z M52,45 C51.449,45 51,45.449 51,46 C51,46.551 51.449,47 52,47 C52.551,47 53,46.551 53,46 C53,45.449 52.551,45 52,45 Z M58,45 C57.449,45 57,45.449 57,46 C57,46.551 57.449,47 58,47 C58.551,47 59,46.551 59,46 C59,45.449 58.551,45 58,45 Z M64,50 C71.742,50 78,56.258 78,64 C78,71.742 71.742,78 64,78 C56.258,78 50,71.742 50,64 C50,56.258 56.258,50 64,50 Z M28.27,52 L53.453,52 C50.352,54.727 48.328,58.625 48.055,63 L33.566,63 C31.617,63 29.965,61.613 29.625,59.691 L28.27,52 Z M63,57 L63,63 L57,63 L57,65 L63,65 L63,71 L65,71 L65,65 L71,65 L71,63 L65,63 L65,57 L63,57 Z M37,65 C38.668,65 40,66.332 40,68 C40,69.668 38.668,71 37,71 C35.332,71 34,69.668 34,68 C34,66.332 35.332,65 37,65 Z M37,67 C36.449,67 36,67.449 36,68 C36,68.551 36.449,69 37,69 C37.551,69 38,68.551 38,68 C38,67.449 37.551,67 37,67 Z" id="Fill-1" fill="#373942"></path>
    </g>
</svg>