<?xml version="1.0" encoding="UTF-8"?>
<svg width="80px" height="80px" viewBox="0 0 80 80" version="1.1" xmlns="http://www.w3.org/2000/svg" xmlns:xlink="http://www.w3.org/1999/xlink">
    <!-- Generator: Sketch 52.6 (67491) - http://www.bohemiancoding.com/sketch -->
    <title>icons8-multiple-devices</title>
    <desc>Created with Sketch.</desc>
    <g id="icons8-multiple-devices" stroke="none" stroke-width="1" fill="none" fill-rule="evenodd">
        <path d="M13,11 C10.801,11 9,12.801 9,15 L9,49 C9,49.73 9.215,50.41 9.563,51 L5,51 L5,54 C5,56.75 7.25,59 10,59 L21,59 L21,69 C21,70.645 22.355,72 24,72 L38,72 C39.645,72 41,70.645 41,69 L41,67 L62,67 C63.645,67 65,65.645 65,64 L65,59 L70,59 C72.75,59 75,56.75 75,54 L75,51 L70.438,51 C70.785,50.41 71,49.73 71,49 L71,15 C71,12.801 69.199,11 67,11 L13,11 Z M13,13 L67,13 C68.117,13 69,13.883 69,15 L69,49 C69,50.117 68.117,51 67,51 L65,51 L65,31 C65,29.355 63.645,28 62,28 L38,28 C36.355,28 35,29.355 35,31 L35,41 L24,41 C22.355,41 21,42.355 21,44 L21,51 L13,51 C11.883,51 11,50.117 11,49 L11,15 C11,13.883 11.883,13 13,13 Z M16,17 C15.449,17 15,17.449 15,18 C15,18.551 15.449,19 16,19 C16.551,19 17,18.551 17,18 C17,17.449 16.551,17 16,17 Z M20,17 C19.449,17 19,17.449 19,18 C19,18.551 19.449,19 20,19 C20.551,19 21,18.551 21,18 C21,17.449 20.551,17 20,17 Z M24,17 C23.449,17 23,17.449 23,18 C23,18.551 23.449,19 24,19 C24.551,19 25,18.551 25,18 C25,17.449 24.551,17 24,17 Z M28,17 C27.449,17 27,17.449 27,18 C27,18.551 27.449,19 28,19 C28.551,19 29,18.551 29,18 C29,17.449 28.551,17 28,17 Z M32,17 C31.449,17 31,17.449 31,18 C31,18.551 31.449,19 32,19 C32.551,19 33,18.551 33,18 C33,17.449 32.551,17 32,17 Z M36,17 C35.449,17 35,17.449 35,18 C35,18.551 35.449,19 36,19 C36.551,19 37,18.551 37,18 C37,17.449 36.551,17 36,17 Z M40,17 C39.449,17 39,17.449 39,18 C39,18.551 39.449,19 40,19 C40.551,19 41,18.551 41,18 C41,17.449 40.551,17 40,17 Z M44,17 C43.449,17 43,17.449 43,18 C43,18.551 43.449,19 44,19 C44.551,19 45,18.551 45,18 C45,17.449 44.551,17 44,17 Z M48,17 C47.449,17 47,17.449 47,18 C47,18.551 47.449,19 48,19 C48.551,19 49,18.551 49,18 C49,17.449 48.551,17 48,17 Z M52,17 C51.449,17 51,17.449 51,18 C51,18.551 51.449,19 52,19 C52.551,19 53,18.551 53,18 C53,17.449 52.551,17 52,17 Z M56,17 C55.449,17 55,17.449 55,18 C55,18.551 55.449,19 56,19 C56.551,19 57,18.551 57,18 C57,17.449 56.551,17 56,17 Z M60,17 C59.449,17 59,17.449 59,18 C59,18.551 59.449,19 60,19 C60.551,19 61,18.551 61,18 C61,17.449 60.551,17 60,17 Z M64,17 C63.449,17 63,17.449 63,18 C63,18.551 63.449,19 64,19 C64.551,19 65,18.551 65,18 C65,17.449 64.551,17 64,17 Z M16,21 C15.449,21 15,21.449 15,22 C15,22.551 15.449,23 16,23 C16.551,23 17,22.551 17,22 C17,21.449 16.551,21 16,21 Z M64,21 C63.449,21 63,21.449 63,22 C63,22.551 63.449,23 64,23 C64.551,23 65,22.551 65,22 C65,21.449 64.551,21 64,21 Z M16,25 C15.449,25 15,25.449 15,26 C15,26.551 15.449,27 16,27 C16.551,27 17,26.551 17,26 C17,25.449 16.551,25 16,25 Z M64,25 C63.449,25 63,25.449 63,26 C63,26.551 63.449,27 64,27 C64.551,27 65,26.551 65,26 C65,25.449 64.551,25 64,25 Z M16,29 C15.449,29 15,29.449 15,30 C15,30.551 15.449,31 16,31 C16.551,31 17,30.551 17,30 C17,29.449 16.551,29 16,29 Z M38,30 L62,30 C62.566,30 63,30.434 63,31 L63,64 C63,64.566 62.566,65 62,65 L41,65 L41,44 C41,42.355 39.645,41 38,41 L37,41 L37,31 C37,30.434 37.434,30 38,30 Z M16,33 C15.449,33 15,33.449 15,34 C15,34.551 15.449,35 16,35 C16.551,35 17,34.551 17,34 C17,33.449 16.551,33 16,33 Z M16,37 C15.449,37 15,37.449 15,38 C15,38.551 15.449,39 16,39 C16.551,39 17,38.551 17,38 C17,37.449 16.551,37 16,37 Z M16,41 C15.449,41 15,41.449 15,42 C15,42.551 15.449,43 16,43 C16.551,43 17,42.551 17,42 C17,41.449 16.551,41 16,41 Z M24,43 L38,43 C38.566,43 39,43.434 39,44 L39,69 C39,69.566 38.566,70 38,70 L24,70 C23.434,70 23,69.566 23,69 L23,44 C23,43.434 23.434,43 24,43 Z M16,45 C15.449,45 15,45.449 15,46 C15,46.551 15.449,47 16,47 C16.551,47 17,46.551 17,46 C17,45.449 16.551,45 16,45 Z M7,53 L21,53 L21,57 L10,57 C8.332,57 7,55.668 7,54 L7,53 Z M65,53 L73,53 L73,54 C73,55.668 71.668,57 70,57 L65,57 L65,53 Z M50,61 C49.449,61 49,61.449 49,62 C49,62.551 49.449,63 50,63 C50.551,63 51,62.551 51,62 C51,61.449 50.551,61 50,61 Z M31,66 C30.449,66 30,66.449 30,67 C30,67.551 30.449,68 31,68 C31.551,68 32,67.551 32,67 C32,66.449 31.551,66 31,66 Z" id="Fill-1" fill="#373942"></path>
    </g>
</svg>