<?xml version="1.0" encoding="UTF-8"?>
<svg width="80px" height="80px" viewBox="0 0 80 80" version="1.1" xmlns="http://www.w3.org/2000/svg" xmlns:xlink="http://www.w3.org/1999/xlink">
    <!-- Generator: Sketch 52.6 (67491) - http://www.bohemiancoding.com/sketch -->
    <title>icons8-financial-growth-analysis</title>
    <desc>Created with Sketch.</desc>
    <g id="icons8-financial-growth-analysis" stroke="none" stroke-width="1" fill="none" fill-rule="evenodd">
        <path d="M30,7 C17.316,7 7,17.316 7,30 C7,42.684 17.316,53 30,53 C35.09,53 39.797,51.336 43.609,48.523 L47.859,52.773 C47.461,53.844 47.684,55.098 48.535,55.949 L64.707,72.121 C65.871,73.285 67.785,73.285 68.949,72.121 L72.121,68.949 C73.285,67.785 73.285,65.871 72.121,64.707 L55.949,48.535 C55.367,47.953 54.598,47.664 53.828,47.664 C53.469,47.664 53.113,47.734 52.773,47.859 L48.523,43.609 C51.336,39.797 53,35.09 53,30 C53,28.09 52.762,26.23 52.32,24.453 L50.746,26.906 C50.895,27.918 51,28.945 51,30 C51,41.578 41.578,51 30,51 C18.422,51 9,41.578 9,30 C9,18.422 18.422,9 30,9 C37.035,9 43.262,12.492 47.074,17.82 L48.238,16.008 C44.027,10.535 37.422,7 30,7 Z M30,11 C29.449,11 29,11.449 29,12 C29,12.551 29.449,13 30,13 C30.551,13 31,12.551 31,12 C31,11.449 30.551,11 30,11 Z M25.344,11.613 C24.793,11.613 24.344,12.063 24.344,12.613 C24.344,13.164 24.793,13.613 25.344,13.613 C25.895,13.613 26.344,13.164 26.344,12.613 C26.344,12.063 25.895,11.613 25.344,11.613 Z M34.66,11.613 C34.109,11.613 33.66,12.063 33.66,12.613 C33.66,13.164 34.109,13.613 34.66,13.613 C35.211,13.613 35.66,13.164 35.66,12.613 C35.66,12.063 35.211,11.613 34.66,11.613 Z M21,13.414 C20.449,13.414 20,13.859 20,14.414 C20,14.965 20.449,15.414 21,15.414 C21.551,15.414 22,14.965 22,14.414 C22,13.859 21.551,13.414 21,13.414 Z M39,13.414 C38.449,13.414 38,13.859 38,14.414 C38,14.965 38.449,15.414 39,15.414 C39.555,15.414 40,14.965 40,14.414 C40,13.859 39.555,13.414 39,13.414 Z M53,14.148 L43.453,29 L33.539,29 L28,35.461 L22.461,29 L11,29 L11,31 L21.539,31 L28,38.539 L34.461,31 L44.547,31 L53,17.852 L61.453,31 L73,31 L73,29 L62.547,29 L53,14.148 Z M17.273,16.273 C16.723,16.273 16.273,16.719 16.273,17.273 C16.273,17.824 16.723,18.273 17.273,18.273 C17.824,18.273 18.273,17.824 18.273,17.273 C18.273,16.719 17.824,16.273 17.273,16.273 Z M42.727,16.273 C42.176,16.273 41.727,16.719 41.727,17.273 C41.727,17.824 42.176,18.273 42.727,18.273 C43.281,18.273 43.727,17.824 43.727,17.273 C43.727,16.719 43.281,16.273 42.727,16.273 Z M14.414,20 C13.863,20 13.414,20.449 13.414,21 C13.414,21.551 13.863,22 14.414,22 C14.965,22 15.414,21.551 15.414,21 C15.414,20.449 14.965,20 14.414,20 Z M12.617,24.344 C12.063,24.344 11.617,24.789 11.617,25.344 C11.617,25.895 12.063,26.344 12.617,26.344 C13.168,26.344 13.617,25.895 13.617,25.344 C13.617,24.789 13.168,24.344 12.617,24.344 Z M47.391,33.656 C46.836,33.656 46.391,34.105 46.391,34.656 C46.391,35.211 46.836,35.656 47.391,35.656 C47.941,35.656 48.391,35.211 48.391,34.656 C48.391,34.105 47.941,33.656 47.391,33.656 Z M12.617,33.66 C12.063,33.66 11.617,34.109 11.617,34.66 C11.617,35.211 12.063,35.66 12.617,35.66 C13.168,35.66 13.617,35.211 13.617,34.66 C13.617,34.109 13.168,33.66 12.617,33.66 Z M45.59,38 C45.039,38 44.59,38.445 44.59,39 C44.59,39.551 45.039,40 45.59,40 C46.141,40 46.59,39.551 46.59,39 C46.59,38.445 46.141,38 45.59,38 Z M14.414,38 C13.859,38 13.414,38.449 13.414,39 C13.414,39.555 13.859,40 14.414,40 C14.965,40 15.414,39.555 15.414,39 C15.414,38.449 14.965,38 14.414,38 Z M17.273,41.727 C16.723,41.727 16.273,42.176 16.273,42.727 C16.273,43.281 16.723,43.727 17.273,43.727 C17.824,43.727 18.273,43.281 18.273,42.727 C18.273,42.176 17.824,41.727 17.273,41.727 Z M42.727,41.727 C42.176,41.727 41.727,42.176 41.727,42.727 C41.727,43.281 42.176,43.727 42.727,43.727 C43.281,43.727 43.727,43.281 43.727,42.727 C43.727,42.176 43.281,41.727 42.727,41.727 Z M21,44.586 C20.449,44.586 20,45.035 20,45.586 C20,46.141 20.449,46.586 21,46.586 C21.555,46.586 22,46.141 22,45.586 C22,45.035 21.555,44.586 21,44.586 Z M39,44.59 C38.449,44.59 38,45.039 38,45.59 C38,46.141 38.449,46.59 39,46.59 C39.555,46.59 40,46.141 40,45.59 C40,45.039 39.555,44.59 39,44.59 Z M47.262,45.176 L51.164,49.078 L49.078,51.164 L45.176,47.262 C45.914,46.609 46.609,45.914 47.262,45.176 Z M25.344,46.387 C24.793,46.387 24.344,46.836 24.344,47.387 C24.344,47.938 24.793,48.387 25.344,48.387 C25.895,48.387 26.344,47.938 26.344,47.387 C26.344,46.836 25.895,46.387 25.344,46.387 Z M34.66,46.387 C34.109,46.387 33.66,46.836 33.66,47.387 C33.66,47.938 34.109,48.387 34.66,48.387 C35.211,48.387 35.66,47.938 35.66,47.387 C35.66,46.836 35.211,46.387 34.66,46.387 Z M30,47 C29.449,47 29,47.449 29,48 C29,48.551 29.449,49 30,49 C30.551,49 31,48.551 31,48 C31,47.449 30.551,47 30,47 Z M53.828,49.648 C54.082,49.648 54.336,49.75 54.535,49.949 L55.586,51 L53.293,53.293 L54.707,54.707 L57,52.414 L58.586,54 L56.293,56.293 L57.707,57.707 L60,55.414 L61.586,57 L59.293,59.293 L60.707,60.707 L63,58.414 L64.586,60 L62.293,62.293 L63.707,63.707 L66,61.414 L67.586,63 L65.293,65.293 L66.707,66.707 L69,64.414 L70.707,66.121 C71.105,66.52 71.105,67.137 70.707,67.535 L67.535,70.707 C67.137,71.105 66.52,71.105 66.121,70.707 L49.949,54.535 C49.551,54.137 49.551,53.52 49.949,53.121 L53.125,49.949 C53.324,49.75 53.574,49.648 53.828,49.648 Z" id="Fill-1" fill="#373942"></path>
    </g>
</svg>