<?xml version="1.0" encoding="UTF-8"?>
<svg width="80px" height="80px" viewBox="0 0 80 80" version="1.1" xmlns="http://www.w3.org/2000/svg" xmlns:xlink="http://www.w3.org/1999/xlink">
    <!-- Generator: Sketch 52.6 (67491) - http://www.bohemiancoding.com/sketch -->
    <title>icons8-sand-watch</title>
    <desc>Created with Sketch.</desc>
    <g id="icons8-sand-watch" stroke="none" stroke-width="1" fill="none" fill-rule="evenodd">
        <path d="M16,8 L16,12 C16,13.645 17.355,15 19,15 L19,17 C19,18.645 20.355,20 22,20 L22,24 C22,31.105 26.23,37.078 32.219,40 C26.23,42.922 22,48.895 22,56 L22,60 C20.355,60 19,61.355 19,63 L19,65 C17.355,65 16,66.355 16,68 L16,72 L64,72 L64,68 C64,66.355 62.645,65 61,65 L61,63 C61,61.355 59.645,60 58,60 L58,56 C58,48.895 53.77,42.922 47.781,40 C53.77,37.078 58,31.105 58,24 L58,20 C59.645,20 61,18.645 61,17 L61,15 C62.645,15 64,13.645 64,12 L64,8 L16,8 Z M18,10 L62,10 L62,12 C62,12.566 61.566,13 61,13 L59,13 L59,17 C59,17.566 58.566,18 58,18 L22,18 C21.434,18 21,17.566 21,17 L21,13 L19,13 C18.434,13 18,12.566 18,12 L18,10 Z M24,13 C23.449,13 23,13.449 23,14 C23,14.551 23.449,15 24,15 C24.551,15 25,14.551 25,14 C25,13.449 24.551,13 24,13 Z M28,13 C27.449,13 27,13.449 27,14 C27,14.551 27.449,15 28,15 C28.551,15 29,14.551 29,14 C29,13.449 28.551,13 28,13 Z M32,13 C31.449,13 31,13.449 31,14 C31,14.551 31.449,15 32,15 C32.551,15 33,14.551 33,14 C33,13.449 32.551,13 32,13 Z M36,13 C35.449,13 35,13.449 35,14 C35,14.551 35.449,15 36,15 C36.551,15 37,14.551 37,14 C37,13.449 36.551,13 36,13 Z M40,13 C39.449,13 39,13.449 39,14 C39,14.551 39.449,15 40,15 C40.551,15 41,14.551 41,14 C41,13.449 40.551,13 40,13 Z M44,13 C43.449,13 43,13.449 43,14 C43,14.551 43.449,15 44,15 C44.551,15 45,14.551 45,14 C45,13.449 44.551,13 44,13 Z M48,13 C47.449,13 47,13.449 47,14 C47,14.551 47.449,15 48,15 C48.551,15 49,14.551 49,14 C49,13.449 48.551,13 48,13 Z M52,13 C51.449,13 51,13.449 51,14 C51,14.551 51.449,15 52,15 C52.551,15 53,14.551 53,14 C53,13.449 52.551,13 52,13 Z M56,13 C55.449,13 55,13.449 55,14 C55,14.551 55.449,15 56,15 C56.551,15 57,14.551 57,14 C57,13.449 56.551,13 56,13 Z M24,20 L56,20 L56,24 C56,30.961 51.559,36.852 45.363,39.059 L42.719,40 L45.363,40.941 C51.559,43.148 56,49.039 56,56 L56,60 L24,60 L24,56 C24,49.039 28.441,43.148 34.637,40.941 L37.281,40 L34.637,39.059 C28.441,36.852 24,30.961 24,24 L24,20 Z M31,24 C30.449,24 30,24.449 30,25 C30,25.551 30.449,26 31,26 C31.551,26 32,25.551 32,25 C32,24.449 31.551,24 31,24 Z M37,24 C36.449,24 36,24.449 36,25 C36,25.551 36.449,26 37,26 C37.551,26 38,25.551 38,25 C38,24.449 37.551,24 37,24 Z M43,24 C42.449,24 42,24.449 42,25 C42,25.551 42.449,26 43,26 C43.551,26 44,25.551 44,25 C44,24.449 43.551,24 43,24 Z M49,24 C48.449,24 48,24.449 48,25 C48,25.551 48.449,26 49,26 C49.551,26 50,25.551 50,25 C50,24.449 49.551,24 49,24 Z M28,27 C27.449,27 27,27.449 27,28 C27,28.551 27.449,29 28,29 C28.551,29 29,28.551 29,28 C29,27.449 28.551,27 28,27 Z M34,27 C33.449,27 33,27.449 33,28 C33,28.551 33.449,29 34,29 C34.551,29 35,28.551 35,28 C35,27.449 34.551,27 34,27 Z M40,27 C39.449,27 39,27.449 39,28 C39,28.551 39.449,29 40,29 C40.551,29 41,28.551 41,28 C41,27.449 40.551,27 40,27 Z M46,27 C45.449,27 45,27.449 45,28 C45,28.551 45.449,29 46,29 C46.551,29 47,28.551 47,28 C47,27.449 46.551,27 46,27 Z M52,27 C51.449,27 51,27.449 51,28 C51,28.551 51.449,29 52,29 C52.551,29 53,28.551 53,28 C53,27.449 52.551,27 52,27 Z M31,30 C30.449,30 30,30.449 30,31 C30,31.551 30.449,32 31,32 C31.551,32 32,31.551 32,31 C32,30.449 31.551,30 31,30 Z M37,30 C36.449,30 36,30.449 36,31 C36,31.551 36.449,32 37,32 C37.551,32 38,31.551 38,31 C38,30.449 37.551,30 37,30 Z M43,30 C42.449,30 42,30.449 42,31 C42,31.551 42.449,32 43,32 C43.551,32 44,31.551 44,31 C44,30.449 43.551,30 43,30 Z M49,30 C48.449,30 48,30.449 48,31 C48,31.551 48.449,32 49,32 C49.551,32 50,31.551 50,31 C50,30.449 49.551,30 49,30 Z M34,33 C33.449,33 33,33.449 33,34 C33,34.551 33.449,35 34,35 C34.551,35 35,34.551 35,34 C35,33.449 34.551,33 34,33 Z M40,33 C39.449,33 39,33.449 39,34 C39,34.551 39.449,35 40,35 C40.551,35 41,34.551 41,34 C41,33.449 40.551,33 40,33 Z M46,33 C45.449,33 45,33.449 45,34 C45,34.551 45.449,35 46,35 C46.551,35 47,34.551 47,34 C47,33.449 46.551,33 46,33 Z M37,36 C36.449,36 36,36.449 36,37 C36,37.551 36.449,38 37,38 C37.551,38 38,37.551 38,37 C38,36.449 37.551,36 37,36 Z M43,36 C42.449,36 42,36.449 42,37 C42,37.551 42.449,38 43,38 C43.551,38 44,37.551 44,37 C44,36.449 43.551,36 43,36 Z M22,62 L58,62 C58.566,62 59,62.434 59,63 L59,67 L61,67 C61.566,67 62,67.434 62,68 L62,70 L18,70 L18,68 C18,67.434 18.434,67 19,67 L21,67 L21,63 C21,62.434 21.434,62 22,62 Z M24,65 C23.449,65 23,65.449 23,66 C23,66.551 23.449,67 24,67 C24.551,67 25,66.551 25,66 C25,65.449 24.551,65 24,65 Z M28,65 C27.449,65 27,65.449 27,66 C27,66.551 27.449,67 28,67 C28.551,67 29,66.551 29,66 C29,65.449 28.551,65 28,65 Z M32,65 C31.449,65 31,65.449 31,66 C31,66.551 31.449,67 32,67 C32.551,67 33,66.551 33,66 C33,65.449 32.551,65 32,65 Z M36,65 C35.449,65 35,65.449 35,66 C35,66.551 35.449,67 36,67 C36.551,67 37,66.551 37,66 C37,65.449 36.551,65 36,65 Z M40,65 C39.449,65 39,65.449 39,66 C39,66.551 39.449,67 40,67 C40.551,67 41,66.551 41,66 C41,65.449 40.551,65 40,65 Z M44,65 C43.449,65 43,65.449 43,66 C43,66.551 43.449,67 44,67 C44.551,67 45,66.551 45,66 C45,65.449 44.551,65 44,65 Z M48,65 C47.449,65 47,65.449 47,66 C47,66.551 47.449,67 48,67 C48.551,67 49,66.551 49,66 C49,65.449 48.551,65 48,65 Z M52,65 C51.449,65 51,65.449 51,66 C51,66.551 51.449,67 52,67 C52.551,67 53,66.551 53,66 C53,65.449 52.551,65 52,65 Z M56,65 C55.449,65 55,65.449 55,66 C55,66.551 55.449,67 56,67 C56.551,67 57,66.551 57,66 C57,65.449 56.551,65 56,65 Z" id="Fill-1" fill="#373942"></path>
    </g>
</svg>