<?xml version="1.0" encoding="UTF-8"?>
<svg width="80px" height="80px" viewBox="0 0 80 80" version="1.1" xmlns="http://www.w3.org/2000/svg" xmlns:xlink="http://www.w3.org/1999/xlink">
    <!-- Generator: Sketch 52.6 (67491) - http://www.bohemiancoding.com/sketch -->
    <title>icons8-memories</title>
    <desc>Created with Sketch.</desc>
    <g id="icons8-memories" stroke="none" stroke-width="1" fill="none" fill-rule="evenodd">
        <path d="M40.5,6.992 C37.813,7.035 35.117,7.41 32.453,8.125 C28.648,9.145 25.129,10.805 22,13.008 L16.996,8 L13.996,22 L27.996,19 L23.445,14.449 C26.313,12.48 29.516,10.98 32.977,10.055 C40.973,7.914 49.324,9.012 56.496,13.152 C71.297,21.699 76.391,40.695 67.844,55.5 C63.703,62.672 57.02,67.801 49.023,69.945 C41.023,72.086 32.668,70.988 25.5,66.844 C15.566,61.109 10.004,50.668 10.004,39.945 C10.004,39.633 10.023,39.316 10.031,39 L8.023,39 C7.684,50.742 13.629,62.305 24.496,68.578 C32.129,72.984 41.023,74.156 49.539,71.875 C58.051,69.598 65.168,64.133 69.578,56.5 C72.566,51.316 73.992,45.652 73.992,40.055 C73.992,28.645 68.07,17.527 57.496,11.422 C52.246,8.391 46.406,6.891 40.5,6.992 Z M40.996,12 C40.445,12 39.996,12.449 39.996,13 C39.996,13.551 40.445,14 40.996,14 C41.547,14 41.996,13.551 41.996,13 C41.996,12.449 41.547,12 40.996,12 Z M35.727,12.52 C35.176,12.52 34.727,12.969 34.727,13.52 C34.727,14.07 35.176,14.52 35.727,14.52 C36.281,14.52 36.727,14.07 36.727,13.52 C36.727,12.969 36.281,12.52 35.727,12.52 Z M46.266,12.52 C45.711,12.52 45.266,12.969 45.266,13.52 C45.266,14.07 45.711,14.52 46.266,14.52 C46.816,14.52 47.266,14.07 47.266,13.52 C47.266,12.969 46.816,12.52 46.266,12.52 Z M30.664,14.055 C30.109,14.055 29.664,14.504 29.664,15.055 C29.664,15.605 30.109,16.055 30.664,16.055 C31.215,16.055 31.664,15.605 31.664,15.055 C31.664,14.504 31.215,14.055 30.664,14.055 Z M51.328,14.055 C50.777,14.055 50.328,14.504 50.328,15.055 C50.328,15.605 50.777,16.055 51.328,16.055 C51.879,16.055 52.328,15.605 52.328,15.055 C52.328,14.504 51.879,14.055 51.328,14.055 Z M55.992,16.551 C55.441,16.551 54.992,17 54.992,17.551 C54.992,18.102 55.441,18.551 55.992,18.551 C56.547,18.551 56.992,18.102 56.992,17.551 C56.992,17 56.547,16.551 55.992,16.551 Z M60.09,19.906 C59.539,19.906 59.09,20.355 59.09,20.906 C59.09,21.461 59.539,21.906 60.09,21.906 C60.641,21.906 61.09,21.461 61.09,20.906 C61.09,20.355 60.641,19.906 60.09,19.906 Z M63.445,24 C62.895,24 62.445,24.449 62.445,25 C62.445,25.551 62.895,26 63.445,26 C63.996,26 64.445,25.551 64.445,25 C64.445,24.449 63.996,24 63.445,24 Z M65.938,28.668 C65.387,28.668 64.938,29.117 64.938,29.668 C64.938,30.219 65.387,30.668 65.938,30.668 C66.492,30.668 66.938,30.219 66.938,29.668 C66.938,29.117 66.492,28.668 65.938,28.668 Z M34.031,29 C33.762,28.992 33.5,29.094 33.305,29.281 C33.109,29.469 33,29.73 33,30 L33,50 C33,50.359 33.191,50.691 33.504,50.867 C33.816,51.047 34.199,51.043 34.508,50.859 L51.508,40.859 C51.813,40.68 52,40.355 52,40 C52,39.645 51.813,39.32 51.508,39.141 L34.508,29.141 C34.363,29.055 34.199,29.004 34.031,29 Z M35,31.75 L49.027,40 L35,48.25 L35,31.75 Z M67.477,33.734 C66.926,33.734 66.477,34.18 66.477,34.734 C66.477,35.285 66.926,35.734 67.477,35.734 C68.027,35.734 68.477,35.285 68.477,34.734 C68.477,34.18 68.027,33.734 67.477,33.734 Z M13.996,39 C13.445,39 12.996,39.449 12.996,40 C12.996,40.551 13.445,41 13.996,41 C14.547,41 14.996,40.551 14.996,40 C14.996,39.449 14.547,39 13.996,39 Z M67.996,39 C67.445,39 66.996,39.449 66.996,40 C66.996,40.551 67.445,41 67.996,41 C68.547,41 68.996,40.551 68.996,40 C68.996,39.449 68.547,39 67.996,39 Z M14.516,44.266 C13.965,44.266 13.516,44.715 13.516,45.266 C13.516,45.82 13.965,46.266 14.516,46.266 C15.066,46.266 15.516,45.82 15.516,45.266 C15.516,44.715 15.066,44.266 14.516,44.266 Z M67.477,44.266 C66.926,44.266 66.477,44.715 66.477,45.266 C66.477,45.82 66.926,46.266 67.477,46.266 C68.027,46.266 68.477,45.82 68.477,45.266 C68.477,44.715 68.027,44.266 67.477,44.266 Z M16.051,49.332 C15.5,49.332 15.051,49.781 15.051,50.332 C15.051,50.883 15.5,51.332 16.051,51.332 C16.602,51.332 17.051,50.883 17.051,50.332 C17.051,49.781 16.602,49.332 16.051,49.332 Z M65.941,49.332 C65.391,49.332 64.941,49.781 64.941,50.332 C64.941,50.883 65.391,51.332 65.941,51.332 C66.492,51.332 66.941,50.883 66.941,50.332 C66.941,49.781 66.492,49.332 65.941,49.332 Z M18.547,54 C17.992,54 17.547,54.449 17.547,55 C17.547,55.551 17.992,56 18.547,56 C19.098,56 19.547,55.551 19.547,55 C19.547,54.449 19.098,54 18.547,54 Z M63.445,54 C62.895,54 62.445,54.449 62.445,55 C62.445,55.555 62.895,56 63.445,56 C63.996,56 64.445,55.555 64.445,55 C64.445,54.449 63.996,54 63.445,54 Z M21.906,58.094 C21.352,58.094 20.906,58.539 20.906,59.094 C20.906,59.645 21.352,60.094 21.906,60.094 C22.457,60.094 22.906,59.645 22.906,59.094 C22.906,58.539 22.457,58.094 21.906,58.094 Z M60.09,58.094 C59.539,58.094 59.09,58.539 59.09,59.094 C59.09,59.645 59.539,60.094 60.09,60.094 C60.641,60.094 61.09,59.645 61.09,59.094 C61.09,58.539 60.641,58.094 60.09,58.094 Z M25.992,61.449 C25.441,61.449 24.992,61.898 24.992,62.449 C24.992,63 25.441,63.449 25.992,63.449 C26.543,63.449 26.992,63 26.992,62.449 C26.992,61.898 26.543,61.449 25.992,61.449 Z M55.992,61.453 C55.441,61.453 54.992,61.898 54.992,62.453 C54.992,63.004 55.441,63.453 55.992,63.453 C56.547,63.453 56.992,63.004 56.992,62.453 C56.992,61.898 56.547,61.453 55.992,61.453 Z M30.664,63.945 C30.109,63.945 29.664,64.395 29.664,64.945 C29.664,65.496 30.109,65.945 30.664,65.945 C31.215,65.945 31.664,65.496 31.664,64.945 C31.664,64.395 31.215,63.945 30.664,63.945 Z M51.328,63.945 C50.773,63.945 50.328,64.395 50.328,64.945 C50.328,65.496 50.773,65.945 51.328,65.945 C51.879,65.945 52.328,65.496 52.328,64.945 C52.328,64.395 51.879,63.945 51.328,63.945 Z M46.266,65.48 C45.711,65.48 45.266,65.93 45.266,66.48 C45.266,67.031 45.711,67.48 46.266,67.48 C46.816,67.48 47.266,67.031 47.266,66.48 C47.266,65.93 46.816,65.48 46.266,65.48 Z M35.727,65.484 C35.176,65.484 34.727,65.93 34.727,66.484 C34.727,67.035 35.176,67.484 35.727,67.484 C36.281,67.484 36.727,67.035 36.727,66.484 C36.727,65.93 36.281,65.484 35.727,65.484 Z M40.996,66 C40.445,66 39.996,66.449 39.996,67 C39.996,67.551 40.445,68 40.996,68 C41.547,68 41.996,67.551 41.996,67 C41.996,66.449 41.547,66 40.996,66 Z" id="Fill-1" fill="#373942"></path>
    </g>
</svg>