<?xml version="1.0" encoding="UTF-8"?>
<svg width="80px" height="80px" viewBox="0 0 80 80" version="1.1" xmlns="http://www.w3.org/2000/svg" xmlns:xlink="http://www.w3.org/1999/xlink">
    <!-- Generator: Sketch 52.6 (67491) - http://www.bohemiancoding.com/sketch -->
    <title>icons8-conversion</title>
    <desc>Created with Sketch.</desc>
    <g id="icons8-conversion" stroke="none" stroke-width="1" fill="none" fill-rule="evenodd">
        <path d="M13.5,11 C11.578,11 10,12.578 10,14.5 C10,16.422 11.578,18 13.5,18 L13.422,18 L33,40.375 L33,71.5 L47,65.668 L47,40.375 L54.016,32.355 C54.203,36.043 57.266,39 61,39 C64.855,39 68,35.855 68,32 C68,28.145 64.855,25 61,25 C60.809,25 60.617,25.016 60.426,25.031 L66.578,18 L66.5,18 C68.422,18 70,16.422 70,14.5 C70,12.578 68.422,11 66.5,11 L13.5,11 Z M13.5,13 L66.5,13 C67.34,13 68,13.66 68,14.5 C68,15.34 67.34,16 66.5,16 L65.672,16 L56,27.055 C56,27.035 56,27.02 56,27 C56,26.449 55.551,26 55,26 C54.449,26 54,26.449 54,27 C54,27.551 54.449,28 55,28 C55.063,28 55.125,27.996 55.188,27.984 L45,39.625 L45,64.332 L35,68.5 L35,39.625 L24.813,27.984 C24.875,27.996 24.938,28 25,28 C25.551,28 26,27.551 26,27 C26,26.449 25.551,26 25,26 C24.449,26 24,26.449 24,27 C24,27.02 24.004,27.039 24.004,27.059 L14.328,16 L13.5,16 C12.66,16 12,15.34 12,14.5 C12,13.66 12.66,13 13.5,13 Z M18,16 C17.449,16 17,16.449 17,17 C17,17.551 17.449,18 18,18 C18.551,18 19,17.551 19,17 C19,16.449 18.551,16 18,16 Z M22,16 C21.449,16 21,16.449 21,17 C21,17.551 21.449,18 22,18 C22.551,18 23,17.551 23,17 C23,16.449 22.551,16 22,16 Z M26,16 C25.449,16 25,16.449 25,17 C25,17.551 25.449,18 26,18 C26.551,18 27,17.551 27,17 C27,16.449 26.551,16 26,16 Z M30,16 C29.449,16 29,16.449 29,17 C29,17.551 29.449,18 30,18 C30.551,18 31,17.551 31,17 C31,16.449 30.551,16 30,16 Z M34,16 C33.449,16 33,16.449 33,17 C33,17.551 33.449,18 34,18 C34.551,18 35,17.551 35,17 C35,16.449 34.551,16 34,16 Z M38,16 C37.449,16 37,16.449 37,17 C37,17.551 37.449,18 38,18 C38.551,18 39,17.551 39,17 C39,16.449 38.551,16 38,16 Z M42,16 C41.449,16 41,16.449 41,17 C41,17.551 41.449,18 42,18 C42.551,18 43,17.551 43,17 C43,16.449 42.551,16 42,16 Z M46,16 C45.449,16 45,16.449 45,17 C45,17.551 45.449,18 46,18 C46.551,18 47,17.551 47,17 C47,16.449 46.551,16 46,16 Z M50,16 C49.449,16 49,16.449 49,17 C49,17.551 49.449,18 50,18 C50.551,18 51,17.551 51,17 C51,16.449 50.551,16 50,16 Z M54,16 C53.449,16 53,16.449 53,17 C53,17.551 53.449,18 54,18 C54.551,18 55,17.551 55,17 C55,16.449 54.551,16 54,16 Z M58,16 C57.449,16 57,16.449 57,17 C57,17.551 57.449,18 58,18 C58.551,18 59,17.551 59,17 C59,16.449 58.551,16 58,16 Z M62,16 C61.449,16 61,16.449 61,17 C61,17.551 61.449,18 62,18 C62.551,18 63,17.551 63,17 C63,16.449 62.551,16 62,16 Z M31,26 C30.449,26 30,26.449 30,27 C30,27.551 30.449,28 31,28 C31.551,28 32,27.551 32,27 C32,26.449 31.551,26 31,26 Z M37,26 C36.449,26 36,26.449 36,27 C36,27.551 36.449,28 37,28 C37.551,28 38,27.551 38,27 C38,26.449 37.551,26 37,26 Z M43,26 C42.449,26 42,26.449 42,27 C42,27.551 42.449,28 43,28 C43.551,28 44,27.551 44,27 C44,26.449 43.551,26 43,26 Z M49,26 C48.449,26 48,26.449 48,27 C48,27.551 48.449,28 49,28 C49.551,28 50,27.551 50,27 C50,26.449 49.551,26 49,26 Z M61,27 C63.773,27 66,29.227 66,32 C66,34.773 63.773,37 61,37 C58.227,37 56,34.773 56,32 C56,29.227 58.227,27 61,27 Z M28,29 C27.449,29 27,29.449 27,30 C27,30.551 27.449,31 28,31 C28.551,31 29,30.551 29,30 C29,29.449 28.551,29 28,29 Z M34,29 C33.449,29 33,29.449 33,30 C33,30.551 33.449,31 34,31 C34.551,31 35,30.551 35,30 C35,29.449 34.551,29 34,29 Z M40,29 C39.449,29 39,29.449 39,30 C39,30.551 39.449,31 40,31 C40.551,31 41,30.551 41,30 C41,29.449 40.551,29 40,29 Z M46,29 C45.449,29 45,29.449 45,30 C45,30.551 45.449,31 46,31 C46.551,31 47,30.551 47,30 C47,29.449 46.551,29 46,29 Z M52,29 C51.449,29 51,29.449 51,30 C51,30.551 51.449,31 52,31 C52.551,31 53,30.551 53,30 C53,29.449 52.551,29 52,29 Z M31,32 C30.449,32 30,32.449 30,33 C30,33.551 30.449,34 31,34 C31.551,34 32,33.551 32,33 C32,32.449 31.551,32 31,32 Z M37,32 C36.449,32 36,32.449 36,33 C36,33.551 36.449,34 37,34 C37.551,34 38,33.551 38,33 C38,32.449 37.551,32 37,32 Z M43,32 C42.449,32 42,32.449 42,33 C42,33.551 42.449,34 43,34 C43.551,34 44,33.551 44,33 C44,32.449 43.551,32 43,32 Z M49,32 C48.449,32 48,32.449 48,33 C48,33.551 48.449,34 49,34 C49.551,34 50,33.551 50,33 C50,32.449 49.551,32 49,32 Z M34,35 C33.449,35 33,35.449 33,36 C33,36.551 33.449,37 34,37 C34.551,37 35,36.551 35,36 C35,35.449 34.551,35 34,35 Z M40,35 C39.449,35 39,35.449 39,36 C39,36.551 39.449,37 40,37 C40.551,37 41,36.551 41,36 C41,35.449 40.551,35 40,35 Z M46,35 C45.449,35 45,35.449 45,36 C45,36.551 45.449,37 46,37 C46.551,37 47,36.551 47,36 C47,35.449 46.551,35 46,35 Z M37,38 C36.449,38 36,38.449 36,39 C36,39.551 36.449,40 37,40 C37.551,40 38,39.551 38,39 C38,38.449 37.551,38 37,38 Z M43,38 C42.449,38 42,38.449 42,39 C42,39.551 42.449,40 43,40 C43.551,40 44,39.551 44,39 C44,38.449 43.551,38 43,38 Z M40,41 C39.449,41 39,41.449 39,42 C39,42.551 39.449,43 40,43 C40.551,43 41,42.551 41,42 C41,41.449 40.551,41 40,41 Z M37,44 C36.449,44 36,44.449 36,45 C36,45.551 36.449,46 37,46 C37.551,46 38,45.551 38,45 C38,44.449 37.551,44 37,44 Z M43,44 C42.449,44 42,44.449 42,45 C42,45.551 42.449,46 43,46 C43.551,46 44,45.551 44,45 C44,44.449 43.551,44 43,44 Z M40,47 C39.449,47 39,47.449 39,48 C39,48.551 39.449,49 40,49 C40.551,49 41,48.551 41,48 C41,47.449 40.551,47 40,47 Z M37,50 C36.449,50 36,50.449 36,51 C36,51.551 36.449,52 37,52 C37.551,52 38,51.551 38,51 C38,50.449 37.551,50 37,50 Z M43,50 C42.449,50 42,50.449 42,51 C42,51.551 42.449,52 43,52 C43.551,52 44,51.551 44,51 C44,50.449 43.551,50 43,50 Z M40,53 C39.449,53 39,53.449 39,54 C39,54.551 39.449,55 40,55 C40.551,55 41,54.551 41,54 C41,53.449 40.551,53 40,53 Z M37,56 C36.449,56 36,56.449 36,57 C36,57.551 36.449,58 37,58 C37.551,58 38,57.551 38,57 C38,56.449 37.551,56 37,56 Z M43,56 C42.449,56 42,56.449 42,57 C42,57.551 42.449,58 43,58 C43.551,58 44,57.551 44,57 C44,56.449 43.551,56 43,56 Z M40,59 C39.449,59 39,59.449 39,60 C39,60.551 39.449,61 40,61 C40.551,61 41,60.551 41,60 C41,59.449 40.551,59 40,59 Z M37,62 C36.449,62 36,62.449 36,63 C36,63.551 36.449,64 37,64 C37.551,64 38,63.551 38,63 C38,62.449 37.551,62 37,62 Z M43,62 C42.449,62 42,62.449 42,63 C42,63.551 42.449,64 43,64 C43.551,64 44,63.551 44,63 C44,62.449 43.551,62 43,62 Z" id="Fill-1" fill="#373942"></path>
    </g>
</svg>