<?xml version="1.0" encoding="UTF-8"?>
<svg width="80px" height="80px" viewBox="0 0 80 80" version="1.1" xmlns="http://www.w3.org/2000/svg" xmlns:xlink="http://www.w3.org/1999/xlink">
    <!-- Generator: Sketch 52.6 (67491) - http://www.bohemiancoding.com/sketch -->
    <title>icons8-statistics</title>
    <desc>Created with Sketch.</desc>
    <g id="icons8-statistics" stroke="none" stroke-width="1" fill="none" fill-rule="evenodd">
        <path d="M39,9 L39,11 L6,11 C4.906,11 4,11.906 4,13 L4,17 C4,18.094 4.906,19 6,19 L7,19 L7,54 C5.906,54 5,54.906 5,56 L5,59 C5,60.094 5.906,61 7,61 L39,61 L39,61.434 L26.82,70.18 C26.563,70.063 26.281,70 26,70 C24.895,70 24,70.895 24,72 C24,73.105 24.895,74 26,74 C27.105,74 28,73.105 28,72 C28,71.934 27.996,71.867 27.988,71.801 L39,63.895 L39,67 L41,67 L41,63.988 L52.012,71.813 C52.004,71.875 52,71.938 52,72 C52,73.105 52.895,74 54,74 C55.105,74 56,73.105 56,72 C56,70.895 55.105,70 54,70 C53.711,70 53.43,70.063 53.168,70.184 L41,61.535 L41,61 L73,61 C74.094,61 75,60.094 75,59 L75,56 C75,54.906 74.094,54 73,54 L73,19 L74,19 C75.094,19 76,18.094 76,17 L76,13 C76,11.906 75.094,11 74,11 L41,11 L41,9 L39,9 Z M6,13 L74,13 L74,17 L71,17 L71,56 L73,56 L73,59 L7,59 L7,56 L9,56 L9,17 L6,17 L6,13 Z M12,17 C11.449,17 11,17.449 11,18 C11,18.551 11.449,19 12,19 C12.551,19 13,18.551 13,18 C13,17.449 12.551,17 12,17 Z M16,17 C15.449,17 15,17.449 15,18 C15,18.551 15.449,19 16,19 C16.551,19 17,18.551 17,18 C17,17.449 16.551,17 16,17 Z M20,17 C19.449,17 19,17.449 19,18 C19,18.551 19.449,19 20,19 C20.551,19 21,18.551 21,18 C21,17.449 20.551,17 20,17 Z M24,17 C23.449,17 23,17.449 23,18 C23,18.551 23.449,19 24,19 C24.551,19 25,18.551 25,18 C25,17.449 24.551,17 24,17 Z M28,17 C27.449,17 27,17.449 27,18 C27,18.551 27.449,19 28,19 C28.551,19 29,18.551 29,18 C29,17.449 28.551,17 28,17 Z M32,17 C31.449,17 31,17.449 31,18 C31,18.551 31.449,19 32,19 C32.551,19 33,18.551 33,18 C33,17.449 32.551,17 32,17 Z M36,17 C35.449,17 35,17.449 35,18 C35,18.551 35.449,19 36,19 C36.551,19 37,18.551 37,18 C37,17.449 36.551,17 36,17 Z M40,17 C39.449,17 39,17.449 39,18 C39,18.551 39.449,19 40,19 C40.551,19 41,18.551 41,18 C41,17.449 40.551,17 40,17 Z M44,17 C43.449,17 43,17.449 43,18 C43,18.551 43.449,19 44,19 C44.551,19 45,18.551 45,18 C45,17.449 44.551,17 44,17 Z M48,17 C47.449,17 47,17.449 47,18 C47,18.551 47.449,19 48,19 C48.551,19 49,18.551 49,18 C49,17.449 48.551,17 48,17 Z M52,17 C51.449,17 51,17.449 51,18 C51,18.551 51.449,19 52,19 C52.551,19 53,18.551 53,18 C53,17.449 52.551,17 52,17 Z M56,17 C55.449,17 55,17.449 55,18 C55,18.551 55.449,19 56,19 C56.551,19 57,18.551 57,18 C57,17.449 56.551,17 56,17 Z M60,17 C59.449,17 59,17.449 59,18 C59,18.551 59.449,19 60,19 C60.551,19 61,18.551 61,18 C61,17.449 60.551,17 60,17 Z M64,17 C63.449,17 63,17.449 63,18 C63,18.551 63.449,19 64,19 C64.551,19 65,18.551 65,18 C65,17.449 64.551,17 64,17 Z M68,17 C67.449,17 67,17.449 67,18 C67,18.551 67.449,19 68,19 C68.551,19 69,18.551 69,18 C69,17.449 68.551,17 68,17 Z M59,24 C57.895,24 57,24.895 57,26 C57,26.176 57.023,26.348 57.07,26.516 L44.516,39.066 C44.348,39.023 44.176,39 44,39 C43.824,39 43.652,39.023 43.484,39.07 L34.934,30.516 C34.977,30.348 35,30.176 35,30 C35,28.895 34.105,28 33,28 C31.895,28 31,28.895 31,30 C31,30.176 31.023,30.348 31.07,30.516 L20.516,41.066 C20.348,41.023 20.176,41 20,41 C18.895,41 18,41.895 18,43 C18,44.105 18.895,45 20,45 C21.105,45 22,44.105 22,43 C22,42.824 21.977,42.652 21.93,42.484 L32.484,31.934 C32.652,31.977 32.824,32 33,32 C33.176,32 33.348,31.977 33.516,31.93 L42.066,40.484 C42.023,40.652 42,40.824 42,41 C42,42.105 42.895,43 44,43 C45.105,43 46,42.105 46,41 C46,40.824 45.977,40.652 45.93,40.484 L58.484,27.934 C58.652,27.977 58.824,28 59,28 C60.105,28 61,27.105 61,26 C61,24.895 60.105,24 59,24 Z M12,54 C11.449,54 11,54.449 11,55 C11,55.551 11.449,56 12,56 C12.551,56 13,55.551 13,55 C13,54.449 12.551,54 12,54 Z M16,54 C15.449,54 15,54.449 15,55 C15,55.551 15.449,56 16,56 C16.551,56 17,55.551 17,55 C17,54.449 16.551,54 16,54 Z M20,54 C19.449,54 19,54.449 19,55 C19,55.551 19.449,56 20,56 C20.551,56 21,55.551 21,55 C21,54.449 20.551,54 20,54 Z M24,54 C23.449,54 23,54.449 23,55 C23,55.551 23.449,56 24,56 C24.551,56 25,55.551 25,55 C25,54.449 24.551,54 24,54 Z M28,54 C27.449,54 27,54.449 27,55 C27,55.551 27.449,56 28,56 C28.551,56 29,55.551 29,55 C29,54.449 28.551,54 28,54 Z M32,54 C31.449,54 31,54.449 31,55 C31,55.551 31.449,56 32,56 C32.551,56 33,55.551 33,55 C33,54.449 32.551,54 32,54 Z M36,54 C35.449,54 35,54.449 35,55 C35,55.551 35.449,56 36,56 C36.551,56 37,55.551 37,55 C37,54.449 36.551,54 36,54 Z M40,54 C39.449,54 39,54.449 39,55 C39,55.551 39.449,56 40,56 C40.551,56 41,55.551 41,55 C41,54.449 40.551,54 40,54 Z M44,54 C43.449,54 43,54.449 43,55 C43,55.551 43.449,56 44,56 C44.551,56 45,55.551 45,55 C45,54.449 44.551,54 44,54 Z M48,54 C47.449,54 47,54.449 47,55 C47,55.551 47.449,56 48,56 C48.551,56 49,55.551 49,55 C49,54.449 48.551,54 48,54 Z M52,54 C51.449,54 51,54.449 51,55 C51,55.551 51.449,56 52,56 C52.551,56 53,55.551 53,55 C53,54.449 52.551,54 52,54 Z M56,54 C55.449,54 55,54.449 55,55 C55,55.551 55.449,56 56,56 C56.551,56 57,55.551 57,55 C57,54.449 56.551,54 56,54 Z M60,54 C59.449,54 59,54.449 59,55 C59,55.551 59.449,56 60,56 C60.551,56 61,55.551 61,55 C61,54.449 60.551,54 60,54 Z M64,54 C63.449,54 63,54.449 63,55 C63,55.551 63.449,56 64,56 C64.551,56 65,55.551 65,55 C65,54.449 64.551,54 64,54 Z M68,54 C67.449,54 67,54.449 67,55 C67,55.551 67.449,56 68,56 C68.551,56 69,55.551 69,55 C69,54.449 68.551,54 68,54 Z" id="Fill-1" fill="#373942"></path>
    </g>
</svg>