<?xml version="1.0" encoding="UTF-8"?>
<svg width="80px" height="80px" viewBox="0 0 80 80" version="1.1" xmlns="http://www.w3.org/2000/svg" xmlns:xlink="http://www.w3.org/1999/xlink">
    <!-- Generator: Sketch 52.6 (67491) - http://www.bohemiancoding.com/sketch -->
    <title>icons8-queue</title>
    <desc>Created with Sketch.</desc>
    <g id="icons8-queue" stroke="none" stroke-width="1" fill="none" fill-rule="evenodd">
        <path d="M29.938,15 C21.773,15 15.223,23.371 15.223,23.371 L14.465,24.309 L15.527,24.879 C15.527,24.879 15.773,24.98 16.164,25.578 C16.555,26.18 17,27.223 17,29.035 C17,31.875 17.789,34.488 17.98,35.078 C17.684,35.477 17.5,35.965 17.5,36.5 C17.5,37.09 17.668,37.547 17.801,38 C17.867,38.23 17.934,38.441 17.973,38.598 C18.016,38.754 18.02,38.91 18.02,38.75 C18.02,39.965 19.035,40.902 20.223,40.961 C20.656,44.164 22.434,46.926 25,48.625 L25,50.254 C23.719,50.652 20.914,51.578 18.074,52.922 C16.148,53.836 14.211,54.93 12.691,56.234 C11.172,57.539 10,59.121 10,61 L10,65 L52,65 L52,62 L62,62 L62,59 L72,59 L72,55.75 C72,54.23 71.063,52.988 69.895,51.984 C68.727,50.984 67.258,50.156 65.801,49.469 C63.688,48.465 61.984,47.906 61,47.598 L61,46.215 C62.488,44.914 63.512,43.051 63.809,40.949 C64.832,40.871 65.625,40.012 65.625,39 C65.625,39.152 65.625,39.027 65.656,38.906 C65.688,38.785 65.734,38.613 65.781,38.434 C65.879,38.066 66,37.699 66,37.199 C66,37.18 65.996,37.16 65.996,37.141 C66.078,36.832 67,33.32 67,31 C67,26.633 64.004,24.371 61.492,24.105 C61.086,23.57 59.023,21 55,21 C53.836,21 52.73,21.23 51.711,21.598 C50.793,21.258 49.879,21.102 49.074,21.063 C48.875,20.73 48.727,20.355 47.938,19.719 C46.848,18.844 45.086,18 42.57,18 C41.449,18 40.379,18.195 39.371,18.504 C38.719,18.277 38.074,18.141 37.457,18.094 C37.254,17.813 36.988,17.34 36,16.672 C34.738,15.82 32.754,15 29.938,15 Z M29.938,17 C32.375,17 33.922,17.68 34.879,18.328 C35.836,18.977 36.145,19.516 36.145,19.516 L36.438,20 L37,20 C38,20 39.574,20.52 40.809,21.656 C42.043,22.793 43,24.488 43,27 C43,29.238 42.34,32.973 42.145,34.043 C42.098,34.039 42.051,34.027 42,34.027 L42,30.969 C42,28.086 40.809,26.129 39.609,24.973 C38.41,23.82 37.152,23.395 37.152,23.395 L36.578,23.203 L36.141,23.621 C36.141,23.621 35.648,24.109 34.402,24.676 C33.152,25.242 31.219,25.828 28.5,25.828 C26.961,25.828 24.961,26.363 23.215,27.574 C21.469,28.785 20,30.793 20,33.492 L20,34.027 C19.922,34.027 19.844,34.047 19.766,34.055 C19.492,33.066 19,31.035 19,29.035 C19,26.887 18.445,25.414 17.836,24.484 C17.641,24.188 17.594,24.246 17.398,24.047 C18.273,23.051 23.723,17 29.938,17 Z M42.57,20 C44.648,20 45.906,20.656 46.684,21.281 C47.461,21.902 47.703,22.434 47.703,22.434 L47.973,23 L48.605,23 C49.586,23 51.02,23.27 52.102,24.004 C53.184,24.742 54,25.855 54,28 C54,29.859 53.383,32.973 53.172,34.012 C53.137,34.012 53.105,34 53.07,34 C53.012,34 53.043,34.016 53,34.02 L53,32.82 C53,30.332 51.965,28.621 50.922,27.621 C49.879,26.617 48.777,26.246 48.777,26.246 L48.203,26.051 L47.766,26.469 C47.766,26.469 47.523,26.711 46.852,27.078 C46.402,27.32 45.77,27.594 44.973,27.824 C44.984,27.543 45,27.258 45,27 C45,23.965 43.77,21.66 42.16,20.184 C42.102,20.129 42.039,20.082 41.977,20.027 C42.172,20.012 42.371,20 42.57,20 Z M55,23 C58.43,23 60.176,25.566 60.176,25.566 L60.473,26 L61,26 C62.348,26 65,27.324 65,31 C65,32.129 64.676,33.801 64.391,35.121 C64.266,35.086 64.137,35.063 64,35.055 L64,34.402 C64,32.215 63.137,30.695 62.254,29.797 C61.375,28.902 60.418,28.559 60.418,28.559 L59.82,28.344 L59.375,28.797 C59.375,28.797 59.102,29.086 58.344,29.469 C57.766,29.754 56.941,30.063 55.848,30.223 C55.938,29.445 56,28.672 56,28 C56,25.816 55.195,24.176 54.078,23.066 C54.383,23.027 54.688,23 55,23 Z M36.828,25.5 C37.055,25.59 37.5,25.723 38.223,26.418 C39.109,27.266 40,28.617 40,30.969 L40,37.215 L41.504,36.328 C41.699,36.219 41.867,36.125 42,36.055 C42.281,36.098 42.5,36.266 42.5,36.5 C42.5,36.516 42.406,37.008 42.281,37.438 C42.215,37.656 42.152,37.871 42.094,38.074 C42.039,38.277 41.98,38.414 41.98,38.75 C41.98,38.875 41.879,39 41.676,39 L40.023,39 L39.98,39.953 C39.789,44.168 36.672,47.605 32.59,48.328 L32.309,48.379 L32.094,48.574 C31.797,48.84 31.426,49 31,49 C30.574,49 30.203,48.84 29.906,48.574 L29.691,48.379 L29.41,48.328 C25.328,47.605 22.211,44.168 22.02,39.953 L21.977,39 L20.324,39 C20.121,39 20.02,38.875 20.02,38.75 C20.02,38.414 19.961,38.277 19.906,38.074 C19.848,37.871 19.785,37.656 19.719,37.438 C19.594,37.008 19.5,36.516 19.5,36.5 C19.5,36.266 19.719,36.098 20,36.055 C20.133,36.125 20.301,36.219 20.496,36.328 L22,37.215 L22,33.492 C22,31.488 22.996,30.16 24.355,29.219 C25.715,28.273 27.469,27.828 28.5,27.828 C31.508,27.828 33.738,27.172 35.227,26.5 C36.266,26.027 36.496,25.766 36.828,25.5 Z M48.484,28.371 C48.707,28.465 48.988,28.535 49.535,29.063 C50.266,29.762 51,30.863 51,32.82 L51,37.535 L52.566,36.465 C52.777,36.316 52.977,36.188 53.137,36.09 C53.273,36.137 53.438,36.223 53.438,36.5 C53.438,36.551 53.352,37.039 53.238,37.469 C53.184,37.688 53.129,37.902 53.078,38.105 C53.031,38.309 52.98,38.445 52.98,38.75 C52.98,38.945 52.879,39 52.844,39 L51,39 L51,40.113 C51,43.781 48.34,46.809 44.828,47.434 L44.543,47.484 L44.328,47.672 C44.102,47.879 43.82,48 43.5,48 C43.18,48 42.898,47.879 42.672,47.672 L42.457,47.48 L42.172,47.434 C41.188,47.258 40.27,46.891 39.457,46.375 C40.68,44.855 41.5,42.996 41.777,40.961 C42.965,40.902 43.98,39.965 43.98,38.75 C43.98,38.91 43.984,38.754 44.027,38.598 C44.066,38.441 44.133,38.23 44.199,38 C44.332,37.547 44.5,37.09 44.5,36.5 C44.5,35.953 44.313,35.461 44.004,35.059 C44.035,34.898 44.516,32.418 44.797,29.926 C46.086,29.637 47.098,29.219 47.809,28.832 C48.238,28.602 48.258,28.543 48.484,28.371 Z M60.09,30.68 C60.273,30.77 60.434,30.797 60.828,31.203 C61.406,31.789 62,32.719 62,34.402 L62,38.375 L63.559,37.34 C63.699,37.242 63.82,37.168 63.938,37.094 C63.965,37.125 64,37.117 64,37.199 C64,37.184 63.938,37.578 63.848,37.922 C63.801,38.094 63.754,38.266 63.715,38.434 C63.672,38.598 63.625,38.707 63.625,39 L62.02,39 L61.988,39.969 C61.895,43.031 59.773,45.5 57.051,46.012 L56.762,46.063 L56.547,46.266 C56.383,46.422 56.203,46.5 56,46.5 C55.797,46.5 55.617,46.422 55.453,46.266 L55.238,46.063 L54.949,46.012 C53.77,45.789 52.719,45.184 51.879,44.336 C52.387,43.313 52.723,42.191 52.84,41 L52.844,41 C54.063,41 54.98,39.934 54.98,38.75 C54.98,38.879 54.988,38.727 55.027,38.566 C55.063,38.406 55.121,38.195 55.176,37.969 C55.293,37.516 55.438,37.055 55.438,36.5 C55.438,35.98 55.277,35.488 55.004,35.078 C55.031,34.957 55.297,33.75 55.547,32.254 C57.141,32.098 58.383,31.684 59.238,31.254 C59.781,30.98 59.824,30.887 60.09,30.68 Z M26.5,35 C25.672,35 25,35.672 25,36.5 C25,37.328 25.672,38 26.5,38 C27.328,38 28,37.328 28,36.5 C28,35.672 27.328,35 26.5,35 Z M35.5,35 C34.672,35 34,35.672 34,36.5 C34,37.328 34.672,38 35.5,38 C36.328,38 37,37.328 37,36.5 C37,35.672 36.328,35 35.5,35 Z M47,35.75 C46.309,35.75 45.75,36.309 45.75,37 C45.75,37.691 46.309,38.25 47,38.25 C47.691,38.25 48.25,37.691 48.25,37 C48.25,36.309 47.691,35.75 47,35.75 Z M59,37 C58.449,37 58,37.449 58,38 C58,38.551 58.449,39 59,39 C59.551,39 60,38.551 60,38 C60,37.449 59.551,37 59,37 Z M50.77,46.066 C51.77,46.965 52.984,47.613 54.328,47.914 C54.789,48.266 55.367,48.5 56,48.5 C56.633,48.5 57.207,48.27 57.672,47.918 C58.137,47.813 58.574,47.656 59,47.473 L59,49.105 C58.902,49.316 58.109,51 56,51 L54.414,51 C51.891,49.848 49.922,49.215 49,48.938 L49,47.758 C49.664,47.273 50.258,46.707 50.77,46.066 Z M38.051,47.824 C39.09,48.543 40.277,49.07 41.566,49.336 C42.105,49.742 42.77,50 43.5,50 C44.223,50 44.883,49.746 45.422,49.348 C45.969,49.234 46.496,49.07 47,48.871 L47,50.777 C46.91,50.977 46.078,52.707 43.984,52.953 C43.965,52.941 43.945,52.934 43.926,52.922 C41.086,51.578 38.281,50.652 37,50.254 L37,48.625 C37.367,48.383 37.715,48.109 38.051,47.824 Z M27,49.668 C27.578,49.895 28.184,50.078 28.809,50.207 C29.418,50.676 30.164,51 31,51 C31.836,51 32.582,50.676 33.191,50.207 C33.816,50.078 34.422,49.895 35,49.668 L35,52.449 C34.902,52.668 33.828,55 31,55 C28.172,55 27.098,52.668 27,52.449 L27,49.668 Z M60.957,49.684 C62.012,50.035 63.402,50.543 64.949,51.273 C66.305,51.918 67.648,52.695 68.59,53.504 C69.531,54.313 70,55.094 70,55.75 L70,57 L61.754,57 C61.371,55.898 60.563,54.938 59.602,54.109 C59.02,53.609 58.363,53.152 57.676,52.723 C59.941,51.945 60.918,49.781 60.918,49.781 L60.957,49.684 Z M49,51.031 C50.203,51.418 51.922,52.016 54,53 L54.004,53 C54.008,53 54.008,53 54.012,53 C55.602,53.758 57.18,54.664 58.297,55.625 C59.414,56.59 60,57.539 60,58.375 L60,60 L51.875,60 C51.711,59.285 51.391,58.617 50.949,58 C50.965,58 50.984,58 51,58 C51.551,58 52,57.551 52,57 C52,56.449 51.551,56 51,56 C50.492,56 50.063,56.383 50.004,56.891 C49.781,56.664 49.555,56.445 49.309,56.234 C48.445,55.492 47.441,54.824 46.387,54.215 C48.145,53.172 48.918,51.453 48.918,51.453 L49,51.266 L49,51.031 Z M25,52.359 L25,52.938 L25.082,53.125 C25.082,53.125 26.816,57 31,57 C35.184,57 36.918,53.125 36.918,53.125 L37,52.938 L37,52.359 C38.375,52.805 40.68,53.598 43.074,54.73 C43.215,54.797 43.355,54.875 43.5,54.945 L43.5,55 C43.535,55 43.566,54.996 43.598,54.996 C45.242,55.805 46.836,56.746 48.004,57.75 C49.297,58.863 50,59.984 50,61 L50,63 L12,63 L12,61 C12,59.984 12.703,58.863 13.996,57.75 C15.289,56.641 17.102,55.598 18.926,54.73 C21.32,53.598 23.625,52.805 25,52.359 Z M63,53 C62.449,53 62,53.449 62,54 C62,54.551 62.449,55 63,55 C63.551,55 64,54.551 64,54 C64,53.449 63.551,53 63,53 Z M55,56 C54.449,56 54,56.449 54,57 C54,57.551 54.449,58 55,58 C55.551,58 56,57.551 56,57 C56,56.449 55.551,56 55,56 Z M17,59 C16.449,59 16,59.449 16,60 C16,60.551 16.449,61 17,61 C17.551,61 18,60.551 18,60 C18,59.449 17.551,59 17,59 Z M21,59 C20.449,59 20,59.449 20,60 C20,60.551 20.449,61 21,61 C21.551,61 22,60.551 22,60 C22,59.449 21.551,59 21,59 Z M25,59 C24.449,59 24,59.449 24,60 C24,60.551 24.449,61 25,61 C25.551,61 26,60.551 26,60 C26,59.449 25.551,59 25,59 Z M29,59 C28.449,59 28,59.449 28,60 C28,60.551 28.449,61 29,61 C29.551,61 30,60.551 30,60 C30,59.449 29.551,59 29,59 Z M33,59 C32.449,59 32,59.449 32,60 C32,60.551 32.449,61 33,61 C33.551,61 34,60.551 34,60 C34,59.449 33.551,59 33,59 Z M37,59 C36.449,59 36,59.449 36,60 C36,60.551 36.449,61 37,61 C37.551,61 38,60.551 38,60 C38,59.449 37.551,59 37,59 Z M41,59 C40.449,59 40,59.449 40,60 C40,60.551 40.449,61 41,61 C41.551,61 42,60.551 42,60 C42,59.449 41.551,59 41,59 Z M45,59 C44.449,59 44,59.449 44,60 C44,60.551 44.449,61 45,61 C45.551,61 46,60.551 46,60 C46,59.449 45.551,59 45,59 Z" id="Fill-1" fill="#373942"></path>
    </g>
</svg>