<?xml version="1.0" encoding="UTF-8"?>
<svg width="80px" height="80px" viewBox="0 0 80 80" version="1.1" xmlns="http://www.w3.org/2000/svg" xmlns:xlink="http://www.w3.org/1999/xlink">
    <!-- Generator: Sketch 52.6 (67491) - http://www.bohemiancoding.com/sketch -->
    <title>icons8-upgrade</title>
    <desc>Created with Sketch.</desc>
    <g id="icons8-upgrade" stroke="none" stroke-width="1" fill="none" fill-rule="evenodd">
        <path d="M40,7 C21.785,7 7,21.785 7,40 C7,58.215 21.785,73 40,73 C58.215,73 73,58.215 73,40 C73,21.785 58.215,7 40,7 Z M40,9 C57.133,9 71,22.867 71,40 C71,57.133 57.133,71 40,71 C22.867,71 9,57.133 9,40 C9,22.867 22.867,9 40,9 Z M40,12 C39.449,12 39,12.449 39,13 C39,13.551 39.449,14 40,14 C40.551,14 41,13.551 41,13 C41,12.449 40.551,12 40,12 Z M34.734,12.52 C34.18,12.52 33.734,12.969 33.734,13.52 C33.734,14.07 34.18,14.52 34.734,14.52 C35.285,14.52 35.734,14.07 35.734,13.52 C35.734,12.969 35.285,12.52 34.734,12.52 Z M45.266,12.52 C44.715,12.52 44.266,12.969 44.266,13.52 C44.266,14.07 44.715,14.52 45.266,14.52 C45.82,14.52 46.266,14.07 46.266,13.52 C46.266,12.969 45.82,12.52 45.266,12.52 Z M29.668,14.055 C29.117,14.055 28.668,14.504 28.668,15.055 C28.668,15.605 29.117,16.055 29.668,16.055 C30.219,16.055 30.668,15.605 30.668,15.055 C30.668,14.504 30.219,14.055 29.668,14.055 Z M50.332,14.055 C49.781,14.055 49.332,14.504 49.332,15.055 C49.332,15.605 49.781,16.055 50.332,16.055 C50.883,16.055 51.332,15.605 51.332,15.055 C51.332,14.504 50.883,14.055 50.332,14.055 Z M25,16.551 C24.449,16.551 24,17 24,17.551 C24,18.102 24.449,18.551 25,18.551 C25.551,18.551 26,18.102 26,17.551 C26,17 25.551,16.551 25,16.551 Z M55,16.551 C54.449,16.551 54,17 54,17.551 C54,18.102 54.449,18.551 55,18.551 C55.551,18.551 56,18.102 56,17.551 C56,17 55.551,16.551 55,16.551 Z M20.906,19.906 C20.355,19.906 19.906,20.355 19.906,20.906 C19.906,21.461 20.355,21.906 20.906,21.906 C21.461,21.906 21.906,21.461 21.906,20.906 C21.906,20.355 21.461,19.906 20.906,19.906 Z M59.094,19.906 C58.539,19.906 58.094,20.355 58.094,20.906 C58.094,21.461 58.539,21.906 59.094,21.906 C59.645,21.906 60.094,21.461 60.094,20.906 C60.094,20.355 59.645,19.906 59.094,19.906 Z M40,21.531 L39.266,22.32 L25.609,37.023 L31,42.414 L36,37.414 L36,56 L44,56 L44,37.414 L49,42.414 L54.391,37.023 L40,21.531 Z M17.551,24 C17,24 16.551,24.449 16.551,25 C16.551,25.551 17,26 17.551,26 C18.102,26 18.551,25.551 18.551,25 C18.551,24.449 18.102,24 17.551,24 Z M62.449,24 C61.898,24 61.449,24.449 61.449,25 C61.449,25.551 61.898,26 62.449,26 C63,26 63.449,25.551 63.449,25 C63.449,24.449 63,24 62.449,24 Z M40,24.469 L51.609,36.977 L49,39.586 L42,32.586 L42,54 L38,54 L38,32.586 L31,39.586 L28.391,36.977 L40,24.469 Z M15.055,28.668 C14.504,28.668 14.055,29.117 14.055,29.668 C14.055,30.219 14.504,30.668 15.055,30.668 C15.605,30.668 16.055,30.219 16.055,29.668 C16.055,29.117 15.605,28.668 15.055,28.668 Z M64.945,28.668 C64.395,28.668 63.945,29.117 63.945,29.668 C63.945,30.219 64.395,30.668 64.945,30.668 C65.496,30.668 65.945,30.219 65.945,29.668 C65.945,29.117 65.496,28.668 64.945,28.668 Z M13.52,33.734 C12.969,33.734 12.52,34.18 12.52,34.734 C12.52,35.285 12.969,35.734 13.52,35.734 C14.07,35.734 14.52,35.285 14.52,34.734 C14.52,34.18 14.07,33.734 13.52,33.734 Z M66.48,33.734 C65.93,33.734 65.48,34.18 65.48,34.734 C65.48,35.285 65.93,35.734 66.48,35.734 C67.031,35.734 67.48,35.285 67.48,34.734 C67.48,34.18 67.031,33.734 66.48,33.734 Z M13,39 C12.449,39 12,39.449 12,40 C12,40.551 12.449,41 13,41 C13.551,41 14,40.551 14,40 C14,39.449 13.551,39 13,39 Z M67,39 C66.449,39 66,39.449 66,40 C66,40.551 66.449,41 67,41 C67.551,41 68,40.551 68,40 C68,39.449 67.551,39 67,39 Z M13.52,44.266 C12.969,44.266 12.52,44.715 12.52,45.266 C12.52,45.82 12.969,46.266 13.52,46.266 C14.07,46.266 14.52,45.82 14.52,45.266 C14.52,44.715 14.07,44.266 13.52,44.266 Z M66.48,44.266 C65.93,44.266 65.48,44.715 65.48,45.266 C65.48,45.82 65.93,46.266 66.48,46.266 C67.031,46.266 67.48,45.82 67.48,45.266 C67.48,44.715 67.031,44.266 66.48,44.266 Z M15.055,49.332 C14.504,49.332 14.055,49.781 14.055,50.332 C14.055,50.883 14.504,51.332 15.055,51.332 C15.605,51.332 16.055,50.883 16.055,50.332 C16.055,49.781 15.605,49.332 15.055,49.332 Z M64.945,49.332 C64.395,49.332 63.945,49.781 63.945,50.332 C63.945,50.883 64.395,51.332 64.945,51.332 C65.496,51.332 65.945,50.883 65.945,50.332 C65.945,49.781 65.496,49.332 64.945,49.332 Z M17.551,54 C17,54 16.551,54.449 16.551,55 C16.551,55.551 17,56 17.551,56 C18.102,56 18.551,55.551 18.551,55 C18.551,54.449 18.102,54 17.551,54 Z M62.449,54 C61.898,54 61.449,54.449 61.449,55 C61.449,55.551 61.898,56 62.449,56 C63,56 63.449,55.551 63.449,55 C63.449,54.449 63,54 62.449,54 Z M20.906,58.094 C20.355,58.094 19.906,58.539 19.906,59.094 C19.906,59.645 20.355,60.094 20.906,60.094 C21.461,60.094 21.906,59.645 21.906,59.094 C21.906,58.539 21.461,58.094 20.906,58.094 Z M59.094,58.094 C58.539,58.094 58.094,58.539 58.094,59.094 C58.094,59.645 58.539,60.094 59.094,60.094 C59.645,60.094 60.094,59.645 60.094,59.094 C60.094,58.539 59.645,58.094 59.094,58.094 Z M25,61.449 C24.449,61.449 24,61.898 24,62.449 C24,63 24.449,63.449 25,63.449 C25.551,63.449 26,63 26,62.449 C26,61.898 25.551,61.449 25,61.449 Z M55,61.449 C54.449,61.449 54,61.898 54,62.449 C54,63 54.449,63.449 55,63.449 C55.551,63.449 56,63 56,62.449 C56,61.898 55.551,61.449 55,61.449 Z M29.668,63.945 C29.117,63.945 28.668,64.395 28.668,64.945 C28.668,65.496 29.117,65.945 29.668,65.945 C30.219,65.945 30.668,65.496 30.668,64.945 C30.668,64.395 30.219,63.945 29.668,63.945 Z M50.332,63.945 C49.781,63.945 49.332,64.395 49.332,64.945 C49.332,65.496 49.781,65.945 50.332,65.945 C50.883,65.945 51.332,65.496 51.332,64.945 C51.332,64.395 50.883,63.945 50.332,63.945 Z M34.734,65.48 C34.18,65.48 33.734,65.93 33.734,66.48 C33.734,67.031 34.18,67.48 34.734,67.48 C35.285,67.48 35.734,67.031 35.734,66.48 C35.734,65.93 35.285,65.48 34.734,65.48 Z M45.266,65.48 C44.715,65.48 44.266,65.93 44.266,66.48 C44.266,67.031 44.715,67.48 45.266,67.48 C45.82,67.48 46.266,67.031 46.266,66.48 C46.266,65.93 45.82,65.48 45.266,65.48 Z M40,66 C39.449,66 39,66.449 39,67 C39,67.551 39.449,68 40,68 C40.551,68 41,67.551 41,67 C41,66.449 40.551,66 40,66 Z" id="Fill-1" fill="#373942"></path>
    </g>
</svg>