<?xml version="1.0" encoding="UTF-8"?>
<svg width="80px" height="80px" viewBox="0 0 80 80" version="1.1" xmlns="http://www.w3.org/2000/svg" xmlns:xlink="http://www.w3.org/1999/xlink">
    <!-- Generator: Sketch 52.6 (67491) - http://www.bohemiancoding.com/sketch -->
    <title>icons8-flow-chart</title>
    <desc>Created with Sketch.</desc>
    <g id="icons8-flow-chart" stroke="none" stroke-width="1" fill="none" fill-rule="evenodd">
        <path d="M31,12 C30.449,12 30,12.449 30,13 L30,29 C30,29.551 30.449,30 31,30 L39,30 C39,30.551 39.449,31 40,31 C40.551,31 41,30.551 41,30 L49,30 C49.551,30 50,29.551 50,29 L50,13 C50,12.449 49.551,12 49,12 L31,12 Z M32,14 L48,14 L48,28 L32,28 L32,14 Z M40,33 C39.449,33 39,33.449 39,34 C39,34.551 39.449,35 40,35 C40.551,35 41,34.551 41,34 C41,33.449 40.551,33 40,33 Z M16,37 C15.449,37 15,37.449 15,38 C15,38.551 15.449,39 16,39 C16.551,39 17,38.551 17,38 C17,37.449 16.551,37 16,37 Z M20,37 C19.449,37 19,37.449 19,38 C19,38.551 19.449,39 20,39 C20.551,39 21,38.551 21,38 C21,37.449 20.551,37 20,37 Z M24,37 C23.449,37 23,37.449 23,38 C23,38.551 23.449,39 24,39 C24.551,39 25,38.551 25,38 C25,37.449 24.551,37 24,37 Z M28,37 C27.449,37 27,37.449 27,38 C27,38.551 27.449,39 28,39 C28.551,39 29,38.551 29,38 C29,37.449 28.551,37 28,37 Z M32,37 C31.449,37 31,37.449 31,38 C31,38.551 31.449,39 32,39 C32.551,39 33,38.551 33,38 C33,37.449 32.551,37 32,37 Z M36,37 C35.449,37 35,37.449 35,38 C35,38.551 35.449,39 36,39 C36.551,39 37,38.551 37,38 C37,37.449 36.551,37 36,37 Z M40,37 C39.449,37 39,37.449 39,38 C39,38.551 39.449,39 40,39 C40.551,39 41,38.551 41,38 C41,37.449 40.551,37 40,37 Z M44,37 C43.449,37 43,37.449 43,38 C43,38.551 43.449,39 44,39 C44.551,39 45,38.551 45,38 C45,37.449 44.551,37 44,37 Z M48,37 C47.449,37 47,37.449 47,38 C47,38.551 47.449,39 48,39 C48.551,39 49,38.551 49,38 C49,37.449 48.551,37 48,37 Z M52,37 C51.449,37 51,37.449 51,38 C51,38.551 51.449,39 52,39 C52.551,39 53,38.551 53,38 C53,37.449 52.551,37 52,37 Z M56,37 C55.449,37 55,37.449 55,38 C55,38.551 55.449,39 56,39 C56.551,39 57,38.551 57,38 C57,37.449 56.551,37 56,37 Z M60,37 C59.449,37 59,37.449 59,38 C59,38.551 59.449,39 60,39 C60.551,39 61,38.551 61,38 C61,37.449 60.551,37 60,37 Z M64,37 C63.449,37 63,37.449 63,38 C63,38.551 63.449,39 64,39 C64.551,39 65,38.551 65,38 C65,37.449 64.551,37 64,37 Z M16,41 C15.449,41 15,41.449 15,42 C15,42.551 15.449,43 16,43 C16.551,43 17,42.551 17,42 C17,41.449 16.551,41 16,41 Z M40,41 C39.449,41 39,41.449 39,42 C39,42.551 39.449,43 40,43 C40.551,43 41,42.551 41,42 C41,41.449 40.551,41 40,41 Z M64,41 C63.449,41 63,41.449 63,42 C63,42.551 63.449,43 64,43 C64.551,43 65,42.551 65,42 C65,41.449 64.551,41 64,41 Z M16,45 C15.449,45 15,45.449 15,46 C15,46.551 15.449,47 16,47 C16.551,47 17,46.551 17,46 C17,45.449 16.551,45 16,45 Z M40,45 C39.449,45 39,45.449 39,46 C39,46.551 39.449,47 40,47 C40.551,47 41,46.551 41,46 C41,45.449 40.551,45 40,45 Z M64,45 C63.449,45 63,45.449 63,46 C63,46.551 63.449,47 64,47 C64.551,47 65,46.551 65,46 C65,45.449 64.551,45 64,45 Z M16,49 C15.449,49 15,49.449 15,50 L7,50 C6.449,50 6,50.449 6,51 L6,67 C6,67.551 6.449,68 7,68 L25,68 C25.551,68 26,67.551 26,67 L26,51 C26,50.449 25.551,50 25,50 L17,50 C17,49.449 16.551,49 16,49 Z M40,49 C39.449,49 39,49.449 39,50 L31,50 C30.449,50 30,50.449 30,51 L30,67 C30,67.551 30.449,68 31,68 L49,68 C49.551,68 50,67.551 50,67 L50,51 C50,50.449 49.551,50 49,50 L41,50 C41,49.449 40.551,49 40,49 Z M64,49 C63.449,49 63,49.449 63,50 L55,50 C54.449,50 54,50.449 54,51 L54,67 C54,67.551 54.449,68 55,68 L73,68 C73.551,68 74,67.551 74,67 L74,51 C74,50.449 73.551,50 73,50 L65,50 C65,49.449 64.551,49 64,49 Z M8,52 L24,52 L24,66 L8,66 L8,52 Z M32,52 L48,52 L48,66 L32,66 L32,52 Z M56,52 L72,52 L72,66 L56,66 L56,52 Z" id="Fill-1" fill="#373942"></path>
    </g>
</svg>