<?xml version="1.0" encoding="UTF-8"?>
<svg width="80px" height="80px" viewBox="0 0 80 80" version="1.1" xmlns="http://www.w3.org/2000/svg" xmlns:xlink="http://www.w3.org/1999/xlink">
    <!-- Generator: Sketch 52.6 (67491) - http://www.bohemiancoding.com/sketch -->
    <title>icons8-presentation</title>
    <desc>Created with Sketch.</desc>
    <g id="icons8-presentation" stroke="none" stroke-width="1" fill="none" fill-rule="evenodd">
        <path d="M6,12 C4.906,12 4,12.906 4,14 L4,18 C4,19.094 4.906,20 6,20 L7,20 L7,64 C7,65.094 7.906,66 9,66 L39,66 L39,70.27 C38.383,70.625 38,71.285 38,72 C38,73.105 38.895,74 40,74 C41.105,74 42,73.105 42,72 C42,71.285 41.617,70.629 41,70.273 L41,66 L71,66 C72.094,66 73,65.094 73,64 L73,20 L74,20 C75.094,20 76,19.094 76,18 L76,14 C76,12.906 75.094,12 74,12 L6,12 Z M6,14 L74,14 L74,18 L71,18 L71,64 L9,64 L9,18 L6,18 L6,14 Z M12,18 C11.449,18 11,18.449 11,19 C11,19.551 11.449,20 12,20 C12.551,20 13,19.551 13,19 C13,18.449 12.551,18 12,18 Z M16,18 C15.449,18 15,18.449 15,19 C15,19.551 15.449,20 16,20 C16.551,20 17,19.551 17,19 C17,18.449 16.551,18 16,18 Z M20,18 C19.449,18 19,18.449 19,19 C19,19.551 19.449,20 20,20 C20.551,20 21,19.551 21,19 C21,18.449 20.551,18 20,18 Z M24,18 C23.449,18 23,18.449 23,19 C23,19.551 23.449,20 24,20 C24.551,20 25,19.551 25,19 C25,18.449 24.551,18 24,18 Z M28,18 C27.449,18 27,18.449 27,19 C27,19.551 27.449,20 28,20 C28.551,20 29,19.551 29,19 C29,18.449 28.551,18 28,18 Z M32,18 C31.449,18 31,18.449 31,19 C31,19.551 31.449,20 32,20 C32.551,20 33,19.551 33,19 C33,18.449 32.551,18 32,18 Z M36,18 C35.449,18 35,18.449 35,19 C35,19.551 35.449,20 36,20 C36.551,20 37,19.551 37,19 C37,18.449 36.551,18 36,18 Z M40,18 C39.449,18 39,18.449 39,19 C39,19.551 39.449,20 40,20 C40.551,20 41,19.551 41,19 C41,18.449 40.551,18 40,18 Z M44,18 C43.449,18 43,18.449 43,19 C43,19.551 43.449,20 44,20 C44.551,20 45,19.551 45,19 C45,18.449 44.551,18 44,18 Z M48,18 C47.449,18 47,18.449 47,19 C47,19.551 47.449,20 48,20 C48.551,20 49,19.551 49,19 C49,18.449 48.551,18 48,18 Z M52,18 C51.449,18 51,18.449 51,19 C51,19.551 51.449,20 52,20 C52.551,20 53,19.551 53,19 C53,18.449 52.551,18 52,18 Z M56,18 C55.449,18 55,18.449 55,19 C55,19.551 55.449,20 56,20 C56.551,20 57,19.551 57,19 C57,18.449 56.551,18 56,18 Z M60,18 C59.449,18 59,18.449 59,19 C59,19.551 59.449,20 60,20 C60.551,20 61,19.551 61,19 C61,18.449 60.551,18 60,18 Z M64,18 C63.449,18 63,18.449 63,19 C63,19.551 63.449,20 64,20 C64.551,20 65,19.551 65,19 C65,18.449 64.551,18 64,18 Z M68,18 C67.449,18 67,18.449 67,19 C67,19.551 67.449,20 68,20 C68.551,20 69,19.551 69,19 C69,18.449 68.551,18 68,18 Z M28,27 L28,38 L39,38 L39,37 C39,31.488 34.512,27 29,27 L28,27 Z M30,29.203 C33.59,29.668 36.332,32.41 36.797,36 L30,36 L30,29.203 Z M25,30 C18.938,30 14,34.938 14,41 C14,47.063 18.938,52 25,52 C31.063,52 36,47.063 36,41 L36,40 L26,40 L26,30 L25,30 Z M45,30 L45,32 L65.93,32 L65.93,30 L45,30 Z M24,32.203 L24,42 L33.797,42 C33.281,46.484 29.629,50 25,50 C20.016,50 16,45.984 16,41 C16,36.371 19.516,32.719 24,32.203 Z M45,36 L45,38 L62,38 L62,36 L45,36 Z M45,42 L45,44 L65.93,44 L65.93,42 L45,42 Z M45,48 L45,50 L62,50 L62,48 L45,48 Z M12,59 C11.449,59 11,59.449 11,60 C11,60.551 11.449,61 12,61 C12.551,61 13,60.551 13,60 C13,59.449 12.551,59 12,59 Z M16,59 C15.449,59 15,59.449 15,60 C15,60.551 15.449,61 16,61 C16.551,61 17,60.551 17,60 C17,59.449 16.551,59 16,59 Z M20,59 C19.449,59 19,59.449 19,60 C19,60.551 19.449,61 20,61 C20.551,61 21,60.551 21,60 C21,59.449 20.551,59 20,59 Z M24,59 C23.449,59 23,59.449 23,60 C23,60.551 23.449,61 24,61 C24.551,61 25,60.551 25,60 C25,59.449 24.551,59 24,59 Z M28,59 C27.449,59 27,59.449 27,60 C27,60.551 27.449,61 28,61 C28.551,61 29,60.551 29,60 C29,59.449 28.551,59 28,59 Z M32,59 C31.449,59 31,59.449 31,60 C31,60.551 31.449,61 32,61 C32.551,61 33,60.551 33,60 C33,59.449 32.551,59 32,59 Z M36,59 C35.449,59 35,59.449 35,60 C35,60.551 35.449,61 36,61 C36.551,61 37,60.551 37,60 C37,59.449 36.551,59 36,59 Z M40,59 C39.449,59 39,59.449 39,60 C39,60.551 39.449,61 40,61 C40.551,61 41,60.551 41,60 C41,59.449 40.551,59 40,59 Z M44,59 C43.449,59 43,59.449 43,60 C43,60.551 43.449,61 44,61 C44.551,61 45,60.551 45,60 C45,59.449 44.551,59 44,59 Z M48,59 C47.449,59 47,59.449 47,60 C47,60.551 47.449,61 48,61 C48.551,61 49,60.551 49,60 C49,59.449 48.551,59 48,59 Z M52,59 C51.449,59 51,59.449 51,60 C51,60.551 51.449,61 52,61 C52.551,61 53,60.551 53,60 C53,59.449 52.551,59 52,59 Z M56,59 C55.449,59 55,59.449 55,60 C55,60.551 55.449,61 56,61 C56.551,61 57,60.551 57,60 C57,59.449 56.551,59 56,59 Z M60,59 C59.449,59 59,59.449 59,60 C59,60.551 59.449,61 60,61 C60.551,61 61,60.551 61,60 C61,59.449 60.551,59 60,59 Z M64,59 C63.449,59 63,59.449 63,60 C63,60.551 63.449,61 64,61 C64.551,61 65,60.551 65,60 C65,59.449 64.551,59 64,59 Z M68,59 C67.449,59 67,59.449 67,60 C67,60.551 67.449,61 68,61 C68.551,61 69,60.551 69,60 C69,59.449 68.551,59 68,59 Z" id="Fill-1" fill="#373942"></path>
    </g>
</svg>