<?xml version="1.0" encoding="UTF-8"?>
<svg width="80px" height="80px" viewBox="0 0 80 80" version="1.1" xmlns="http://www.w3.org/2000/svg" xmlns:xlink="http://www.w3.org/1999/xlink">
    <!-- Generator: Sketch 52.6 (67491) - http://www.bohemiancoding.com/sketch -->
    <title>icons8-clothes</title>
    <desc>Created with Sketch.</desc>
    <g id="icons8-clothes" stroke="none" stroke-width="1" fill="none" fill-rule="evenodd">
        <path d="M24.141,10 C21.227,10 18.426,11.16 16.363,13.223 L2.586,27 L13,37.414 L19,31.414 L19,70 L61,70 L61,31.414 L67,37.414 L77.414,27 L63.637,13.223 C61.574,11.16 58.773,10 55.859,10 L24.141,10 Z M24.141,12 L30,12 C30,12.551 30.449,13 31,13 C31.551,13 32,12.551 32,12 L48,12 C48,12.512 48.391,12.941 48.902,12.996 C48.934,12.996 48.965,13 49,13 C49.551,13 50,12.551 50,12 L55.859,12 C56.973,12 58.063,12.215 59.082,12.609 C59.027,12.73 59,12.863 59,13 C59,13.551 59.449,14 60,14 C60.352,14 60.676,13.816 60.855,13.516 C61.344,13.84 61.801,14.215 62.223,14.637 L74.586,27 L67,34.586 L59,26.586 L59,68 L21,68 L21,26.586 L13,34.586 L5.414,27 L17.777,14.637 C18.199,14.215 18.656,13.84 19.145,13.516 C19.324,13.816 19.648,14 20,14 C20.551,14 21,13.551 21,13 C21,12.863 20.973,12.73 20.922,12.605 C21.941,12.215 23.031,12 24.141,12 Z M21,64 C21,64.551 21.449,65 22,65 C22.551,65 23,64.551 23,64 C23,63.449 22.551,63 22,63 C21.449,63 21,63.449 21,64 Z M59,64 C59,63.449 58.551,63 58,63 C57.449,63 57,63.449 57,64 C57,64.551 57.449,65 58,65 C58.551,65 59,64.551 59,64 Z M32.184,15.5 C32.016,15.504 31.852,15.551 31.703,15.633 C31.477,15.766 31.309,15.984 31.238,16.242 C31.172,16.496 31.207,16.77 31.34,17 C31.617,17.477 32.227,17.641 32.703,17.363 C33.184,17.09 33.348,16.477 33.074,16 C32.891,15.684 32.547,15.492 32.184,15.5 Z M47.746,15.5 C47.613,15.508 47.48,15.543 47.359,15.598 C47.332,15.613 47.301,15.629 47.273,15.645 C47.129,15.734 47.012,15.855 46.926,16 C46.652,16.48 46.816,17.09 47.293,17.367 C47.523,17.5 47.797,17.535 48.051,17.469 C48.309,17.398 48.527,17.23 48.66,17 C48.793,16.773 48.828,16.5 48.762,16.242 C48.691,15.984 48.523,15.766 48.293,15.637 C48.129,15.539 47.938,15.492 47.746,15.5 Z M20,16 C19.449,16 19,16.449 19,17 C19,17.551 19.449,18 20,18 C20.551,18 21,17.551 21,17 C21,16.449 20.551,16 20,16 Z M60,16 C59.449,16 59,16.449 59,17 C59,17.551 59.449,18 60,18 C60.551,18 61,17.551 61,17 C61,16.449 60.551,16 60,16 Z M44.473,18.793 C44.34,18.797 44.211,18.824 44.09,18.879 C44.059,18.895 44.027,18.91 44,18.926 C43.52,19.203 43.355,19.816 43.633,20.293 C43.797,20.578 44.094,20.766 44.422,20.793 C44.453,20.793 44.488,20.793 44.52,20.793 C44.688,20.789 44.852,20.742 45,20.66 C45.227,20.527 45.395,20.309 45.465,20.051 C45.535,19.797 45.5,19.523 45.363,19.293 C45.184,18.977 44.84,18.785 44.473,18.793 Z M35.453,18.797 C35.109,18.813 34.801,19 34.633,19.297 C34.355,19.773 34.523,20.383 35,20.66 C35.477,20.938 36.09,20.773 36.363,20.297 C36.5,20.066 36.535,19.793 36.465,19.535 C36.398,19.277 36.23,19.059 36,18.926 C35.832,18.832 35.645,18.785 35.453,18.797 Z M20,20 C19.449,20 19,20.449 19,21 C19,21.551 19.449,22 20,22 C20.551,22 21,21.551 21,21 C21,20.449 20.551,20 20,20 Z M40,20 C39.449,20 39,20.449 39,21 C39,21.551 39.449,22 40,22 C40.551,22 41,21.551 41,21 C41,20.449 40.551,20 40,20 Z M60,20 C59.449,20 59,20.449 59,21 C59,21.551 59.449,22 60,22 C60.551,22 61,21.551 61,21 C61,20.449 60.551,20 60,20 Z M20,24 C19.449,24 19,24.449 19,25 C19,25.551 19.449,26 20,26 C20.551,26 21,25.551 21,25 C21,24.449 20.551,24 20,24 Z M60,24 C59.449,24 59,24.449 59,25 C59,25.551 59.449,26 60,26 C60.551,26 61,25.551 61,25 C61,24.449 60.551,24 60,24 Z M26,63 C25.449,63 25,63.449 25,64 C25,64.551 25.449,65 26,65 C26.551,65 27,64.551 27,64 C27,63.449 26.551,63 26,63 Z M30,63 C29.449,63 29,63.449 29,64 C29,64.551 29.449,65 30,65 C30.551,65 31,64.551 31,64 C31,63.449 30.551,63 30,63 Z M34,63 C33.449,63 33,63.449 33,64 C33,64.551 33.449,65 34,65 C34.551,65 35,64.551 35,64 C35,63.449 34.551,63 34,63 Z M38,63 C37.449,63 37,63.449 37,64 C37,64.551 37.449,65 38,65 C38.551,65 39,64.551 39,64 C39,63.449 38.551,63 38,63 Z M42,63 C41.449,63 41,63.449 41,64 C41,64.551 41.449,65 42,65 C42.551,65 43,64.551 43,64 C43,63.449 42.551,63 42,63 Z M46,63 C45.449,63 45,63.449 45,64 C45,64.551 45.449,65 46,65 C46.551,65 47,64.551 47,64 C47,63.449 46.551,63 46,63 Z M50,63 C49.449,63 49,63.449 49,64 C49,64.551 49.449,65 50,65 C50.551,65 51,64.551 51,64 C51,63.449 50.551,63 50,63 Z M54,63 C53.449,63 53,63.449 53,64 C53,64.551 53.449,65 54,65 C54.551,65 55,64.551 55,64 C55,63.449 54.551,63 54,63 Z" id="Fill-1" fill="#373942"></path>
    </g>
</svg>